<?xml version="1.0" encoding="utf-8" standalone="no"?>
<!DOCTYPE svg PUBLIC "-//W3C//DTD SVG 1.1//EN"
  "http://www.w3.org/Graphics/SVG/1.1/DTD/svg11.dtd">
<svg xmlns:xlink="http://www.w3.org/1999/xlink" width="576pt" height="144pt" viewBox="0 0 576 144" xmlns="http://www.w3.org/2000/svg" version="1.1">
 <metadata>
  <rdf:RDF xmlns:dc="http://purl.org/dc/elements/1.1/" xmlns:cc="http://creativecommons.org/ns#" xmlns:rdf="http://www.w3.org/1999/02/22-rdf-syntax-ns#">
   <cc:Work>
    <dc:type rdf:resource="http://purl.org/dc/dcmitype/StillImage"/>
    <dc:date>2024-11-12T15:17:09.782537</dc:date>
    <dc:format>image/svg+xml</dc:format>
    <dc:creator>
     <cc:Agent>
      <dc:title>Matplotlib v3.9.2, https://matplotlib.org/</dc:title>
     </cc:Agent>
    </dc:creator>
   </cc:Work>
  </rdf:RDF>
 </metadata>
 <defs>
  <style type="text/css">*{stroke-linejoin: round; stroke-linecap: butt}</style>
 </defs>
 <g id="figure_1">
  <g id="patch_1">
   <path d="M 0 144 
L 576 144 
L 576 0 
L 0 0 
z
" style="fill: #ffffff"/>
  </g>
  <g id="axes_1">
   <g id="patch_2">
    <path d="M 60.6 101.94 
L 557.989313 101.94 
L 557.989313 33.36 
L 60.6 33.36 
z
" style="fill: #ffffff"/>
   </g>
   <g id="PolyCollection_1">
    <defs>
     <path id="m8bd4a0f32f" d="M 84.152876 -63.795831 
L 84.152876 -47.020379 
L 85.100833 -45.941577 
L 86.048791 -46.140729 
L 86.996748 -47.498659 
L 87.944706 -48.436789 
L 88.892664 -49.325873 
L 89.840621 -49.851642 
L 90.788579 -48.598648 
L 91.736537 -48.934347 
L 92.684494 -48.440324 
L 93.632452 -47.466215 
L 94.580409 -45.46224 
L 95.528367 -45.25197 
L 96.476325 -45.820813 
L 97.424282 -46.821962 
L 98.37224 -46.856815 
L 99.320198 -47.935133 
L 100.268155 -47.494711 
L 101.216113 -49.009556 
L 102.16407 -49.666631 
L 103.112028 -49.954258 
L 104.059986 -49.040929 
L 105.007943 -49.193602 
L 105.955901 -50.717643 
L 106.903859 -49.309549 
L 107.851816 -49.188897 
L 108.799774 -46.960817 
L 109.747732 -47.512393 
L 110.695689 -47.3102 
L 111.643647 -47.830957 
L 112.591604 -47.716381 
L 113.539562 -47.410927 
L 114.48752 -48.556662 
L 115.435477 -48.73938 
L 116.383435 -49.215882 
L 117.331393 -47.969699 
L 118.27935 -46.700449 
L 119.227308 -48.421133 
L 120.175265 -47.492671 
L 121.123223 -46.328761 
L 122.071181 -44.972209 
L 123.019138 -45.311209 
L 123.967096 -48.042117 
L 124.915054 -48.326816 
L 125.863011 -49.797502 
L 126.810969 -48.319765 
L 127.758927 -48.907985 
L 128.706884 -47.82286 
L 129.654842 -46.515062 
L 130.602799 -47.214195 
L 131.550757 -48.620689 
L 132.498715 -49.042936 
L 133.446672 -49.12268 
L 134.39463 -48.876253 
L 135.342588 -49.080063 
L 136.290545 -48.80581 
L 137.238503 -49.36363 
L 138.18646 -49.105474 
L 139.134418 -48.28695 
L 140.082376 -48.53502 
L 141.030333 -49.136787 
L 141.978291 -49.274559 
L 142.926249 -50.041565 
L 143.874206 -48.303432 
L 144.822164 -51.671647 
L 145.770122 -50.520739 
L 146.718079 -49.609595 
L 147.666037 -48.38295 
L 148.613994 -46.667384 
L 149.561952 -47.160337 
L 150.50991 -48.058235 
L 151.457867 -48.249244 
L 152.405825 -47.762375 
L 153.353783 -47.701484 
L 154.30174 -48.537487 
L 155.249698 -48.64513 
L 156.197655 -49.173402 
L 157.145613 -49.468526 
L 158.093571 -49.126766 
L 159.041528 -48.638474 
L 159.989486 -48.196853 
L 160.937444 -48.935331 
L 161.885401 -48.011084 
L 162.833359 -46.730338 
L 163.781316 -48.548692 
L 164.729274 -50.063787 
L 165.677232 -49.802918 
L 166.625189 -48.52715 
L 167.573147 -50.5414 
L 168.521105 -49.973162 
L 169.469062 -48.652493 
L 170.41702 -48.857415 
L 171.364978 -48.454867 
L 172.312935 -48.907708 
L 173.260893 -48.817148 
L 174.20885 -49.663178 
L 175.156808 -51.031898 
L 176.104766 -52.549206 
L 177.052723 -52.196311 
L 178.000681 -50.934168 
L 178.948639 -49.792883 
L 179.896596 -47.755938 
L 180.844554 -46.796699 
L 181.792511 -47.893284 
L 182.740469 -48.337179 
L 183.688427 -49.447342 
L 184.636384 -49.399396 
L 185.584342 -50.649461 
L 186.5323 -48.889775 
L 187.480257 -47.714081 
L 188.428215 -47.07176 
L 189.376173 -46.063606 
L 190.32413 -47.160692 
L 191.272088 -47.351509 
L 192.220045 -48.288139 
L 193.168003 -49.40101 
L 194.115961 -51.459742 
L 195.063918 -50.926908 
L 196.011876 -50.063821 
L 196.959834 -48.500917 
L 197.907791 -48.780125 
L 198.855749 -48.694042 
L 199.803706 -48.469883 
L 200.751664 -48.132627 
L 201.699622 -47.033166 
L 202.647579 -46.547621 
L 203.595537 -46.386683 
L 204.543495 -47.168828 
L 205.491452 -48.032297 
L 206.43941 -48.293968 
L 207.387367 -48.270667 
L 208.335325 -47.857668 
L 209.283283 -48.112668 
L 210.23124 -48.099337 
L 211.179198 -48.681525 
L 212.127156 -46.871419 
L 213.075113 -47.254735 
L 214.023071 -48.717474 
L 214.971029 -49.05893 
L 215.918986 -49.274473 
L 216.866944 -48.032124 
L 217.814901 -47.337331 
L 218.762859 -46.51633 
L 219.710817 -47.172809 
L 220.658774 -47.977898 
L 221.606732 -48.757234 
L 222.55469 -49.787076 
L 223.502647 -50.698044 
L 224.450605 -50.679119 
L 225.398562 -51.286491 
L 226.34652 -49.600551 
L 227.294478 -49.492621 
L 228.242435 -49.391441 
L 229.190393 -48.409567 
L 230.138351 -49.362352 
L 231.086308 -49.300225 
L 232.034266 -49.453406 
L 232.982224 -47.996135 
L 233.930181 -47.763429 
L 234.878139 -48.426453 
L 235.826096 -50.59109 
L 236.774054 -51.44762 
L 237.722012 -49.693517 
L 238.669969 -48.150325 
L 239.617927 -48.364636 
L 240.565885 -47.876718 
L 241.513842 -47.911596 
L 242.4618 -46.753266 
L 243.409757 -46.974477 
L 244.357715 -47.144705 
L 245.305673 -48.798978 
L 246.25363 -49.083113 
L 247.201588 -48.557078 
L 248.149546 -48.483178 
L 249.097503 -49.164324 
L 250.045461 -48.960617 
L 250.993419 -47.592006 
L 251.941376 -47.068743 
L 252.889334 -48.524976 
L 253.837291 -48.818157 
L 254.785249 -48.414236 
L 255.733207 -48.709908 
L 256.681164 -48.818054 
L 257.629122 -47.734418 
L 258.57708 -47.534194 
L 259.525037 -47.369045 
L 260.472995 -47.523083 
L 261.420952 -48.098579 
L 262.36891 -47.089626 
L 263.316868 -46.655235 
L 264.264825 -46.996261 
L 265.212783 -47.178413 
L 266.160741 -48.317657 
L 267.108698 -49.299874 
L 268.056656 -49.746984 
L 269.004613 -48.242758 
L 269.952571 -47.931721 
L 270.900529 -46.880918 
L 271.848486 -48.8068 
L 272.796444 -49.945814 
L 273.744402 -50.321872 
L 274.692359 -50.377867 
L 275.640317 -50.671165 
L 276.588275 -49.011692 
L 277.536232 -48.444652 
L 278.48419 -50.024108 
L 279.432147 -50.872877 
L 280.380105 -49.987834 
L 281.328063 -49.260272 
L 282.27602 -48.384186 
L 283.223978 -46.131618 
L 284.171936 -47.317711 
L 285.119893 -47.635175 
L 286.067851 -48.668531 
L 287.015808 -48.949915 
L 287.963766 -48.445161 
L 288.911724 -47.701682 
L 289.859681 -48.971468 
L 290.807639 -49.924888 
L 291.755597 -50.78174 
L 292.703554 -50.30437 
L 293.651512 -48.725201 
L 294.59947 -49.094399 
L 295.547427 -49.536604 
L 296.495385 -49.386548 
L 297.443342 -49.819158 
L 298.3913 -50.346663 
L 299.339258 -50.344315 
L 300.287215 -50.052515 
L 301.235173 -48.901594 
L 302.183131 -47.660218 
L 303.131088 -48.779175 
L 304.079046 -48.837914 
L 305.027003 -50.375798 
L 305.974961 -49.852437 
L 306.922919 -49.516187 
L 307.870876 -49.242326 
L 308.818834 -48.804671 
L 309.766792 -49.443433 
L 310.714749 -48.238619 
L 311.662707 -48.67981 
L 312.610664 -48.66769 
L 313.558622 -49.056333 
L 314.50658 -49.330737 
L 315.454537 -48.680424 
L 316.402495 -48.090249 
L 317.350453 -47.522906 
L 318.29841 -47.702835 
L 319.246368 -47.484923 
L 320.194326 -49.135767 
L 321.142283 -50.207239 
L 322.090241 -51.420995 
L 323.038198 -49.286009 
L 323.986156 -48.193256 
L 324.934114 -49.634342 
L 325.882071 -50.121575 
L 326.830029 -49.689807 
L 327.777987 -48.674729 
L 328.725944 -48.057946 
L 329.673902 -47.413211 
L 330.621859 -49.133028 
L 331.569817 -49.019462 
L 332.517775 -49.549418 
L 333.465732 -49.530311 
L 334.41369 -49.528791 
L 335.361648 -49.669309 
L 336.309605 -48.434057 
L 337.257563 -48.631773 
L 338.205521 -48.856297 
L 339.153478 -49.515304 
L 340.101436 -49.054113 
L 341.049393 -47.199624 
L 341.997351 -46.324522 
L 342.945309 -46.892391 
L 343.893266 -48.810668 
L 344.841224 -49.735931 
L 345.789182 -49.26913 
L 346.737139 -49.266018 
L 347.685097 -47.470684 
L 348.633054 -47.427149 
L 349.581012 -50.520288 
L 350.52897 -50.859151 
L 351.476927 -49.429561 
L 352.424885 -48.515989 
L 353.372843 -47.635461 
L 354.3208 -48.513462 
L 355.268758 -48.941378 
L 356.216716 -49.443961 
L 357.164673 -49.108029 
L 358.112631 -48.962547 
L 359.060588 -49.687804 
L 360.008546 -50.416051 
L 360.956504 -49.838697 
L 361.904461 -49.472483 
L 362.852419 -48.459546 
L 363.800377 -48.219858 
L 364.748334 -48.536099 
L 365.696292 -49.193035 
L 366.644249 -48.464321 
L 367.592207 -47.418928 
L 368.540165 -47.490165 
L 369.488122 -47.52872 
L 370.43608 -48.029903 
L 371.384038 -47.999817 
L 372.331995 -48.27052 
L 373.279953 -47.828083 
L 374.22791 -48.840914 
L 375.175868 -49.045254 
L 376.123826 -49.763619 
L 377.071783 -50.037462 
L 378.019741 -48.864346 
L 378.967699 -48.677741 
L 379.915656 -47.785378 
L 380.863614 -48.065296 
L 381.811572 -48.360829 
L 382.759529 -49.531802 
L 383.707487 -49.707421 
L 384.655444 -48.495916 
L 385.603402 -48.052109 
L 386.55136 -48.032654 
L 387.499317 -48.303622 
L 388.447275 -47.182845 
L 389.395233 -48.51523 
L 390.34319 -48.138525 
L 391.291148 -47.463717 
L 392.239105 -47.795323 
L 393.187063 -47.741733 
L 394.135021 -48.607329 
L 395.082978 -48.914594 
L 396.030936 -49.284177 
L 396.978894 -48.402606 
L 397.926851 -49.710516 
L 398.874809 -51.280841 
L 399.822767 -50.30624 
L 400.770724 -49.642536 
L 401.718682 -48.233407 
L 402.666639 -48.635561 
L 403.614597 -47.755492 
L 404.562555 -47.515033 
L 405.510512 -47.467939 
L 406.45847 -48.326702 
L 407.406428 -48.671941 
L 408.354385 -48.569711 
L 409.302343 -48.92243 
L 410.2503 -50.330507 
L 411.198258 -48.760691 
L 412.146216 -47.40637 
L 413.094173 -46.729073 
L 414.042131 -47.615659 
L 414.990089 -48.227465 
L 415.938046 -48.858391 
L 416.886004 -50.636899 
L 417.833961 -49.670576 
L 418.781919 -49.185984 
L 419.729877 -47.467304 
L 420.677834 -46.451889 
L 421.625792 -45.857336 
L 422.57375 -46.005843 
L 423.521707 -46.299329 
L 424.469665 -46.792362 
L 425.417623 -48.983741 
L 426.36558 -48.355353 
L 427.313538 -49.197701 
L 428.261495 -48.871007 
L 429.209453 -46.949165 
L 430.157411 -48.062971 
L 431.105368 -49.394877 
L 432.053326 -50.552421 
L 433.001284 -50.661091 
L 433.949241 -49.422489 
L 434.897199 -48.267034 
L 435.845156 -48.594764 
L 436.793114 -47.688629 
L 437.741072 -47.97331 
L 438.689029 -45.916976 
L 439.636987 -46.141779 
L 440.584945 -46.269548 
L 441.532902 -47.11308 
L 442.48086 -46.526218 
L 443.428818 -47.306145 
L 444.376775 -46.977027 
L 445.324733 -47.079958 
L 446.27269 -48.354974 
L 447.220648 -48.371736 
L 448.168606 -48.213253 
L 449.116563 -46.149268 
L 450.064521 -46.276617 
L 451.012479 -47.036843 
L 451.960436 -48.185783 
L 452.908394 -48.666223 
L 453.856351 -48.480477 
L 454.804309 -48.732652 
L 455.752267 -48.543908 
L 456.700224 -48.155194 
L 457.648182 -48.902083 
L 458.59614 -48.159477 
L 459.544097 -48.055972 
L 460.492055 -47.881367 
L 461.440013 -47.853079 
L 462.38797 -46.701784 
L 463.335928 -47.757722 
L 464.283885 -47.220091 
L 465.231843 -48.459542 
L 466.179801 -48.691246 
L 467.127758 -48.884071 
L 468.075716 -48.114839 
L 469.023674 -47.647378 
L 469.971631 -46.962723 
L 470.919589 -46.902468 
L 471.867546 -46.236663 
L 472.815504 -46.567901 
L 473.763462 -46.890924 
L 474.711419 -48.095416 
L 475.659377 -48.766166 
L 476.607335 -47.74878 
L 477.555292 -47.441111 
L 478.50325 -49.041466 
L 479.451207 -49.751005 
L 480.399165 -49.672507 
L 481.347123 -48.905047 
L 482.29508 -47.882101 
L 483.243038 -47.207854 
L 484.190996 -47.454396 
L 485.138953 -47.150649 
L 486.086911 -48.285504 
L 487.034869 -48.682646 
L 487.982826 -47.425254 
L 488.930784 -46.206799 
L 489.878741 -46.980947 
L 490.826699 -47.314568 
L 491.774657 -47.478584 
L 492.722614 -48.355096 
L 493.670572 -49.069081 
L 494.61853 -50.92579 
L 495.566487 -50.260428 
L 496.514445 -50.073332 
L 497.462402 -47.601227 
L 498.41036 -46.652256 
L 499.358318 -47.002793 
L 500.306275 -46.934814 
L 501.254233 -46.673022 
L 502.202191 -49.045442 
L 503.150148 -50.004904 
L 504.098106 -49.839722 
L 505.046064 -48.350748 
L 505.994021 -47.688251 
L 506.941979 -46.954969 
L 507.889936 -47.120464 
L 508.837894 -47.614198 
L 509.785852 -47.653209 
L 510.733809 -47.453881 
L 511.681767 -48.199411 
L 512.629725 -48.533774 
L 513.577682 -49.087814 
L 514.52564 -50.281853 
L 515.473597 -49.805371 
L 516.421555 -47.343899 
L 517.369513 -47.8469 
L 518.31747 -50.216335 
L 519.265428 -50.505479 
L 520.213386 -51.004502 
L 521.161343 -49.130489 
L 522.109301 -48.581605 
L 523.057259 -49.27736 
L 524.005216 -52.436444 
L 524.953174 -52.76167 
L 525.901131 -53.06141 
L 526.849089 -50.010217 
L 527.797047 -49.477303 
L 528.745004 -47.101388 
L 529.692962 -48.990377 
L 530.64092 -47.65125 
L 531.588877 -46.148086 
L 532.536835 -43.834479 
L 533.484792 -42.853611 
L 534.43275 -42.808731 
L 535.380708 -42.808731 
L 535.380708 -47.149134 
L 535.380708 -47.149134 
L 534.43275 -47.149134 
L 533.484792 -47.150032 
L 532.536835 -48.049094 
L 531.588877 -50.680413 
L 530.64092 -52.292498 
L 529.692962 -52.628668 
L 528.745004 -53.567924 
L 527.797047 -56.938895 
L 526.849089 -57.151536 
L 525.901131 -59.596037 
L 524.953174 -56.583302 
L 524.005216 -56.163379 
L 523.057259 -55.033478 
L 522.109301 -54.69741 
L 521.161343 -55.541229 
L 520.213386 -55.794314 
L 519.265428 -56.405509 
L 518.31747 -54.961059 
L 517.369513 -54.368489 
L 516.421555 -54.782496 
L 515.473597 -55.605807 
L 514.52564 -55.057717 
L 513.577682 -55.113688 
L 512.629725 -52.151109 
L 511.681767 -51.167522 
L 510.733809 -51.532211 
L 509.785852 -53.496972 
L 508.837894 -55.191643 
L 507.889936 -55.786785 
L 506.941979 -54.723579 
L 505.994021 -55.047915 
L 505.046064 -58.580453 
L 504.098106 -59.293088 
L 503.150148 -56.216622 
L 502.202191 -52.991519 
L 501.254233 -52.664323 
L 500.306275 -52.643823 
L 499.358318 -53.16854 
L 498.41036 -55.194101 
L 497.462402 -56.042736 
L 496.514445 -59.196663 
L 495.566487 -59.809656 
L 494.61853 -60.738969 
L 493.670572 -55.805755 
L 492.722614 -53.754406 
L 491.774657 -52.391509 
L 490.826699 -51.717018 
L 489.878741 -52.04221 
L 488.930784 -54.198365 
L 487.982826 -56.82465 
L 487.034869 -58.788147 
L 486.086911 -58.082112 
L 485.138953 -55.984364 
L 484.190996 -53.213763 
L 483.243038 -52.139815 
L 482.29508 -53.028906 
L 481.347123 -54.178663 
L 480.399165 -55.169494 
L 479.451207 -54.268642 
L 478.50325 -55.300042 
L 477.555292 -56.091717 
L 476.607335 -56.868312 
L 475.659377 -55.125446 
L 474.711419 -56.054737 
L 473.763462 -54.680445 
L 472.815504 -51.277707 
L 471.867546 -51.340868 
L 470.919589 -51.208911 
L 469.971631 -52.389652 
L 469.023674 -52.993163 
L 468.075716 -53.543955 
L 467.127758 -54.943984 
L 466.179801 -52.971562 
L 465.231843 -53.9842 
L 464.283885 -51.604154 
L 463.335928 -51.369231 
L 462.38797 -51.871839 
L 461.440013 -52.610356 
L 460.492055 -52.209518 
L 459.544097 -51.966749 
L 458.59614 -52.938537 
L 457.648182 -52.695546 
L 456.700224 -52.633953 
L 455.752267 -53.841162 
L 454.804309 -55.606795 
L 453.856351 -57.363995 
L 452.908394 -56.145046 
L 451.960436 -54.360274 
L 451.012479 -55.082008 
L 450.064521 -54.615777 
L 449.116563 -53.65542 
L 448.168606 -53.172749 
L 447.220648 -51.853136 
L 446.27269 -51.85553 
L 445.324733 -50.575864 
L 444.376775 -51.348561 
L 443.428818 -51.773244 
L 442.48086 -51.758371 
L 441.532902 -51.592312 
L 440.584945 -52.971409 
L 439.636987 -55.200743 
L 438.689029 -54.533651 
L 437.741072 -53.537804 
L 436.793114 -54.011616 
L 435.845156 -55.236137 
L 434.897199 -56.1885 
L 433.949241 -57.362964 
L 433.001284 -57.2733 
L 432.053326 -55.220664 
L 431.105368 -53.545212 
L 430.157411 -52.065718 
L 429.209453 -54.302627 
L 428.261495 -55.005594 
L 427.313538 -56.961901 
L 426.36558 -57.104677 
L 425.417623 -55.239319 
L 424.469665 -54.369771 
L 423.521707 -53.72716 
L 422.57375 -50.802248 
L 421.625792 -53.146835 
L 420.677834 -55.253358 
L 419.729877 -57.522889 
L 418.781919 -59.497761 
L 417.833961 -58.386316 
L 416.886004 -58.484731 
L 415.938046 -56.088431 
L 414.990089 -55.800976 
L 414.042131 -54.430869 
L 413.094173 -56.162837 
L 412.146216 -58.389489 
L 411.198258 -57.233813 
L 410.2503 -55.027345 
L 409.302343 -52.364386 
L 408.354385 -52.292723 
L 407.406428 -53.554602 
L 406.45847 -55.066621 
L 405.510512 -55.072506 
L 404.562555 -52.726948 
L 403.614597 -53.329362 
L 402.666639 -53.799053 
L 401.718682 -54.180628 
L 400.770724 -55.563977 
L 399.822767 -55.988348 
L 398.874809 -56.214861 
L 397.926851 -54.931122 
L 396.978894 -54.808223 
L 396.030936 -54.543081 
L 395.082978 -56.1746 
L 394.135021 -57.038208 
L 393.187063 -57.255256 
L 392.239105 -56.09575 
L 391.291148 -57.380773 
L 390.34319 -55.27169 
L 389.395233 -56.653009 
L 388.447275 -56.044317 
L 387.499317 -57.810075 
L 386.55136 -55.821726 
L 385.603402 -57.35284 
L 384.655444 -56.605883 
L 383.707487 -59.456832 
L 382.759529 -60.550939 
L 381.811572 -58.731251 
L 380.863614 -56.173214 
L 379.915656 -55.908345 
L 378.967699 -56.346278 
L 378.019741 -57.213584 
L 377.071783 -58.628823 
L 376.123826 -62.167883 
L 375.175868 -59.189358 
L 374.22791 -54.745437 
L 373.279953 -52.571248 
L 372.331995 -52.892994 
L 371.384038 -54.006594 
L 370.43608 -53.132932 
L 369.488122 -53.22066 
L 368.540165 -52.704576 
L 367.592207 -54.279445 
L 366.644249 -54.64376 
L 365.696292 -55.704145 
L 364.748334 -55.663939 
L 363.800377 -55.526562 
L 362.852419 -55.918152 
L 361.904461 -55.992966 
L 360.956504 -56.880069 
L 360.008546 -55.162343 
L 359.060588 -56.758785 
L 358.112631 -56.508595 
L 357.164673 -55.766921 
L 356.216716 -54.037887 
L 355.268758 -53.029172 
L 354.3208 -53.874487 
L 353.372843 -52.939359 
L 352.424885 -56.050422 
L 351.476927 -58.524616 
L 350.52897 -58.925921 
L 349.581012 -56.278386 
L 348.633054 -54.485655 
L 347.685097 -52.711072 
L 346.737139 -52.970753 
L 345.789182 -54.247518 
L 344.841224 -55.127317 
L 343.893266 -54.535833 
L 342.945309 -55.802876 
L 341.997351 -57.053261 
L 341.049393 -58.370444 
L 340.101436 -56.447301 
L 339.153478 -59.054907 
L 338.205521 -55.97309 
L 337.257563 -56.485482 
L 336.309605 -53.765142 
L 335.361648 -57.75383 
L 334.41369 -57.438525 
L 333.465732 -57.690854 
L 332.517775 -56.071463 
L 331.569817 -55.817479 
L 330.621859 -54.020319 
L 329.673902 -53.90068 
L 328.725944 -56.871041 
L 327.777987 -57.4349 
L 326.830029 -57.923311 
L 325.882071 -57.36312 
L 324.934114 -56.050875 
L 323.986156 -57.569319 
L 323.038198 -54.805224 
L 322.090241 -57.041761 
L 321.142283 -57.293844 
L 320.194326 -57.001445 
L 319.246368 -54.677361 
L 318.29841 -54.147101 
L 317.350453 -53.666001 
L 316.402495 -53.797595 
L 315.454537 -54.062185 
L 314.50658 -54.918835 
L 313.558622 -54.259908 
L 312.610664 -52.971179 
L 311.662707 -54.906529 
L 310.714749 -56.776575 
L 309.766792 -56.415133 
L 308.818834 -54.829772 
L 307.870876 -54.356539 
L 306.922919 -54.730789 
L 305.974961 -56.251203 
L 305.027003 -56.616849 
L 304.079046 -56.391668 
L 303.131088 -53.674724 
L 302.183131 -54.727538 
L 301.235173 -54.667357 
L 300.287215 -55.976182 
L 299.339258 -55.181088 
L 298.3913 -55.529836 
L 297.443342 -56.105115 
L 296.495385 -57.443109 
L 295.547427 -55.392997 
L 294.59947 -55.82214 
L 293.651512 -54.915675 
L 292.703554 -56.309264 
L 291.755597 -57.240709 
L 290.807639 -56.303552 
L 289.859681 -54.365121 
L 288.911724 -53.140432 
L 287.963766 -52.501573 
L 287.015808 -53.171221 
L 286.067851 -54.357046 
L 285.119893 -56.555904 
L 284.171936 -56.170005 
L 283.223978 -55.532821 
L 282.27602 -56.114465 
L 281.328063 -60.672956 
L 280.380105 -62.928611 
L 279.432147 -59.944678 
L 278.48419 -56.011926 
L 277.536232 -56.96875 
L 276.588275 -57.973887 
L 275.640317 -59.504886 
L 274.692359 -59.016847 
L 273.744402 -60.375447 
L 272.796444 -56.14849 
L 271.848486 -54.473313 
L 270.900529 -50.078886 
L 269.952571 -50.45391 
L 269.004613 -53.039898 
L 268.056656 -54.364816 
L 267.108698 -52.140003 
L 266.160741 -51.047896 
L 265.212783 -50.410676 
L 264.264825 -52.979611 
L 263.316868 -54.47695 
L 262.36891 -55.826989 
L 261.420952 -53.893921 
L 260.472995 -52.405483 
L 259.525037 -51.952163 
L 258.57708 -53.410929 
L 257.629122 -56.187313 
L 256.681164 -55.481624 
L 255.733207 -55.57327 
L 254.785249 -57.524512 
L 253.837291 -55.777075 
L 252.889334 -54.284334 
L 251.941376 -51.36942 
L 250.993419 -51.138745 
L 250.045461 -51.902799 
L 249.097503 -53.250075 
L 248.149546 -53.982268 
L 247.201588 -53.298439 
L 246.25363 -52.983905 
L 245.305673 -51.778853 
L 244.357715 -51.494931 
L 243.409757 -50.923234 
L 242.4618 -51.445954 
L 241.513842 -52.646153 
L 240.565885 -52.718947 
L 239.617927 -56.879154 
L 238.669969 -57.230105 
L 237.722012 -61.160791 
L 236.774054 -60.935322 
L 235.826096 -60.519714 
L 234.878139 -56.198341 
L 233.930181 -53.586311 
L 232.982224 -53.715679 
L 232.034266 -55.389345 
L 231.086308 -56.20307 
L 230.138351 -56.032177 
L 229.190393 -55.877896 
L 228.242435 -57.818443 
L 227.294478 -62.086627 
L 226.34652 -63.245173 
L 225.398562 -61.632451 
L 224.450605 -58.676374 
L 223.502647 -56.357968 
L 222.55469 -54.328541 
L 221.606732 -54.440711 
L 220.658774 -54.59869 
L 219.710817 -53.061263 
L 218.762859 -51.890007 
L 217.814901 -53.694757 
L 216.866944 -53.838622 
L 215.918986 -55.598882 
L 214.971029 -56.204178 
L 214.023071 -55.158391 
L 213.075113 -56.069072 
L 212.127156 -55.312474 
L 211.179198 -55.549925 
L 210.23124 -55.133279 
L 209.283283 -55.914525 
L 208.335325 -57.038202 
L 207.387367 -56.710764 
L 206.43941 -56.218439 
L 205.491452 -55.178582 
L 204.543495 -56.118423 
L 203.595537 -54.781597 
L 202.647579 -54.247948 
L 201.699622 -53.807746 
L 200.751664 -54.479687 
L 199.803706 -54.232711 
L 198.855749 -55.385465 
L 197.907791 -52.866853 
L 196.959834 -52.638988 
L 196.011876 -53.636284 
L 195.063918 -56.231181 
L 194.115961 -58.377665 
L 193.168003 -55.163568 
L 192.220045 -53.987496 
L 191.272088 -51.910709 
L 190.32413 -53.140715 
L 189.376173 -53.644235 
L 188.428215 -54.598064 
L 187.480257 -57.200177 
L 186.5323 -57.573694 
L 185.584342 -58.483425 
L 184.636384 -56.403997 
L 183.688427 -56.656462 
L 182.740469 -53.246319 
L 181.792511 -53.226213 
L 180.844554 -53.261475 
L 179.896596 -53.644656 
L 178.948639 -55.044552 
L 178.000681 -57.815797 
L 177.052723 -59.964044 
L 176.104766 -59.989441 
L 175.156808 -57.806374 
L 174.20885 -56.02828 
L 173.260893 -54.217813 
L 172.312935 -54.903174 
L 171.364978 -56.633212 
L 170.41702 -55.471514 
L 169.469062 -56.891499 
L 168.521105 -55.239236 
L 167.573147 -54.995375 
L 166.625189 -54.291884 
L 165.677232 -54.489145 
L 164.729274 -53.824228 
L 163.781316 -55.640984 
L 162.833359 -54.807514 
L 161.885401 -55.901197 
L 160.937444 -58.252928 
L 159.989486 -59.488296 
L 159.041528 -58.272739 
L 158.093571 -54.822964 
L 157.145613 -54.309697 
L 156.197655 -53.941067 
L 155.249698 -53.754783 
L 154.30174 -52.776881 
L 153.353783 -53.537925 
L 152.405825 -55.656399 
L 151.457867 -57.502904 
L 150.50991 -56.496113 
L 149.561952 -55.251623 
L 148.613994 -52.243182 
L 147.666037 -52.606825 
L 146.718079 -56.750482 
L 145.770122 -57.335452 
L 144.822164 -56.598654 
L 143.874206 -54.749552 
L 142.926249 -57.468783 
L 141.978291 -56.078097 
L 141.030333 -55.784438 
L 140.082376 -52.149509 
L 139.134418 -53.186801 
L 138.18646 -55.358568 
L 137.238503 -55.755143 
L 136.290545 -56.229355 
L 135.342588 -55.798007 
L 134.39463 -54.936709 
L 133.446672 -56.937723 
L 132.498715 -56.181733 
L 131.550757 -56.130159 
L 130.602799 -54.779715 
L 129.654842 -53.986957 
L 128.706884 -52.100849 
L 127.758927 -51.510185 
L 126.810969 -51.234529 
L 125.863011 -54.13716 
L 124.915054 -54.233699 
L 123.967096 -55.25083 
L 123.019138 -54.858049 
L 122.071181 -56.68516 
L 121.123223 -56.842738 
L 120.175265 -54.596338 
L 119.227308 -54.500655 
L 118.27935 -55.392879 
L 117.331393 -56.28616 
L 116.383435 -54.957564 
L 115.435477 -54.884601 
L 114.48752 -53.417226 
L 113.539562 -53.434637 
L 112.591604 -55.875997 
L 111.643647 -57.360504 
L 110.695689 -57.08314 
L 109.747732 -54.70705 
L 108.799774 -53.192922 
L 107.851816 -54.818286 
L 106.903859 -57.767773 
L 105.955901 -58.596945 
L 105.007943 -57.152845 
L 104.059986 -55.792679 
L 103.112028 -57.191615 
L 102.16407 -58.644546 
L 101.216113 -58.011187 
L 100.268155 -56.218173 
L 99.320198 -56.602074 
L 98.37224 -58.838458 
L 97.424282 -57.906175 
L 96.476325 -58.534292 
L 95.528367 -57.044152 
L 94.580409 -55.868934 
L 93.632452 -54.330973 
L 92.684494 -54.582834 
L 91.736537 -56.122022 
L 90.788579 -58.032934 
L 89.840621 -59.3082 
L 88.892664 -59.293352 
L 87.944706 -56.779561 
L 86.996748 -55.017538 
L 86.048791 -60.044354 
L 85.100833 -62.304143 
L 84.152876 -63.795831 
z
" style="stroke: #008000; stroke-opacity: 0.1"/>
    </defs>
    <g clip-path="url(#p02d01ed721)">
     <use xlink:href="#m8bd4a0f32f" x="0" y="144" style="fill: #008000; fill-opacity: 0.1; stroke: #008000; stroke-opacity: 0.1"/>
    </g>
   </g>
   <g id="matplotlib.axis_1">
    <g id="xtick_1">
     <g id="line2d_1"/>
     <g id="text_1">
      <!-- 0 -->
      <g transform="translate(80.027355 113.038438) scale(0.1 -0.1)">
       <defs>
        <path id="DejaVuSans-30" d="M 2034 4250 
Q 1547 4250 1301 3770 
Q 1056 3291 1056 2328 
Q 1056 1369 1301 889 
Q 1547 409 2034 409 
Q 2525 409 2770 889 
Q 3016 1369 3016 2328 
Q 3016 3291 2770 3770 
Q 2525 4250 2034 4250 
z
M 2034 4750 
Q 2819 4750 3233 4129 
Q 3647 3509 3647 2328 
Q 3647 1150 3233 529 
Q 2819 -91 2034 -91 
Q 1250 -91 836 529 
Q 422 1150 422 2328 
Q 422 3509 836 4129 
Q 1250 4750 2034 4750 
z
" transform="scale(0.015625)"/>
       </defs>
       <use xlink:href="#DejaVuSans-30"/>
      </g>
     </g>
    </g>
    <g id="xtick_2">
     <g id="line2d_2"/>
     <g id="text_2">
      <!-- 100 -->
      <g transform="translate(168.091894 113.038438) scale(0.1 -0.1)">
       <defs>
        <path id="DejaVuSans-31" d="M 794 531 
L 1825 531 
L 1825 4091 
L 703 3866 
L 703 4441 
L 1819 4666 
L 2450 4666 
L 2450 531 
L 3481 531 
L 3481 0 
L 794 0 
L 794 531 
z
" transform="scale(0.015625)"/>
       </defs>
       <use xlink:href="#DejaVuSans-31"/>
       <use xlink:href="#DejaVuSans-30" x="63.623047"/>
       <use xlink:href="#DejaVuSans-30" x="127.246094"/>
      </g>
     </g>
    </g>
    <g id="xtick_3">
     <g id="line2d_3"/>
     <g id="text_3">
      <!-- 200 -->
      <g transform="translate(262.518932 113.038438) scale(0.1 -0.1)">
       <defs>
        <path id="DejaVuSans-32" d="M 1228 531 
L 3431 531 
L 3431 0 
L 469 0 
L 469 531 
Q 828 903 1448 1529 
Q 2069 2156 2228 2338 
Q 2531 2678 2651 2914 
Q 2772 3150 2772 3378 
Q 2772 3750 2511 3984 
Q 2250 4219 1831 4219 
Q 1534 4219 1204 4116 
Q 875 4013 500 3803 
L 500 4441 
Q 881 4594 1212 4672 
Q 1544 4750 1819 4750 
Q 2544 4750 2975 4387 
Q 3406 4025 3406 3419 
Q 3406 3131 3298 2873 
Q 3191 2616 2906 2266 
Q 2828 2175 2409 1742 
Q 1991 1309 1228 531 
z
" transform="scale(0.015625)"/>
       </defs>
       <use xlink:href="#DejaVuSans-32"/>
       <use xlink:href="#DejaVuSans-30" x="63.623047"/>
       <use xlink:href="#DejaVuSans-30" x="127.246094"/>
      </g>
     </g>
    </g>
    <g id="xtick_4">
     <g id="line2d_4"/>
     <g id="text_4">
      <!-- 300 -->
      <g transform="translate(356.945971 113.038438) scale(0.1 -0.1)">
       <defs>
        <path id="DejaVuSans-33" d="M 2597 2516 
Q 3050 2419 3304 2112 
Q 3559 1806 3559 1356 
Q 3559 666 3084 287 
Q 2609 -91 1734 -91 
Q 1441 -91 1130 -33 
Q 819 25 488 141 
L 488 750 
Q 750 597 1062 519 
Q 1375 441 1716 441 
Q 2309 441 2620 675 
Q 2931 909 2931 1356 
Q 2931 1769 2642 2001 
Q 2353 2234 1838 2234 
L 1294 2234 
L 1294 2753 
L 1863 2753 
Q 2328 2753 2575 2939 
Q 2822 3125 2822 3475 
Q 2822 3834 2567 4026 
Q 2313 4219 1838 4219 
Q 1578 4219 1281 4162 
Q 984 4106 628 3988 
L 628 4550 
Q 988 4650 1302 4700 
Q 1616 4750 1894 4750 
Q 2613 4750 3031 4423 
Q 3450 4097 3450 3541 
Q 3450 3153 3228 2886 
Q 3006 2619 2597 2516 
z
" transform="scale(0.015625)"/>
       </defs>
       <use xlink:href="#DejaVuSans-33"/>
       <use xlink:href="#DejaVuSans-30" x="63.623047"/>
       <use xlink:href="#DejaVuSans-30" x="127.246094"/>
      </g>
     </g>
    </g>
    <g id="xtick_5">
     <g id="line2d_5"/>
     <g id="text_5">
      <!-- 400 -->
      <g transform="translate(451.373009 113.038438) scale(0.1 -0.1)">
       <defs>
        <path id="DejaVuSans-34" d="M 2419 4116 
L 825 1625 
L 2419 1625 
L 2419 4116 
z
M 2253 4666 
L 3047 4666 
L 3047 1625 
L 3713 1625 
L 3713 1100 
L 3047 1100 
L 3047 0 
L 2419 0 
L 2419 1100 
L 313 1100 
L 313 1709 
L 2253 4666 
z
" transform="scale(0.015625)"/>
       </defs>
       <use xlink:href="#DejaVuSans-34"/>
       <use xlink:href="#DejaVuSans-30" x="63.623047"/>
       <use xlink:href="#DejaVuSans-30" x="127.246094"/>
      </g>
     </g>
    </g>
    <g id="xtick_6">
     <g id="line2d_6"/>
     <g id="text_6">
      <!-- 500 -->
      <g transform="translate(545.800048 113.038438) scale(0.1 -0.1)">
       <defs>
        <path id="DejaVuSans-35" d="M 691 4666 
L 3169 4666 
L 3169 4134 
L 1269 4134 
L 1269 2991 
Q 1406 3038 1543 3061 
Q 1681 3084 1819 3084 
Q 2600 3084 3056 2656 
Q 3513 2228 3513 1497 
Q 3513 744 3044 326 
Q 2575 -91 1722 -91 
Q 1428 -91 1123 -41 
Q 819 9 494 109 
L 494 744 
Q 775 591 1075 516 
Q 1375 441 1709 441 
Q 2250 441 2565 725 
Q 2881 1009 2881 1497 
Q 2881 1984 2565 2268 
Q 2250 2553 1709 2553 
Q 1456 2553 1204 2497 
Q 953 2441 691 2322 
L 691 4666 
z
" transform="scale(0.015625)"/>
       </defs>
       <use xlink:href="#DejaVuSans-35"/>
       <use xlink:href="#DejaVuSans-30" x="63.623047"/>
       <use xlink:href="#DejaVuSans-30" x="127.246094"/>
      </g>
     </g>
    </g>
    <g id="text_7">
     <!-- time (s) across film -->
     <g transform="translate(242.090281 129.755937) scale(0.14 -0.14)">
      <defs>
       <path id="DejaVuSans-74" d="M 1172 4494 
L 1172 3500 
L 2356 3500 
L 2356 3053 
L 1172 3053 
L 1172 1153 
Q 1172 725 1289 603 
Q 1406 481 1766 481 
L 2356 481 
L 2356 0 
L 1766 0 
Q 1100 0 847 248 
Q 594 497 594 1153 
L 594 3053 
L 172 3053 
L 172 3500 
L 594 3500 
L 594 4494 
L 1172 4494 
z
" transform="scale(0.015625)"/>
       <path id="DejaVuSans-69" d="M 603 3500 
L 1178 3500 
L 1178 0 
L 603 0 
L 603 3500 
z
M 603 4863 
L 1178 4863 
L 1178 4134 
L 603 4134 
L 603 4863 
z
" transform="scale(0.015625)"/>
       <path id="DejaVuSans-6d" d="M 3328 2828 
Q 3544 3216 3844 3400 
Q 4144 3584 4550 3584 
Q 5097 3584 5394 3201 
Q 5691 2819 5691 2113 
L 5691 0 
L 5113 0 
L 5113 2094 
Q 5113 2597 4934 2840 
Q 4756 3084 4391 3084 
Q 3944 3084 3684 2787 
Q 3425 2491 3425 1978 
L 3425 0 
L 2847 0 
L 2847 2094 
Q 2847 2600 2669 2842 
Q 2491 3084 2119 3084 
Q 1678 3084 1418 2786 
Q 1159 2488 1159 1978 
L 1159 0 
L 581 0 
L 581 3500 
L 1159 3500 
L 1159 2956 
Q 1356 3278 1631 3431 
Q 1906 3584 2284 3584 
Q 2666 3584 2933 3390 
Q 3200 3197 3328 2828 
z
" transform="scale(0.015625)"/>
       <path id="DejaVuSans-65" d="M 3597 1894 
L 3597 1613 
L 953 1613 
Q 991 1019 1311 708 
Q 1631 397 2203 397 
Q 2534 397 2845 478 
Q 3156 559 3463 722 
L 3463 178 
Q 3153 47 2828 -22 
Q 2503 -91 2169 -91 
Q 1331 -91 842 396 
Q 353 884 353 1716 
Q 353 2575 817 3079 
Q 1281 3584 2069 3584 
Q 2775 3584 3186 3129 
Q 3597 2675 3597 1894 
z
M 3022 2063 
Q 3016 2534 2758 2815 
Q 2500 3097 2075 3097 
Q 1594 3097 1305 2825 
Q 1016 2553 972 2059 
L 3022 2063 
z
" transform="scale(0.015625)"/>
       <path id="DejaVuSans-20" transform="scale(0.015625)"/>
       <path id="DejaVuSans-28" d="M 1984 4856 
Q 1566 4138 1362 3434 
Q 1159 2731 1159 2009 
Q 1159 1288 1364 580 
Q 1569 -128 1984 -844 
L 1484 -844 
Q 1016 -109 783 600 
Q 550 1309 550 2009 
Q 550 2706 781 3412 
Q 1013 4119 1484 4856 
L 1984 4856 
z
" transform="scale(0.015625)"/>
       <path id="DejaVuSans-73" d="M 2834 3397 
L 2834 2853 
Q 2591 2978 2328 3040 
Q 2066 3103 1784 3103 
Q 1356 3103 1142 2972 
Q 928 2841 928 2578 
Q 928 2378 1081 2264 
Q 1234 2150 1697 2047 
L 1894 2003 
Q 2506 1872 2764 1633 
Q 3022 1394 3022 966 
Q 3022 478 2636 193 
Q 2250 -91 1575 -91 
Q 1294 -91 989 -36 
Q 684 19 347 128 
L 347 722 
Q 666 556 975 473 
Q 1284 391 1588 391 
Q 1994 391 2212 530 
Q 2431 669 2431 922 
Q 2431 1156 2273 1281 
Q 2116 1406 1581 1522 
L 1381 1569 
Q 847 1681 609 1914 
Q 372 2147 372 2553 
Q 372 3047 722 3315 
Q 1072 3584 1716 3584 
Q 2034 3584 2315 3537 
Q 2597 3491 2834 3397 
z
" transform="scale(0.015625)"/>
       <path id="DejaVuSans-29" d="M 513 4856 
L 1013 4856 
Q 1481 4119 1714 3412 
Q 1947 2706 1947 2009 
Q 1947 1309 1714 600 
Q 1481 -109 1013 -844 
L 513 -844 
Q 928 -128 1133 580 
Q 1338 1288 1338 2009 
Q 1338 2731 1133 3434 
Q 928 4138 513 4856 
z
" transform="scale(0.015625)"/>
       <path id="DejaVuSans-61" d="M 2194 1759 
Q 1497 1759 1228 1600 
Q 959 1441 959 1056 
Q 959 750 1161 570 
Q 1363 391 1709 391 
Q 2188 391 2477 730 
Q 2766 1069 2766 1631 
L 2766 1759 
L 2194 1759 
z
M 3341 1997 
L 3341 0 
L 2766 0 
L 2766 531 
Q 2569 213 2275 61 
Q 1981 -91 1556 -91 
Q 1019 -91 701 211 
Q 384 513 384 1019 
Q 384 1609 779 1909 
Q 1175 2209 1959 2209 
L 2766 2209 
L 2766 2266 
Q 2766 2663 2505 2880 
Q 2244 3097 1772 3097 
Q 1472 3097 1187 3025 
Q 903 2953 641 2809 
L 641 3341 
Q 956 3463 1253 3523 
Q 1550 3584 1831 3584 
Q 2591 3584 2966 3190 
Q 3341 2797 3341 1997 
z
" transform="scale(0.015625)"/>
       <path id="DejaVuSans-63" d="M 3122 3366 
L 3122 2828 
Q 2878 2963 2633 3030 
Q 2388 3097 2138 3097 
Q 1578 3097 1268 2742 
Q 959 2388 959 1747 
Q 959 1106 1268 751 
Q 1578 397 2138 397 
Q 2388 397 2633 464 
Q 2878 531 3122 666 
L 3122 134 
Q 2881 22 2623 -34 
Q 2366 -91 2075 -91 
Q 1284 -91 818 406 
Q 353 903 353 1747 
Q 353 2603 823 3093 
Q 1294 3584 2113 3584 
Q 2378 3584 2631 3529 
Q 2884 3475 3122 3366 
z
" transform="scale(0.015625)"/>
       <path id="DejaVuSans-72" d="M 2631 2963 
Q 2534 3019 2420 3045 
Q 2306 3072 2169 3072 
Q 1681 3072 1420 2755 
Q 1159 2438 1159 1844 
L 1159 0 
L 581 0 
L 581 3500 
L 1159 3500 
L 1159 2956 
Q 1341 3275 1631 3429 
Q 1922 3584 2338 3584 
Q 2397 3584 2469 3576 
Q 2541 3569 2628 3553 
L 2631 2963 
z
" transform="scale(0.015625)"/>
       <path id="DejaVuSans-6f" d="M 1959 3097 
Q 1497 3097 1228 2736 
Q 959 2375 959 1747 
Q 959 1119 1226 758 
Q 1494 397 1959 397 
Q 2419 397 2687 759 
Q 2956 1122 2956 1747 
Q 2956 2369 2687 2733 
Q 2419 3097 1959 3097 
z
M 1959 3584 
Q 2709 3584 3137 3096 
Q 3566 2609 3566 1747 
Q 3566 888 3137 398 
Q 2709 -91 1959 -91 
Q 1206 -91 779 398 
Q 353 888 353 1747 
Q 353 2609 779 3096 
Q 1206 3584 1959 3584 
z
" transform="scale(0.015625)"/>
       <path id="DejaVuSans-66" d="M 2375 4863 
L 2375 4384 
L 1825 4384 
Q 1516 4384 1395 4259 
Q 1275 4134 1275 3809 
L 1275 3500 
L 2222 3500 
L 2222 3053 
L 1275 3053 
L 1275 0 
L 697 0 
L 697 3053 
L 147 3053 
L 147 3500 
L 697 3500 
L 697 3744 
Q 697 4328 969 4595 
Q 1241 4863 1831 4863 
L 2375 4863 
z
" transform="scale(0.015625)"/>
       <path id="DejaVuSans-6c" d="M 603 4863 
L 1178 4863 
L 1178 0 
L 603 0 
L 603 4863 
z
" transform="scale(0.015625)"/>
      </defs>
      <use xlink:href="#DejaVuSans-74"/>
      <use xlink:href="#DejaVuSans-69" x="39.208984"/>
      <use xlink:href="#DejaVuSans-6d" x="66.992188"/>
      <use xlink:href="#DejaVuSans-65" x="164.404297"/>
      <use xlink:href="#DejaVuSans-20" x="225.927734"/>
      <use xlink:href="#DejaVuSans-28" x="257.714844"/>
      <use xlink:href="#DejaVuSans-73" x="296.728516"/>
      <use xlink:href="#DejaVuSans-29" x="348.828125"/>
      <use xlink:href="#DejaVuSans-20" x="387.841797"/>
      <use xlink:href="#DejaVuSans-61" x="419.628906"/>
      <use xlink:href="#DejaVuSans-63" x="480.908203"/>
      <use xlink:href="#DejaVuSans-72" x="535.888672"/>
      <use xlink:href="#DejaVuSans-6f" x="574.751953"/>
      <use xlink:href="#DejaVuSans-73" x="635.933594"/>
      <use xlink:href="#DejaVuSans-73" x="688.033203"/>
      <use xlink:href="#DejaVuSans-20" x="740.132812"/>
      <use xlink:href="#DejaVuSans-66" x="771.919922"/>
      <use xlink:href="#DejaVuSans-69" x="807.125"/>
      <use xlink:href="#DejaVuSans-6c" x="834.908203"/>
      <use xlink:href="#DejaVuSans-6d" x="862.691406"/>
     </g>
    </g>
   </g>
   <g id="matplotlib.axis_2">
    <g id="ytick_1">
     <g id="line2d_7"/>
     <g id="text_8">
      <!-- 0 -->
      <g transform="translate(50.7375 95.942076) scale(0.1 -0.1)">
       <use xlink:href="#DejaVuSans-30"/>
      </g>
     </g>
    </g>
    <g id="ytick_2">
     <g id="line2d_8"/>
     <g id="text_9">
      <!-- 10 -->
      <g transform="translate(44.375 56.753504) scale(0.1 -0.1)">
       <use xlink:href="#DejaVuSans-31"/>
       <use xlink:href="#DejaVuSans-30" x="63.623047"/>
      </g>
     </g>
    </g>
    <g id="text_10">
     <!-- normalized FR -->
     <g transform="translate(21.7865 117.661719) rotate(-90) scale(0.14 -0.14)">
      <defs>
       <path id="DejaVuSans-6e" d="M 3513 2113 
L 3513 0 
L 2938 0 
L 2938 2094 
Q 2938 2591 2744 2837 
Q 2550 3084 2163 3084 
Q 1697 3084 1428 2787 
Q 1159 2491 1159 1978 
L 1159 0 
L 581 0 
L 581 3500 
L 1159 3500 
L 1159 2956 
Q 1366 3272 1645 3428 
Q 1925 3584 2291 3584 
Q 2894 3584 3203 3211 
Q 3513 2838 3513 2113 
z
" transform="scale(0.015625)"/>
       <path id="DejaVuSans-7a" d="M 353 3500 
L 3084 3500 
L 3084 2975 
L 922 459 
L 3084 459 
L 3084 0 
L 275 0 
L 275 525 
L 2438 3041 
L 353 3041 
L 353 3500 
z
" transform="scale(0.015625)"/>
       <path id="DejaVuSans-64" d="M 2906 2969 
L 2906 4863 
L 3481 4863 
L 3481 0 
L 2906 0 
L 2906 525 
Q 2725 213 2448 61 
Q 2172 -91 1784 -91 
Q 1150 -91 751 415 
Q 353 922 353 1747 
Q 353 2572 751 3078 
Q 1150 3584 1784 3584 
Q 2172 3584 2448 3432 
Q 2725 3281 2906 2969 
z
M 947 1747 
Q 947 1113 1208 752 
Q 1469 391 1925 391 
Q 2381 391 2643 752 
Q 2906 1113 2906 1747 
Q 2906 2381 2643 2742 
Q 2381 3103 1925 3103 
Q 1469 3103 1208 2742 
Q 947 2381 947 1747 
z
" transform="scale(0.015625)"/>
       <path id="DejaVuSans-46" d="M 628 4666 
L 3309 4666 
L 3309 4134 
L 1259 4134 
L 1259 2759 
L 3109 2759 
L 3109 2228 
L 1259 2228 
L 1259 0 
L 628 0 
L 628 4666 
z
" transform="scale(0.015625)"/>
       <path id="DejaVuSans-52" d="M 2841 2188 
Q 3044 2119 3236 1894 
Q 3428 1669 3622 1275 
L 4263 0 
L 3584 0 
L 2988 1197 
Q 2756 1666 2539 1819 
Q 2322 1972 1947 1972 
L 1259 1972 
L 1259 0 
L 628 0 
L 628 4666 
L 2053 4666 
Q 2853 4666 3247 4331 
Q 3641 3997 3641 3322 
Q 3641 2881 3436 2590 
Q 3231 2300 2841 2188 
z
M 1259 4147 
L 1259 2491 
L 2053 2491 
Q 2509 2491 2742 2702 
Q 2975 2913 2975 3322 
Q 2975 3731 2742 3939 
Q 2509 4147 2053 4147 
L 1259 4147 
z
" transform="scale(0.015625)"/>
      </defs>
      <use xlink:href="#DejaVuSans-6e"/>
      <use xlink:href="#DejaVuSans-6f" x="63.378906"/>
      <use xlink:href="#DejaVuSans-72" x="124.560547"/>
      <use xlink:href="#DejaVuSans-6d" x="163.923828"/>
      <use xlink:href="#DejaVuSans-61" x="261.335938"/>
      <use xlink:href="#DejaVuSans-6c" x="322.615234"/>
      <use xlink:href="#DejaVuSans-69" x="350.398438"/>
      <use xlink:href="#DejaVuSans-7a" x="378.181641"/>
      <use xlink:href="#DejaVuSans-65" x="430.671875"/>
      <use xlink:href="#DejaVuSans-64" x="492.195312"/>
      <use xlink:href="#DejaVuSans-20" x="555.671875"/>
      <use xlink:href="#DejaVuSans-46" x="587.458984"/>
      <use xlink:href="#DejaVuSans-52" x="644.978516"/>
     </g>
     <!-- (Hz) -->
     <g transform="translate(37.463438 82.050313) rotate(-90) scale(0.14 -0.14)">
      <defs>
       <path id="DejaVuSans-48" d="M 628 4666 
L 1259 4666 
L 1259 2753 
L 3553 2753 
L 3553 4666 
L 4184 4666 
L 4184 0 
L 3553 0 
L 3553 2222 
L 1259 2222 
L 1259 0 
L 628 0 
L 628 4666 
z
" transform="scale(0.015625)"/>
      </defs>
      <use xlink:href="#DejaVuSans-28"/>
      <use xlink:href="#DejaVuSans-48" x="39.013672"/>
      <use xlink:href="#DejaVuSans-7a" x="114.208984"/>
      <use xlink:href="#DejaVuSans-29" x="166.699219"/>
     </g>
    </g>
   </g>
   <g id="line2d_9">
    <path d="M 84.152876 88.591895 
L 85.100833 89.87714 
L 86.048791 90.907459 
L 86.996748 92.741902 
L 87.944706 91.391825 
L 88.892664 89.690388 
L 89.840621 89.420079 
L 90.788579 90.684209 
L 91.736537 91.471816 
L 92.684494 92.488421 
L 93.632452 93.101406 
L 94.580409 93.334413 
L 95.528367 92.851939 
L 96.476325 91.822448 
L 97.424282 91.635932 
L 98.37224 91.152364 
L 99.320198 91.731396 
L 100.268155 92.143558 
L 101.216113 90.489629 
L 102.16407 89.844412 
L 103.112028 90.427064 
L 104.059986 91.583196 
L 105.007943 90.826776 
L 105.955901 89.342706 
L 106.903859 90.461339 
L 107.851816 91.996409 
L 108.799774 93.92313 
L 110.695689 91.80333 
L 111.643647 91.404269 
L 112.591604 92.203811 
L 113.539562 93.577218 
L 114.48752 93.013056 
L 115.435477 92.188009 
L 116.383435 91.913277 
L 117.331393 91.87207 
L 118.27935 92.953336 
L 119.227308 92.539106 
L 120.175265 92.955495 
L 121.123223 92.41425 
L 123.019138 93.915371 
L 123.967096 92.353527 
L 124.915054 92.719742 
L 125.863011 92.032669 
L 126.810969 94.222853 
L 127.758927 93.790915 
L 128.706884 94.038146 
L 129.654842 93.748991 
L 130.602799 93.003045 
L 131.550757 91.624576 
L 132.498715 91.387665 
L 133.446672 90.969798 
L 134.39463 92.093519 
L 135.342588 91.560965 
L 137.238503 91.440613 
L 138.18646 91.767979 
L 139.134418 93.263124 
L 140.082376 93.657735 
L 141.030333 91.539387 
L 141.978291 91.323672 
L 142.926249 90.244826 
L 143.874206 92.473508 
L 144.822164 89.864849 
L 145.770122 90.071905 
L 146.718079 90.819961 
L 147.666037 93.505113 
L 148.613994 94.544717 
L 149.561952 92.79402 
L 150.50991 91.722826 
L 151.457867 91.123926 
L 153.353783 93.380296 
L 154.30174 93.342816 
L 155.249698 92.800043 
L 157.145613 92.110889 
L 158.093571 92.025135 
L 159.041528 90.544393 
L 159.989486 90.157426 
L 160.937444 90.40587 
L 161.885401 92.043859 
L 162.833359 93.231074 
L 163.781316 91.905162 
L 164.729274 92.055993 
L 165.677232 91.853969 
L 166.625189 92.590483 
L 167.573147 91.231613 
L 168.521105 91.393801 
L 169.469062 91.228004 
L 170.41702 91.835535 
L 171.364978 91.45596 
L 172.312935 92.094559 
L 173.260893 92.48252 
L 174.20885 91.154271 
L 175.156808 89.580864 
L 176.104766 87.730676 
L 177.052723 87.919823 
L 178.000681 89.625017 
L 179.896596 93.299703 
L 180.844554 93.970913 
L 181.792511 93.440252 
L 182.740469 93.208251 
L 183.688427 90.948098 
L 184.636384 91.098303 
L 185.584342 89.433557 
L 186.5323 90.768266 
L 187.480257 91.542871 
L 188.428215 93.165088 
L 189.376173 94.14608 
L 190.32413 93.849296 
L 191.272088 94.368891 
L 192.220045 92.862183 
L 193.168003 91.717711 
L 194.115961 89.081297 
L 195.063918 90.420956 
L 196.011876 92.149947 
L 196.959834 93.430047 
L 197.907791 93.176511 
L 198.855749 91.960246 
L 199.803706 92.648703 
L 200.751664 92.693843 
L 201.699622 93.579544 
L 202.647579 93.602216 
L 203.595537 93.41586 
L 204.543495 92.356374 
L 205.491452 92.394561 
L 206.43941 91.743796 
L 207.387367 91.509285 
L 208.335325 91.552065 
L 210.23124 92.383692 
L 211.179198 91.884275 
L 212.127156 92.908053 
L 213.075113 92.338096 
L 214.023071 92.062068 
L 214.971029 91.368446 
L 215.918986 91.563323 
L 216.866944 93.064627 
L 217.814901 93.483956 
L 218.762859 94.796832 
L 219.710817 93.882964 
L 220.658774 92.711706 
L 221.606732 92.401028 
L 222.55469 91.942191 
L 223.502647 90.471994 
L 224.450605 89.322254 
L 225.398562 87.540529 
L 226.34652 87.577138 
L 227.294478 88.210376 
L 228.242435 90.395058 
L 229.190393 91.856269 
L 230.138351 91.302736 
L 231.086308 91.248352 
L 232.034266 91.578625 
L 232.982224 93.144093 
L 233.930181 93.32513 
L 234.878139 91.687603 
L 235.826096 88.444598 
L 236.774054 87.808529 
L 237.722012 88.572846 
L 238.669969 91.309785 
L 239.617927 91.378105 
L 240.565885 93.702168 
L 241.513842 93.721126 
L 242.4618 94.90039 
L 243.409757 95.051144 
L 244.357715 94.680182 
L 245.305673 93.711085 
L 246.25363 92.966491 
L 247.201588 93.072241 
L 248.149546 92.767277 
L 249.097503 92.792801 
L 250.045461 93.568292 
L 250.993419 94.634624 
L 251.941376 94.780918 
L 252.889334 92.595345 
L 253.837291 91.702384 
L 254.785249 91.030626 
L 255.733207 91.858411 
L 256.681164 91.850161 
L 257.629122 92.039134 
L 258.57708 93.527438 
L 259.525037 94.339396 
L 260.472995 94.035717 
L 261.420952 93.00375 
L 262.36891 92.541692 
L 263.316868 93.433908 
L 264.264825 94.012064 
L 265.212783 95.205455 
L 267.108698 93.280061 
L 268.056656 91.9441 
L 269.952571 94.807185 
L 270.900529 95.520098 
L 271.848486 92.359944 
L 272.796444 90.952848 
L 273.744402 88.65134 
L 274.692359 89.302643 
L 275.640317 88.911974 
L 276.588275 90.50721 
L 277.536232 91.293299 
L 278.48419 90.981983 
L 279.432147 88.591223 
L 280.380105 87.541778 
L 281.328063 89.033386 
L 282.27602 91.750675 
L 283.223978 93.167781 
L 284.171936 92.256142 
L 285.119893 91.904461 
L 286.067851 92.487211 
L 287.015808 92.939432 
L 287.963766 93.526633 
L 288.911724 93.578943 
L 289.859681 92.331706 
L 290.807639 90.88578 
L 291.755597 89.988775 
L 292.703554 90.693183 
L 293.651512 92.179562 
L 294.59947 91.54173 
L 295.547427 91.535199 
L 296.495385 90.585172 
L 297.443342 91.037863 
L 298.3913 91.061751 
L 299.339258 91.237299 
L 300.287215 90.985651 
L 301.235173 92.215525 
L 302.183131 92.806122 
L 303.131088 92.77305 
L 304.079046 91.385209 
L 305.027003 90.503677 
L 305.974961 90.94818 
L 306.922919 91.876512 
L 307.870876 92.200568 
L 308.818834 92.182779 
L 309.766792 91.070717 
L 310.714749 91.492403 
L 311.662707 92.206831 
L 312.610664 93.180566 
L 313.558622 92.34188 
L 314.50658 91.875214 
L 315.454537 92.628695 
L 317.350453 93.405547 
L 318.29841 93.075032 
L 319.246368 92.918858 
L 320.194326 90.931394 
L 321.142283 90.249458 
L 322.090241 89.768622 
L 323.038198 91.954383 
L 323.986156 91.118713 
L 324.934114 91.157392 
L 325.882071 90.257652 
L 326.830029 90.193441 
L 327.777987 90.945186 
L 328.725944 91.535506 
L 329.673902 93.343054 
L 331.569817 91.58153 
L 332.517775 91.18956 
L 333.465732 90.389417 
L 334.41369 90.516342 
L 335.361648 90.288431 
L 336.309605 92.900401 
L 337.257563 91.441372 
L 338.205521 91.585307 
L 339.153478 89.714895 
L 340.101436 91.249293 
L 341.049393 91.214966 
L 341.997351 92.311109 
L 342.945309 92.652366 
L 343.893266 92.326749 
L 344.841224 91.568376 
L 346.737139 92.881615 
L 347.685097 93.909122 
L 348.633054 93.043598 
L 349.581012 90.600663 
L 350.52897 89.107464 
L 351.476927 90.022911 
L 352.424885 91.716794 
L 353.372843 93.71259 
L 354.3208 92.806026 
L 355.268758 93.014725 
L 357.164673 91.562525 
L 358.112631 91.264429 
L 359.060588 90.776705 
L 360.008546 91.210803 
L 360.956504 90.640617 
L 362.852419 91.811151 
L 363.800377 92.12679 
L 364.748334 91.899981 
L 365.696292 91.55141 
L 366.644249 92.445959 
L 368.540165 93.90263 
L 371.384038 92.996795 
L 373.279953 93.800335 
L 374.22791 92.206824 
L 375.175868 89.882694 
L 376.123826 88.034249 
L 377.071783 89.666858 
L 378.019741 90.961035 
L 378.967699 91.487991 
L 379.915656 92.153139 
L 380.863614 91.880745 
L 382.759529 88.958629 
L 383.707487 89.417873 
L 384.655444 91.4491 
L 385.603402 91.297525 
L 386.55136 92.07281 
L 387.499317 90.943151 
L 388.447275 92.386419 
L 389.395233 91.41588 
L 390.34319 92.294893 
L 391.291148 91.577755 
L 392.239105 92.054464 
L 393.187063 91.501505 
L 394.135021 91.177231 
L 395.082978 91.455403 
L 396.030936 92.086371 
L 396.978894 92.394586 
L 397.926851 91.679181 
L 398.874809 90.252149 
L 400.770724 91.396744 
L 401.718682 92.792983 
L 402.666639 92.782693 
L 403.614597 93.457573 
L 404.562555 93.879009 
L 405.510512 92.729778 
L 406.45847 92.303338 
L 408.354385 93.568783 
L 409.302343 93.356592 
L 410.2503 91.321074 
L 411.198258 91.002748 
L 412.146216 91.102071 
L 413.094173 92.554045 
L 414.042131 92.976736 
L 414.990089 91.98578 
L 415.938046 91.526589 
L 416.886004 89.439185 
L 417.833961 89.971554 
L 418.781919 89.658127 
L 420.677834 93.147376 
L 421.625792 94.497914 
L 422.57375 95.595955 
L 423.521707 93.986755 
L 424.469665 93.418933 
L 425.417623 91.88847 
L 426.36558 91.269985 
L 427.313538 90.920199 
L 429.209453 93.374104 
L 430.157411 93.935655 
L 432.053326 91.113457 
L 433.001284 90.032804 
L 433.949241 90.607273 
L 434.897199 91.772233 
L 435.845156 92.084549 
L 436.793114 93.149878 
L 437.741072 93.244443 
L 438.689029 93.774686 
L 439.636987 93.328739 
L 440.584945 94.379521 
L 442.48086 94.857705 
L 443.428818 94.460305 
L 445.324733 95.172089 
L 446.27269 93.894748 
L 447.220648 93.887564 
L 448.168606 93.306999 
L 449.116563 94.097656 
L 451.012479 92.940575 
L 451.960436 92.726972 
L 452.908394 91.594365 
L 453.856351 91.077764 
L 454.804309 91.830276 
L 455.752267 92.807465 
L 456.700224 93.605426 
L 457.648182 93.201186 
L 458.59614 93.450993 
L 459.544097 93.98864 
L 460.492055 93.954558 
L 461.440013 93.768282 
L 462.38797 94.713188 
L 463.335928 94.436523 
L 464.283885 94.587877 
L 465.231843 92.778129 
L 466.179801 93.168596 
L 467.127758 92.085973 
L 468.075716 93.170603 
L 469.023674 93.67973 
L 470.919589 94.944311 
L 471.867546 95.211234 
L 472.815504 95.077196 
L 473.763462 93.214315 
L 474.711419 91.924924 
L 475.659377 92.054194 
L 476.607335 91.691454 
L 477.555292 92.233586 
L 478.50325 91.829246 
L 479.451207 91.990176 
L 480.399165 91.578999 
L 481.347123 92.458145 
L 482.29508 93.544497 
L 483.243038 94.326166 
L 484.190996 93.66592 
L 485.138953 92.432494 
L 486.086911 90.816192 
L 487.034869 90.264604 
L 487.982826 91.875048 
L 488.930784 93.797418 
L 489.878741 94.488421 
L 490.826699 94.484207 
L 491.774657 94.064953 
L 492.722614 92.945249 
L 493.670572 91.562582 
L 494.61853 88.167621 
L 495.566487 88.964958 
L 496.514445 89.365002 
L 497.462402 92.178018 
L 499.358318 93.914333 
L 500.306275 94.210682 
L 501.254233 94.331327 
L 502.202191 92.981519 
L 503.150148 90.889237 
L 504.098106 89.433595 
L 505.046064 90.5344 
L 505.994021 92.631917 
L 506.941979 93.160726 
L 507.889936 92.546375 
L 508.837894 92.59708 
L 509.785852 93.42491 
L 510.733809 94.506954 
L 511.681767 94.316533 
L 512.629725 93.657558 
L 513.577682 91.899249 
L 514.52564 91.330215 
L 515.473597 91.294411 
L 516.421555 92.936803 
L 517.369513 92.892305 
L 518.31747 91.411303 
L 519.265428 90.544506 
L 520.213386 90.600592 
L 521.161343 91.664141 
L 522.109301 92.360493 
L 523.057259 91.844581 
L 524.005216 89.700089 
L 524.953174 89.327514 
L 525.901131 87.671277 
L 526.849089 90.419123 
L 527.797047 90.791901 
L 528.745004 93.665344 
L 529.692962 93.190477 
L 530.64092 94.028126 
L 531.588877 95.58575 
L 532.536835 98.058214 
L 533.484792 98.998179 
L 535.380708 99.021067 
L 535.380708 99.021067 
" clip-path="url(#p02d01ed721)" style="fill: none; stroke: #008000; stroke-width: 1.5; stroke-linecap: square"/>
   </g>
   <g id="line2d_10">
    <path d="M 83.208605 94.990415 
L 85.554527 96.290998 
L 87.900449 94.183037 
L 90.24637 93.958505 
L 92.592292 92.708975 
L 94.938214 94.141146 
L 97.284136 95.357719 
L 99.630057 97.024665 
L 101.975979 99.04343 
L 104.321901 98.811614 
L 106.667823 97.276064 
L 109.013744 97.742413 
L 111.359666 98.022249 
L 113.705588 97.938179 
L 116.051509 99.004809 
L 118.397431 99.65661 
L 120.743353 97.625409 
L 123.089275 96.256724 
L 125.435196 95.337537 
L 127.781118 95.092992 
L 130.12704 95.637629 
L 134.818883 97.784173 
L 137.164805 99.203098 
L 139.510727 99.980571 
L 141.856649 98.074407 
L 144.20257 98.038173 
L 151.240336 96.477379 
L 155.932179 96.245819 
L 158.278101 97.202548 
L 160.624023 97.728725 
L 162.969944 96.5658 
L 165.315866 97.071997 
L 167.661788 97.373559 
L 172.353631 91.057156 
L 177.045475 89.90039 
L 184.08324 89.019626 
L 186.429162 89.231671 
L 188.775083 89.235644 
L 191.121005 90.07802 
L 193.466927 90.232669 
L 195.812849 89.777005 
L 200.504692 90.394016 
L 202.850614 90.426275 
L 205.196536 90.135705 
L 207.542457 90.31409 
L 209.888379 90.107934 
L 212.234301 89.445739 
L 214.580223 89.233307 
L 219.272066 89.302472 
L 221.617988 89.508627 
L 223.963909 89.470771 
L 226.309831 90.086742 
L 228.655753 89.246227 
L 231.001675 89.551999 
L 233.347596 89.704605 
L 238.03944 88.555415 
L 242.731283 88.353399 
L 245.077205 87.572089 
L 247.423127 87.139987 
L 249.769049 87.167356 
L 252.11497 86.891799 
L 254.460892 88.279066 
L 256.806814 88.324503 
L 259.152736 90.046962 
L 261.498657 92.778206 
L 263.844579 92.882824 
L 266.190501 90.310587 
L 268.536423 89.637797 
L 270.882344 89.279624 
L 273.228266 89.327382 
L 275.574188 88.232942 
L 277.92011 86.945618 
L 280.266031 87.116701 
L 282.611953 86.816487 
L 284.957875 86.365641 
L 287.303796 86.785531 
L 289.649718 87.072153 
L 291.99564 87.55239 
L 294.341562 87.613053 
L 306.07117 86.855567 
L 308.417092 86.78922 
L 310.763014 87.437245 
L 313.108936 87.697713 
L 317.800779 87.132921 
L 320.146701 87.574898 
L 322.492623 87.712015 
L 324.838544 89.174101 
L 327.184466 91.445621 
L 334.222231 93.316146 
L 336.568153 91.482694 
L 338.914075 89.448703 
L 341.259996 89.672443 
L 343.605918 89.258548 
L 345.95184 89.964101 
L 350.643683 90.302818 
L 352.989605 90.76221 
L 355.335527 91.086159 
L 357.681449 91.024515 
L 360.02737 91.597133 
L 362.373292 91.598497 
L 364.719214 91.972611 
L 369.411057 92.31742 
L 371.756979 91.840219 
L 374.102901 92.038622 
L 376.448823 91.232357 
L 378.794744 89.549273 
L 381.140666 88.800324 
L 383.486588 89.555034 
L 385.83251 89.67452 
L 390.524353 89.102602 
L 392.870275 88.667487 
L 395.216196 88.697419 
L 397.562118 89.118129 
L 399.90804 89.057945 
L 402.253962 89.374251 
L 404.599883 89.436247 
L 409.291727 88.166742 
L 413.98357 87.423132 
L 416.329492 86.667805 
L 423.367257 85.595611 
L 425.713179 85.486717 
L 428.059101 85.174247 
L 432.750944 85.01782 
L 435.096866 85.260173 
L 439.78871 85.091171 
L 442.134631 85.55187 
L 446.826475 87.332915 
L 449.172396 87.967446 
L 453.86424 88.817255 
L 465.593849 89.801512 
L 467.93977 90.781513 
L 470.285692 89.70893 
L 472.631614 87.69719 
L 474.977536 87.623839 
L 477.323457 87.182977 
L 479.669379 87.207567 
L 482.015301 85.934752 
L 484.361223 85.109198 
L 486.707144 84.470564 
L 489.053066 84.609395 
L 491.398988 84.305143 
L 493.74491 85.569126 
L 496.090831 87.492436 
L 498.436753 88.878736 
L 500.782675 88.93947 
L 503.128596 88.253263 
L 505.474518 88.118603 
L 507.82044 87.622738 
L 510.166362 86.758028 
L 512.512283 86.437307 
L 514.858205 85.499152 
L 517.204127 84.841396 
L 519.550049 85.188495 
L 521.89597 85.422701 
L 524.241892 86.101597 
L 526.587814 87.140965 
L 531.279657 90.06243 
L 533.625579 92.466663 
L 533.625579 92.466663 
" clip-path="url(#p02d01ed721)" style="fill: none; stroke: #000000; stroke-width: 1.5; stroke-linecap: square"/>
   </g>
   <g id="patch_3">
    <path d="M 60.6 101.94 
L 60.6 33.36 
" style="fill: none; stroke: #000000; stroke-width: 1.5; stroke-linejoin: miter; stroke-linecap: square"/>
   </g>
   <g id="patch_4">
    <path d="M 557.989313 101.94 
L 557.989313 33.36 
" style="fill: none; stroke: #000000; stroke-width: 1.5; stroke-linejoin: miter; stroke-linecap: square"/>
   </g>
   <g id="patch_5">
    <path d="M 60.6 101.94 
L 557.989313 101.94 
" style="fill: none; stroke: #000000; stroke-width: 1.5; stroke-linejoin: miter; stroke-linecap: square"/>
   </g>
   <g id="patch_6">
    <path d="M 60.6 33.36 
L 557.989313 33.36 
" style="fill: none; stroke: #000000; stroke-width: 1.5; stroke-linejoin: miter; stroke-linecap: square"/>
   </g>
   <g id="text_11">
    <!-- ACC (13 neurons) -->
    <g transform="translate(212.609813 27.36) scale(0.22 -0.22)">
     <defs>
      <path id="DejaVuSans-41" d="M 2188 4044 
L 1331 1722 
L 3047 1722 
L 2188 4044 
z
M 1831 4666 
L 2547 4666 
L 4325 0 
L 3669 0 
L 3244 1197 
L 1141 1197 
L 716 0 
L 50 0 
L 1831 4666 
z
" transform="scale(0.015625)"/>
      <path id="DejaVuSans-43" d="M 4122 4306 
L 4122 3641 
Q 3803 3938 3442 4084 
Q 3081 4231 2675 4231 
Q 1875 4231 1450 3742 
Q 1025 3253 1025 2328 
Q 1025 1406 1450 917 
Q 1875 428 2675 428 
Q 3081 428 3442 575 
Q 3803 722 4122 1019 
L 4122 359 
Q 3791 134 3420 21 
Q 3050 -91 2638 -91 
Q 1578 -91 968 557 
Q 359 1206 359 2328 
Q 359 3453 968 4101 
Q 1578 4750 2638 4750 
Q 3056 4750 3426 4639 
Q 3797 4528 4122 4306 
z
" transform="scale(0.015625)"/>
      <path id="DejaVuSans-75" d="M 544 1381 
L 544 3500 
L 1119 3500 
L 1119 1403 
Q 1119 906 1312 657 
Q 1506 409 1894 409 
Q 2359 409 2629 706 
Q 2900 1003 2900 1516 
L 2900 3500 
L 3475 3500 
L 3475 0 
L 2900 0 
L 2900 538 
Q 2691 219 2414 64 
Q 2138 -91 1772 -91 
Q 1169 -91 856 284 
Q 544 659 544 1381 
z
M 1991 3584 
L 1991 3584 
z
" transform="scale(0.015625)"/>
     </defs>
     <use xlink:href="#DejaVuSans-41"/>
     <use xlink:href="#DejaVuSans-43" x="66.658203"/>
     <use xlink:href="#DejaVuSans-43" x="136.482422"/>
     <use xlink:href="#DejaVuSans-20" x="206.306641"/>
     <use xlink:href="#DejaVuSans-28" x="238.09375"/>
     <use xlink:href="#DejaVuSans-31" x="277.107422"/>
     <use xlink:href="#DejaVuSans-33" x="340.730469"/>
     <use xlink:href="#DejaVuSans-20" x="404.353516"/>
     <use xlink:href="#DejaVuSans-6e" x="436.140625"/>
     <use xlink:href="#DejaVuSans-65" x="499.519531"/>
     <use xlink:href="#DejaVuSans-75" x="561.042969"/>
     <use xlink:href="#DejaVuSans-72" x="624.421875"/>
     <use xlink:href="#DejaVuSans-6f" x="663.285156"/>
     <use xlink:href="#DejaVuSans-6e" x="724.466797"/>
     <use xlink:href="#DejaVuSans-73" x="787.845703"/>
     <use xlink:href="#DejaVuSans-29" x="839.945312"/>
    </g>
   </g>
   <g id="legend_1">
    <g id="patch_7">
     <path d="M 67.6 70.71625 
L 146.557813 70.71625 
Q 148.557813 70.71625 148.557813 68.71625 
L 148.557813 40.36 
Q 148.557813 38.36 146.557813 38.36 
L 67.6 38.36 
Q 65.6 38.36 65.6 40.36 
L 65.6 68.71625 
Q 65.6 70.71625 67.6 70.71625 
z
" style="fill: #ffffff; opacity: 0.8; stroke: #cccccc; stroke-linejoin: miter"/>
    </g>
    <g id="line2d_11">
     <path d="M 69.6 46.458438 
L 79.6 46.458438 
L 89.6 46.458438 
" style="fill: none; stroke: #008000; stroke-width: 1.5; stroke-linecap: square"/>
    </g>
    <g id="text_12">
     <!-- ACC -->
     <g transform="translate(97.6 49.958438) scale(0.1 -0.1)">
      <use xlink:href="#DejaVuSans-41"/>
      <use xlink:href="#DejaVuSans-43" x="66.658203"/>
      <use xlink:href="#DejaVuSans-43" x="136.482422"/>
     </g>
    </g>
    <g id="line2d_12">
     <path d="M 69.6 61.136562 
L 79.6 61.136562 
L 89.6 61.136562 
" style="fill: none; stroke: #000000; stroke-width: 1.5; stroke-linecap: square"/>
    </g>
    <g id="text_13">
     <!-- suspense -->
     <g transform="translate(97.6 64.636562) scale(0.1 -0.1)">
      <defs>
       <path id="DejaVuSans-70" d="M 1159 525 
L 1159 -1331 
L 581 -1331 
L 581 3500 
L 1159 3500 
L 1159 2969 
Q 1341 3281 1617 3432 
Q 1894 3584 2278 3584 
Q 2916 3584 3314 3078 
Q 3713 2572 3713 1747 
Q 3713 922 3314 415 
Q 2916 -91 2278 -91 
Q 1894 -91 1617 61 
Q 1341 213 1159 525 
z
M 3116 1747 
Q 3116 2381 2855 2742 
Q 2594 3103 2138 3103 
Q 1681 3103 1420 2742 
Q 1159 2381 1159 1747 
Q 1159 1113 1420 752 
Q 1681 391 2138 391 
Q 2594 391 2855 752 
Q 3116 1113 3116 1747 
z
" transform="scale(0.015625)"/>
      </defs>
      <use xlink:href="#DejaVuSans-73"/>
      <use xlink:href="#DejaVuSans-75" x="52.099609"/>
      <use xlink:href="#DejaVuSans-73" x="115.478516"/>
      <use xlink:href="#DejaVuSans-70" x="167.578125"/>
      <use xlink:href="#DejaVuSans-65" x="231.054688"/>
      <use xlink:href="#DejaVuSans-6e" x="292.578125"/>
      <use xlink:href="#DejaVuSans-73" x="355.957031"/>
      <use xlink:href="#DejaVuSans-65" x="408.056641"/>
     </g>
    </g>
   </g>
  </g>
 </g>
 <defs>
  <clipPath id="p02d01ed721">
   <rect x="60.6" y="33.36" width="497.389313" height="68.58"/>
  </clipPath>
 </defs>
</svg>
