<?xml version="1.0" encoding="utf-8" standalone="no"?>
<!DOCTYPE svg PUBLIC "-//W3C//DTD SVG 1.1//EN"
  "http://www.w3.org/Graphics/SVG/1.1/DTD/svg11.dtd">
<svg xmlns:xlink="http://www.w3.org/1999/xlink" width="576pt" height="144pt" viewBox="0 0 576 144" xmlns="http://www.w3.org/2000/svg" version="1.1">
 <metadata>
  <rdf:RDF xmlns:dc="http://purl.org/dc/elements/1.1/" xmlns:cc="http://creativecommons.org/ns#" xmlns:rdf="http://www.w3.org/1999/02/22-rdf-syntax-ns#">
   <cc:Work>
    <dc:type rdf:resource="http://purl.org/dc/dcmitype/StillImage"/>
    <dc:date>2024-11-08T15:35:52.897522</dc:date>
    <dc:format>image/svg+xml</dc:format>
    <dc:creator>
     <cc:Agent>
      <dc:title>Matplotlib v3.9.2, https://matplotlib.org/</dc:title>
     </cc:Agent>
    </dc:creator>
   </cc:Work>
  </rdf:RDF>
 </metadata>
 <defs>
  <style type="text/css">*{stroke-linejoin: round; stroke-linecap: butt}</style>
 </defs>
 <g id="figure_1">
  <g id="patch_1">
   <path d="M 0 144 
L 576 144 
L 576 0 
L 0 0 
z
" style="fill: #ffffff"/>
  </g>
  <g id="axes_1">
   <g id="patch_2">
    <path d="M 29.06 119.62 
L 557.989313 119.62 
L 557.989313 10.8 
L 29.06 10.8 
z
" style="fill: #ffffff"/>
   </g>
   <g id="PolyCollection_1">
    <defs>
     <path id="m3f1ac55a34" d="M 54.106389 -132.651361 
L 54.106389 -57.312706 
L 55.118711 -56.317259 
L 56.131033 -55.089143 
L 57.143355 -63.728795 
L 58.155678 -64.960955 
L 59.168 -63.635376 
L 60.180322 -62.690246 
L 61.192644 -58.908563 
L 62.204966 -54.181901 
L 63.217288 -47.171158 
L 64.22961 -44.408504 
L 65.241932 -36.437389 
L 66.254254 -36.66587 
L 67.266577 -39.452841 
L 68.278899 -47.395324 
L 69.291221 -47.62002 
L 70.303543 -52.081751 
L 71.315865 -56.316629 
L 72.328187 -57.360693 
L 73.340509 -60.535759 
L 74.352831 -65.078668 
L 75.365153 -64.437725 
L 76.377476 -61.037977 
L 77.389798 -63.884104 
L 78.40212 -58.869817 
L 79.414442 -61.202405 
L 80.426764 -56.540053 
L 81.439086 -56.447207 
L 82.451408 -52.792109 
L 83.46373 -55.685602 
L 84.476053 -63.025462 
L 85.488375 -58.547451 
L 86.500697 -59.914894 
L 87.513019 -59.877955 
L 88.525341 -60.793767 
L 89.537663 -58.96379 
L 90.549985 -51.174111 
L 91.562307 -52.140807 
L 92.574629 -47.270233 
L 93.586952 -41.35622 
L 94.599274 -43.450582 
L 95.611596 -43.474532 
L 96.623918 -51.381744 
L 97.63624 -57.870237 
L 98.648562 -58.469682 
L 99.660884 -53.357911 
L 100.673206 -54.840953 
L 101.685528 -54.469572 
L 102.697851 -53.118682 
L 103.710173 -52.211753 
L 104.722495 -54.312693 
L 105.734817 -50.945832 
L 106.747139 -51.725481 
L 107.759461 -62.293819 
L 108.771783 -66.894322 
L 109.784105 -61.654478 
L 110.796428 -60.44786 
L 111.80875 -60.17417 
L 112.821072 -67.56415 
L 113.833394 -65.784158 
L 114.845716 -63.784273 
L 115.858038 -66.98234 
L 116.87036 -79.018527 
L 117.882682 -67.95189 
L 118.895004 -65.584487 
L 119.907327 -64.345151 
L 120.919649 -62.455646 
L 121.931971 -57.011992 
L 122.944293 -53.658939 
L 123.956615 -49.959245 
L 124.968937 -51.919038 
L 125.981259 -56.926116 
L 126.993581 -61.643358 
L 128.005903 -64.705051 
L 129.018226 -65.81263 
L 130.030548 -66.230704 
L 131.04287 -71.020778 
L 132.055192 -71.108121 
L 133.067514 -66.311332 
L 134.079836 -66.918231 
L 135.092158 -66.33472 
L 136.10448 -61.952671 
L 137.116802 -61.422135 
L 138.129125 -58.088858 
L 139.141447 -58.30115 
L 140.153769 -63.727961 
L 141.166091 -72.102673 
L 142.178413 -64.453354 
L 143.190735 -64.737394 
L 144.203057 -64.608384 
L 145.215379 -58.595707 
L 146.227702 -62.977395 
L 147.240024 -66.188305 
L 148.252346 -66.966871 
L 149.264668 -71.14888 
L 150.27699 -76.182497 
L 151.289312 -77.06911 
L 152.301634 -76.553158 
L 153.313956 -74.869493 
L 154.326278 -66.413224 
L 155.338601 -62.198065 
L 156.350923 -61.104549 
L 157.363245 -59.55127 
L 158.375567 -62.985967 
L 159.387889 -66.9236 
L 160.400211 -73.329783 
L 161.412533 -70.187947 
L 162.424855 -67.291002 
L 163.437177 -60.936493 
L 164.4495 -58.735707 
L 165.461822 -52.863833 
L 166.474144 -50.131051 
L 167.486466 -56.238519 
L 168.498788 -61.21595 
L 169.51111 -69.829286 
L 170.523432 -71.628037 
L 171.535754 -74.593394 
L 172.548076 -68.515875 
L 173.560399 -67.699515 
L 174.572721 -62.618611 
L 175.585043 -64.888529 
L 176.597365 -69.355102 
L 177.609687 -63.318946 
L 178.622009 -56.734345 
L 179.634331 -52.532224 
L 180.646653 -50.767099 
L 181.658976 -52.017371 
L 182.671298 -55.856106 
L 183.68362 -58.461271 
L 184.695942 -60.082961 
L 185.708264 -62.839217 
L 186.720586 -63.196866 
L 187.732908 -63.011185 
L 188.74523 -60.782261 
L 189.757552 -61.73748 
L 190.769875 -59.62392 
L 191.782197 -60.990581 
L 192.794519 -63.701966 
L 193.806841 -63.991001 
L 194.819163 -60.856423 
L 195.831485 -55.457848 
L 196.843807 -54.138814 
L 197.856129 -50.605143 
L 198.868451 -56.636633 
L 199.880774 -64.58984 
L 200.893096 -70.6427 
L 201.905418 -74.122783 
L 202.91774 -73.717723 
L 203.930062 -74.362318 
L 204.942384 -72.378142 
L 205.954706 -70.582317 
L 206.967028 -71.617734 
L 207.97935 -70.346043 
L 208.991673 -63.728011 
L 210.003995 -64.476342 
L 211.016317 -59.970325 
L 212.028639 -59.504126 
L 213.040961 -64.055979 
L 214.053283 -70.438005 
L 215.065605 -69.771994 
L 216.077927 -69.161421 
L 217.09025 -65.575211 
L 218.102572 -58.106384 
L 219.114894 -53.60159 
L 220.127216 -55.856933 
L 221.139538 -56.052621 
L 222.15186 -54.24159 
L 223.164182 -55.879707 
L 224.176504 -60.08218 
L 225.188826 -54.460598 
L 226.201149 -54.85941 
L 227.213471 -59.14239 
L 228.225793 -59.393924 
L 229.238115 -58.129716 
L 230.250437 -56.675341 
L 231.262759 -54.988531 
L 232.275081 -54.726066 
L 233.287403 -52.648998 
L 234.299725 -48.865038 
L 235.312048 -52.205183 
L 236.32437 -49.408267 
L 237.336692 -48.944299 
L 238.349014 -50.57472 
L 239.361336 -50.85055 
L 240.373658 -51.566846 
L 241.38598 -52.851447 
L 242.398302 -50.191877 
L 243.410624 -52.301819 
L 244.422947 -52.294094 
L 245.435269 -51.250365 
L 246.447591 -54.680361 
L 247.459913 -59.552331 
L 248.472235 -61.128619 
L 249.484557 -57.37515 
L 250.496879 -57.194596 
L 251.509201 -55.785362 
L 252.521524 -57.281389 
L 253.533846 -58.571289 
L 254.546168 -66.037846 
L 255.55849 -69.007636 
L 256.570812 -62.399245 
L 257.583134 -49.655877 
L 258.595456 -51.098095 
L 259.607778 -46.446161 
L 260.6201 -45.004589 
L 261.632423 -46.657562 
L 262.644745 -46.612691 
L 263.657067 -44.233399 
L 264.669389 -44.948096 
L 265.681711 -47.904939 
L 266.694033 -50.769789 
L 267.706355 -52.456708 
L 268.718677 -52.877281 
L 269.730999 -54.228586 
L 270.743322 -52.092078 
L 271.755644 -58.730947 
L 272.767966 -59.760975 
L 273.780288 -59.31198 
L 274.79261 -60.420466 
L 275.804932 -64.650661 
L 276.817254 -64.078694 
L 277.829576 -61.336131 
L 278.841898 -55.550306 
L 279.854221 -55.101386 
L 280.866543 -58.529129 
L 281.878865 -61.029752 
L 282.891187 -61.604682 
L 283.903509 -65.216614 
L 284.915831 -61.303826 
L 285.928153 -60.18715 
L 286.940475 -58.145403 
L 287.952798 -58.004167 
L 288.96512 -62.276727 
L 289.977442 -64.410217 
L 290.989764 -55.468622 
L 292.002086 -53.735748 
L 293.014408 -58.174456 
L 294.02673 -58.323896 
L 295.039052 -62.178469 
L 296.051374 -67.238793 
L 297.063697 -66.956439 
L 298.076019 -61.779929 
L 299.088341 -56.929793 
L 300.100663 -50.128087 
L 301.112985 -44.753102 
L 302.125307 -48.104989 
L 303.137629 -54.039434 
L 304.149951 -54.175162 
L 305.162273 -60.898099 
L 306.174596 -66.056463 
L 307.186918 -68.447387 
L 308.19924 -69.648348 
L 309.211562 -65.653421 
L 310.223884 -58.768261 
L 311.236206 -59.129756 
L 312.248528 -56.09293 
L 313.26085 -55.194804 
L 314.273173 -56.063941 
L 315.285495 -62.598223 
L 316.297817 -62.714136 
L 317.310139 -64.607646 
L 318.322461 -65.218008 
L 319.334783 -66.835585 
L 320.347105 -65.089128 
L 321.359427 -64.661306 
L 322.371749 -74.142618 
L 323.384072 -70.381407 
L 324.396394 -65.130693 
L 325.408716 -63.36448 
L 326.421038 -64.774551 
L 327.43336 -59.197802 
L 328.445682 -57.806854 
L 329.458004 -55.522002 
L 330.470326 -62.542708 
L 331.482648 -63.093796 
L 332.494971 -61.847631 
L 333.507293 -62.103556 
L 334.519615 -63.362405 
L 335.531937 -64.773341 
L 336.544259 -61.523095 
L 337.556581 -60.130916 
L 338.568903 -55.218933 
L 339.581225 -45.821692 
L 340.593547 -42.215742 
L 341.60587 -49.470487 
L 342.618192 -51.830195 
L 343.630514 -55.759001 
L 344.642836 -59.452967 
L 345.655158 -62.588555 
L 346.66748 -64.889934 
L 347.679802 -67.260717 
L 348.692124 -63.667928 
L 349.704447 -67.462482 
L 350.716769 -66.17009 
L 351.729091 -59.861642 
L 352.741413 -59.659739 
L 353.753735 -60.505192 
L 354.766057 -60.22486 
L 355.778379 -58.652231 
L 356.790701 -57.846399 
L 357.803023 -51.697717 
L 358.815346 -52.011267 
L 359.827668 -53.697741 
L 360.83999 -53.53414 
L 361.852312 -57.414882 
L 362.864634 -62.965023 
L 363.876956 -56.464107 
L 364.889278 -58.927702 
L 365.9016 -55.486694 
L 366.913922 -52.184129 
L 367.926245 -42.721411 
L 368.938567 -46.536152 
L 369.950889 -46.608135 
L 370.963211 -51.635692 
L 371.975533 -49.026698 
L 372.987855 -51.415716 
L 374.000177 -55.498852 
L 375.012499 -50.997234 
L 376.024821 -45.947196 
L 377.037144 -47.755739 
L 378.049466 -49.31601 
L 379.061788 -42.139529 
L 380.07411 -47.351034 
L 381.086432 -47.421992 
L 382.098754 -46.09158 
L 383.111076 -51.120897 
L 384.123398 -48.088227 
L 385.135721 -50.780536 
L 386.148043 -58.895029 
L 387.160365 -60.965554 
L 388.172687 -65.558866 
L 389.185009 -68.229311 
L 390.197331 -71.436736 
L 391.209653 -69.210479 
L 392.221975 -64.731538 
L 393.234297 -57.861876 
L 394.24662 -59.921523 
L 395.258942 -58.751513 
L 396.271264 -60.221746 
L 397.283586 -58.926016 
L 398.295908 -60.400936 
L 399.30823 -63.99287 
L 400.320552 -66.792934 
L 401.332874 -63.995725 
L 402.345196 -66.278445 
L 403.357519 -60.959785 
L 404.369841 -57.692659 
L 405.382163 -57.364733 
L 406.394485 -64.688601 
L 407.406807 -70.61991 
L 408.419129 -73.165558 
L 409.431451 -73.480058 
L 410.443773 -64.445433 
L 411.456095 -60.917584 
L 412.468418 -52.734248 
L 413.48074 -48.022804 
L 414.493062 -49.861741 
L 415.505384 -47.812882 
L 416.517706 -53.927819 
L 417.530028 -61.241554 
L 418.54235 -65.060883 
L 419.554672 -67.319018 
L 420.566995 -68.648393 
L 421.579317 -65.446374 
L 422.591639 -58.452364 
L 423.603961 -69.614602 
L 424.616283 -73.547479 
L 425.628605 -73.30933 
L 426.640927 -70.89213 
L 427.653249 -65.384113 
L 428.665571 -60.208087 
L 429.677894 -58.348533 
L 430.690216 -51.839032 
L 431.702538 -52.145477 
L 432.71486 -49.017734 
L 433.727182 -49.514319 
L 434.739504 -48.621537 
L 435.751826 -50.196618 
L 436.764148 -48.914368 
L 437.77647 -50.396225 
L 438.788793 -56.762297 
L 439.801115 -54.034475 
L 440.813437 -55.08319 
L 441.825759 -51.439988 
L 442.838081 -52.379904 
L 443.850403 -51.589583 
L 444.862725 -53.348446 
L 445.875047 -55.344929 
L 446.887369 -62.036072 
L 447.899692 -65.29054 
L 448.912014 -61.566232 
L 449.924336 -65.002964 
L 450.936658 -64.141327 
L 451.94898 -55.700714 
L 452.961302 -53.956674 
L 453.973624 -55.268897 
L 454.985946 -55.625612 
L 455.998269 -52.665158 
L 457.010591 -56.530381 
L 458.022913 -56.029715 
L 459.035235 -57.859011 
L 460.047557 -55.864382 
L 461.059879 -59.60277 
L 462.072201 -60.328656 
L 463.084523 -54.898749 
L 464.096845 -51.412954 
L 465.109168 -49.119134 
L 466.12149 -43.754142 
L 467.133812 -45.270988 
L 468.146134 -51.291688 
L 469.158456 -55.787986 
L 470.170778 -60.434253 
L 471.1831 -70.705292 
L 472.195422 -64.371769 
L 473.207744 -60.554529 
L 474.220067 -61.011148 
L 475.232389 -62.835311 
L 476.244711 -62.021166 
L 477.257033 -64.441652 
L 478.269355 -57.334801 
L 479.281677 -51.468002 
L 480.293999 -51.980642 
L 481.306321 -58.082425 
L 482.318643 -54.549012 
L 483.330966 -55.135537 
L 484.343288 -56.89167 
L 485.35561 -55.584776 
L 486.367932 -50.955906 
L 487.380254 -49.854629 
L 488.392576 -59.312617 
L 489.404898 -61.074633 
L 490.41722 -63.267728 
L 491.429543 -65.234494 
L 492.441865 -68.731808 
L 493.454187 -62.965219 
L 494.466509 -61.999043 
L 495.478831 -54.411501 
L 496.491153 -50.75755 
L 497.503475 -50.561494 
L 498.515797 -59.477016 
L 499.528119 -69.225976 
L 500.540442 -65.579664 
L 501.552764 -67.338628 
L 502.565086 -66.476184 
L 503.577408 -59.805377 
L 504.58973 -51.676049 
L 505.602052 -49.401881 
L 506.614374 -50.309365 
L 507.626696 -56.122436 
L 508.639018 -60.509045 
L 509.651341 -57.505841 
L 510.663663 -61.109069 
L 511.675985 -65.432203 
L 512.688307 -61.703008 
L 513.700629 -58.911343 
L 514.712951 -56.733779 
L 515.725273 -64.702224 
L 516.737595 -64.714618 
L 517.749918 -63.022483 
L 518.76224 -64.797245 
L 519.774562 -63.874046 
L 520.786884 -58.536908 
L 521.799206 -67.880751 
L 522.811528 -69.21943 
L 523.82385 -76.979399 
L 524.836172 -77.731149 
L 525.848494 -75.88018 
L 526.860817 -63.244258 
L 527.873139 -64.616823 
L 528.885461 -55.316102 
L 529.897783 -53.052362 
L 530.910105 -46.184486 
L 531.922427 -41.315401 
L 532.934749 -32.92892 
L 533.947071 -27.813997 
L 533.947071 -48.944995 
L 533.947071 -48.944995 
L 532.934749 -50.58861 
L 531.922427 -61.878919 
L 530.910105 -70.325739 
L 529.897783 -80.926434 
L 528.885461 -95.440881 
L 527.873139 -116.733111 
L 526.860817 -114.254959 
L 525.848494 -123.903332 
L 524.836172 -130.122283 
L 523.82385 -127.670931 
L 522.811528 -120.948288 
L 521.799206 -124.072268 
L 520.786884 -116.856087 
L 519.774562 -117.318981 
L 518.76224 -124.268379 
L 517.749918 -121.077082 
L 516.737595 -126.102588 
L 515.725273 -129.899108 
L 514.712951 -138.407135 
L 513.700629 -136.619678 
L 512.688307 -134.321564 
L 511.675985 -118.219117 
L 510.663663 -116.010765 
L 509.651341 -99.863344 
L 508.639018 -93.852885 
L 507.626696 -100.675457 
L 506.614374 -112.447937 
L 505.602052 -113.557338 
L 504.58973 -123.376557 
L 503.577408 -129.225833 
L 502.565086 -126.448687 
L 501.552764 -115.870258 
L 500.540442 -111.256936 
L 499.528119 -96.715587 
L 498.515797 -84.162262 
L 497.503475 -85.186599 
L 496.491153 -92.783443 
L 495.478831 -96.393186 
L 494.466509 -112.81265 
L 493.454187 -122.837029 
L 492.441865 -127.86494 
L 491.429543 -125.358536 
L 490.41722 -122.262671 
L 489.404898 -101.425472 
L 488.392576 -89.049519 
L 487.380254 -80.84998 
L 486.367932 -88.925985 
L 485.35561 -92.339448 
L 484.343288 -105.476191 
L 483.330966 -116.663971 
L 482.318643 -116.643155 
L 481.306321 -109.233862 
L 480.293999 -107.211323 
L 479.281677 -94.474239 
L 478.269355 -95.693655 
L 477.257033 -98.959892 
L 476.244711 -98.232655 
L 475.232389 -108.999793 
L 474.220067 -111.26032 
L 473.207744 -105.191568 
L 472.195422 -106.047205 
L 471.1831 -108.582279 
L 470.170778 -102.377958 
L 469.158456 -99.74761 
L 468.146134 -108.240328 
L 467.133812 -100.944826 
L 466.12149 -95.431293 
L 465.109168 -102.414735 
L 464.096845 -104.526234 
L 463.084523 -99.827932 
L 462.072201 -97.404976 
L 461.059879 -98.265388 
L 460.047557 -88.96616 
L 459.035235 -92.231103 
L 458.022913 -86.883596 
L 457.010591 -85.713838 
L 455.998269 -88.786518 
L 454.985946 -91.353699 
L 453.973624 -89.046962 
L 452.961302 -89.836807 
L 451.94898 -87.187542 
L 450.936658 -93.71188 
L 449.924336 -104.550022 
L 448.912014 -110.765872 
L 447.899692 -112.737741 
L 446.887369 -120.079941 
L 445.875047 -114.966104 
L 444.862725 -111.456234 
L 443.850403 -104.671052 
L 442.838081 -107.020992 
L 441.825759 -101.732165 
L 440.813437 -90.17249 
L 439.801115 -82.318843 
L 438.788793 -84.945828 
L 437.77647 -84.916415 
L 436.764148 -81.566639 
L 435.751826 -87.311544 
L 434.739504 -91.511266 
L 433.727182 -90.08173 
L 432.71486 -89.116959 
L 431.702538 -97.450432 
L 430.690216 -101.546473 
L 429.677894 -100.605643 
L 428.665571 -105.043294 
L 427.653249 -111.440339 
L 426.640927 -113.509708 
L 425.628605 -103.409431 
L 424.616283 -99.664467 
L 423.603961 -99.126579 
L 422.591639 -100.260571 
L 421.579317 -92.437756 
L 420.566995 -100.952525 
L 419.554672 -102.067979 
L 418.54235 -107.509576 
L 417.530028 -106.299032 
L 416.517706 -110.060561 
L 415.505384 -100.065528 
L 414.493062 -103.245882 
L 413.48074 -102.807284 
L 412.468418 -109.541072 
L 411.456095 -111.689598 
L 410.443773 -121.987091 
L 409.431451 -116.665105 
L 408.419129 -115.963872 
L 407.406807 -109.281177 
L 406.394485 -99.607074 
L 405.382163 -110.768888 
L 404.369841 -111.177904 
L 403.357519 -107.78732 
L 402.345196 -107.733738 
L 401.332874 -102.798977 
L 400.320552 -91.708732 
L 399.30823 -94.973471 
L 398.295908 -96.503448 
L 397.283586 -93.044186 
L 396.271264 -96.716272 
L 395.258942 -99.756017 
L 394.24662 -91.548834 
L 393.234297 -94.024134 
L 392.221975 -102.994062 
L 391.209653 -105.856936 
L 390.197331 -105.85708 
L 389.185009 -107.431559 
L 388.172687 -113.260363 
L 387.160365 -109.51867 
L 386.148043 -111.083073 
L 385.135721 -117.703811 
L 384.123398 -126.700918 
L 383.111076 -124.995345 
L 382.098754 -133.159603 
L 381.086432 -124.325254 
L 380.07411 -134.675877 
L 379.061788 -136.404615 
L 378.049466 -135.620419 
L 377.037144 -129.988183 
L 376.024821 -139.508264 
L 375.012499 -130.035305 
L 374.000177 -136.147282 
L 372.987855 -138.46625 
L 371.975533 -137.315256 
L 370.963211 -135.378385 
L 369.950889 -136.833795 
L 368.938567 -123.87903 
L 367.926245 -129.55185 
L 366.913922 -138.300292 
L 365.9016 -142.402213 
L 364.889278 -127.423083 
L 363.876956 -125.387687 
L 362.864634 -109.677811 
L 361.852312 -97.820763 
L 360.83999 -89.61418 
L 359.827668 -93.381897 
L 358.815346 -95.004237 
L 357.803023 -93.464649 
L 356.790701 -91.905078 
L 355.778379 -89.925053 
L 354.766057 -92.986968 
L 353.753735 -95.979871 
L 352.741413 -96.005344 
L 351.729091 -101.491641 
L 350.716769 -101.298634 
L 349.704447 -101.150785 
L 348.692124 -110.126867 
L 347.679802 -117.161644 
L 346.66748 -111.224649 
L 345.655158 -108.770197 
L 344.642836 -110.973802 
L 343.630514 -105.641753 
L 342.618192 -104.464361 
L 341.60587 -102.813288 
L 340.593547 -123.495185 
L 339.581225 -134.615936 
L 338.568903 -133.595831 
L 337.556581 -122.211081 
L 336.544259 -119.838504 
L 335.531937 -98.59612 
L 334.519615 -88.765316 
L 333.507293 -88.162316 
L 332.494971 -90.899928 
L 331.482648 -93.158038 
L 330.470326 -98.447701 
L 329.458004 -100.543446 
L 328.445682 -101.608385 
L 327.43336 -98.7803 
L 326.421038 -109.730195 
L 325.408716 -106.245257 
L 324.396394 -103.164509 
L 323.384072 -96.505201 
L 322.371749 -106.301437 
L 321.359427 -98.71351 
L 320.347105 -109.239681 
L 319.334783 -112.786925 
L 318.322461 -108.089282 
L 317.310139 -96.404372 
L 316.297817 -100.375612 
L 315.285495 -103.794646 
L 314.273173 -108.991077 
L 313.26085 -119.652832 
L 312.248528 -125.297818 
L 311.236206 -124.330424 
L 310.223884 -120.611019 
L 309.211562 -112.575171 
L 308.19924 -114.472248 
L 307.186918 -113.538582 
L 306.174596 -113.541524 
L 305.162273 -116.029132 
L 304.149951 -121.759591 
L 303.137629 -106.572438 
L 302.125307 -110.124279 
L 301.112985 -120.958697 
L 300.100663 -116.09528 
L 299.088341 -106.798139 
L 298.076019 -101.489582 
L 297.063697 -100.877874 
L 296.051374 -96.857278 
L 295.039052 -102.267003 
L 294.02673 -106.303543 
L 293.014408 -111.955141 
L 292.002086 -117.676133 
L 290.989764 -121.374104 
L 289.977442 -115.789628 
L 288.96512 -115.662244 
L 287.952798 -115.274209 
L 286.940475 -112.822395 
L 285.928153 -106.652842 
L 284.915831 -103.834437 
L 283.903509 -105.245218 
L 282.891187 -119.028259 
L 281.878865 -120.537692 
L 280.866543 -126.632464 
L 279.854221 -120.044177 
L 278.841898 -123.227 
L 277.829576 -114.425876 
L 276.817254 -112.375077 
L 275.804932 -113.246105 
L 274.79261 -119.678914 
L 273.780288 -113.251801 
L 272.767966 -108.609611 
L 271.755644 -98.493852 
L 270.743322 -99.913803 
L 269.730999 -104.311361 
L 268.718677 -106.790438 
L 267.706355 -103.394914 
L 266.694033 -107.339187 
L 265.681711 -123.280901 
L 264.669389 -144.40506 
L 263.657067 -154.274403 
L 262.644745 -159.241839 
L 261.632423 -161.02199 
L 260.6201 -153.254947 
L 259.607778 -139.358886 
L 258.595456 -139.452891 
L 257.583134 -140.854099 
L 256.570812 -146.772322 
L 255.55849 -129.21158 
L 254.546168 -114.3152 
L 253.533846 -98.217707 
L 252.521524 -94.433606 
L 251.509201 -82.463421 
L 250.496879 -87.128697 
L 249.484557 -87.469213 
L 248.472235 -88.361062 
L 247.459913 -86.285983 
L 246.447591 -83.780081 
L 245.435269 -82.938409 
L 244.422947 -88.692456 
L 243.410624 -89.038742 
L 242.398302 -88.125718 
L 241.38598 -88.17425 
L 240.373658 -92.191008 
L 239.361336 -100.207161 
L 238.349014 -107.375984 
L 237.336692 -118.815266 
L 236.32437 -133.164623 
L 235.312048 -127.633196 
L 234.299725 -119.886247 
L 233.287403 -107.348938 
L 232.275081 -97.715946 
L 231.262759 -88.544779 
L 230.250437 -90.335901 
L 229.238115 -91.405432 
L 228.225793 -97.262742 
L 227.213471 -101.539426 
L 226.201149 -91.575401 
L 225.188826 -88.676256 
L 224.176504 -85.718627 
L 223.164182 -81.538676 
L 222.15186 -86.894007 
L 221.139538 -92.485911 
L 220.127216 -102.492816 
L 219.114894 -104.790908 
L 218.102572 -127.675386 
L 217.09025 -133.771656 
L 216.077927 -132.845755 
L 215.065605 -117.629916 
L 214.053283 -122.901215 
L 213.040961 -113.221278 
L 212.028639 -108.745277 
L 211.016317 -114.888606 
L 210.003995 -118.447015 
L 208.991673 -116.949972 
L 207.97935 -123.001102 
L 206.967028 -129.185274 
L 205.954706 -130.17009 
L 204.942384 -144.882244 
L 203.930062 -140.970195 
L 202.91774 -125.043889 
L 201.905418 -114.47232 
L 200.893096 -110.802597 
L 199.880774 -95.261062 
L 198.868451 -98.245989 
L 197.856129 -101.138415 
L 196.843807 -98.907179 
L 195.831485 -100.807052 
L 194.819163 -101.48899 
L 193.806841 -108.931768 
L 192.794519 -107.6708 
L 191.782197 -109.360364 
L 190.769875 -109.275896 
L 189.757552 -109.599383 
L 188.74523 -100.305546 
L 187.732908 -108.768033 
L 186.720586 -109.549831 
L 185.708264 -106.763242 
L 184.695942 -109.982714 
L 183.68362 -116.932506 
L 182.671298 -114.168274 
L 181.658976 -109.602765 
L 180.646653 -112.229096 
L 179.634331 -101.753933 
L 178.622009 -99.136854 
L 177.609687 -93.614448 
L 176.597365 -95.653742 
L 175.585043 -93.260847 
L 174.572721 -96.843911 
L 173.560399 -102.371441 
L 172.548076 -107.461268 
L 171.535754 -104.934703 
L 170.523432 -108.857728 
L 169.51111 -111.156407 
L 168.498788 -100.696215 
L 167.486466 -97.124041 
L 166.474144 -89.062091 
L 165.461822 -95.195336 
L 164.4495 -104.84587 
L 163.437177 -109.52352 
L 162.424855 -117.413314 
L 161.412533 -116.305075 
L 160.400211 -110.182165 
L 159.387889 -99.203875 
L 158.375567 -94.635951 
L 157.363245 -83.08384 
L 156.350923 -87.913562 
L 155.338601 -96.047375 
L 154.326278 -107.344259 
L 153.313956 -120.442123 
L 152.301634 -132.447504 
L 151.289312 -130.442631 
L 150.27699 -124.108888 
L 149.264668 -116.023964 
L 148.252346 -107.282564 
L 147.240024 -106.243442 
L 146.227702 -108.555011 
L 145.215379 -121.652092 
L 144.203057 -123.047525 
L 143.190735 -119.005466 
L 142.178413 -109.570532 
L 141.166091 -118.420525 
L 140.153769 -111.880229 
L 139.141447 -108.612218 
L 138.129125 -111.800401 
L 137.116802 -118.498027 
L 136.10448 -115.127208 
L 135.092158 -120.458563 
L 134.079836 -121.831533 
L 133.067514 -119.564462 
L 132.055192 -114.134226 
L 131.04287 -106.712525 
L 130.030548 -105.190886 
L 129.018226 -104.357209 
L 128.005903 -104.337078 
L 126.993581 -101.498094 
L 125.981259 -107.989416 
L 124.968937 -108.409148 
L 123.956615 -111.665541 
L 122.944293 -107.516764 
L 121.931971 -105.489298 
L 120.919649 -111.008182 
L 119.907327 -114.059615 
L 118.895004 -119.625699 
L 117.882682 -117.996173 
L 116.87036 -119.703216 
L 115.858038 -108.304815 
L 114.845716 -106.316135 
L 113.833394 -102.298477 
L 112.821072 -108.671891 
L 111.80875 -107.440998 
L 110.796428 -116.989484 
L 109.784105 -120.017613 
L 108.771783 -116.552799 
L 107.759461 -115.858525 
L 106.747139 -130.532294 
L 105.734817 -129.352136 
L 104.722495 -128.629782 
L 103.710173 -119.87544 
L 102.697851 -115.795266 
L 101.685528 -97.008307 
L 100.673206 -92.15812 
L 99.660884 -87.933908 
L 98.648562 -101.214225 
L 97.63624 -98.569727 
L 96.623918 -108.716114 
L 95.611596 -122.336439 
L 94.599274 -125.200911 
L 93.586952 -117.936873 
L 92.574629 -115.506941 
L 91.562307 -116.691372 
L 90.549985 -112.441571 
L 89.537663 -112.039515 
L 88.525341 -110.676069 
L 87.513019 -109.150707 
L 86.500697 -102.294365 
L 85.488375 -104.529038 
L 84.476053 -102.641642 
L 83.46373 -109.204664 
L 82.451408 -113.015312 
L 81.439086 -116.712351 
L 80.426764 -113.806443 
L 79.414442 -110.370914 
L 78.40212 -121.49165 
L 77.389798 -125.644025 
L 76.377476 -123.188263 
L 75.365153 -129.551885 
L 74.352831 -132.082701 
L 73.340509 -128.108415 
L 72.328187 -127.178784 
L 71.315865 -130.671016 
L 70.303543 -135.009481 
L 69.291221 -129.287486 
L 68.278899 -121.163709 
L 67.266577 -130.622846 
L 66.254254 -127.255827 
L 65.241932 -113.427003 
L 64.22961 -108.968001 
L 63.217288 -111.685482 
L 62.204966 -104.293154 
L 61.192644 -115.361096 
L 60.180322 -128.958824 
L 59.168 -122.986042 
L 58.155678 -118.632113 
L 57.143355 -119.267606 
L 56.131033 -129.611351 
L 55.118711 -126.88545 
L 54.106389 -132.651361 
z
" style="stroke: #008000; stroke-opacity: 0.1"/>
    </defs>
    <g clip-path="url(#p9c3cab89c4)">
     <use xlink:href="#m3f1ac55a34" x="0" y="144" style="fill: #008000; fill-opacity: 0.1; stroke: #008000; stroke-opacity: 0.1"/>
    </g>
   </g>
   <g id="matplotlib.axis_1">
    <g id="xtick_1">
     <g id="line2d_1"/>
     <g id="text_1">
      <!-- 0 -->
      <g transform="translate(49.920991 130.718437) scale(0.1 -0.1)">
       <defs>
        <path id="DejaVuSans-30" d="M 2034 4250 
Q 1547 4250 1301 3770 
Q 1056 3291 1056 2328 
Q 1056 1369 1301 889 
Q 1547 409 2034 409 
Q 2525 409 2770 889 
Q 3016 1369 3016 2328 
Q 3016 3291 2770 3770 
Q 2525 4250 2034 4250 
z
M 2034 4750 
Q 2819 4750 3233 4129 
Q 3647 3509 3647 2328 
Q 3647 1150 3233 529 
Q 2819 -91 2034 -91 
Q 1250 -91 836 529 
Q 422 1150 422 2328 
Q 422 3509 836 4129 
Q 1250 4750 2034 4750 
z
" transform="scale(0.015625)"/>
       </defs>
       <use xlink:href="#DejaVuSans-30"/>
      </g>
     </g>
    </g>
    <g id="xtick_2">
     <g id="line2d_2"/>
     <g id="text_2">
      <!-- 100 -->
      <g transform="translate(143.973252 130.718437) scale(0.1 -0.1)">
       <defs>
        <path id="DejaVuSans-31" d="M 794 531 
L 1825 531 
L 1825 4091 
L 703 3866 
L 703 4441 
L 1819 4666 
L 2450 4666 
L 2450 531 
L 3481 531 
L 3481 0 
L 794 0 
L 794 531 
z
" transform="scale(0.015625)"/>
       </defs>
       <use xlink:href="#DejaVuSans-31"/>
       <use xlink:href="#DejaVuSans-30" x="63.623047"/>
       <use xlink:href="#DejaVuSans-30" x="127.246094"/>
      </g>
     </g>
    </g>
    <g id="xtick_3">
     <g id="line2d_3"/>
     <g id="text_3">
      <!-- 200 -->
      <g transform="translate(244.388012 130.718437) scale(0.1 -0.1)">
       <defs>
        <path id="DejaVuSans-32" d="M 1228 531 
L 3431 531 
L 3431 0 
L 469 0 
L 469 531 
Q 828 903 1448 1529 
Q 2069 2156 2228 2338 
Q 2531 2678 2651 2914 
Q 2772 3150 2772 3378 
Q 2772 3750 2511 3984 
Q 2250 4219 1831 4219 
Q 1534 4219 1204 4116 
Q 875 4013 500 3803 
L 500 4441 
Q 881 4594 1212 4672 
Q 1544 4750 1819 4750 
Q 2544 4750 2975 4387 
Q 3406 4025 3406 3419 
Q 3406 3131 3298 2873 
Q 3191 2616 2906 2266 
Q 2828 2175 2409 1742 
Q 1991 1309 1228 531 
z
" transform="scale(0.015625)"/>
       </defs>
       <use xlink:href="#DejaVuSans-32"/>
       <use xlink:href="#DejaVuSans-30" x="63.623047"/>
       <use xlink:href="#DejaVuSans-30" x="127.246094"/>
      </g>
     </g>
    </g>
    <g id="xtick_4">
     <g id="line2d_4"/>
     <g id="text_4">
      <!-- 300 -->
      <g transform="translate(344.802772 130.718437) scale(0.1 -0.1)">
       <defs>
        <path id="DejaVuSans-33" d="M 2597 2516 
Q 3050 2419 3304 2112 
Q 3559 1806 3559 1356 
Q 3559 666 3084 287 
Q 2609 -91 1734 -91 
Q 1441 -91 1130 -33 
Q 819 25 488 141 
L 488 750 
Q 750 597 1062 519 
Q 1375 441 1716 441 
Q 2309 441 2620 675 
Q 2931 909 2931 1356 
Q 2931 1769 2642 2001 
Q 2353 2234 1838 2234 
L 1294 2234 
L 1294 2753 
L 1863 2753 
Q 2328 2753 2575 2939 
Q 2822 3125 2822 3475 
Q 2822 3834 2567 4026 
Q 2313 4219 1838 4219 
Q 1578 4219 1281 4162 
Q 984 4106 628 3988 
L 628 4550 
Q 988 4650 1302 4700 
Q 1616 4750 1894 4750 
Q 2613 4750 3031 4423 
Q 3450 4097 3450 3541 
Q 3450 3153 3228 2886 
Q 3006 2619 2597 2516 
z
" transform="scale(0.015625)"/>
       </defs>
       <use xlink:href="#DejaVuSans-33"/>
       <use xlink:href="#DejaVuSans-30" x="63.623047"/>
       <use xlink:href="#DejaVuSans-30" x="127.246094"/>
      </g>
     </g>
    </g>
    <g id="xtick_5">
     <g id="line2d_5"/>
     <g id="text_5">
      <!-- 400 -->
      <g transform="translate(445.217533 130.718437) scale(0.1 -0.1)">
       <defs>
        <path id="DejaVuSans-34" d="M 2419 4116 
L 825 1625 
L 2419 1625 
L 2419 4116 
z
M 2253 4666 
L 3047 4666 
L 3047 1625 
L 3713 1625 
L 3713 1100 
L 3047 1100 
L 3047 0 
L 2419 0 
L 2419 1100 
L 313 1100 
L 313 1709 
L 2253 4666 
z
" transform="scale(0.015625)"/>
       </defs>
       <use xlink:href="#DejaVuSans-34"/>
       <use xlink:href="#DejaVuSans-30" x="63.623047"/>
       <use xlink:href="#DejaVuSans-30" x="127.246094"/>
      </g>
     </g>
    </g>
    <g id="xtick_6">
     <g id="line2d_6"/>
     <g id="text_6">
      <!-- 500 -->
      <g transform="translate(545.632293 130.718437) scale(0.1 -0.1)">
       <defs>
        <path id="DejaVuSans-35" d="M 691 4666 
L 3169 4666 
L 3169 4134 
L 1269 4134 
L 1269 2991 
Q 1406 3038 1543 3061 
Q 1681 3084 1819 3084 
Q 2600 3084 3056 2656 
Q 3513 2228 3513 1497 
Q 3513 744 3044 326 
Q 2575 -91 1722 -91 
Q 1428 -91 1123 -41 
Q 819 9 494 109 
L 494 744 
Q 775 591 1075 516 
Q 1375 441 1709 441 
Q 2250 441 2565 725 
Q 2881 1009 2881 1497 
Q 2881 1984 2565 2268 
Q 2250 2553 1709 2553 
Q 1456 2553 1204 2497 
Q 953 2441 691 2322 
L 691 4666 
z
" transform="scale(0.015625)"/>
       </defs>
       <use xlink:href="#DejaVuSans-35"/>
       <use xlink:href="#DejaVuSans-30" x="63.623047"/>
       <use xlink:href="#DejaVuSans-30" x="127.246094"/>
      </g>
     </g>
    </g>
   </g>
   <g id="matplotlib.axis_2">
    <g id="ytick_1">
     <g id="line2d_7"/>
     <g id="text_7">
      <!-- −2 -->
      <g transform="translate(10.817813 112.537219) scale(0.1 -0.1)">
       <defs>
        <path id="DejaVuSans-2212" d="M 678 2272 
L 4684 2272 
L 4684 1741 
L 678 1741 
L 678 2272 
z
" transform="scale(0.015625)"/>
       </defs>
       <use xlink:href="#DejaVuSans-2212"/>
       <use xlink:href="#DejaVuSans-32" x="83.789062"/>
      </g>
     </g>
    </g>
    <g id="ytick_2">
     <g id="line2d_8"/>
     <g id="text_8">
      <!-- −1 -->
      <g transform="translate(10.817813 90.773219) scale(0.1 -0.1)">
       <use xlink:href="#DejaVuSans-2212"/>
       <use xlink:href="#DejaVuSans-31" x="83.789062"/>
      </g>
     </g>
    </g>
    <g id="ytick_3">
     <g id="line2d_9"/>
     <g id="text_9">
      <!-- 0 -->
      <g transform="translate(19.1975 69.009219) scale(0.1 -0.1)">
       <use xlink:href="#DejaVuSans-30"/>
      </g>
     </g>
    </g>
    <g id="ytick_4">
     <g id="line2d_10"/>
     <g id="text_10">
      <!-- 1 -->
      <g transform="translate(19.1975 47.245219) scale(0.1 -0.1)">
       <use xlink:href="#DejaVuSans-31"/>
      </g>
     </g>
    </g>
    <g id="ytick_5">
     <g id="line2d_11"/>
     <g id="text_11">
      <!-- 2 -->
      <g transform="translate(19.1975 25.481219) scale(0.1 -0.1)">
       <use xlink:href="#DejaVuSans-32"/>
      </g>
     </g>
    </g>
   </g>
   <g id="line2d_12">
    <path d="M 54.106389 49.017966 
L 55.118711 52.398646 
L 56.131033 51.649753 
L 57.143355 52.501799 
L 58.155678 52.203466 
L 59.168 50.689291 
L 60.180322 48.175465 
L 62.204966 64.762472 
L 63.217288 64.57168 
L 64.22961 67.311747 
L 65.241932 69.067804 
L 66.254254 62.039151 
L 67.266577 58.962157 
L 68.278899 59.720484 
L 69.291221 55.546247 
L 70.303543 50.454384 
L 71.315865 50.506177 
L 72.328187 51.730261 
L 73.340509 49.677913 
L 74.352831 45.419316 
L 75.365153 47.005195 
L 76.377476 51.88688 
L 77.389798 49.235935 
L 79.414442 58.213341 
L 80.426764 58.826752 
L 81.439086 57.420221 
L 82.451408 61.096289 
L 83.46373 61.554867 
L 84.476053 61.166448 
L 85.488375 62.461756 
L 86.500697 62.895371 
L 87.513019 59.485669 
L 88.525341 58.265082 
L 89.537663 58.498347 
L 90.549985 62.192159 
L 91.562307 59.583911 
L 92.574629 62.611413 
L 93.586952 64.353454 
L 94.599274 59.674253 
L 95.611596 61.094514 
L 96.623918 63.951071 
L 97.63624 65.780018 
L 98.648562 64.158046 
L 99.660884 73.354091 
L 100.673206 70.500463 
L 101.685528 68.261061 
L 102.697851 59.543026 
L 103.710173 57.956404 
L 104.722495 52.528762 
L 105.734817 53.851016 
L 106.747139 52.871112 
L 107.759461 54.923828 
L 108.771783 52.276439 
L 109.784105 53.163955 
L 110.796428 55.281328 
L 111.80875 60.192416 
L 112.821072 55.88198 
L 113.833394 59.958683 
L 114.845716 58.949796 
L 115.858038 56.356422 
L 116.87036 44.639129 
L 117.882682 51.025968 
L 118.895004 51.394907 
L 119.907327 54.797617 
L 120.919649 57.268086 
L 121.931971 62.749355 
L 122.944293 63.412148 
L 123.956615 63.187607 
L 124.968937 63.835907 
L 125.981259 61.542234 
L 126.993581 62.429274 
L 128.005903 59.478935 
L 130.030548 58.289205 
L 131.04287 55.133349 
L 132.055192 51.378827 
L 133.067514 51.062103 
L 134.079836 49.625118 
L 135.092158 50.603359 
L 136.10448 55.460061 
L 137.116802 54.039919 
L 138.129125 59.055371 
L 139.141447 60.543316 
L 140.153769 56.195905 
L 141.166091 48.738401 
L 142.178413 56.988057 
L 143.190735 52.12857 
L 144.203057 50.172045 
L 145.215379 53.8761 
L 146.227702 58.233797 
L 147.240024 57.784126 
L 148.252346 56.875283 
L 150.27699 43.854307 
L 151.289312 40.24413 
L 152.301634 39.499669 
L 153.313956 46.344192 
L 154.326278 57.121259 
L 155.338601 64.87728 
L 156.350923 69.490944 
L 157.363245 72.682445 
L 158.375567 65.189041 
L 159.387889 60.936262 
L 160.400211 52.244026 
L 161.412533 50.753489 
L 162.424855 51.647842 
L 163.437177 58.769993 
L 164.4495 62.209211 
L 165.461822 69.970416 
L 166.474144 74.403429 
L 167.486466 67.31872 
L 168.498788 63.043917 
L 169.51111 53.507154 
L 170.523432 53.757117 
L 171.535754 54.235952 
L 172.548076 56.011429 
L 173.560399 58.964522 
L 174.572721 64.268739 
L 175.585043 64.925312 
L 176.597365 61.495578 
L 177.609687 65.533303 
L 178.622009 66.064401 
L 179.634331 66.856922 
L 180.646653 62.501902 
L 181.658976 63.189932 
L 182.671298 58.98781 
L 183.68362 56.303111 
L 184.695942 58.967162 
L 185.708264 59.198771 
L 186.720586 57.626652 
L 187.732908 58.110391 
L 188.74523 63.456097 
L 189.757552 58.331568 
L 190.769875 59.550092 
L 191.782197 58.824528 
L 192.794519 58.313617 
L 193.806841 57.538616 
L 194.819163 62.827293 
L 195.831485 65.86755 
L 196.843807 67.477004 
L 197.856129 68.128221 
L 198.868451 66.558689 
L 199.880774 64.074549 
L 200.893096 53.277351 
L 201.905418 49.702448 
L 202.91774 44.619194 
L 203.930062 36.333744 
L 204.942384 35.369807 
L 205.954706 43.623797 
L 206.967028 43.598496 
L 207.97935 47.326427 
L 208.991673 53.661009 
L 210.003995 52.538321 
L 211.016317 56.570534 
L 212.028639 59.875298 
L 213.040961 55.361371 
L 214.053283 47.33039 
L 215.065605 50.299045 
L 216.077927 42.996412 
L 217.09025 44.326566 
L 218.102572 51.109115 
L 219.114894 64.803751 
L 220.127216 64.825126 
L 221.139538 69.730734 
L 222.15186 73.432201 
L 223.164182 75.290809 
L 224.176504 71.099596 
L 225.188826 72.431573 
L 226.201149 70.782594 
L 227.213471 63.659092 
L 228.225793 65.671667 
L 229.238115 69.232426 
L 230.250437 70.494379 
L 231.262759 72.233345 
L 232.275081 67.778994 
L 233.287403 64.001032 
L 234.299725 59.624358 
L 235.312048 54.080811 
L 236.32437 52.713555 
L 237.336692 60.120217 
L 238.349014 65.024648 
L 240.373658 72.121073 
L 242.398302 74.841202 
L 243.410624 73.329719 
L 244.422947 73.506725 
L 245.435269 76.905613 
L 246.447591 74.769779 
L 247.459913 71.080843 
L 248.472235 69.25516 
L 249.484557 71.577818 
L 250.496879 71.838354 
L 251.509201 74.875608 
L 252.521524 68.142502 
L 253.533846 65.605502 
L 254.546168 53.823477 
L 255.55849 44.890392 
L 256.570812 39.414216 
L 257.583134 48.745012 
L 258.595456 48.724507 
L 259.607778 51.097476 
L 260.6201 44.870232 
L 261.632423 40.160224 
L 262.644745 41.072735 
L 263.657067 44.746099 
L 264.669389 49.323422 
L 265.681711 58.40708 
L 266.694033 64.945512 
L 267.706355 66.074189 
L 268.718677 64.16614 
L 269.730999 64.730026 
L 270.743322 67.99706 
L 271.755644 65.3876 
L 272.767966 59.814707 
L 273.780288 57.718109 
L 274.79261 53.95031 
L 275.804932 55.051617 
L 276.817254 55.773114 
L 277.829576 56.118996 
L 278.841898 54.611347 
L 279.854221 56.427219 
L 280.866543 51.419204 
L 281.878865 53.216278 
L 282.891187 53.68353 
L 283.903509 58.769084 
L 284.915831 61.430869 
L 285.928153 60.580004 
L 286.940475 58.516101 
L 287.952798 57.360812 
L 288.96512 55.030514 
L 289.977442 53.900078 
L 290.989764 55.578637 
L 292.002086 58.29406 
L 293.014408 58.935202 
L 294.02673 61.686281 
L 296.051374 61.951965 
L 297.063697 60.082844 
L 298.076019 62.365245 
L 299.088341 62.136034 
L 300.100663 60.888316 
L 301.112985 61.1441 
L 302.125307 64.885366 
L 303.137629 63.694064 
L 304.149951 56.032624 
L 305.162273 55.536384 
L 307.186918 53.007016 
L 308.19924 51.939702 
L 309.211562 54.885704 
L 310.223884 54.31036 
L 311.236206 52.26991 
L 312.248528 53.304626 
L 313.26085 56.576182 
L 314.273173 61.472491 
L 315.285495 60.803566 
L 316.297817 62.455126 
L 317.310139 63.493991 
L 318.322461 57.346355 
L 319.334783 54.188745 
L 320.347105 56.835595 
L 321.359427 62.312592 
L 322.371749 53.777972 
L 323.384072 60.556696 
L 325.408716 59.195132 
L 326.421038 56.747627 
L 327.43336 65.010949 
L 328.445682 64.292381 
L 329.458004 65.967276 
L 330.470326 63.504796 
L 331.482648 65.874083 
L 332.494971 67.626221 
L 333.507293 68.867064 
L 334.519615 67.936139 
L 335.531937 62.31527 
L 336.544259 53.3192 
L 337.556581 52.829002 
L 338.568903 49.592618 
L 339.581225 53.781186 
L 341.60587 67.858113 
L 342.618192 65.852722 
L 343.630514 63.299623 
L 344.642836 58.786615 
L 345.655158 58.320624 
L 346.66748 55.942709 
L 347.679802 51.788819 
L 348.692124 57.102602 
L 349.704447 59.693366 
L 350.716769 60.265638 
L 352.741413 66.167459 
L 353.753735 65.757469 
L 354.766057 67.394086 
L 355.778379 69.711358 
L 356.790701 69.124262 
L 357.803023 71.418817 
L 358.815346 70.492248 
L 359.827668 70.460181 
L 360.83999 72.42584 
L 361.852312 66.382178 
L 362.864634 57.678583 
L 363.876956 53.074103 
L 364.889278 50.824608 
L 365.9016 45.055547 
L 366.913922 48.757789 
L 367.926245 57.863369 
L 368.938567 58.792409 
L 369.950889 52.279035 
L 370.963211 50.492962 
L 371.975533 50.829023 
L 372.987855 49.059017 
L 374.000177 48.176933 
L 375.012499 53.483731 
L 376.024821 51.27227 
L 377.037144 55.128039 
L 378.049466 51.531786 
L 379.061788 54.727928 
L 380.07411 52.986545 
L 381.086432 58.126377 
L 382.098754 54.374408 
L 383.111076 55.941879 
L 384.123398 56.605428 
L 385.135721 59.757827 
L 386.148043 59.010949 
L 387.160365 58.757888 
L 388.172687 54.590385 
L 389.185009 56.169565 
L 390.197331 55.353092 
L 391.209653 56.466292 
L 392.221975 60.1372 
L 393.234297 68.056995 
L 394.24662 68.264821 
L 395.258942 64.746235 
L 396.271264 65.530991 
L 397.283586 68.014899 
L 398.295908 65.547808 
L 399.30823 64.51683 
L 400.320552 64.749167 
L 401.332874 60.602649 
L 402.345196 56.993909 
L 403.357519 59.626448 
L 404.369841 59.564719 
L 405.382163 59.93319 
L 406.394485 61.852162 
L 407.406807 54.049456 
L 408.419129 49.435285 
L 409.431451 48.927419 
L 410.443773 50.783738 
L 411.456095 57.696409 
L 413.48074 68.584956 
L 414.493062 67.446188 
L 415.505384 70.060795 
L 416.517706 62.00581 
L 417.530028 60.229707 
L 418.54235 57.714771 
L 419.554672 59.306502 
L 420.566995 59.199541 
L 421.579317 65.057935 
L 422.591639 64.643533 
L 423.603961 59.62941 
L 424.616283 57.394027 
L 425.628605 55.640619 
L 426.640927 51.799081 
L 427.653249 55.587774 
L 428.665571 61.374309 
L 429.677894 64.522912 
L 430.690216 67.307248 
L 431.702538 69.202045 
L 432.71486 74.932653 
L 433.727182 74.201975 
L 434.739504 73.933599 
L 435.751826 75.245919 
L 436.764148 78.759496 
L 437.77647 76.34368 
L 438.788793 73.145937 
L 439.801115 75.823341 
L 441.825759 67.413924 
L 442.838081 64.299552 
L 443.850403 65.869683 
L 444.862725 61.59766 
L 445.875047 58.844483 
L 446.887369 52.941994 
L 447.899692 54.985859 
L 448.912014 57.833948 
L 449.924336 59.223507 
L 450.936658 65.073397 
L 451.94898 72.555872 
L 452.961302 72.103259 
L 453.973624 71.842071 
L 454.985946 70.510344 
L 455.998269 73.274162 
L 458.022913 72.543344 
L 459.035235 68.954943 
L 460.047557 71.584729 
L 461.059879 65.065921 
L 462.072201 65.133184 
L 463.084523 66.636659 
L 464.096845 66.030406 
L 465.109168 68.233065 
L 466.12149 74.407282 
L 467.133812 70.892093 
L 468.146134 64.233992 
L 469.158456 66.232202 
L 470.170778 62.593894 
L 471.1831 54.356214 
L 472.195422 58.790513 
L 473.207744 61.126952 
L 474.220067 57.864266 
L 475.232389 58.082448 
L 476.244711 63.873089 
L 477.257033 62.299228 
L 478.269355 67.485772 
L 479.281677 71.028879 
L 480.293999 64.404018 
L 481.306321 60.341857 
L 482.318643 58.403916 
L 483.330966 58.100246 
L 484.343288 62.816069 
L 485.35561 70.037888 
L 486.367932 74.059054 
L 487.380254 78.647695 
L 488.392576 69.818932 
L 489.404898 62.749947 
L 490.41722 51.2348 
L 491.429543 48.703485 
L 492.441865 45.701626 
L 494.466509 56.594153 
L 495.478831 68.597656 
L 497.503475 76.125953 
L 498.515797 72.180361 
L 499.528119 61.029218 
L 500.540442 55.5817 
L 501.552764 52.395557 
L 502.565086 47.537564 
L 503.577408 49.484395 
L 504.58973 56.473697 
L 505.602052 62.52039 
L 506.614374 62.621349 
L 507.626696 65.601053 
L 508.639018 66.819035 
L 509.651341 65.315408 
L 510.663663 55.440083 
L 511.675985 52.17434 
L 512.688307 45.987714 
L 515.725273 46.699334 
L 516.737595 48.591397 
L 517.749918 51.950218 
L 518.76224 49.467188 
L 519.774562 53.403487 
L 520.786884 56.303502 
L 521.799206 48.023491 
L 522.811528 48.916141 
L 523.82385 41.674835 
L 524.836172 40.073284 
L 525.848494 44.108244 
L 526.860817 55.250392 
L 527.873139 53.325033 
L 528.885461 68.621509 
L 530.910105 85.744888 
L 531.922427 92.40284 
L 532.934749 102.241235 
L 533.947071 105.620504 
L 533.947071 105.620504 
" clip-path="url(#p9c3cab89c4)" style="fill: none; stroke: #008000; stroke-width: 1.5; stroke-linecap: square"/>
   </g>
   <g id="line2d_13">
    <path d="M 53.102241 81.024367 
L 55.586461 88.247364 
L 58.07068 76.540463 
L 60.554899 75.29349 
L 63.039119 68.354025 
L 65.523338 76.307817 
L 68.007557 83.064248 
L 70.491777 92.3219 
L 72.975996 103.533434 
L 75.460215 102.246008 
L 77.944435 93.718085 
L 80.428654 96.308028 
L 82.912873 97.862146 
L 85.397093 97.395249 
L 87.881312 103.318948 
L 90.365531 106.938829 
L 92.849751 95.658229 
L 95.33397 88.057018 
L 97.818189 82.952166 
L 100.302409 81.594046 
L 102.786628 84.618776 
L 105.270847 90.421317 
L 107.755067 96.53995 
L 110.239286 104.420178 
L 112.723505 108.738 
L 115.207725 98.151811 
L 117.691944 97.950577 
L 122.660383 91.843584 
L 125.144602 89.282462 
L 127.628821 88.798731 
L 130.113041 87.996456 
L 132.59726 93.309803 
L 135.081479 96.23201 
L 137.565699 89.773523 
L 140.049918 92.584768 
L 142.534137 94.259539 
L 147.502576 59.180386 
L 149.986795 56.179674 
L 152.471015 52.756101 
L 154.955234 51.12618 
L 157.439453 49.262139 
L 159.923673 47.864636 
L 162.407892 49.042264 
L 164.892111 49.064328 
L 167.376331 53.742598 
L 169.86055 54.601466 
L 172.344769 52.07086 
L 174.828989 53.66373 
L 177.313208 55.497529 
L 179.797427 55.676689 
L 182.281647 54.062959 
L 184.765866 55.053649 
L 187.250085 53.908731 
L 189.734305 50.231123 
L 192.218524 49.051349 
L 197.186963 49.435469 
L 199.671182 50.58038 
L 202.155401 50.370141 
L 204.639621 53.791037 
L 207.12384 49.123103 
L 209.608059 50.821256 
L 212.092279 51.668777 
L 217.060717 45.286567 
L 219.544937 44.635344 
L 222.029156 44.164638 
L 224.513375 39.825507 
L 226.997595 37.425762 
L 229.481814 37.577761 
L 231.966033 36.047408 
L 234.450253 43.751817 
L 236.934472 44.004157 
L 239.418691 53.570113 
L 241.902911 68.738509 
L 244.38713 69.319522 
L 246.871349 55.034195 
L 249.355569 51.297748 
L 251.839788 49.308579 
L 254.324007 49.573811 
L 256.808227 43.49566 
L 259.292446 36.346303 
L 261.776665 37.296435 
L 264.260885 35.62915 
L 266.745104 33.125303 
L 269.229323 35.457235 
L 271.713543 37.049036 
L 274.197762 39.716107 
L 276.681981 40.053008 
L 279.166201 39.182633 
L 281.65042 38.807546 
L 284.134639 36.948917 
L 286.618859 36.838277 
L 289.103078 35.84619 
L 291.587297 35.47772 
L 294.071517 39.076631 
L 296.555736 40.52318 
L 299.039955 38.840168 
L 301.524175 37.386516 
L 304.008394 39.841106 
L 306.492613 40.602609 
L 308.976833 48.722537 
L 311.461052 61.337789 
L 313.945271 64.802986 
L 316.429491 67.72134 
L 318.91371 71.726046 
L 321.397929 61.54368 
L 323.882149 50.247585 
L 326.366368 51.490161 
L 328.850587 49.191526 
L 331.334806 53.109928 
L 333.819026 54.191041 
L 336.303245 54.991051 
L 338.787464 57.542355 
L 341.271684 59.34146 
L 343.755903 58.999108 
L 346.240122 62.179232 
L 348.724342 62.186808 
L 351.208561 64.264511 
L 353.69278 65.528837 
L 356.177 66.179463 
L 358.661219 63.529252 
L 361.145438 64.631116 
L 363.629658 60.153394 
L 366.113877 50.806117 
L 368.598096 46.646707 
L 371.082316 50.838113 
L 373.566535 51.501692 
L 378.534974 48.325457 
L 381.019193 45.908978 
L 383.503412 46.075205 
L 385.987632 48.411689 
L 388.471851 48.077448 
L 390.95607 49.834105 
L 393.44029 50.178406 
L 395.924509 46.84801 
L 398.408728 43.128007 
L 400.892948 40.953197 
L 403.377167 38.998251 
L 405.861386 34.80342 
L 413.314044 28.848819 
L 415.798264 28.244061 
L 418.282483 26.508707 
L 420.766702 26.216968 
L 423.250922 25.639968 
L 425.735141 26.985911 
L 428.21936 26.369742 
L 430.70358 26.047335 
L 433.187799 28.605899 
L 435.672018 33.687188 
L 438.156238 38.497219 
L 440.640457 42.021186 
L 445.608896 46.740736 
L 448.093115 47.873664 
L 450.577334 48.46609 
L 453.061554 49.550186 
L 455.545773 51.814552 
L 458.029992 52.206965 
L 460.514212 57.649555 
L 462.998431 51.692799 
L 465.48265 40.520275 
L 467.96687 40.112909 
L 470.451089 37.664511 
L 472.935308 37.801076 
L 475.419528 30.732296 
L 477.903747 26.147448 
L 480.387966 22.600692 
L 482.872186 23.371713 
L 485.356405 21.682 
L 487.840624 28.701734 
L 490.324844 39.383141 
L 492.809063 47.082181 
L 495.293282 47.419479 
L 497.777502 43.608514 
L 500.261721 42.860664 
L 502.74594 40.106795 
L 505.23016 35.304491 
L 507.714379 33.523312 
L 510.198598 28.313122 
L 512.682818 24.660167 
L 515.167037 26.587837 
L 517.651256 27.888539 
L 520.135476 31.658896 
L 522.619695 37.431191 
L 527.588134 53.656017 
L 530.072353 67.008305 
L 530.072353 67.008305 
" clip-path="url(#p9c3cab89c4)" style="fill: none; stroke: #000000; stroke-width: 1.5; stroke-linecap: square"/>
   </g>
   <g id="patch_3">
    <path d="M 29.06 119.62 
L 29.06 10.8 
" style="fill: none; stroke: #000000; stroke-width: 1.5; stroke-linejoin: miter; stroke-linecap: square"/>
   </g>
   <g id="patch_4">
    <path d="M 557.989313 119.62 
L 557.989313 10.8 
" style="fill: none; stroke: #000000; stroke-width: 1.5; stroke-linejoin: miter; stroke-linecap: square"/>
   </g>
   <g id="patch_5">
    <path d="M 29.06 119.62 
L 557.989313 119.62 
" style="fill: none; stroke: #000000; stroke-width: 1.5; stroke-linejoin: miter; stroke-linecap: square"/>
   </g>
   <g id="patch_6">
    <path d="M 29.06 10.8 
L 557.989313 10.8 
" style="fill: none; stroke: #000000; stroke-width: 1.5; stroke-linejoin: miter; stroke-linecap: square"/>
   </g>
  </g>
 </g>
 <defs>
  <clipPath id="p9c3cab89c4">
   <rect x="29.06" y="10.8" width="528.929313" height="108.82"/>
  </clipPath>
 </defs>
</svg>
