<?xml version="1.0" encoding="utf-8" standalone="no"?>
<!DOCTYPE svg PUBLIC "-//W3C//DTD SVG 1.1//EN"
  "http://www.w3.org/Graphics/SVG/1.1/DTD/svg11.dtd">
<svg xmlns:xlink="http://www.w3.org/1999/xlink" width="576pt" height="144pt" viewBox="0 0 576 144" xmlns="http://www.w3.org/2000/svg" version="1.1">
 <metadata>
  <rdf:RDF xmlns:dc="http://purl.org/dc/elements/1.1/" xmlns:cc="http://creativecommons.org/ns#" xmlns:rdf="http://www.w3.org/1999/02/22-rdf-syntax-ns#">
   <cc:Work>
    <dc:type rdf:resource="http://purl.org/dc/dcmitype/StillImage"/>
    <dc:date>2025-04-22T00:36:01.422243</dc:date>
    <dc:format>image/svg+xml</dc:format>
    <dc:creator>
     <cc:Agent>
      <dc:title>Matplotlib v3.8.0, https://matplotlib.org/</dc:title>
     </cc:Agent>
    </dc:creator>
   </cc:Work>
  </rdf:RDF>
 </metadata>
 <defs>
  <style type="text/css">*{stroke-linejoin: round; stroke-linecap: butt}</style>
 </defs>
 <g id="figure_1">
  <g id="patch_1">
   <path d="M 0 144 
L 576 144 
L 576 0 
L 0 0 
z
" style="fill: #ffffff"/>
  </g>
  <g id="axes_1">
   <g id="patch_2">
    <path d="M 62.58 101.94 
L 557.989313 101.94 
L 557.989313 33.36 
L 62.58 33.36 
z
" style="fill: #ffffff"/>
   </g>
   <g id="PolyCollection_1">
    <defs>
     <path id="m7e9ed61eef" d="M 86.039117 -100.73412 
L 86.039117 -61.033971 
L 86.983301 -64.809292 
L 87.927485 -63.776027 
L 88.871669 -64.636729 
L 89.815853 -63.866358 
L 90.760037 -64.615511 
L 91.704221 -65.440696 
L 92.648405 -62.539286 
L 93.592589 -63.3724 
L 94.536773 -59.581823 
L 95.480957 -62.996776 
L 96.425141 -61.586801 
L 97.369325 -61.012749 
L 98.313509 -62.515269 
L 99.257693 -63.191247 
L 100.201877 -67.005621 
L 101.146061 -65.025135 
L 102.090245 -64.57574 
L 103.034429 -66.341227 
L 103.978613 -61.163728 
L 104.922797 -60.174903 
L 105.866981 -60.172939 
L 106.811165 -60.927803 
L 107.755349 -61.797021 
L 108.699533 -61.940889 
L 109.643717 -60.892165 
L 110.587901 -64.067531 
L 111.532085 -66.352193 
L 112.476269 -67.117107 
L 113.420453 -65.111299 
L 114.364637 -64.638511 
L 115.308821 -63.508589 
L 116.253005 -65.555725 
L 117.197189 -63.536712 
L 118.141373 -63.20981 
L 119.085557 -66.24897 
L 120.029741 -64.695801 
L 120.973925 -66.732483 
L 121.918109 -68.715958 
L 122.862293 -66.76858 
L 123.806477 -67.499777 
L 124.750661 -69.660155 
L 125.694845 -68.642207 
L 126.639029 -67.352433 
L 127.583213 -64.261025 
L 128.527397 -64.927029 
L 129.471581 -60.910637 
L 130.415765 -61.559382 
L 131.359949 -62.599124 
L 132.304133 -61.563778 
L 133.248317 -62.596971 
L 134.192501 -62.61937 
L 135.136685 -64.52279 
L 136.080869 -65.312016 
L 137.025053 -66.237887 
L 137.969237 -63.905346 
L 138.913421 -63.760105 
L 139.857605 -64.536628 
L 140.801789 -66.21847 
L 141.745973 -69.816511 
L 142.690157 -71.830838 
L 143.634341 -71.475069 
L 144.578526 -63.759942 
L 145.52271 -60.166677 
L 146.466894 -61.75693 
L 147.411078 -59.702071 
L 148.355262 -61.658487 
L 149.299446 -60.869692 
L 150.24363 -61.559471 
L 151.187814 -58.670859 
L 152.131998 -60.08856 
L 153.076182 -56.957858 
L 154.020366 -65.897184 
L 154.96455 -68.571575 
L 155.908734 -66.602464 
L 156.852918 -60.978493 
L 157.797102 -60.107983 
L 158.741286 -64.04189 
L 159.68547 -64.49366 
L 160.629654 -65.508278 
L 161.573838 -67.920962 
L 162.518022 -68.65924 
L 163.462206 -61.722746 
L 164.40639 -56.219633 
L 165.350574 -56.423326 
L 166.294758 -58.691691 
L 167.238942 -63.127338 
L 168.183126 -65.869977 
L 169.12731 -64.627751 
L 170.071494 -65.835428 
L 171.015678 -62.83109 
L 171.959862 -63.464889 
L 172.904046 -61.457937 
L 173.84823 -60.927966 
L 174.792414 -59.57889 
L 175.736598 -64.609959 
L 176.680782 -66.590744 
L 177.624966 -62.833234 
L 178.56915 -63.90928 
L 179.513334 -62.505601 
L 180.457518 -62.755837 
L 181.401702 -62.333987 
L 182.345886 -65.169349 
L 183.29007 -63.205498 
L 184.234254 -62.699716 
L 185.178438 -63.049616 
L 186.122622 -60.418743 
L 187.066806 -59.51318 
L 188.01099 -59.991393 
L 188.955174 -62.897037 
L 189.899358 -65.701072 
L 190.843542 -63.362942 
L 191.787726 -61.318334 
L 192.73191 -60.155356 
L 193.676094 -60.204194 
L 194.620278 -58.813404 
L 195.564462 -60.981878 
L 196.508646 -60.735022 
L 197.45283 -60.981286 
L 198.397014 -57.565599 
L 199.341198 -59.084152 
L 200.285382 -59.990564 
L 201.229566 -62.128305 
L 202.17375 -65.465651 
L 203.117934 -65.432094 
L 204.062118 -67.128437 
L 205.006302 -67.957709 
L 205.950486 -70.04736 
L 206.89467 -71.520484 
L 207.838855 -74.305902 
L 208.783039 -68.94592 
L 209.727223 -66.72658 
L 210.671407 -64.31711 
L 211.615591 -64.198816 
L 212.559775 -64.043067 
L 213.503959 -62.015873 
L 214.448143 -64.852337 
L 215.392327 -64.151962 
L 216.336511 -63.923694 
L 217.280695 -64.529763 
L 218.224879 -66.466726 
L 219.169063 -65.936553 
L 220.113247 -64.262947 
L 221.057431 -64.472691 
L 222.001615 -65.616582 
L 222.945799 -65.706908 
L 223.889983 -66.194171 
L 224.834167 -70.840856 
L 225.778351 -65.924523 
L 226.722535 -60.362277 
L 227.666719 -58.322795 
L 228.610903 -62.087217 
L 229.555087 -66.634198 
L 230.499271 -63.707202 
L 231.443455 -62.493219 
L 232.387639 -65.564772 
L 233.331823 -68.465408 
L 234.276007 -72.434164 
L 235.220191 -72.820394 
L 236.164375 -69.25004 
L 237.108559 -67.744344 
L 238.052743 -63.18659 
L 238.996927 -64.891473 
L 239.941111 -65.481018 
L 240.885295 -65.45146 
L 241.829479 -66.375499 
L 242.773663 -63.81405 
L 243.717847 -65.726309 
L 244.662031 -68.704704 
L 245.606215 -64.946677 
L 246.550399 -60.017751 
L 247.494583 -55.501226 
L 248.438767 -54.950937 
L 249.382951 -58.164352 
L 250.327135 -59.902715 
L 251.271319 -60.527789 
L 252.215503 -64.742072 
L 253.159687 -68.267709 
L 254.103871 -67.310097 
L 255.048055 -62.671835 
L 255.992239 -57.461141 
L 256.936423 -62.682504 
L 257.880607 -66.110565 
L 258.824791 -65.434897 
L 259.768975 -63.453164 
L 260.713159 -66.529426 
L 261.657343 -70.220973 
L 262.601527 -70.162099 
L 263.545711 -69.096473 
L 264.489895 -67.026482 
L 265.434079 -64.783874 
L 266.378263 -64.917672 
L 267.322447 -67.763352 
L 268.266631 -72.4645 
L 269.210815 -68.951865 
L 270.154999 -59.393843 
L 271.099184 -60.680967 
L 272.043368 -61.893611 
L 272.987552 -60.702485 
L 273.931736 -58.972978 
L 274.87592 -52.804139 
L 275.820104 -52.491679 
L 276.764288 -54.677708 
L 277.708472 -55.051019 
L 278.652656 -55.300272 
L 279.59684 -54.347745 
L 280.541024 -56.128251 
L 281.485208 -55.481357 
L 282.429392 -57.117048 
L 283.373576 -54.851866 
L 284.31776 -51.392455 
L 285.261944 -50.364474 
L 286.206128 -50.632275 
L 287.150312 -49.733123 
L 288.094496 -56.473311 
L 289.03868 -63.147123 
L 289.982864 -66.893093 
L 290.927048 -67.092011 
L 291.871232 -66.649087 
L 292.815416 -65.792856 
L 293.7596 -64.518721 
L 294.703784 -65.199716 
L 295.647968 -67.340345 
L 296.592152 -62.153827 
L 297.536336 -61.978104 
L 298.48052 -64.688376 
L 299.424704 -68.067434 
L 300.368888 -66.833179 
L 301.313072 -64.563607 
L 302.257256 -66.306304 
L 303.20144 -68.112877 
L 304.145624 -69.569597 
L 305.089808 -69.830844 
L 306.033992 -66.465799 
L 306.978176 -68.399852 
L 307.92236 -66.545338 
L 308.866544 -69.421624 
L 309.810728 -67.086664 
L 310.754912 -66.264769 
L 311.699096 -66.876297 
L 312.64328 -67.120644 
L 313.587464 -66.709428 
L 314.531648 -62.486529 
L 315.475832 -59.567701 
L 316.420016 -60.205182 
L 317.3642 -65.603002 
L 318.308384 -64.227805 
L 319.252568 -63.885223 
L 320.196752 -61.244384 
L 321.140936 -60.236751 
L 322.08512 -58.199692 
L 323.029304 -57.890847 
L 323.973488 -59.545385 
L 324.917672 -61.687351 
L 325.861856 -61.337529 
L 326.80604 -57.163705 
L 327.750224 -54.749053 
L 328.694408 -54.426141 
L 329.638592 -54.8272 
L 330.582776 -54.867048 
L 331.52696 -56.096294 
L 332.471144 -58.322288 
L 333.415328 -59.100117 
L 334.359513 -62.177113 
L 335.303697 -65.525721 
L 336.247881 -63.505594 
L 337.192065 -59.689948 
L 338.136249 -63.103982 
L 339.080433 -64.247435 
L 340.024617 -64.611167 
L 340.968801 -62.572736 
L 341.912985 -62.426789 
L 342.857169 -66.016264 
L 343.801353 -69.796262 
L 344.745537 -68.283274 
L 345.689721 -67.66596 
L 346.633905 -64.385775 
L 347.578089 -70.401667 
L 348.522273 -67.089501 
L 349.466457 -69.180152 
L 350.410641 -63.313636 
L 351.354825 -61.487163 
L 352.299009 -59.874349 
L 353.243193 -58.683203 
L 354.187377 -60.420084 
L 355.131561 -60.790589 
L 356.075745 -60.823232 
L 357.019929 -64.930132 
L 357.964113 -61.107765 
L 358.908297 -60.515543 
L 359.852481 -58.718984 
L 360.796665 -58.62417 
L 361.740849 -59.755117 
L 362.685033 -60.4251 
L 363.629217 -65.309005 
L 364.573401 -65.092247 
L 365.517585 -66.592944 
L 366.461769 -68.371314 
L 367.405953 -68.548097 
L 368.350137 -69.271947 
L 369.294321 -65.113002 
L 370.238505 -64.506441 
L 371.182689 -66.203288 
L 372.126873 -65.242833 
L 373.071057 -63.618438 
L 374.015241 -62.089613 
L 374.959425 -65.448245 
L 375.903609 -67.773973 
L 376.847793 -65.106389 
L 377.791977 -68.462082 
L 378.736161 -65.813864 
L 379.680345 -64.962036 
L 380.624529 -62.999945 
L 381.568713 -64.586553 
L 382.512897 -67.106267 
L 383.457081 -65.315583 
L 384.401265 -63.142315 
L 385.345449 -62.70911 
L 386.289633 -65.630306 
L 387.233817 -69.076611 
L 388.178001 -67.76335 
L 389.122185 -65.458229 
L 390.066369 -63.251295 
L 391.010553 -64.610254 
L 391.954737 -68.347402 
L 392.898921 -70.025768 
L 393.843105 -66.705164 
L 394.787289 -66.101155 
L 395.731473 -64.985107 
L 396.675657 -64.993743 
L 397.619842 -65.110864 
L 398.564026 -65.313022 
L 399.50821 -65.797807 
L 400.452394 -61.932061 
L 401.396578 -66.834605 
L 402.340762 -68.700079 
L 403.284946 -68.251874 
L 404.22913 -63.382979 
L 405.173314 -61.908578 
L 406.117498 -63.691685 
L 407.061682 -63.466122 
L 408.005866 -66.297118 
L 408.95005 -65.452815 
L 409.894234 -65.687321 
L 410.838418 -65.180322 
L 411.782602 -66.822238 
L 412.726786 -67.935707 
L 413.67097 -67.03536 
L 414.615154 -62.787737 
L 415.559338 -60.325959 
L 416.503522 -62.357193 
L 417.447706 -65.99495 
L 418.39189 -67.311544 
L 419.336074 -67.37188 
L 420.280258 -65.694128 
L 421.224442 -66.521815 
L 422.168626 -64.881264 
L 423.11281 -64.195126 
L 424.056994 -66.767932 
L 425.001178 -67.226432 
L 425.945362 -63.349437 
L 426.889546 -58.464103 
L 427.83373 -62.018565 
L 428.777914 -62.109322 
L 429.722098 -63.952723 
L 430.666282 -61.976905 
L 431.610466 -64.316253 
L 432.55465 -62.589789 
L 433.498834 -64.75675 
L 434.443018 -61.10943 
L 435.387202 -62.873823 
L 436.331386 -58.82724 
L 437.27557 -63.027688 
L 438.219754 -64.014248 
L 439.163938 -69.10795 
L 440.108122 -67.653888 
L 441.052306 -65.732921 
L 441.99649 -67.467468 
L 442.940674 -63.271287 
L 443.884858 -63.216349 
L 444.829042 -61.886447 
L 445.773226 -63.910461 
L 446.71741 -63.252388 
L 447.661594 -60.872298 
L 448.605778 -62.767994 
L 449.549962 -60.286173 
L 450.494146 -59.081308 
L 451.43833 -62.759893 
L 452.382514 -66.38457 
L 453.326698 -62.639504 
L 454.270882 -67.706952 
L 455.215066 -65.717971 
L 456.15925 -68.439517 
L 457.103434 -64.773417 
L 458.047618 -60.229581 
L 458.991802 -64.130436 
L 459.935987 -64.466461 
L 460.880171 -69.530828 
L 461.824355 -67.113933 
L 462.768539 -61.744522 
L 463.712723 -62.533047 
L 464.656907 -60.66707 
L 465.601091 -57.951407 
L 466.545275 -54.908797 
L 467.489459 -53.622588 
L 468.433643 -52.586444 
L 469.377827 -55.064393 
L 470.322011 -59.258345 
L 471.266195 -60.872752 
L 472.210379 -63.409655 
L 473.154563 -60.842732 
L 474.098747 -60.376419 
L 475.042931 -60.888596 
L 475.987115 -62.309196 
L 476.931299 -65.024297 
L 477.875483 -61.608768 
L 478.819667 -60.879989 
L 479.763851 -60.244201 
L 480.708035 -62.052722 
L 481.652219 -65.083512 
L 482.596403 -65.590366 
L 483.540587 -66.964016 
L 484.484771 -63.864048 
L 485.428955 -67.945158 
L 486.373139 -65.544986 
L 487.317323 -66.367732 
L 488.261507 -64.232529 
L 489.205691 -65.020493 
L 490.149875 -63.495363 
L 491.094059 -61.327662 
L 492.038243 -61.73957 
L 492.982427 -63.019346 
L 493.926611 -62.719267 
L 494.870795 -63.412293 
L 495.814979 -62.762397 
L 496.759163 -64.5366 
L 497.703347 -64.525471 
L 498.647531 -65.739622 
L 499.591715 -64.637127 
L 500.535899 -65.186583 
L 501.480083 -61.919225 
L 502.424267 -61.825008 
L 503.368451 -59.392804 
L 504.312635 -65.24863 
L 505.256819 -64.639768 
L 506.201003 -63.967562 
L 507.145187 -62.603222 
L 508.089371 -65.154901 
L 509.033555 -65.327679 
L 509.977739 -63.756645 
L 510.921923 -61.878962 
L 511.866107 -64.113242 
L 512.810291 -61.640054 
L 513.754475 -62.579682 
L 514.698659 -60.200196 
L 515.642843 -60.891197 
L 516.587027 -61.486572 
L 517.531211 -61.789638 
L 518.475395 -59.739613 
L 519.419579 -61.733604 
L 520.363763 -60.997863 
L 521.307947 -60.605228 
L 522.252131 -57.830568 
L 523.196316 -56.488988 
L 524.1405 -56.340534 
L 525.084684 -57.220517 
L 526.028868 -57.728236 
L 526.973052 -62.32346 
L 527.917236 -60.633692 
L 528.86142 -56.366123 
L 529.805604 -56.409171 
L 530.749788 -60.6388 
L 531.693972 -63.568622 
L 532.638156 -63.211741 
L 533.58234 -61.078311 
L 534.526524 -61.717109 
L 535.470708 -60.673618 
L 535.470708 -81.451655 
L 535.470708 -81.451655 
L 534.526524 -86.294045 
L 533.58234 -81.811348 
L 532.638156 -85.22668 
L 531.693972 -86.289873 
L 530.749788 -89.565942 
L 529.805604 -85.187524 
L 528.86142 -82.535799 
L 527.917236 -82.520147 
L 526.973052 -83.501341 
L 526.028868 -83.996803 
L 525.084684 -80.524399 
L 524.1405 -78.442272 
L 523.196316 -79.831318 
L 522.252131 -85.772046 
L 521.307947 -87.097688 
L 520.363763 -87.669334 
L 519.419579 -84.991819 
L 518.475395 -84.8786 
L 517.531211 -89.246126 
L 516.587027 -87.88309 
L 515.642843 -88.303447 
L 514.698659 -81.568532 
L 513.754475 -83.397171 
L 512.810291 -88.141099 
L 511.866107 -90.001311 
L 510.921923 -90.446486 
L 509.977739 -90.125906 
L 509.033555 -90.198309 
L 508.089371 -92.402782 
L 507.145187 -93.575625 
L 506.201003 -87.94885 
L 505.256819 -87.311514 
L 504.312635 -86.022102 
L 503.368451 -95.293001 
L 502.424267 -92.594525 
L 501.480083 -93.661879 
L 500.535899 -93.974907 
L 499.591715 -95.669363 
L 498.647531 -93.225594 
L 497.703347 -86.46062 
L 496.759163 -84.461239 
L 495.814979 -87.149271 
L 494.870795 -90.15424 
L 493.926611 -88.271046 
L 492.982427 -87.64466 
L 492.038243 -89.260127 
L 491.094059 -91.802303 
L 490.149875 -91.549659 
L 489.205691 -94.798647 
L 488.261507 -95.181327 
L 487.317323 -97.844154 
L 486.373139 -91.453913 
L 485.428955 -90.25076 
L 484.484771 -84.701594 
L 483.540587 -89.016407 
L 482.596403 -91.088488 
L 481.652219 -89.008678 
L 480.708035 -85.876337 
L 479.763851 -90.333101 
L 478.819667 -94.060729 
L 477.875483 -89.950263 
L 476.931299 -85.713444 
L 475.987115 -88.195825 
L 475.042931 -93.07827 
L 474.098747 -95.793164 
L 473.154563 -98.425054 
L 472.210379 -99.973834 
L 471.266195 -95.242586 
L 470.322011 -92.422384 
L 469.377827 -88.946065 
L 468.433643 -88.990563 
L 467.489459 -90.437876 
L 466.545275 -89.129257 
L 465.601091 -91.924516 
L 464.656907 -88.070086 
L 463.712723 -94.874109 
L 462.768539 -99.59394 
L 461.824355 -99.790956 
L 460.880171 -96.822105 
L 459.935987 -91.025569 
L 458.991802 -88.501378 
L 458.047618 -87.898125 
L 457.103434 -92.042182 
L 456.15925 -93.545758 
L 455.215066 -95.136313 
L 454.270882 -91.774752 
L 453.326698 -91.577777 
L 452.382514 -88.325954 
L 451.43833 -91.209271 
L 450.494146 -95.138901 
L 449.549962 -91.760567 
L 448.605778 -88.91503 
L 447.661594 -86.895697 
L 446.71741 -86.591777 
L 445.773226 -82.161083 
L 444.829042 -79.490189 
L 443.884858 -81.891365 
L 442.940674 -83.397309 
L 441.99649 -89.16409 
L 441.052306 -97.539149 
L 440.108122 -97.940643 
L 439.163938 -96.13114 
L 438.219754 -89.961558 
L 437.27557 -88.330051 
L 436.331386 -83.929859 
L 435.387202 -82.488645 
L 434.443018 -86.198809 
L 433.498834 -90.342251 
L 432.55465 -91.921013 
L 431.610466 -90.405495 
L 430.666282 -87.557527 
L 429.722098 -84.280388 
L 428.777914 -87.414454 
L 427.83373 -85.360554 
L 426.889546 -96.183526 
L 425.945362 -95.778111 
L 425.001178 -93.815178 
L 424.056994 -87.746388 
L 423.11281 -85.616918 
L 422.168626 -87.115298 
L 421.224442 -89.755272 
L 420.280258 -90.138055 
L 419.336074 -94.170723 
L 418.39189 -100.917384 
L 417.447706 -98.519452 
L 416.503522 -98.006477 
L 415.559338 -88.492423 
L 414.615154 -93.81229 
L 413.67097 -91.442742 
L 412.726786 -90.805189 
L 411.782602 -85.375957 
L 410.838418 -84.47418 
L 409.894234 -88.650588 
L 408.95005 -86.225564 
L 408.005866 -85.868904 
L 407.061682 -86.07686 
L 406.117498 -87.516365 
L 405.173314 -88.137474 
L 404.22913 -85.808486 
L 403.284946 -87.086297 
L 402.340762 -87.095148 
L 401.396578 -87.288165 
L 400.452394 -89.710701 
L 399.50821 -91.533219 
L 398.564026 -96.816796 
L 397.619842 -92.649303 
L 396.675657 -89.513183 
L 395.731473 -84.858816 
L 394.787289 -88.610757 
L 393.843105 -91.904465 
L 392.898921 -95.337687 
L 391.954737 -93.183771 
L 391.010553 -91.604283 
L 390.066369 -88.859915 
L 389.122185 -93.004117 
L 388.178001 -99.643718 
L 387.233817 -97.924076 
L 386.289633 -89.127798 
L 385.345449 -83.962807 
L 384.401265 -85.850067 
L 383.457081 -92.347144 
L 382.512897 -88.870076 
L 381.568713 -86.464044 
L 380.624529 -84.96433 
L 379.680345 -88.079507 
L 378.736161 -89.285028 
L 377.791977 -94.499496 
L 376.847793 -95.376481 
L 375.903609 -96.808194 
L 374.959425 -95.340648 
L 374.015241 -92.622132 
L 373.071057 -87.916878 
L 372.126873 -86.594056 
L 371.182689 -85.148927 
L 370.238505 -87.255341 
L 369.294321 -85.838848 
L 368.350137 -89.008516 
L 367.405953 -83.848211 
L 366.461769 -86.903203 
L 365.517585 -87.498595 
L 364.573401 -89.497392 
L 363.629217 -86.246468 
L 362.685033 -90.967413 
L 361.740849 -94.506368 
L 360.796665 -89.812522 
L 359.852481 -84.947578 
L 358.908297 -86.039556 
L 357.964113 -86.245889 
L 357.019929 -85.812759 
L 356.075745 -87.392779 
L 355.131561 -87.034928 
L 354.187377 -85.40056 
L 353.243193 -83.968284 
L 352.299009 -85.685223 
L 351.354825 -86.985175 
L 350.410641 -85.428906 
L 349.466457 -87.123511 
L 348.522273 -88.337792 
L 347.578089 -94.742822 
L 346.633905 -93.427661 
L 345.689721 -95.23797 
L 344.745537 -93.795339 
L 343.801353 -94.109625 
L 342.857169 -91.852845 
L 341.912985 -90.58019 
L 340.968801 -86.671614 
L 340.024617 -86.646336 
L 339.080433 -90.475901 
L 338.136249 -86.074295 
L 337.192065 -88.213377 
L 336.247881 -83.272053 
L 335.303697 -91.104166 
L 334.359513 -92.131902 
L 333.415328 -88.455724 
L 332.471144 -83.749311 
L 331.52696 -82.754025 
L 330.582776 -81.122776 
L 329.638592 -76.833897 
L 328.694408 -77.541814 
L 327.750224 -80.109578 
L 326.80604 -90.449564 
L 325.861856 -97.071717 
L 324.917672 -97.388481 
L 323.973488 -89.728748 
L 323.029304 -84.633805 
L 322.08512 -81.747051 
L 321.140936 -85.853035 
L 320.196752 -84.799091 
L 319.252568 -88.902341 
L 318.308384 -93.232057 
L 317.3642 -92.703236 
L 316.420016 -92.831235 
L 315.475832 -88.284385 
L 314.531648 -91.62265 
L 313.587464 -95.183703 
L 312.64328 -93.001242 
L 311.699096 -87.493993 
L 310.754912 -88.778409 
L 309.810728 -92.583665 
L 308.866544 -98.5227 
L 307.92236 -93.986303 
L 306.978176 -90.228446 
L 306.033992 -86.071496 
L 305.089808 -91.924185 
L 304.145624 -95.388102 
L 303.20144 -101.54729 
L 302.257256 -101.278402 
L 301.313072 -101.051529 
L 300.368888 -93.033766 
L 299.424704 -89.156515 
L 298.48052 -85.864462 
L 297.536336 -84.517835 
L 296.592152 -85.172518 
L 295.647968 -90.541082 
L 294.703784 -93.855438 
L 293.7596 -92.804779 
L 292.815416 -86.558615 
L 291.871232 -88.897566 
L 290.927048 -86.674473 
L 289.982864 -86.722762 
L 289.03868 -85.011186 
L 288.094496 -82.046886 
L 287.150312 -78.026823 
L 286.206128 -73.258783 
L 285.261944 -80.626272 
L 284.31776 -87.449126 
L 283.373576 -91.191748 
L 282.429392 -93.037753 
L 281.485208 -87.946376 
L 280.541024 -81.710229 
L 279.59684 -76.434874 
L 278.652656 -81.082429 
L 277.708472 -79.940866 
L 276.764288 -81.303308 
L 275.820104 -79.6928 
L 274.87592 -80.734514 
L 273.931736 -79.683604 
L 272.987552 -82.482052 
L 272.043368 -78.717282 
L 271.099184 -79.077245 
L 270.154999 -92.022626 
L 269.210815 -96.333165 
L 268.266631 -100.571357 
L 267.322447 -90.769829 
L 266.378263 -87.046056 
L 265.434079 -83.862391 
L 264.489895 -87.440108 
L 263.545711 -92.222971 
L 262.601527 -95.379517 
L 261.657343 -95.519925 
L 260.713159 -89.826585 
L 259.768975 -88.215512 
L 258.824791 -87.820662 
L 257.880607 -91.606912 
L 256.936423 -90.30851 
L 255.992239 -92.855403 
L 255.048055 -95.671015 
L 254.103871 -101.223612 
L 253.159687 -102.143914 
L 252.215503 -98.914619 
L 251.271319 -90.877628 
L 250.327135 -89.98354 
L 249.382951 -86.309729 
L 248.438767 -84.430704 
L 247.494583 -79.835433 
L 246.550399 -84.08461 
L 245.606215 -90.014438 
L 244.662031 -91.882952 
L 243.717847 -90.895243 
L 242.773663 -90.201409 
L 241.829479 -90.232662 
L 240.885295 -94.981663 
L 239.941111 -95.054453 
L 238.996927 -90.885505 
L 238.052743 -87.881295 
L 237.108559 -88.109682 
L 236.164375 -93.879974 
L 235.220191 -94.143356 
L 234.276007 -94.796579 
L 233.331823 -91.666288 
L 232.387639 -89.050998 
L 231.443455 -88.613265 
L 230.499271 -88.835687 
L 229.555087 -89.565309 
L 228.610903 -86.923252 
L 227.666719 -85.622769 
L 226.722535 -86.879726 
L 225.778351 -88.652931 
L 224.834167 -91.931957 
L 223.889983 -89.174082 
L 222.945799 -91.581087 
L 222.001615 -88.566164 
L 221.057431 -89.32424 
L 220.113247 -90.065534 
L 219.169063 -91.465387 
L 218.224879 -95.443286 
L 217.280695 -92.666832 
L 216.336511 -91.105356 
L 215.392327 -92.477158 
L 214.448143 -91.735299 
L 213.503959 -89.067947 
L 212.559775 -86.340939 
L 211.615591 -88.948538 
L 210.671407 -92.290873 
L 209.727223 -91.674199 
L 208.783039 -93.082517 
L 207.838855 -98.145059 
L 206.89467 -96.81371 
L 205.950486 -96.960392 
L 205.006302 -90.783992 
L 204.062118 -94.556042 
L 203.117934 -91.572449 
L 202.17375 -90.143223 
L 201.229566 -87.737401 
L 200.285382 -86.665435 
L 199.341198 -83.452336 
L 198.397014 -84.923245 
L 197.45283 -84.891525 
L 196.508646 -85.964376 
L 195.564462 -83.829978 
L 194.620278 -85.091781 
L 193.676094 -84.746187 
L 192.73191 -86.310171 
L 191.787726 -88.789489 
L 190.843542 -82.785638 
L 189.899358 -82.604114 
L 188.955174 -78.920296 
L 188.01099 -83.968011 
L 187.066806 -92.232589 
L 186.122622 -91.78725 
L 185.178438 -93.113005 
L 184.234254 -87.004065 
L 183.29007 -89.308697 
L 182.345886 -85.995683 
L 181.401702 -80.548192 
L 180.457518 -84.645111 
L 179.513334 -80.779833 
L 178.56915 -84.326172 
L 177.624966 -84.236275 
L 176.680782 -85.849348 
L 175.736598 -90.711795 
L 174.792414 -93.865029 
L 173.84823 -88.167353 
L 172.904046 -85.944805 
L 171.959862 -83.641229 
L 171.015678 -87.313374 
L 170.071494 -89.710247 
L 169.12731 -89.537212 
L 168.183126 -86.909146 
L 167.238942 -83.916367 
L 166.294758 -80.947062 
L 165.350574 -81.967935 
L 164.40639 -82.166175 
L 163.462206 -94.326038 
L 162.518022 -94.55178 
L 161.573838 -94.042103 
L 160.629654 -88.996848 
L 159.68547 -87.474065 
L 158.741286 -87.088844 
L 157.797102 -87.036879 
L 156.852918 -88.075246 
L 155.908734 -93.120868 
L 154.96455 -90.662856 
L 154.020366 -87.367684 
L 153.076182 -82.806241 
L 152.131998 -81.211733 
L 151.187814 -84.416092 
L 150.24363 -87.948965 
L 149.299446 -85.179003 
L 148.355262 -83.505993 
L 147.411078 -81.935595 
L 146.466894 -81.974195 
L 145.52271 -86.986485 
L 144.578526 -95.016974 
L 143.634341 -97.786374 
L 142.690157 -103.32796 
L 141.745973 -96.658558 
L 140.801789 -94.82698 
L 139.857605 -86.865491 
L 138.913421 -86.010386 
L 137.969237 -84.983082 
L 137.025053 -88.100861 
L 136.080869 -97.624828 
L 135.136685 -99.136283 
L 134.192501 -96.569855 
L 133.248317 -93.260038 
L 132.304133 -93.130626 
L 131.359949 -92.827757 
L 130.415765 -89.162939 
L 129.471581 -87.921887 
L 128.527397 -84.973565 
L 127.583213 -84.954335 
L 126.639029 -87.497879 
L 125.694845 -90.35481 
L 124.750661 -94.166078 
L 123.806477 -94.39149 
L 122.862293 -92.890237 
L 121.918109 -95.039095 
L 120.973925 -98.044268 
L 120.029741 -98.727743 
L 119.085557 -88.006234 
L 118.141373 -85.315317 
L 117.197189 -85.290175 
L 116.253005 -86.509034 
L 115.308821 -86.77028 
L 114.364637 -86.826461 
L 113.420453 -88.051106 
L 112.476269 -94.179518 
L 111.532085 -89.117335 
L 110.587901 -89.006226 
L 109.643717 -88.035962 
L 108.699533 -86.73317 
L 107.755349 -85.845028 
L 106.811165 -87.592666 
L 105.866981 -91.537493 
L 104.922797 -92.595949 
L 103.978613 -93.74286 
L 103.034429 -95.260523 
L 102.090245 -104.083896 
L 101.146061 -101.889942 
L 100.201877 -93.729513 
L 99.257693 -85.743272 
L 98.313509 -88.410154 
L 97.369325 -94.859597 
L 96.425141 -95.940511 
L 95.480957 -89.163482 
L 94.536773 -83.02307 
L 93.592589 -84.652397 
L 92.648405 -85.040994 
L 91.704221 -89.296679 
L 90.760037 -88.492597 
L 89.815853 -88.565719 
L 88.871669 -91.922652 
L 87.927485 -93.753956 
L 86.983301 -100.377606 
L 86.039117 -100.73412 
z
" style="stroke: #008000; stroke-opacity: 0.1"/>
    </defs>
    <g clip-path="url(#p4c2441854a)">
     <use xlink:href="#m7e9ed61eef" x="0" y="144" style="fill: #008000; fill-opacity: 0.1; stroke: #008000; stroke-opacity: 0.1"/>
    </g>
   </g>
   <g id="matplotlib.axis_1">
    <g id="xtick_1">
     <g id="line2d_1"/>
     <g id="text_1">
      <!-- 0 -->
      <g transform="translate(81.917355 113.038438) scale(0.1 -0.1)">
       <defs>
        <path id="DejaVuSans-30" d="M 2034 4250 
Q 1547 4250 1301 3770 
Q 1056 3291 1056 2328 
Q 1056 1369 1301 889 
Q 1547 409 2034 409 
Q 2525 409 2770 889 
Q 3016 1369 3016 2328 
Q 3016 3291 2770 3770 
Q 2525 4250 2034 4250 
z
M 2034 4750 
Q 2819 4750 3233 4129 
Q 3647 3509 3647 2328 
Q 3647 1150 3233 529 
Q 2819 -91 2034 -91 
Q 1250 -91 836 529 
Q 422 1150 422 2328 
Q 422 3509 836 4129 
Q 1250 4750 2034 4750 
z
" transform="scale(0.015625)"/>
       </defs>
       <use xlink:href="#DejaVuSans-30"/>
      </g>
     </g>
    </g>
    <g id="xtick_2">
     <g id="line2d_2"/>
     <g id="text_2">
      <!-- 100 -->
      <g transform="translate(169.606 113.038438) scale(0.1 -0.1)">
       <defs>
        <path id="DejaVuSans-31" d="M 794 531 
L 1825 531 
L 1825 4091 
L 703 3866 
L 703 4441 
L 1819 4666 
L 2450 4666 
L 2450 531 
L 3481 531 
L 3481 0 
L 794 0 
L 794 531 
z
" transform="scale(0.015625)"/>
       </defs>
       <use xlink:href="#DejaVuSans-31"/>
       <use xlink:href="#DejaVuSans-30" x="63.623047"/>
       <use xlink:href="#DejaVuSans-30" x="127.246094"/>
      </g>
     </g>
    </g>
    <g id="xtick_3">
     <g id="line2d_3"/>
     <g id="text_3">
      <!-- 200 -->
      <g transform="translate(263.657145 113.038438) scale(0.1 -0.1)">
       <defs>
        <path id="DejaVuSans-32" d="M 1228 531 
L 3431 531 
L 3431 0 
L 469 0 
L 469 531 
Q 828 903 1448 1529 
Q 2069 2156 2228 2338 
Q 2531 2678 2651 2914 
Q 2772 3150 2772 3378 
Q 2772 3750 2511 3984 
Q 2250 4219 1831 4219 
Q 1534 4219 1204 4116 
Q 875 4013 500 3803 
L 500 4441 
Q 881 4594 1212 4672 
Q 1544 4750 1819 4750 
Q 2544 4750 2975 4387 
Q 3406 4025 3406 3419 
Q 3406 3131 3298 2873 
Q 3191 2616 2906 2266 
Q 2828 2175 2409 1742 
Q 1991 1309 1228 531 
z
" transform="scale(0.015625)"/>
       </defs>
       <use xlink:href="#DejaVuSans-32"/>
       <use xlink:href="#DejaVuSans-30" x="63.623047"/>
       <use xlink:href="#DejaVuSans-30" x="127.246094"/>
      </g>
     </g>
    </g>
    <g id="xtick_4">
     <g id="line2d_4"/>
     <g id="text_4">
      <!-- 300 -->
      <g transform="translate(357.70829 113.038438) scale(0.1 -0.1)">
       <defs>
        <path id="DejaVuSans-33" d="M 2597 2516 
Q 3050 2419 3304 2112 
Q 3559 1806 3559 1356 
Q 3559 666 3084 287 
Q 2609 -91 1734 -91 
Q 1441 -91 1130 -33 
Q 819 25 488 141 
L 488 750 
Q 750 597 1062 519 
Q 1375 441 1716 441 
Q 2309 441 2620 675 
Q 2931 909 2931 1356 
Q 2931 1769 2642 2001 
Q 2353 2234 1838 2234 
L 1294 2234 
L 1294 2753 
L 1863 2753 
Q 2328 2753 2575 2939 
Q 2822 3125 2822 3475 
Q 2822 3834 2567 4026 
Q 2313 4219 1838 4219 
Q 1578 4219 1281 4162 
Q 984 4106 628 3988 
L 628 4550 
Q 988 4650 1302 4700 
Q 1616 4750 1894 4750 
Q 2613 4750 3031 4423 
Q 3450 4097 3450 3541 
Q 3450 3153 3228 2886 
Q 3006 2619 2597 2516 
z
" transform="scale(0.015625)"/>
       </defs>
       <use xlink:href="#DejaVuSans-33"/>
       <use xlink:href="#DejaVuSans-30" x="63.623047"/>
       <use xlink:href="#DejaVuSans-30" x="127.246094"/>
      </g>
     </g>
    </g>
    <g id="xtick_5">
     <g id="line2d_5"/>
     <g id="text_5">
      <!-- 400 -->
      <g transform="translate(451.759434 113.038438) scale(0.1 -0.1)">
       <defs>
        <path id="DejaVuSans-34" d="M 2419 4116 
L 825 1625 
L 2419 1625 
L 2419 4116 
z
M 2253 4666 
L 3047 4666 
L 3047 1625 
L 3713 1625 
L 3713 1100 
L 3047 1100 
L 3047 0 
L 2419 0 
L 2419 1100 
L 313 1100 
L 313 1709 
L 2253 4666 
z
" transform="scale(0.015625)"/>
       </defs>
       <use xlink:href="#DejaVuSans-34"/>
       <use xlink:href="#DejaVuSans-30" x="63.623047"/>
       <use xlink:href="#DejaVuSans-30" x="127.246094"/>
      </g>
     </g>
    </g>
    <g id="xtick_6">
     <g id="line2d_6"/>
     <g id="text_6">
      <!-- 500 -->
      <g transform="translate(545.810579 113.038438) scale(0.1 -0.1)">
       <defs>
        <path id="DejaVuSans-35" d="M 691 4666 
L 3169 4666 
L 3169 4134 
L 1269 4134 
L 1269 2991 
Q 1406 3038 1543 3061 
Q 1681 3084 1819 3084 
Q 2600 3084 3056 2656 
Q 3513 2228 3513 1497 
Q 3513 744 3044 326 
Q 2575 -91 1722 -91 
Q 1428 -91 1123 -41 
Q 819 9 494 109 
L 494 744 
Q 775 591 1075 516 
Q 1375 441 1709 441 
Q 2250 441 2565 725 
Q 2881 1009 2881 1497 
Q 2881 1984 2565 2268 
Q 2250 2553 1709 2553 
Q 1456 2553 1204 2497 
Q 953 2441 691 2322 
L 691 4666 
z
" transform="scale(0.015625)"/>
       </defs>
       <use xlink:href="#DejaVuSans-35"/>
       <use xlink:href="#DejaVuSans-30" x="63.623047"/>
       <use xlink:href="#DejaVuSans-30" x="127.246094"/>
      </g>
     </g>
    </g>
    <g id="text_7">
     <!-- time (s) across film -->
     <g transform="translate(243.080281 129.755937) scale(0.14 -0.14)">
      <defs>
       <path id="DejaVuSans-74" d="M 1172 4494 
L 1172 3500 
L 2356 3500 
L 2356 3053 
L 1172 3053 
L 1172 1153 
Q 1172 725 1289 603 
Q 1406 481 1766 481 
L 2356 481 
L 2356 0 
L 1766 0 
Q 1100 0 847 248 
Q 594 497 594 1153 
L 594 3053 
L 172 3053 
L 172 3500 
L 594 3500 
L 594 4494 
L 1172 4494 
z
" transform="scale(0.015625)"/>
       <path id="DejaVuSans-69" d="M 603 3500 
L 1178 3500 
L 1178 0 
L 603 0 
L 603 3500 
z
M 603 4863 
L 1178 4863 
L 1178 4134 
L 603 4134 
L 603 4863 
z
" transform="scale(0.015625)"/>
       <path id="DejaVuSans-6d" d="M 3328 2828 
Q 3544 3216 3844 3400 
Q 4144 3584 4550 3584 
Q 5097 3584 5394 3201 
Q 5691 2819 5691 2113 
L 5691 0 
L 5113 0 
L 5113 2094 
Q 5113 2597 4934 2840 
Q 4756 3084 4391 3084 
Q 3944 3084 3684 2787 
Q 3425 2491 3425 1978 
L 3425 0 
L 2847 0 
L 2847 2094 
Q 2847 2600 2669 2842 
Q 2491 3084 2119 3084 
Q 1678 3084 1418 2786 
Q 1159 2488 1159 1978 
L 1159 0 
L 581 0 
L 581 3500 
L 1159 3500 
L 1159 2956 
Q 1356 3278 1631 3431 
Q 1906 3584 2284 3584 
Q 2666 3584 2933 3390 
Q 3200 3197 3328 2828 
z
" transform="scale(0.015625)"/>
       <path id="DejaVuSans-65" d="M 3597 1894 
L 3597 1613 
L 953 1613 
Q 991 1019 1311 708 
Q 1631 397 2203 397 
Q 2534 397 2845 478 
Q 3156 559 3463 722 
L 3463 178 
Q 3153 47 2828 -22 
Q 2503 -91 2169 -91 
Q 1331 -91 842 396 
Q 353 884 353 1716 
Q 353 2575 817 3079 
Q 1281 3584 2069 3584 
Q 2775 3584 3186 3129 
Q 3597 2675 3597 1894 
z
M 3022 2063 
Q 3016 2534 2758 2815 
Q 2500 3097 2075 3097 
Q 1594 3097 1305 2825 
Q 1016 2553 972 2059 
L 3022 2063 
z
" transform="scale(0.015625)"/>
       <path id="DejaVuSans-20" transform="scale(0.015625)"/>
       <path id="DejaVuSans-28" d="M 1984 4856 
Q 1566 4138 1362 3434 
Q 1159 2731 1159 2009 
Q 1159 1288 1364 580 
Q 1569 -128 1984 -844 
L 1484 -844 
Q 1016 -109 783 600 
Q 550 1309 550 2009 
Q 550 2706 781 3412 
Q 1013 4119 1484 4856 
L 1984 4856 
z
" transform="scale(0.015625)"/>
       <path id="DejaVuSans-73" d="M 2834 3397 
L 2834 2853 
Q 2591 2978 2328 3040 
Q 2066 3103 1784 3103 
Q 1356 3103 1142 2972 
Q 928 2841 928 2578 
Q 928 2378 1081 2264 
Q 1234 2150 1697 2047 
L 1894 2003 
Q 2506 1872 2764 1633 
Q 3022 1394 3022 966 
Q 3022 478 2636 193 
Q 2250 -91 1575 -91 
Q 1294 -91 989 -36 
Q 684 19 347 128 
L 347 722 
Q 666 556 975 473 
Q 1284 391 1588 391 
Q 1994 391 2212 530 
Q 2431 669 2431 922 
Q 2431 1156 2273 1281 
Q 2116 1406 1581 1522 
L 1381 1569 
Q 847 1681 609 1914 
Q 372 2147 372 2553 
Q 372 3047 722 3315 
Q 1072 3584 1716 3584 
Q 2034 3584 2315 3537 
Q 2597 3491 2834 3397 
z
" transform="scale(0.015625)"/>
       <path id="DejaVuSans-29" d="M 513 4856 
L 1013 4856 
Q 1481 4119 1714 3412 
Q 1947 2706 1947 2009 
Q 1947 1309 1714 600 
Q 1481 -109 1013 -844 
L 513 -844 
Q 928 -128 1133 580 
Q 1338 1288 1338 2009 
Q 1338 2731 1133 3434 
Q 928 4138 513 4856 
z
" transform="scale(0.015625)"/>
       <path id="DejaVuSans-61" d="M 2194 1759 
Q 1497 1759 1228 1600 
Q 959 1441 959 1056 
Q 959 750 1161 570 
Q 1363 391 1709 391 
Q 2188 391 2477 730 
Q 2766 1069 2766 1631 
L 2766 1759 
L 2194 1759 
z
M 3341 1997 
L 3341 0 
L 2766 0 
L 2766 531 
Q 2569 213 2275 61 
Q 1981 -91 1556 -91 
Q 1019 -91 701 211 
Q 384 513 384 1019 
Q 384 1609 779 1909 
Q 1175 2209 1959 2209 
L 2766 2209 
L 2766 2266 
Q 2766 2663 2505 2880 
Q 2244 3097 1772 3097 
Q 1472 3097 1187 3025 
Q 903 2953 641 2809 
L 641 3341 
Q 956 3463 1253 3523 
Q 1550 3584 1831 3584 
Q 2591 3584 2966 3190 
Q 3341 2797 3341 1997 
z
" transform="scale(0.015625)"/>
       <path id="DejaVuSans-63" d="M 3122 3366 
L 3122 2828 
Q 2878 2963 2633 3030 
Q 2388 3097 2138 3097 
Q 1578 3097 1268 2742 
Q 959 2388 959 1747 
Q 959 1106 1268 751 
Q 1578 397 2138 397 
Q 2388 397 2633 464 
Q 2878 531 3122 666 
L 3122 134 
Q 2881 22 2623 -34 
Q 2366 -91 2075 -91 
Q 1284 -91 818 406 
Q 353 903 353 1747 
Q 353 2603 823 3093 
Q 1294 3584 2113 3584 
Q 2378 3584 2631 3529 
Q 2884 3475 3122 3366 
z
" transform="scale(0.015625)"/>
       <path id="DejaVuSans-72" d="M 2631 2963 
Q 2534 3019 2420 3045 
Q 2306 3072 2169 3072 
Q 1681 3072 1420 2755 
Q 1159 2438 1159 1844 
L 1159 0 
L 581 0 
L 581 3500 
L 1159 3500 
L 1159 2956 
Q 1341 3275 1631 3429 
Q 1922 3584 2338 3584 
Q 2397 3584 2469 3576 
Q 2541 3569 2628 3553 
L 2631 2963 
z
" transform="scale(0.015625)"/>
       <path id="DejaVuSans-6f" d="M 1959 3097 
Q 1497 3097 1228 2736 
Q 959 2375 959 1747 
Q 959 1119 1226 758 
Q 1494 397 1959 397 
Q 2419 397 2687 759 
Q 2956 1122 2956 1747 
Q 2956 2369 2687 2733 
Q 2419 3097 1959 3097 
z
M 1959 3584 
Q 2709 3584 3137 3096 
Q 3566 2609 3566 1747 
Q 3566 888 3137 398 
Q 2709 -91 1959 -91 
Q 1206 -91 779 398 
Q 353 888 353 1747 
Q 353 2609 779 3096 
Q 1206 3584 1959 3584 
z
" transform="scale(0.015625)"/>
       <path id="DejaVuSans-66" d="M 2375 4863 
L 2375 4384 
L 1825 4384 
Q 1516 4384 1395 4259 
Q 1275 4134 1275 3809 
L 1275 3500 
L 2222 3500 
L 2222 3053 
L 1275 3053 
L 1275 0 
L 697 0 
L 697 3053 
L 147 3053 
L 147 3500 
L 697 3500 
L 697 3744 
Q 697 4328 969 4595 
Q 1241 4863 1831 4863 
L 2375 4863 
z
" transform="scale(0.015625)"/>
       <path id="DejaVuSans-6c" d="M 603 4863 
L 1178 4863 
L 1178 0 
L 603 0 
L 603 4863 
z
" transform="scale(0.015625)"/>
      </defs>
      <use xlink:href="#DejaVuSans-74"/>
      <use xlink:href="#DejaVuSans-69" x="39.208984"/>
      <use xlink:href="#DejaVuSans-6d" x="66.992188"/>
      <use xlink:href="#DejaVuSans-65" x="164.404297"/>
      <use xlink:href="#DejaVuSans-20" x="225.927734"/>
      <use xlink:href="#DejaVuSans-28" x="257.714844"/>
      <use xlink:href="#DejaVuSans-73" x="296.728516"/>
      <use xlink:href="#DejaVuSans-29" x="348.828125"/>
      <use xlink:href="#DejaVuSans-20" x="387.841797"/>
      <use xlink:href="#DejaVuSans-61" x="419.628906"/>
      <use xlink:href="#DejaVuSans-63" x="480.908203"/>
      <use xlink:href="#DejaVuSans-72" x="535.888672"/>
      <use xlink:href="#DejaVuSans-6f" x="574.751953"/>
      <use xlink:href="#DejaVuSans-73" x="635.933594"/>
      <use xlink:href="#DejaVuSans-73" x="688.033203"/>
      <use xlink:href="#DejaVuSans-20" x="740.132812"/>
      <use xlink:href="#DejaVuSans-66" x="771.919922"/>
      <use xlink:href="#DejaVuSans-69" x="807.125"/>
      <use xlink:href="#DejaVuSans-6c" x="834.908203"/>
      <use xlink:href="#DejaVuSans-6d" x="862.691406"/>
     </g>
    </g>
   </g>
   <g id="matplotlib.axis_2">
    <g id="ytick_1">
     <g id="line2d_7"/>
     <g id="text_8">
      <!-- −2 -->
      <g transform="translate(44.337813 98.881219) scale(0.1 -0.1)">
       <defs>
        <path id="DejaVuSans-2212" d="M 678 2272 
L 4684 2272 
L 4684 1741 
L 678 1741 
L 678 2272 
z
" transform="scale(0.015625)"/>
       </defs>
       <use xlink:href="#DejaVuSans-2212"/>
       <use xlink:href="#DejaVuSans-32" x="83.789062"/>
      </g>
     </g>
    </g>
    <g id="ytick_2">
     <g id="line2d_8"/>
     <g id="text_9">
      <!-- 0 -->
      <g transform="translate(52.7175 71.449219) scale(0.1 -0.1)">
       <use xlink:href="#DejaVuSans-30"/>
      </g>
     </g>
    </g>
    <g id="ytick_3">
     <g id="line2d_9"/>
     <g id="text_10">
      <!-- 2 -->
      <g transform="translate(52.7175 44.017219) scale(0.1 -0.1)">
       <use xlink:href="#DejaVuSans-32"/>
      </g>
     </g>
    </g>
    <g id="text_11">
     <!-- normalized FR -->
     <g transform="translate(21.749312 117.661719) rotate(-90) scale(0.14 -0.14)">
      <defs>
       <path id="DejaVuSans-6e" d="M 3513 2113 
L 3513 0 
L 2938 0 
L 2938 2094 
Q 2938 2591 2744 2837 
Q 2550 3084 2163 3084 
Q 1697 3084 1428 2787 
Q 1159 2491 1159 1978 
L 1159 0 
L 581 0 
L 581 3500 
L 1159 3500 
L 1159 2956 
Q 1366 3272 1645 3428 
Q 1925 3584 2291 3584 
Q 2894 3584 3203 3211 
Q 3513 2838 3513 2113 
z
" transform="scale(0.015625)"/>
       <path id="DejaVuSans-7a" d="M 353 3500 
L 3084 3500 
L 3084 2975 
L 922 459 
L 3084 459 
L 3084 0 
L 275 0 
L 275 525 
L 2438 3041 
L 353 3041 
L 353 3500 
z
" transform="scale(0.015625)"/>
       <path id="DejaVuSans-64" d="M 2906 2969 
L 2906 4863 
L 3481 4863 
L 3481 0 
L 2906 0 
L 2906 525 
Q 2725 213 2448 61 
Q 2172 -91 1784 -91 
Q 1150 -91 751 415 
Q 353 922 353 1747 
Q 353 2572 751 3078 
Q 1150 3584 1784 3584 
Q 2172 3584 2448 3432 
Q 2725 3281 2906 2969 
z
M 947 1747 
Q 947 1113 1208 752 
Q 1469 391 1925 391 
Q 2381 391 2643 752 
Q 2906 1113 2906 1747 
Q 2906 2381 2643 2742 
Q 2381 3103 1925 3103 
Q 1469 3103 1208 2742 
Q 947 2381 947 1747 
z
" transform="scale(0.015625)"/>
       <path id="DejaVuSans-46" d="M 628 4666 
L 3309 4666 
L 3309 4134 
L 1259 4134 
L 1259 2759 
L 3109 2759 
L 3109 2228 
L 1259 2228 
L 1259 0 
L 628 0 
L 628 4666 
z
" transform="scale(0.015625)"/>
       <path id="DejaVuSans-52" d="M 2841 2188 
Q 3044 2119 3236 1894 
Q 3428 1669 3622 1275 
L 4263 0 
L 3584 0 
L 2988 1197 
Q 2756 1666 2539 1819 
Q 2322 1972 1947 1972 
L 1259 1972 
L 1259 0 
L 628 0 
L 628 4666 
L 2053 4666 
Q 2853 4666 3247 4331 
Q 3641 3997 3641 3322 
Q 3641 2881 3436 2590 
Q 3231 2300 2841 2188 
z
M 1259 4147 
L 1259 2491 
L 2053 2491 
Q 2509 2491 2742 2702 
Q 2975 2913 2975 3322 
Q 2975 3731 2742 3939 
Q 2509 4147 2053 4147 
L 1259 4147 
z
" transform="scale(0.015625)"/>
      </defs>
      <use xlink:href="#DejaVuSans-6e"/>
      <use xlink:href="#DejaVuSans-6f" x="63.378906"/>
      <use xlink:href="#DejaVuSans-72" x="124.560547"/>
      <use xlink:href="#DejaVuSans-6d" x="163.923828"/>
      <use xlink:href="#DejaVuSans-61" x="261.335938"/>
      <use xlink:href="#DejaVuSans-6c" x="322.615234"/>
      <use xlink:href="#DejaVuSans-69" x="350.398438"/>
      <use xlink:href="#DejaVuSans-7a" x="378.181641"/>
      <use xlink:href="#DejaVuSans-65" x="430.671875"/>
      <use xlink:href="#DejaVuSans-64" x="492.195312"/>
      <use xlink:href="#DejaVuSans-20" x="555.671875"/>
      <use xlink:href="#DejaVuSans-46" x="587.458984"/>
      <use xlink:href="#DejaVuSans-52" x="644.978516"/>
     </g>
     <!-- (Hz) -->
     <g transform="translate(37.42625 82.050313) rotate(-90) scale(0.14 -0.14)">
      <defs>
       <path id="DejaVuSans-48" d="M 628 4666 
L 1259 4666 
L 1259 2753 
L 3553 2753 
L 3553 4666 
L 4184 4666 
L 4184 0 
L 3553 0 
L 3553 2222 
L 1259 2222 
L 1259 0 
L 628 0 
L 628 4666 
z
" transform="scale(0.015625)"/>
      </defs>
      <use xlink:href="#DejaVuSans-28"/>
      <use xlink:href="#DejaVuSans-48" x="39.013672"/>
      <use xlink:href="#DejaVuSans-7a" x="114.208984"/>
      <use xlink:href="#DejaVuSans-29" x="166.699219"/>
     </g>
    </g>
   </g>
   <g id="line2d_10">
    <path d="M 86.039117 63.115954 
L 86.983301 61.406551 
L 87.927485 65.235008 
L 88.871669 65.72031 
L 89.815853 67.783961 
L 90.760037 67.445946 
L 91.704221 66.631313 
L 92.648405 70.20986 
L 93.592589 69.987602 
L 94.536773 72.697554 
L 95.480957 67.919871 
L 96.425141 65.236344 
L 97.369325 66.063827 
L 98.313509 68.537288 
L 99.257693 69.532741 
L 100.201877 63.632433 
L 101.146061 60.542461 
L 102.090245 59.670182 
L 103.978613 66.546706 
L 104.922797 67.614574 
L 105.866981 68.144784 
L 106.811165 69.739766 
L 107.755349 70.178976 
L 108.699533 69.66297 
L 109.643717 69.535937 
L 110.587901 67.463121 
L 111.532085 66.265236 
L 112.476269 63.351687 
L 113.420453 67.418798 
L 114.364637 68.267514 
L 115.308821 68.860566 
L 116.253005 67.967621 
L 117.197189 69.586557 
L 118.141373 69.737436 
L 119.085557 66.872398 
L 120.029741 62.288228 
L 120.973925 61.611625 
L 121.918109 62.122473 
L 122.862293 64.170592 
L 124.750661 62.086884 
L 125.694845 64.501491 
L 126.639029 66.574844 
L 127.583213 69.39232 
L 128.527397 69.049703 
L 129.471581 69.583738 
L 130.415765 68.63884 
L 131.359949 66.286559 
L 132.304133 66.652798 
L 133.248317 66.071496 
L 134.192501 64.405388 
L 135.136685 62.170463 
L 136.080869 62.531578 
L 137.025053 66.830626 
L 137.969237 69.555786 
L 138.913421 69.114754 
L 139.857605 68.298941 
L 140.801789 63.477275 
L 141.745973 60.762466 
L 142.690157 56.420601 
L 143.634341 59.369278 
L 145.52271 70.423419 
L 146.466894 72.134438 
L 147.411078 73.181167 
L 148.355262 71.41776 
L 149.299446 70.975652 
L 150.24363 69.245782 
L 151.187814 72.456524 
L 153.076182 74.11795 
L 154.020366 67.367566 
L 154.96455 64.382785 
L 155.908734 64.138334 
L 156.852918 69.47313 
L 157.797102 70.427569 
L 158.741286 68.434633 
L 159.68547 68.016137 
L 160.629654 66.747437 
L 161.573838 63.018467 
L 162.518022 62.39449 
L 163.462206 65.975608 
L 164.40639 74.807096 
L 165.350574 74.80437 
L 166.294758 74.180624 
L 167.238942 70.478147 
L 168.183126 67.610438 
L 170.071494 66.227163 
L 171.015678 68.927768 
L 171.959862 70.446941 
L 172.904046 70.298629 
L 173.84823 69.452341 
L 174.792414 67.278041 
L 175.736598 66.339123 
L 176.680782 67.779954 
L 177.624966 70.465246 
L 178.56915 69.882274 
L 179.513334 72.357283 
L 180.457518 70.299526 
L 181.401702 72.55891 
L 182.345886 68.417484 
L 183.29007 67.742902 
L 184.234254 69.14811 
L 185.178438 65.91869 
L 186.122622 67.897004 
L 187.066806 68.127116 
L 188.01099 72.020298 
L 188.955174 73.091334 
L 189.899358 69.847407 
L 190.843542 70.92571 
L 191.787726 68.946089 
L 192.73191 70.767237 
L 193.676094 71.52481 
L 194.620278 72.047407 
L 195.564462 71.594072 
L 196.508646 70.650301 
L 197.45283 71.063594 
L 198.397014 72.755578 
L 199.341198 72.731756 
L 200.285382 70.672001 
L 201.229566 69.067147 
L 202.17375 66.195563 
L 203.117934 65.497729 
L 204.062118 63.157761 
L 205.006302 64.629149 
L 205.950486 60.496124 
L 206.89467 59.832903 
L 207.838855 57.77452 
L 208.783039 62.985782 
L 209.727223 64.79961 
L 210.671407 65.696009 
L 211.615591 67.426323 
L 212.559775 68.807997 
L 213.503959 68.45809 
L 214.448143 65.706182 
L 215.392327 65.68544 
L 216.336511 66.485475 
L 217.280695 65.401702 
L 218.224879 63.044994 
L 219.169063 65.29903 
L 220.113247 66.83576 
L 221.057431 67.101535 
L 222.001615 66.908627 
L 222.945799 65.356003 
L 223.889983 66.315874 
L 224.834167 62.613593 
L 226.722535 70.378999 
L 227.666719 72.027218 
L 228.610903 69.494765 
L 229.555087 65.900247 
L 230.499271 67.728556 
L 231.443455 68.446758 
L 232.387639 66.692115 
L 233.331823 63.934152 
L 234.276007 60.384628 
L 235.220191 60.518125 
L 236.164375 62.434993 
L 237.108559 66.072987 
L 238.052743 68.466058 
L 239.941111 63.732264 
L 240.885295 63.783438 
L 241.829479 65.69592 
L 242.773663 66.992271 
L 243.717847 65.689224 
L 244.662031 63.706172 
L 245.606215 66.519442 
L 246.550399 71.948819 
L 247.494583 76.33167 
L 248.438767 74.30918 
L 250.327135 69.056872 
L 251.271319 68.297292 
L 252.215503 62.171654 
L 253.159687 58.794188 
L 254.103871 59.733145 
L 255.048055 64.828575 
L 255.992239 68.841728 
L 256.936423 67.504493 
L 257.880607 65.141261 
L 258.824791 67.372221 
L 259.768975 68.165662 
L 260.713159 65.821994 
L 261.657343 61.129551 
L 262.601527 61.229192 
L 263.545711 63.340278 
L 264.489895 66.766705 
L 265.434079 69.676867 
L 266.378263 68.018136 
L 267.322447 64.733409 
L 268.266631 57.482071 
L 269.210815 61.357485 
L 270.154999 68.291765 
L 271.099184 74.120894 
L 272.043368 73.694553 
L 272.987552 72.407732 
L 273.931736 74.671709 
L 274.87592 77.230674 
L 275.820104 77.90776 
L 276.764288 76.009492 
L 277.708472 76.504057 
L 278.652656 75.80865 
L 279.59684 78.608691 
L 280.541024 75.08076 
L 281.485208 72.286133 
L 282.429392 68.9226 
L 283.373576 70.978193 
L 286.206128 82.054471 
L 287.150312 80.120027 
L 289.03868 69.920846 
L 289.982864 67.192072 
L 290.927048 67.116758 
L 291.871232 66.226673 
L 292.815416 67.824265 
L 293.7596 65.33825 
L 294.703784 64.472423 
L 295.647968 65.059286 
L 296.592152 70.336828 
L 297.536336 70.752031 
L 298.48052 68.723581 
L 299.424704 65.388025 
L 300.368888 64.066528 
L 301.313072 61.192432 
L 303.20144 59.169916 
L 304.145624 61.52115 
L 305.089808 63.122485 
L 306.033992 67.731353 
L 306.978176 64.685851 
L 307.92236 63.73418 
L 308.866544 60.027838 
L 309.810728 64.164835 
L 310.754912 66.478411 
L 311.699096 66.814855 
L 312.64328 63.939057 
L 313.587464 63.053434 
L 314.531648 66.94541 
L 315.475832 70.073957 
L 317.3642 64.846881 
L 318.308384 65.270069 
L 319.252568 67.606218 
L 320.196752 70.978263 
L 321.140936 70.955107 
L 322.08512 74.026629 
L 323.029304 72.737674 
L 323.973488 69.362934 
L 324.917672 64.462084 
L 325.861856 64.795377 
L 326.80604 70.193365 
L 327.750224 76.570685 
L 328.694408 78.016023 
L 329.638592 78.169452 
L 330.582776 76.005088 
L 332.471144 72.9642 
L 333.415328 70.22208 
L 334.359513 66.845492 
L 335.303697 65.685057 
L 336.247881 70.611177 
L 338.136249 69.410861 
L 339.080433 66.638332 
L 340.024617 68.371248 
L 340.968801 69.377825 
L 341.912985 67.49651 
L 342.857169 65.065446 
L 343.801353 62.047056 
L 344.745537 62.960694 
L 345.689721 62.548035 
L 346.633905 65.093282 
L 347.578089 61.427755 
L 348.522273 66.286353 
L 349.466457 65.848169 
L 350.410641 69.628729 
L 351.354825 69.763831 
L 353.243193 72.674256 
L 354.187377 71.089678 
L 355.131561 70.087242 
L 356.075745 69.891994 
L 357.019929 68.628555 
L 357.964113 70.323173 
L 358.908297 70.72245 
L 359.852481 72.166719 
L 360.796665 69.781654 
L 361.740849 66.869257 
L 362.685033 68.303744 
L 363.629217 68.222263 
L 364.573401 66.705181 
L 365.517585 66.95423 
L 366.461769 66.362742 
L 367.405953 67.801846 
L 368.350137 64.859768 
L 369.294321 68.524075 
L 370.238505 68.119109 
L 371.182689 68.323892 
L 372.126873 68.081556 
L 373.071057 68.232342 
L 374.015241 66.644127 
L 374.959425 63.605553 
L 375.903609 61.708917 
L 376.847793 63.758565 
L 377.791977 62.519211 
L 378.736161 66.450554 
L 379.680345 67.479228 
L 380.624529 70.017863 
L 381.568713 68.474701 
L 382.512897 66.011829 
L 383.457081 65.168637 
L 384.401265 69.503809 
L 385.345449 70.664041 
L 386.289633 66.620948 
L 387.233817 60.499657 
L 388.178001 60.296466 
L 389.122185 64.768827 
L 390.066369 67.944395 
L 391.010553 65.892731 
L 391.954737 63.234413 
L 392.898921 61.318273 
L 393.843105 64.695186 
L 394.787289 66.644044 
L 395.731473 69.078038 
L 396.675657 66.746537 
L 397.619842 65.119916 
L 398.564026 62.935091 
L 399.50821 65.334487 
L 400.452394 68.178619 
L 401.396578 66.938615 
L 402.340762 66.102386 
L 403.284946 66.330914 
L 404.22913 69.404268 
L 405.173314 68.976974 
L 406.117498 68.395975 
L 407.061682 69.228509 
L 408.005866 67.916989 
L 408.95005 68.160811 
L 409.894234 66.831045 
L 410.838418 69.172749 
L 411.782602 67.900902 
L 412.726786 64.629552 
L 413.67097 64.760949 
L 414.615154 65.699987 
L 415.559338 69.590809 
L 416.503522 63.818165 
L 418.39189 59.885536 
L 419.336074 63.228699 
L 420.280258 66.083908 
L 421.224442 65.861457 
L 422.168626 68.001719 
L 423.11281 69.093978 
L 424.056994 66.74284 
L 425.001178 63.479195 
L 425.945362 64.436226 
L 426.889546 66.676185 
L 427.83373 70.31044 
L 428.777914 69.238112 
L 429.722098 69.883444 
L 430.666282 69.232784 
L 431.610466 66.639126 
L 432.55465 66.744599 
L 433.498834 66.450499 
L 434.443018 70.345881 
L 435.387202 71.318766 
L 436.331386 72.621451 
L 437.27557 68.321131 
L 438.219754 67.012097 
L 439.163938 61.380455 
L 440.108122 61.202734 
L 441.052306 62.363965 
L 441.99649 65.684221 
L 442.940674 70.665702 
L 443.884858 71.446143 
L 444.829042 73.311682 
L 445.773226 70.964228 
L 446.71741 69.077917 
L 447.661594 70.116002 
L 448.605778 68.158488 
L 449.549962 67.97663 
L 450.494146 66.889896 
L 451.43833 67.015418 
L 452.382514 66.644738 
L 453.326698 66.89136 
L 454.270882 64.259148 
L 456.15925 63.007363 
L 457.103434 65.592201 
L 458.047618 69.936147 
L 458.991802 67.684093 
L 459.935987 66.253985 
L 460.880171 60.823533 
L 461.824355 60.547555 
L 462.768539 63.330769 
L 463.712723 65.296422 
L 464.656907 69.631422 
L 465.601091 69.062039 
L 466.545275 71.980973 
L 467.489459 71.969768 
L 468.433643 73.211496 
L 469.377827 71.994771 
L 470.322011 68.159636 
L 471.266195 65.942331 
L 472.210379 62.308256 
L 473.154563 64.366107 
L 474.098747 65.915209 
L 475.042931 67.016567 
L 475.987115 68.74749 
L 476.931299 68.631129 
L 477.875483 68.220485 
L 478.819667 66.529641 
L 479.763851 68.711349 
L 480.708035 70.03547 
L 481.652219 66.953905 
L 482.596403 65.660573 
L 483.540587 66.009788 
L 484.484771 69.717179 
L 485.428955 64.902041 
L 486.373139 65.500551 
L 487.317323 61.894057 
L 488.261507 64.293072 
L 489.205691 64.09043 
L 490.149875 66.477489 
L 492.038243 68.500152 
L 492.982427 68.667997 
L 493.926611 68.504843 
L 494.870795 67.216733 
L 495.814979 69.044166 
L 496.759163 69.501081 
L 497.703347 68.506954 
L 498.647531 64.517392 
L 499.591715 63.846755 
L 500.535899 64.419255 
L 501.480083 66.209448 
L 502.424267 66.790234 
L 503.368451 66.657097 
L 504.312635 68.364634 
L 505.256819 68.024359 
L 506.201003 68.041794 
L 507.145187 65.910576 
L 508.089371 65.221158 
L 509.033555 66.237006 
L 510.921923 67.837276 
L 511.866107 66.942724 
L 513.754475 71.011573 
L 514.698659 73.115636 
L 515.642843 69.402678 
L 516.587027 69.315169 
L 517.531211 68.482118 
L 518.475395 71.690893 
L 520.363763 69.666402 
L 521.307947 70.148542 
L 522.252131 72.198693 
L 523.196316 75.839847 
L 524.1405 76.608597 
L 525.084684 75.127542 
L 526.973052 71.087599 
L 527.917236 72.423081 
L 528.86142 74.549039 
L 529.805604 73.201652 
L 530.749788 68.897629 
L 531.693972 69.070752 
L 532.638156 69.780789 
L 533.58234 72.555171 
L 534.526524 69.994423 
L 535.470708 72.937363 
L 535.470708 72.937363 
" clip-path="url(#p4c2441854a)" style="fill: none; stroke: #008000; stroke-width: 1.5; stroke-linecap: square"/>
   </g>
   <g id="line2d_11">
    <path d="M 85.098605 69.6958 
L 86.039117 66.43872 
L 87.920139 65.718027 
L 88.860651 64.432368 
L 89.801162 62.427023 
L 90.741674 60.780327 
L 92.622697 61.202694 
L 93.563208 64.053947 
L 95.444231 74.689308 
L 97.325254 80.760499 
L 98.265765 85.086061 
L 99.206277 90.331282 
L 100.146788 94.615868 
L 102.027811 89.274868 
L 102.968323 85.374934 
L 103.908834 80.958107 
L 104.849346 77.120266 
L 106.730368 73.266637 
L 109.551903 65.631342 
L 111.432926 66.10557 
L 112.373437 69.204691 
L 113.313949 73.380878 
L 114.25446 76.693553 
L 116.135483 77.288809 
L 117.075994 74.306158 
L 118.016506 70.597219 
L 118.957017 67.388707 
L 120.83804 63.265401 
L 123.659575 54.622612 
L 125.540597 51.745556 
L 126.481109 54.940181 
L 129.302643 67.061429 
L 130.243155 70.934805 
L 133.064689 80.591587 
L 134.945712 85.930927 
L 135.886223 86.45798 
L 136.826735 86.831654 
L 137.767246 84.717401 
L 139.648269 75.307989 
L 141.529292 71.661106 
L 142.469803 69.154768 
L 144.350826 62.834681 
L 146.231849 58.553908 
L 147.172361 58.660423 
L 149.053384 63.298555 
L 150.934407 63.135285 
L 151.874918 63.442838 
L 152.815429 64.093868 
L 153.755941 65.002565 
L 155.636964 69.837259 
L 156.577475 71.71123 
L 157.517987 73.295786 
L 158.458498 74.309533 
L 160.339521 70.856399 
L 161.280032 71.084804 
L 162.220544 72.129029 
L 163.161055 72.840264 
L 165.042078 70.737334 
L 165.98259 65.941675 
L 167.863613 54.545283 
L 169.744635 48.24885 
L 172.56617 43.164609 
L 174.447193 40.218 
L 175.387704 43.381484 
L 179.14975 61.583082 
L 180.090261 62.893569 
L 181.030773 63.356859 
L 181.971284 64.152897 
L 183.852307 66.81218 
L 185.73333 67.881166 
L 186.673842 68.971185 
L 188.554864 72.75234 
L 190.435887 74.11926 
L 191.376399 74.007404 
L 193.257422 71.864215 
L 195.138445 72.744242 
L 196.078956 72.645758 
L 197.959979 70.981862 
L 199.841002 70.543033 
L 200.781513 70.524514 
L 202.662536 71.117144 
L 204.543559 70.769112 
L 205.48407 70.185977 
L 207.365093 68.392853 
L 209.246116 66.163818 
L 210.186628 65.806908 
L 212.067651 66.062553 
L 213.948674 65.618802 
L 214.889185 65.757531 
L 215.829696 66.134976 
L 216.770208 66.663129 
L 218.651231 69.450324 
L 219.591742 70.092201 
L 220.532254 70.372374 
L 221.472765 70.84732 
L 223.353788 72.695617 
L 224.294299 71.830206 
L 225.234811 70.43469 
L 226.175322 69.516519 
L 228.996857 70.081965 
L 229.937368 70.387633 
L 230.87788 70.038726 
L 232.758902 66.197955 
L 233.699414 66.0959 
L 234.639925 66.532339 
L 235.580437 66.703824 
L 237.46146 65.345993 
L 240.282994 64.078118 
L 242.164017 63.43395 
L 244.04504 63.839774 
L 246.866574 64.589375 
L 248.747597 63.992511 
L 249.688109 65.4864 
L 251.569131 72.402149 
L 253.450154 73.969959 
L 254.390666 75.856231 
L 256.271689 81.398252 
L 258.152712 91.039233 
L 259.093223 92.071476 
L 260.033734 90.012978 
L 260.974246 87.551842 
L 263.79578 75.396073 
L 265.676803 67.680345 
L 267.557826 57.76406 
L 268.498338 55.699226 
L 270.37936 55.620517 
L 272.260383 60.363888 
L 273.200895 60.611066 
L 274.141406 59.624813 
L 275.081918 59.101306 
L 276.962941 60.800087 
L 277.903452 60.647884 
L 278.843963 60.089431 
L 279.784475 59.80921 
L 281.665498 61.874993 
L 282.606009 64.23345 
L 283.546521 66.973325 
L 284.487032 69.109981 
L 286.368055 69.480836 
L 287.308566 70.492484 
L 289.189589 72.824532 
L 291.070612 74.466354 
L 292.011124 73.875702 
L 293.892147 72.148408 
L 295.77317 71.011637 
L 297.654192 68.483504 
L 298.594704 67.635159 
L 301.416238 67.308332 
L 305.178284 67.271509 
L 307.059307 70.389991 
L 307.999818 71.422151 
L 309.880841 72.284453 
L 312.702376 71.625786 
L 317.404933 70.129022 
L 318.345444 69.93106 
L 319.285956 70.036581 
L 321.166979 75.70223 
L 323.988513 86.93311 
L 325.869536 87.517194 
L 326.810047 87.996191 
L 327.750559 88.619471 
L 328.69107 89.042352 
L 330.572093 86.663943 
L 331.512605 81.646379 
L 333.393627 68.830636 
L 335.27465 60.299288 
L 336.215162 58.935284 
L 337.155673 58.451023 
L 338.096185 57.602889 
L 339.977208 53.959848 
L 340.917719 56.587441 
L 342.798742 64.544192 
L 344.679765 71.69765 
L 345.620276 72.411965 
L 346.560788 72.284073 
L 347.501299 72.644434 
L 349.382322 75.447476 
L 350.322834 75.194549 
L 352.203856 73.98515 
L 354.084879 73.162453 
L 355.965902 74.462583 
L 356.906414 74.540403 
L 358.787437 73.070246 
L 360.668459 73.196157 
L 361.608971 73.416988 
L 363.489994 74.34188 
L 365.371017 72.943566 
L 367.25204 71.348079 
L 368.192551 70.647806 
L 370.073574 70.096279 
L 371.014085 68.991257 
L 372.895108 65.52973 
L 374.776131 59.751401 
L 375.716643 58.315898 
L 376.657154 57.879774 
L 377.597666 57.727808 
L 379.478688 59.513422 
L 380.4192 60.667138 
L 382.300223 63.665983 
L 384.181246 68.180611 
L 385.121757 69.479556 
L 386.062269 70.207505 
L 387.00278 70.532132 
L 388.883803 66.713078 
L 389.824314 66.042949 
L 390.764826 65.899226 
L 391.705337 66.04453 
L 393.58636 68.282578 
L 394.526872 68.811996 
L 395.467383 69.189434 
L 396.407894 69.807088 
L 398.288917 72.218969 
L 399.229429 72.525037 
L 400.16994 72.576496 
L 401.110452 72.08201 
L 402.991475 68.806815 
L 404.872498 66.703286 
L 406.75352 64.576705 
L 407.694032 63.440602 
L 409.575055 62.038425 
L 410.515566 61.466903 
L 412.396589 60.967299 
L 415.218123 62.222896 
L 418.980169 62.332934 
L 419.920681 62.834145 
L 421.801704 64.895429 
L 423.682726 65.078248 
L 424.623238 65.404222 
L 426.504261 66.442767 
L 428.385284 67.177327 
L 431.206818 68.763374 
L 433.087841 69.410212 
L 434.028352 69.553796 
L 434.968864 69.544934 
L 435.909375 69.681696 
L 437.790398 71.493909 
L 440.611933 74.778885 
L 442.492955 77.914979 
L 444.373978 80.268725 
L 445.31449 81.154286 
L 447.195513 81.014672 
L 448.136024 80.462729 
L 450.017047 78.823862 
L 452.838581 75.780151 
L 454.719604 74.220412 
L 456.600627 73.507852 
L 459.422161 73.248133 
L 461.303184 72.820149 
L 463.184207 75.442016 
L 464.124719 75.42368 
L 466.005742 71.35439 
L 467.886765 63.732428 
L 468.827276 61.478153 
L 470.708299 61.015918 
L 472.589322 56.619596 
L 473.529833 56.085342 
L 475.410856 59.563623 
L 477.291879 61.841196 
L 478.23239 61.99007 
L 480.113413 59.594426 
L 481.994436 58.947338 
L 482.934948 58.984288 
L 484.815971 59.320281 
L 486.696993 62.429134 
L 487.637505 65.167771 
L 489.518528 72.01025 
L 491.399551 80.233474 
L 492.340062 83.042682 
L 493.280574 85.04472 
L 494.221085 86.721948 
L 496.102108 87.893467 
L 497.042619 86.057091 
L 503.6262 64.274656 
L 505.507222 61.304202 
L 506.447734 61.359245 
L 507.388245 61.945806 
L 508.328757 62.019858 
L 510.20978 59.440831 
L 511.150291 58.961091 
L 512.090803 58.701276 
L 513.031314 59.172935 
L 514.912337 63.062552 
L 515.852848 64.157674 
L 516.79336 65.048267 
L 517.733871 66.531013 
L 522.436429 79.649642 
L 525.257963 85.184161 
L 526.198474 87.139443 
L 527.138986 89.544085 
L 529.020009 95.082 
L 530.901032 91.794089 
L 531.841543 89.824422 
L 532.782054 87.466975 
L 532.782054 87.466975 
" clip-path="url(#p4c2441854a)" style="fill: none; stroke: #000000; stroke-width: 1.5; stroke-linecap: square"/>
   </g>
   <g id="patch_3">
    <path d="M 62.58 101.94 
L 62.58 33.36 
" style="fill: none; stroke: #000000; stroke-width: 1.5; stroke-linejoin: miter; stroke-linecap: square"/>
   </g>
   <g id="patch_4">
    <path d="M 557.989313 101.94 
L 557.989313 33.36 
" style="fill: none; stroke: #000000; stroke-width: 1.5; stroke-linejoin: miter; stroke-linecap: square"/>
   </g>
   <g id="patch_5">
    <path d="M 62.58 101.94 
L 557.989313 101.94 
" style="fill: none; stroke: #000000; stroke-width: 1.5; stroke-linejoin: miter; stroke-linecap: square"/>
   </g>
   <g id="patch_6">
    <path d="M 62.58 33.36 
L 557.989313 33.36 
" style="fill: none; stroke: #000000; stroke-width: 1.5; stroke-linejoin: miter; stroke-linecap: square"/>
   </g>
   <g id="text_12">
    <!-- amygdala (30 neurons) -->
    <g transform="translate(181.823563 27.36) scale(0.22 -0.22)">
     <defs>
      <path id="DejaVuSans-79" d="M 2059 -325 
Q 1816 -950 1584 -1140 
Q 1353 -1331 966 -1331 
L 506 -1331 
L 506 -850 
L 844 -850 
Q 1081 -850 1212 -737 
Q 1344 -625 1503 -206 
L 1606 56 
L 191 3500 
L 800 3500 
L 1894 763 
L 2988 3500 
L 3597 3500 
L 2059 -325 
z
" transform="scale(0.015625)"/>
      <path id="DejaVuSans-67" d="M 2906 1791 
Q 2906 2416 2648 2759 
Q 2391 3103 1925 3103 
Q 1463 3103 1205 2759 
Q 947 2416 947 1791 
Q 947 1169 1205 825 
Q 1463 481 1925 481 
Q 2391 481 2648 825 
Q 2906 1169 2906 1791 
z
M 3481 434 
Q 3481 -459 3084 -895 
Q 2688 -1331 1869 -1331 
Q 1566 -1331 1297 -1286 
Q 1028 -1241 775 -1147 
L 775 -588 
Q 1028 -725 1275 -790 
Q 1522 -856 1778 -856 
Q 2344 -856 2625 -561 
Q 2906 -266 2906 331 
L 2906 616 
Q 2728 306 2450 153 
Q 2172 0 1784 0 
Q 1141 0 747 490 
Q 353 981 353 1791 
Q 353 2603 747 3093 
Q 1141 3584 1784 3584 
Q 2172 3584 2450 3431 
Q 2728 3278 2906 2969 
L 2906 3500 
L 3481 3500 
L 3481 434 
z
" transform="scale(0.015625)"/>
      <path id="DejaVuSans-75" d="M 544 1381 
L 544 3500 
L 1119 3500 
L 1119 1403 
Q 1119 906 1312 657 
Q 1506 409 1894 409 
Q 2359 409 2629 706 
Q 2900 1003 2900 1516 
L 2900 3500 
L 3475 3500 
L 3475 0 
L 2900 0 
L 2900 538 
Q 2691 219 2414 64 
Q 2138 -91 1772 -91 
Q 1169 -91 856 284 
Q 544 659 544 1381 
z
M 1991 3584 
L 1991 3584 
z
" transform="scale(0.015625)"/>
     </defs>
     <use xlink:href="#DejaVuSans-61"/>
     <use xlink:href="#DejaVuSans-6d" x="61.279297"/>
     <use xlink:href="#DejaVuSans-79" x="158.691406"/>
     <use xlink:href="#DejaVuSans-67" x="217.871094"/>
     <use xlink:href="#DejaVuSans-64" x="281.347656"/>
     <use xlink:href="#DejaVuSans-61" x="344.824219"/>
     <use xlink:href="#DejaVuSans-6c" x="406.103516"/>
     <use xlink:href="#DejaVuSans-61" x="433.886719"/>
     <use xlink:href="#DejaVuSans-20" x="495.166016"/>
     <use xlink:href="#DejaVuSans-28" x="526.953125"/>
     <use xlink:href="#DejaVuSans-33" x="565.966797"/>
     <use xlink:href="#DejaVuSans-30" x="629.589844"/>
     <use xlink:href="#DejaVuSans-20" x="693.212891"/>
     <use xlink:href="#DejaVuSans-6e" x="725"/>
     <use xlink:href="#DejaVuSans-65" x="788.378906"/>
     <use xlink:href="#DejaVuSans-75" x="849.902344"/>
     <use xlink:href="#DejaVuSans-72" x="913.28125"/>
     <use xlink:href="#DejaVuSans-6f" x="952.144531"/>
     <use xlink:href="#DejaVuSans-6e" x="1013.326172"/>
     <use xlink:href="#DejaVuSans-73" x="1076.705078"/>
     <use xlink:href="#DejaVuSans-29" x="1128.804688"/>
    </g>
   </g>
  </g>
 </g>
 <defs>
  <clipPath id="p4c2441854a">
   <rect x="62.58" y="33.36" width="495.409313" height="68.58"/>
  </clipPath>
 </defs>
</svg>
