<?xml version="1.0" encoding="utf-8" standalone="no"?>
<!DOCTYPE svg PUBLIC "-//W3C//DTD SVG 1.1//EN"
  "http://www.w3.org/Graphics/SVG/1.1/DTD/svg11.dtd">
<svg xmlns:xlink="http://www.w3.org/1999/xlink" width="576pt" height="144pt" viewBox="0 0 576 144" xmlns="http://www.w3.org/2000/svg" version="1.1">
 <metadata>
  <rdf:RDF xmlns:dc="http://purl.org/dc/elements/1.1/" xmlns:cc="http://creativecommons.org/ns#" xmlns:rdf="http://www.w3.org/1999/02/22-rdf-syntax-ns#">
   <cc:Work>
    <dc:type rdf:resource="http://purl.org/dc/dcmitype/StillImage"/>
    <dc:date>2024-11-12T12:19:23.357227</dc:date>
    <dc:format>image/svg+xml</dc:format>
    <dc:creator>
     <cc:Agent>
      <dc:title>Matplotlib v3.9.2, https://matplotlib.org/</dc:title>
     </cc:Agent>
    </dc:creator>
   </cc:Work>
  </rdf:RDF>
 </metadata>
 <defs>
  <style type="text/css">*{stroke-linejoin: round; stroke-linecap: butt}</style>
 </defs>
 <g id="figure_1">
  <g id="patch_1">
   <path d="M 0 144 
L 576 144 
L 576 0 
L 0 0 
z
" style="fill: #ffffff"/>
  </g>
  <g id="axes_1">
   <g id="patch_2">
    <path d="M 60.6 101.94 
L 557.228085 101.94 
L 557.228085 33.36 
L 60.6 33.36 
z
" style="fill: #ffffff"/>
   </g>
   <g id="PolyCollection_1">
    <defs>
     <path id="m94a7d1e964" d="M 84.118523 -73.366139 
L 84.118523 -62.678718 
L 85.06902 -61.709054 
L 86.019517 -54.116612 
L 86.970014 -54.866626 
L 87.920511 -54.866626 
L 88.871008 -56.837932 
L 89.821505 -61.195165 
L 90.772002 -61.854312 
L 91.722499 -59.92232 
L 92.672995 -59.502684 
L 93.623492 -59.416734 
L 94.573989 -57.27287 
L 95.524486 -54.444667 
L 96.474983 -53.354013 
L 97.42548 -52.961297 
L 98.375977 -53.2067 
L 99.326474 -50.244777 
L 100.276971 -51.579019 
L 101.227468 -51.857143 
L 102.177965 -51.857143 
L 103.128462 -51.579019 
L 104.078959 -51.546941 
L 105.029456 -51.579019 
L 105.979953 -51.001869 
L 106.93045 -51.001869 
L 107.880947 -49.705541 
L 108.831444 -50.418308 
L 109.781941 -49.438594 
L 110.732438 -50.244777 
L 111.682935 -50.244777 
L 112.633432 -51.05096 
L 113.583929 -51.857143 
L 114.534426 -51.857143 
L 115.484922 -51.05096 
L 116.435419 -51.05096 
L 117.385916 -51.05096 
L 118.336413 -51.05096 
L 119.28691 -50.244777 
L 120.237407 -51.05096 
L 121.187904 -51.139942 
L 122.138401 -50.71706 
L 123.088898 -50.71706 
L 124.039395 -50.52581 
L 124.989892 -50.52581 
L 125.940389 -52.363347 
L 126.890886 -53.342037 
L 127.841383 -52.704078 
L 128.79188 -55.522531 
L 129.742377 -55.522531 
L 130.692874 -56.920856 
L 131.643371 -54.165249 
L 132.593868 -55.374182 
L 133.544365 -56.117428 
L 134.494862 -56.278111 
L 135.445359 -55.021297 
L 136.395856 -55.409202 
L 137.346352 -57.032192 
L 138.296849 -55.245415 
L 139.247346 -57.556672 
L 140.197843 -57.536108 
L 141.14834 -57.755039 
L 142.098837 -67.370404 
L 143.049334 -68.204941 
L 143.999831 -73.575163 
L 144.950328 -73.293104 
L 145.900825 -71.786974 
L 146.851322 -65.037007 
L 147.801819 -67.498423 
L 148.752316 -58.65643 
L 149.702813 -61.009971 
L 150.65331 -63.474228 
L 151.603807 -61.797175 
L 152.554304 -59.027254 
L 153.504801 -58.073189 
L 154.455298 -60.91257 
L 155.405795 -59.033751 
L 156.356292 -60.971485 
L 157.306789 -68.314198 
L 158.257286 -68.648886 
L 159.207783 -67.050138 
L 160.158279 -74.637225 
L 161.108776 -76.923838 
L 162.059273 -79.895043 
L 163.00977 -76.946379 
L 163.960267 -75.052891 
L 164.910764 -68.97767 
L 165.861261 -74.605306 
L 166.811758 -69.506002 
L 167.762255 -71.306376 
L 168.712752 -68.3496 
L 169.663249 -64.378832 
L 170.613746 -62.74738 
L 171.564243 -60.582131 
L 172.51474 -63.563129 
L 173.465237 -74.615583 
L 174.415734 -74.507873 
L 175.366231 -70.092702 
L 176.316728 -70.160561 
L 177.267225 -70.069897 
L 178.217722 -57.761246 
L 179.168219 -60.839713 
L 180.118716 -63.08313 
L 181.069213 -65.771085 
L 182.01971 -65.093496 
L 182.970206 -67.760702 
L 183.920703 -72.333496 
L 184.8712 -71.833987 
L 185.821697 -69.51161 
L 186.772194 -70.839795 
L 187.722691 -68.974957 
L 188.673188 -63.334307 
L 189.623685 -59.166407 
L 190.574182 -68.573759 
L 191.524679 -65.977647 
L 192.475176 -66.466856 
L 193.425673 -68.96355 
L 194.37617 -71.833987 
L 195.326667 -64.672644 
L 196.277164 -67.598032 
L 197.227661 -66.141954 
L 198.178158 -63.613714 
L 199.128655 -58.858032 
L 200.079152 -58.397748 
L 201.029649 -56.441708 
L 201.980146 -57.753584 
L 202.930643 -58.567029 
L 203.88114 -59.258372 
L 204.831637 -55.874366 
L 205.782133 -56.593913 
L 206.73263 -58.6454 
L 207.683127 -56.796607 
L 208.633624 -55.021297 
L 209.584121 -59.45364 
L 210.534618 -57.510278 
L 211.485115 -55.155596 
L 212.435612 -56.473355 
L 213.386109 -59.793224 
L 214.336606 -57.758782 
L 215.287103 -59.824672 
L 216.2376 -59.824672 
L 217.188097 -57.536108 
L 218.138594 -59.287102 
L 219.089091 -65.001964 
L 220.039588 -64.912037 
L 220.990085 -69.618429 
L 221.940582 -71.734263 
L 222.891079 -71.536139 
L 223.841576 -68.968795 
L 224.792073 -68.366415 
L 225.74257 -63.429106 
L 226.693067 -64.022134 
L 227.643564 -68.248394 
L 228.59406 -67.928456 
L 229.544557 -69.856516 
L 230.495054 -75.825212 
L 231.445551 -73.410857 
L 232.396048 -73.436675 
L 233.346545 -71.734263 
L 234.297042 -76.232247 
L 235.247539 -72.344921 
L 236.198036 -75.868893 
L 237.148533 -73.81118 
L 238.09903 -73.588494 
L 239.049527 -67.63957 
L 240.000024 -62.693828 
L 240.950521 -67.532571 
L 241.901018 -66.682216 
L 242.851515 -65.167267 
L 243.802012 -63.777704 
L 244.752509 -67.462828 
L 245.703006 -63.536687 
L 246.653503 -65.194131 
L 247.604 -64.175924 
L 248.554497 -64.353401 
L 249.504994 -61.395764 
L 250.455491 -57.935455 
L 251.405987 -50.71706 
L 252.356484 -51.394585 
L 253.306981 -51.29435 
L 254.257478 -51.158533 
L 255.207975 -52.138247 
L 256.158472 -52.138247 
L 257.108969 -51.66497 
L 258.059466 -51.29435 
L 259.009963 -51.725162 
L 259.96046 -51.068708 
L 260.910957 -56.770565 
L 261.861454 -56.072478 
L 262.811951 -64.037966 
L 263.762448 -68.150343 
L 264.712945 -68.699976 
L 265.663442 -69.168398 
L 266.613939 -73.051663 
L 267.564436 -72.30931 
L 268.514933 -68.229926 
L 269.46543 -66.420078 
L 270.415927 -63.096671 
L 271.366424 -61.459632 
L 272.316921 -62.977771 
L 273.267418 -66.800926 
L 274.217914 -66.920938 
L 275.168411 -69.755505 
L 276.118908 -73.031845 
L 277.069405 -71.08463 
L 278.019902 -52.869529 
L 278.970399 -61.221512 
L 279.920896 -56.893131 
L 280.871393 -60.125099 
L 281.82189 -65.302042 
L 282.772387 -75.923241 
L 283.722884 -68.575191 
L 284.673381 -70.588679 
L 285.623878 -68.536794 
L 286.574375 -60.726743 
L 287.524872 -58.495195 
L 288.475369 -58.652869 
L 289.425866 -62.18657 
L 290.376363 -63.054899 
L 291.32686 -67.868117 
L 292.277357 -67.051465 
L 293.227854 -62.941851 
L 294.178351 -61.98714 
L 295.128848 -57.032192 
L 296.079344 -54.014514 
L 297.029841 -50.466526 
L 297.980338 -50.094981 
L 298.930835 -49.518702 
L 299.881332 -49.143011 
L 300.831829 -49.230386 
L 301.782326 -49.705541 
L 302.732823 -50.947769 
L 303.68332 -51.177469 
L 304.633817 -51.177469 
L 305.584314 -50.297768 
L 306.534811 -50.903246 
L 307.485308 -52.363347 
L 308.435805 -56.003463 
L 309.386302 -57.773222 
L 310.336799 -60.323719 
L 311.287296 -60.094911 
L 312.237793 -59.027254 
L 313.18829 -57.899735 
L 314.138787 -60.570001 
L 315.089284 -60.886697 
L 316.039781 -63.949899 
L 316.990278 -62.678718 
L 317.940775 -62.716218 
L 318.891271 -58.797361 
L 319.841768 -59.074453 
L 320.792265 -59.556298 
L 321.742762 -63.481733 
L 322.693259 -65.114022 
L 323.643756 -61.763823 
L 324.594253 -63.400041 
L 325.54475 -67.255453 
L 326.495247 -67.762369 
L 327.445744 -72.763345 
L 328.396241 -79.337214 
L 329.346738 -76.032761 
L 330.297235 -72.722574 
L 331.247732 -67.289527 
L 332.198229 -62.007829 
L 333.148726 -56.83493 
L 334.099223 -60.562025 
L 335.04972 -63.349752 
L 336.000217 -64.700427 
L 336.950714 -65.425029 
L 337.901211 -67.253164 
L 338.851708 -65.410976 
L 339.802205 -68.214961 
L 340.752702 -73.837366 
L 341.703198 -77.108565 
L 342.653695 -78.221707 
L 343.604192 -83.46049 
L 344.554689 -80.16528 
L 345.505186 -74.82143 
L 346.455683 -73.141458 
L 347.40618 -67.393319 
L 348.356677 -63.505521 
L 349.307174 -67.096086 
L 350.257671 -67.673252 
L 351.208168 -67.347963 
L 352.158665 -69.206299 
L 353.109162 -68.582409 
L 354.059659 -63.349823 
L 355.010156 -65.981562 
L 355.960653 -68.314198 
L 356.91115 -66.073654 
L 357.861647 -65.159502 
L 358.812144 -66.363375 
L 359.762641 -65.787877 
L 360.713138 -63.491725 
L 361.663635 -67.394903 
L 362.614132 -72.982339 
L 363.564629 -73.19447 
L 364.515125 -73.051663 
L 365.465622 -77.882669 
L 366.416119 -80.151104 
L 367.366616 -78.875502 
L 368.317113 -72.595346 
L 369.26761 -69.956542 
L 370.218107 -66.607455 
L 371.168604 -56.593913 
L 372.119101 -51.506291 
L 373.069598 -48.544894 
L 374.020095 -50.346844 
L 374.970592 -50.459924 
L 375.921089 -51.112433 
L 376.871586 -50.623959 
L 377.822083 -50.504322 
L 378.77258 -49.926579 
L 379.723077 -50.10984 
L 380.673574 -48.394795 
L 381.624071 -46.723365 
L 382.574568 -49.296907 
L 383.525065 -52.90698 
L 384.475562 -61.515033 
L 385.426059 -64.480882 
L 386.376556 -70.516339 
L 387.327052 -68.91679 
L 388.277549 -67.33855 
L 389.228046 -62.674893 
L 390.178543 -63.451547 
L 391.12904 -56.41783 
L 392.079537 -56.143793 
L 393.030034 -58.61745 
L 393.980531 -56.391703 
L 394.931028 -55.422637 
L 395.881525 -58.88808 
L 396.832022 -60.857494 
L 397.782519 -64.617937 
L 398.733016 -67.617282 
L 399.683513 -68.390453 
L 400.63401 -71.540865 
L 401.584507 -71.197959 
L 402.535004 -67.054968 
L 403.485501 -71.129271 
L 404.435998 -72.454496 
L 405.386495 -70.325843 
L 406.336992 -72.24955 
L 407.287489 -71.56873 
L 408.237986 -65.46495 
L 409.188483 -67.662387 
L 410.138979 -66.02807 
L 411.089476 -69.94113 
L 412.039973 -72.145554 
L 412.99047 -72.658606 
L 413.940967 -70.231686 
L 414.891464 -67.420513 
L 415.841961 -63.179667 
L 416.792458 -55.581346 
L 417.742955 -58.110893 
L 418.693452 -56.056193 
L 419.643949 -55.954872 
L 420.594446 -59.397533 
L 421.544943 -62.646565 
L 422.49544 -65.907206 
L 423.445937 -69.76305 
L 424.396434 -68.898937 
L 425.346931 -68.847832 
L 426.297428 -67.253164 
L 427.247925 -55.29044 
L 428.198422 -52.075533 
L 429.148919 -53.992824 
L 430.099416 -50.890322 
L 431.049913 -57.103526 
L 432.000409 -64.968893 
L 432.950906 -64.622294 
L 433.901403 -69.32999 
L 434.8519 -75.817327 
L 435.802397 -70.124742 
L 436.752894 -75.138328 
L 437.703391 -79.187673 
L 438.653888 -71.207763 
L 439.604385 -66.193663 
L 440.554882 -68.339449 
L 441.505379 -65.903426 
L 442.455876 -61.654286 
L 443.406373 -62.254988 
L 444.35687 -65.602008 
L 445.307367 -64.942106 
L 446.257864 -64.175924 
L 447.208361 -72.868715 
L 448.158858 -72.224323 
L 449.109355 -68.094781 
L 450.059852 -66.800926 
L 451.010349 -64.616782 
L 451.960846 -65.250985 
L 452.911343 -63.884306 
L 453.86184 -64.070224 
L 454.812336 -61.818592 
L 455.762833 -60.828407 
L 456.71333 -62.181296 
L 457.663827 -66.149261 
L 458.614324 -64.501848 
L 459.564821 -60.327599 
L 460.515318 -55.972733 
L 461.465815 -55.453843 
L 462.416312 -52.674847 
L 463.366809 -54.028697 
L 464.317306 -53.341134 
L 465.267803 -53.513374 
L 466.2183 -52.198571 
L 467.168797 -51.62525 
L 468.119294 -51.490345 
L 469.069791 -51.250749 
L 470.020288 -51.857143 
L 470.970785 -53.654404 
L 471.921282 -54.009914 
L 472.871779 -53.501505 
L 473.822276 -55.562327 
L 474.772773 -54.044702 
L 475.72327 -57.735429 
L 476.673767 -57.45831 
L 477.624263 -59.769249 
L 478.57476 -60.221867 
L 479.525257 -62.364601 
L 480.475754 -66.442644 
L 481.426251 -67.951207 
L 482.376748 -67.001987 
L 483.327245 -66.597482 
L 484.277742 -67.91513 
L 485.228239 -65.379121 
L 486.178736 -65.252405 
L 487.129233 -66.860708 
L 488.07973 -66.02807 
L 489.030227 -65.093496 
L 489.980724 -67.932625 
L 490.931221 -65.941224 
L 491.881718 -64.529714 
L 492.832215 -61.797175 
L 493.782712 -60.423417 
L 494.733209 -58.664558 
L 495.683706 -56.45839 
L 496.634203 -61.211618 
L 497.5847 -63.002081 
L 498.535197 -62.655318 
L 499.485694 -61.670096 
L 500.43619 -61.316401 
L 501.386687 -60.453422 
L 502.337184 -62.90505 
L 503.287681 -61.763481 
L 504.238178 -58.401137 
L 505.188675 -57.412407 
L 506.139172 -55.258957 
L 507.089669 -54.837178 
L 508.040166 -55.706257 
L 508.990663 -57.391287 
L 509.94116 -59.470741 
L 510.891657 -59.629687 
L 511.842154 -55.112921 
L 512.792651 -55.318398 
L 513.743148 -54.952212 
L 514.693645 -63.985516 
L 515.644142 -63.736661 
L 516.594639 -62.583415 
L 517.545136 -61.851553 
L 518.495633 -62.485887 
L 519.44613 -59.098566 
L 520.396627 -59.287102 
L 521.347124 -58.860487 
L 522.297621 -61.336314 
L 523.248117 -58.117987 
L 524.198614 -57.321788 
L 525.149111 -57.466029 
L 526.099608 -60.077416 
L 527.050105 -60.195368 
L 528.000602 -66.3741 
L 528.951099 -66.391056 
L 529.901596 -68.204941 
L 530.852093 -65.863831 
L 531.80259 -64.140725 
L 532.753087 -61.17423 
L 533.703584 -62.226039 
L 534.654081 -59.812159 
L 534.654081 -80.151556 
L 534.654081 -80.151556 
L 533.703584 -88.514532 
L 532.753087 -85.647485 
L 531.80259 -96.39699 
L 530.852093 -98.592741 
L 529.901596 -90.373345 
L 528.951099 -84.349515 
L 528.000602 -85.346186 
L 527.050105 -82.707489 
L 526.099608 -84.78487 
L 525.149111 -84.457113 
L 524.198614 -85.581069 
L 523.248117 -82.825441 
L 522.297621 -73.728829 
L 521.347124 -75.224942 
L 520.396627 -73.818613 
L 519.44613 -74.986862 
L 518.495633 -85.315542 
L 517.545136 -90.848447 
L 516.594639 -91.096299 
L 515.644142 -94.841625 
L 514.693645 -94.592769 
L 513.743148 -94.808646 
L 512.792651 -92.48303 
L 511.842154 -92.688508 
L 510.891657 -89.151455 
L 509.94116 -85.391545 
L 508.990663 -78.65357 
L 508.040166 -76.419743 
L 507.089669 -78.268536 
L 506.139172 -81.765615 
L 505.188675 -87.449878 
L 504.238178 -92.339435 
L 503.287681 -96.814805 
L 502.337184 -92.734093 
L 501.386687 -93.226292 
L 500.43619 -94.322742 
L 499.485694 -92.009618 
L 498.535197 -85.14611 
L 497.5847 -84.799348 
L 496.634203 -86.589811 
L 495.683706 -87.424181 
L 494.733209 -87.177442 
L 493.782712 -89.33744 
L 492.832215 -91.88254 
L 491.881718 -87.190571 
L 490.931221 -87.738491 
L 489.980724 -86.726804 
L 489.030227 -88.586219 
L 488.07973 -86.67193 
L 487.129233 -86.819006 
L 486.178736 -83.528738 
L 485.228239 -85.36145 
L 484.277742 -92.622584 
L 483.327245 -88.061947 
L 482.376748 -84.718299 
L 481.426251 -91.606793 
L 480.475754 -97.034213 
L 479.525257 -89.355685 
L 478.57476 -92.478133 
L 477.624263 -91.951037 
L 476.673767 -85.444547 
L 475.72327 -77.329714 
L 474.772773 -79.061012 
L 473.822276 -80.48253 
L 472.871779 -76.665067 
L 471.921282 -76.156658 
L 470.970785 -77.491882 
L 470.020288 -79.289143 
L 469.069791 -74.017251 
L 468.119294 -76.716798 
L 467.168797 -74.622465 
L 466.2183 -70.130286 
L 465.267803 -64.896626 
L 464.317306 -69.967437 
L 463.366809 -74.178446 
L 462.416312 -73.572867 
L 461.465815 -79.6113 
L 460.515318 -104.564981 
L 459.564821 -102.169544 
L 458.614324 -96.035866 
L 457.663827 -102.226167 
L 456.71333 -94.437561 
L 455.762833 -91.871593 
L 454.812336 -87.942265 
L 453.86184 -85.690633 
L 452.911343 -84.896837 
L 451.960846 -89.408443 
L 451.010349 -85.144076 
L 450.059852 -85.899074 
L 449.109355 -84.605219 
L 448.158858 -86.353963 
L 447.208361 -86.689285 
L 446.257864 -80.686362 
L 445.307367 -76.981037 
L 444.35687 -82.199421 
L 443.406373 -81.627584 
L 442.455876 -81.248571 
L 441.505379 -94.634288 
L 440.554882 -99.056265 
L 439.604385 -97.283194 
L 438.653888 -118.72138 
L 437.703391 -131.31547 
L 436.752894 -116.750243 
L 435.802397 -111.966686 
L 434.8519 -115.09153 
L 433.901403 -90.22801 
L 432.950906 -81.219706 
L 432.000409 -96.548536 
L 431.049913 -129.886474 
L 430.099416 -125.322821 
L 429.148919 -130.058033 
L 428.198422 -122.178181 
L 427.247925 -111.12556 
L 426.297428 -86.42655 
L 425.346931 -98.547883 
L 424.396434 -94.57792 
L 423.445937 -99.592093 
L 422.49544 -101.488508 
L 421.544943 -100.830293 
L 420.594446 -90.363324 
L 419.643949 -98.704556 
L 418.693452 -91.745236 
L 417.742955 -89.690536 
L 416.792458 -85.362082 
L 415.841961 -84.621761 
L 414.891464 -80.380915 
L 413.940967 -82.468314 
L 412.99047 -82.980537 
L 412.039973 -82.513875 
L 411.089476 -87.657442 
L 410.138979 -86.67193 
L 409.188483 -86.017328 
L 408.237986 -83.316193 
L 407.287489 -91.908127 
L 406.336992 -88.288164 
L 405.386495 -90.211871 
L 404.435998 -92.98179 
L 403.485501 -95.286729 
L 402.535004 -86.624746 
L 401.584507 -92.278898 
L 400.63401 -92.915707 
L 399.683513 -92.147262 
L 398.733016 -95.859575 
L 397.782519 -103.757492 
L 396.832022 -94.781649 
L 395.881525 -94.791634 
L 394.931028 -99.236792 
L 393.980531 -96.308297 
L 393.030034 -93.102836 
L 392.079537 -93.617064 
L 391.12904 -89.42417 
L 390.178543 -87.289024 
L 389.228046 -86.10625 
L 388.277549 -87.320879 
L 387.327052 -88.681782 
L 386.376556 -91.980804 
L 385.426059 -90.178547 
L 384.475562 -89.225538 
L 383.525065 -87.056734 
L 382.574568 -81.849379 
L 381.624071 -77.56492 
L 380.673574 -70.015205 
L 379.723077 -70.259588 
L 378.77258 -66.523992 
L 377.822083 -68.885392 
L 376.871586 -71.704898 
L 375.921089 -69.256996 
L 374.970592 -66.970362 
L 374.020095 -68.063156 
L 373.069598 -66.925963 
L 372.119101 -66.903709 
L 371.168604 -74.552373 
L 370.218107 -84.133117 
L 369.26761 -98.418886 
L 368.317113 -101.658368 
L 367.366616 -107.134783 
L 366.416119 -108.798325 
L 365.465622 -112.046474 
L 364.515125 -104.141194 
L 363.564629 -108.896958 
L 362.614132 -108.129375 
L 361.663635 -105.879097 
L 360.713138 -95.086561 
L 359.762641 -103.567266 
L 358.812144 -102.012053 
L 357.861647 -93.418783 
L 356.91115 -88.585774 
L 355.960653 -95.162659 
L 355.010156 -98.475009 
L 354.059659 -98.167606 
L 353.109162 -102.732163 
L 352.158665 -103.087987 
L 351.208168 -96.128894 
L 350.257671 -94.823891 
L 349.307174 -89.522771 
L 348.356677 -81.356765 
L 347.40618 -95.103824 
L 346.455683 -100.132542 
L 345.505186 -103.351141 
L 344.554689 -112.703006 
L 343.604192 -123.123796 
L 342.653695 -116.606007 
L 341.703198 -109.881435 
L 340.752702 -100.416348 
L 339.802205 -99.180753 
L 338.851708 -89.248453 
L 337.901211 -86.42655 
L 336.950714 -88.254685 
L 336.000217 -87.019858 
L 335.04972 -85.431391 
L 334.099223 -86.25969 
L 333.148726 -87.047641 
L 332.198229 -95.590743 
L 331.247732 -99.126473 
L 330.297235 -115.24714 
L 329.346738 -121.734096 
L 328.396241 -129.2065 
L 327.445744 -120.10494 
L 326.495247 -111.389916 
L 325.54475 -95.24169 
L 324.594253 -88.320245 
L 323.643756 -79.179605 
L 322.693259 -72.890263 
L 321.742762 -74.522552 
L 320.792265 -73.549417 
L 319.841768 -72.071832 
L 318.891271 -70.389496 
L 317.940775 -74.308354 
L 316.990278 -73.366139 
L 316.039781 -75.034101 
L 315.089284 -81.036446 
L 314.138787 -88.211142 
L 313.18829 -84.023408 
L 312.237793 -84.855317 
L 311.287296 -78.889089 
L 310.336799 -75.721138 
L 309.386302 -70.433921 
L 308.435805 -66.325394 
L 307.485308 -67.026368 
L 306.534811 -69.466182 
L 305.584314 -69.091946 
L 304.633817 -65.273103 
L 303.68332 -65.273103 
L 302.732823 -64.523088 
L 301.782326 -59.88703 
L 300.831829 -64.281043 
L 299.881332 -70.246703 
L 298.930835 -68.891298 
L 297.980338 -79.091876 
L 297.029841 -77.740617 
L 296.079344 -73.212915 
L 295.128848 -74.114094 
L 294.178351 -78.956289 
L 293.227854 -82.900149 
L 292.277357 -94.465964 
L 291.32686 -97.568168 
L 290.376363 -101.401672 
L 289.425866 -113.046859 
L 288.475369 -112.661702 
L 287.524872 -108.900519 
L 286.574375 -106.668971 
L 285.623878 -107.676349 
L 284.673381 -111.502749 
L 283.722884 -106.658237 
L 282.772387 -110.087045 
L 281.82189 -136.383672 
L 280.871393 -136.662044 
L 279.920896 -130.096869 
L 278.970399 -132.626488 
L 278.019902 -126.282757 
L 277.069405 -96.311084 
L 276.118908 -92.404441 
L 275.168411 -85.883638 
L 274.217914 -88.718205 
L 273.267418 -85.899074 
L 272.316921 -87.7628 
L 271.366424 -91.240368 
L 270.415927 -89.603329 
L 269.46543 -88.239351 
L 268.514933 -92.307788 
L 267.564436 -96.066119 
L 266.613939 -104.141194 
L 265.663442 -105.085317 
L 264.712945 -122.208881 
L 263.762448 -114.920799 
L 262.811951 -104.337463 
L 261.861454 -89.769522 
L 260.910957 -89.071435 
L 259.96046 -63.422435 
L 259.009963 -62.765981 
L 258.059466 -61.237364 
L 257.108969 -61.846459 
L 256.158472 -60.393467 
L 255.207975 -60.393467 
L 254.257478 -59.413753 
L 253.306981 -61.237364 
L 252.356484 -60.157415 
L 251.405987 -59.855226 
L 250.455491 -67.332545 
L 249.504994 -74.649093 
L 248.554497 -76.590028 
L 247.604 -80.686362 
L 246.653503 -84.566727 
L 245.703006 -82.305313 
L 244.752509 -88.176315 
L 243.802012 -101.658582 
L 242.851515 -102.228448 
L 241.901018 -103.652641 
L 240.950521 -106.721143 
L 240.000024 -102.742458 
L 239.049527 -89.959001 
L 238.09903 -97.726077 
L 237.148533 -103.381677 
L 236.198036 -103.283393 
L 235.247539 -105.827651 
L 234.297042 -104.879468 
L 233.346545 -98.600594 
L 232.396048 -91.999611 
L 231.445551 -96.924 
L 230.495054 -96.469073 
L 229.544557 -106.356626 
L 228.59406 -106.325258 
L 227.643564 -103.066177 
L 226.693067 -96.515581 
L 225.74257 -92.210037 
L 224.792073 -88.252443 
L 223.841576 -90.589205 
L 222.891079 -99.778432 
L 221.940582 -98.600594 
L 220.990085 -103.655571 
L 220.039588 -91.70682 
L 219.089091 -85.738607 
L 218.138594 -73.818613 
L 217.188097 -74.589892 
L 216.2376 -78.179613 
L 215.287103 -78.179613 
L 214.336606 -78.286076 
L 213.386109 -84.089348 
L 212.435612 -80.551216 
L 211.485115 -68.152975 
L 210.534618 -72.656293 
L 209.584121 -75.611502 
L 208.633624 -76.124989 
L 207.683127 -80.227965 
L 206.73263 -79.358886 
L 205.782133 -74.552373 
L 204.831637 -80.170491 
L 203.88114 -81.685057 
L 202.930643 -81.396685 
L 201.980146 -84.169559 
L 201.029649 -90.380006 
L 200.079152 -87.444252 
L 199.128655 -88.943397 
L 198.178158 -91.045714 
L 197.227661 -93.416046 
L 196.277164 -96.85854 
L 195.326667 -94.885356 
L 194.37617 -96.541441 
L 193.425673 -87.655307 
L 192.475176 -83.294001 
L 191.524679 -85.742639 
L 190.574182 -84.126241 
L 189.623685 -77.858164 
L 188.673188 -82.507693 
L 187.722691 -95.481615 
L 186.772194 -92.637062 
L 185.821697 -93.965247 
L 184.8712 -96.541441 
L 183.920703 -101.920218 
L 182.970206 -92.777012 
L 182.01971 -88.586219 
L 181.069213 -84.969486 
L 180.118716 -80.799442 
L 179.168219 -75.205144 
L 178.217722 -76.324182 
L 177.267225 -83.609818 
L 176.316728 -87.438011 
L 175.366231 -89.465298 
L 174.415734 -94.84727 
L 173.465237 -95.719274 
L 172.51474 -92.076013 
L 171.564243 -97.01644 
L 170.613746 -100.729477 
L 169.663249 -113.79374 
L 168.712752 -112.762114 
L 167.762255 -107.84591 
L 166.811758 -103.767998 
L 165.861261 -112.384694 
L 164.910764 -98.418044 
L 163.960267 -104.099395 
L 163.00977 -106.124764 
L 162.059273 -114.932672 
L 161.108776 -113.985019 
L 160.158279 -109.413632 
L 159.207783 -99.365862 
L 158.257286 -103.6454 
L 157.306789 -95.162659 
L 156.356292 -89.769086 
L 155.405795 -85.828534 
L 154.455298 -86.888859 
L 153.504801 -81.890525 
L 152.554304 -84.855317 
L 151.603807 -91.88254 
L 150.65331 -104.901201 
L 149.702813 -109.324886 
L 148.752316 -107.75957 
L 147.801819 -109.694434 
L 146.851322 -101.378993 
L 145.900825 -101.487026 
L 144.950328 -101.940325 
L 143.999831 -99.698837 
L 143.049334 -90.373345 
L 142.098837 -91.207882 
L 141.14834 -82.208676 
L 140.197843 -74.589892 
L 139.247346 -76.528757 
L 138.296849 -72.961727 
L 137.346352 -74.114094 
L 136.395856 -80.635655 
L 135.445359 -76.124989 
L 134.494862 -75.847889 
L 133.544365 -74.049144 
L 132.593868 -68.914103 
L 131.643371 -66.20418 
L 130.692874 -71.286287 
L 129.742377 -76.603469 
L 128.79188 -76.603469 
L 127.841383 -74.523351 
L 126.890886 -68.98682 
L 125.940389 -67.026368 
L 124.989892 -59.066761 
L 124.039395 -59.066761 
L 123.088898 -59.855226 
L 122.138401 -59.855226 
L 121.187904 -54.533772 
L 120.237407 -53.64304 
L 119.28691 -55.428937 
L 118.336413 -53.64304 
L 117.385916 -53.64304 
L 116.435419 -53.64304 
L 115.484922 -53.64304 
L 114.534426 -51.857143 
L 113.583929 -51.857143 
L 112.633432 -53.64304 
L 111.682935 -55.428937 
L 110.732438 -55.428937 
L 109.781941 -57.214835 
L 108.831444 -58.194549 
L 107.880947 -59.88703 
L 106.93045 -58.590703 
L 105.979953 -58.590703 
L 105.029456 -57.033838 
L 104.078959 -58.04563 
L 103.128462 -57.033838 
L 102.177965 -55.776 
L 101.227468 -55.776 
L 100.276971 -57.033838 
L 99.326474 -55.428937 
L 98.375977 -59.325014 
L 97.42548 -60.550131 
L 96.474983 -62.116844 
L 95.524486 -62.985618 
L 94.573989 -66.035701 
L 93.623492 -64.871552 
L 92.672995 -69.684173 
L 91.722499 -70.244251 
L 90.772002 -71.251402 
L 89.821505 -68.971406 
L 88.871008 -68.430068 
L 87.920511 -68.441945 
L 86.970014 -68.441945 
L 86.019517 -68.212246 
L 85.06902 -70.416946 
L 84.118523 -73.366139 
z
" style="stroke: #008000; stroke-opacity: 0.1"/>
    </defs>
    <g clip-path="url(#pf09d4613e4)">
     <use xlink:href="#m94a7d1e964" x="0" y="144" style="fill: #008000; fill-opacity: 0.1; stroke: #008000; stroke-opacity: 0.1"/>
    </g>
   </g>
   <g id="matplotlib.axis_1">
    <g id="xtick_1">
     <g id="line2d_1"/>
     <g id="text_1">
      <!-- 0 -->
      <g transform="translate(79.992754 113.038438) scale(0.1 -0.1)">
       <defs>
        <path id="DejaVuSans-30" d="M 2034 4250 
Q 1547 4250 1301 3770 
Q 1056 3291 1056 2328 
Q 1056 1369 1301 889 
Q 1547 409 2034 409 
Q 2525 409 2770 889 
Q 3016 1369 3016 2328 
Q 3016 3291 2770 3770 
Q 2525 4250 2034 4250 
z
M 2034 4750 
Q 2819 4750 3233 4129 
Q 3647 3509 3647 2328 
Q 3647 1150 3233 529 
Q 2819 -91 2034 -91 
Q 1250 -91 836 529 
Q 422 1150 422 2328 
Q 422 3509 836 4129 
Q 1250 4750 2034 4750 
z
" transform="scale(0.015625)"/>
       </defs>
       <use xlink:href="#DejaVuSans-30"/>
      </g>
     </g>
    </g>
    <g id="xtick_2">
     <g id="line2d_2"/>
     <g id="text_2">
      <!-- 100 -->
      <g transform="translate(168.082153 113.038438) scale(0.1 -0.1)">
       <defs>
        <path id="DejaVuSans-31" d="M 794 531 
L 1825 531 
L 1825 4091 
L 703 3866 
L 703 4441 
L 1819 4666 
L 2450 4666 
L 2450 531 
L 3481 531 
L 3481 0 
L 794 0 
L 794 531 
z
" transform="scale(0.015625)"/>
       </defs>
       <use xlink:href="#DejaVuSans-31"/>
       <use xlink:href="#DejaVuSans-30" x="63.623047"/>
       <use xlink:href="#DejaVuSans-30" x="127.246094"/>
      </g>
     </g>
    </g>
    <g id="xtick_3">
     <g id="line2d_3"/>
     <g id="text_3">
      <!-- 200 -->
      <g transform="translate(262.534052 113.038438) scale(0.1 -0.1)">
       <defs>
        <path id="DejaVuSans-32" d="M 1228 531 
L 3431 531 
L 3431 0 
L 469 0 
L 469 531 
Q 828 903 1448 1529 
Q 2069 2156 2228 2338 
Q 2531 2678 2651 2914 
Q 2772 3150 2772 3378 
Q 2772 3750 2511 3984 
Q 2250 4219 1831 4219 
Q 1534 4219 1204 4116 
Q 875 4013 500 3803 
L 500 4441 
Q 881 4594 1212 4672 
Q 1544 4750 1819 4750 
Q 2544 4750 2975 4387 
Q 3406 4025 3406 3419 
Q 3406 3131 3298 2873 
Q 3191 2616 2906 2266 
Q 2828 2175 2409 1742 
Q 1991 1309 1228 531 
z
" transform="scale(0.015625)"/>
       </defs>
       <use xlink:href="#DejaVuSans-32"/>
       <use xlink:href="#DejaVuSans-30" x="63.623047"/>
       <use xlink:href="#DejaVuSans-30" x="127.246094"/>
      </g>
     </g>
    </g>
    <g id="xtick_4">
     <g id="line2d_4"/>
     <g id="text_4">
      <!-- 300 -->
      <g transform="translate(356.985951 113.038438) scale(0.1 -0.1)">
       <defs>
        <path id="DejaVuSans-33" d="M 2597 2516 
Q 3050 2419 3304 2112 
Q 3559 1806 3559 1356 
Q 3559 666 3084 287 
Q 2609 -91 1734 -91 
Q 1441 -91 1130 -33 
Q 819 25 488 141 
L 488 750 
Q 750 597 1062 519 
Q 1375 441 1716 441 
Q 2309 441 2620 675 
Q 2931 909 2931 1356 
Q 2931 1769 2642 2001 
Q 2353 2234 1838 2234 
L 1294 2234 
L 1294 2753 
L 1863 2753 
Q 2328 2753 2575 2939 
Q 2822 3125 2822 3475 
Q 2822 3834 2567 4026 
Q 2313 4219 1838 4219 
Q 1578 4219 1281 4162 
Q 984 4106 628 3988 
L 628 4550 
Q 988 4650 1302 4700 
Q 1616 4750 1894 4750 
Q 2613 4750 3031 4423 
Q 3450 4097 3450 3541 
Q 3450 3153 3228 2886 
Q 3006 2619 2597 2516 
z
" transform="scale(0.015625)"/>
       </defs>
       <use xlink:href="#DejaVuSans-33"/>
       <use xlink:href="#DejaVuSans-30" x="63.623047"/>
       <use xlink:href="#DejaVuSans-30" x="127.246094"/>
      </g>
     </g>
    </g>
    <g id="xtick_5">
     <g id="line2d_5"/>
     <g id="text_5">
      <!-- 400 -->
      <g transform="translate(451.43785 113.038438) scale(0.1 -0.1)">
       <defs>
        <path id="DejaVuSans-34" d="M 2419 4116 
L 825 1625 
L 2419 1625 
L 2419 4116 
z
M 2253 4666 
L 3047 4666 
L 3047 1625 
L 3713 1625 
L 3713 1100 
L 3047 1100 
L 3047 0 
L 2419 0 
L 2419 1100 
L 313 1100 
L 313 1709 
L 2253 4666 
z
" transform="scale(0.015625)"/>
       </defs>
       <use xlink:href="#DejaVuSans-34"/>
       <use xlink:href="#DejaVuSans-30" x="63.623047"/>
       <use xlink:href="#DejaVuSans-30" x="127.246094"/>
      </g>
     </g>
    </g>
    <g id="xtick_6">
     <g id="line2d_6"/>
     <g id="text_6">
      <!-- 500 -->
      <g transform="translate(545.889749 113.038438) scale(0.1 -0.1)">
       <defs>
        <path id="DejaVuSans-35" d="M 691 4666 
L 3169 4666 
L 3169 4134 
L 1269 4134 
L 1269 2991 
Q 1406 3038 1543 3061 
Q 1681 3084 1819 3084 
Q 2600 3084 3056 2656 
Q 3513 2228 3513 1497 
Q 3513 744 3044 326 
Q 2575 -91 1722 -91 
Q 1428 -91 1123 -41 
Q 819 9 494 109 
L 494 744 
Q 775 591 1075 516 
Q 1375 441 1709 441 
Q 2250 441 2565 725 
Q 2881 1009 2881 1497 
Q 2881 1984 2565 2268 
Q 2250 2553 1709 2553 
Q 1456 2553 1204 2497 
Q 953 2441 691 2322 
L 691 4666 
z
" transform="scale(0.015625)"/>
       </defs>
       <use xlink:href="#DejaVuSans-35"/>
       <use xlink:href="#DejaVuSans-30" x="63.623047"/>
       <use xlink:href="#DejaVuSans-30" x="127.246094"/>
      </g>
     </g>
    </g>
    <g id="text_7">
     <!-- time (s) across film -->
     <g transform="translate(241.709667 129.755937) scale(0.14 -0.14)">
      <defs>
       <path id="DejaVuSans-74" d="M 1172 4494 
L 1172 3500 
L 2356 3500 
L 2356 3053 
L 1172 3053 
L 1172 1153 
Q 1172 725 1289 603 
Q 1406 481 1766 481 
L 2356 481 
L 2356 0 
L 1766 0 
Q 1100 0 847 248 
Q 594 497 594 1153 
L 594 3053 
L 172 3053 
L 172 3500 
L 594 3500 
L 594 4494 
L 1172 4494 
z
" transform="scale(0.015625)"/>
       <path id="DejaVuSans-69" d="M 603 3500 
L 1178 3500 
L 1178 0 
L 603 0 
L 603 3500 
z
M 603 4863 
L 1178 4863 
L 1178 4134 
L 603 4134 
L 603 4863 
z
" transform="scale(0.015625)"/>
       <path id="DejaVuSans-6d" d="M 3328 2828 
Q 3544 3216 3844 3400 
Q 4144 3584 4550 3584 
Q 5097 3584 5394 3201 
Q 5691 2819 5691 2113 
L 5691 0 
L 5113 0 
L 5113 2094 
Q 5113 2597 4934 2840 
Q 4756 3084 4391 3084 
Q 3944 3084 3684 2787 
Q 3425 2491 3425 1978 
L 3425 0 
L 2847 0 
L 2847 2094 
Q 2847 2600 2669 2842 
Q 2491 3084 2119 3084 
Q 1678 3084 1418 2786 
Q 1159 2488 1159 1978 
L 1159 0 
L 581 0 
L 581 3500 
L 1159 3500 
L 1159 2956 
Q 1356 3278 1631 3431 
Q 1906 3584 2284 3584 
Q 2666 3584 2933 3390 
Q 3200 3197 3328 2828 
z
" transform="scale(0.015625)"/>
       <path id="DejaVuSans-65" d="M 3597 1894 
L 3597 1613 
L 953 1613 
Q 991 1019 1311 708 
Q 1631 397 2203 397 
Q 2534 397 2845 478 
Q 3156 559 3463 722 
L 3463 178 
Q 3153 47 2828 -22 
Q 2503 -91 2169 -91 
Q 1331 -91 842 396 
Q 353 884 353 1716 
Q 353 2575 817 3079 
Q 1281 3584 2069 3584 
Q 2775 3584 3186 3129 
Q 3597 2675 3597 1894 
z
M 3022 2063 
Q 3016 2534 2758 2815 
Q 2500 3097 2075 3097 
Q 1594 3097 1305 2825 
Q 1016 2553 972 2059 
L 3022 2063 
z
" transform="scale(0.015625)"/>
       <path id="DejaVuSans-20" transform="scale(0.015625)"/>
       <path id="DejaVuSans-28" d="M 1984 4856 
Q 1566 4138 1362 3434 
Q 1159 2731 1159 2009 
Q 1159 1288 1364 580 
Q 1569 -128 1984 -844 
L 1484 -844 
Q 1016 -109 783 600 
Q 550 1309 550 2009 
Q 550 2706 781 3412 
Q 1013 4119 1484 4856 
L 1984 4856 
z
" transform="scale(0.015625)"/>
       <path id="DejaVuSans-73" d="M 2834 3397 
L 2834 2853 
Q 2591 2978 2328 3040 
Q 2066 3103 1784 3103 
Q 1356 3103 1142 2972 
Q 928 2841 928 2578 
Q 928 2378 1081 2264 
Q 1234 2150 1697 2047 
L 1894 2003 
Q 2506 1872 2764 1633 
Q 3022 1394 3022 966 
Q 3022 478 2636 193 
Q 2250 -91 1575 -91 
Q 1294 -91 989 -36 
Q 684 19 347 128 
L 347 722 
Q 666 556 975 473 
Q 1284 391 1588 391 
Q 1994 391 2212 530 
Q 2431 669 2431 922 
Q 2431 1156 2273 1281 
Q 2116 1406 1581 1522 
L 1381 1569 
Q 847 1681 609 1914 
Q 372 2147 372 2553 
Q 372 3047 722 3315 
Q 1072 3584 1716 3584 
Q 2034 3584 2315 3537 
Q 2597 3491 2834 3397 
z
" transform="scale(0.015625)"/>
       <path id="DejaVuSans-29" d="M 513 4856 
L 1013 4856 
Q 1481 4119 1714 3412 
Q 1947 2706 1947 2009 
Q 1947 1309 1714 600 
Q 1481 -109 1013 -844 
L 513 -844 
Q 928 -128 1133 580 
Q 1338 1288 1338 2009 
Q 1338 2731 1133 3434 
Q 928 4138 513 4856 
z
" transform="scale(0.015625)"/>
       <path id="DejaVuSans-61" d="M 2194 1759 
Q 1497 1759 1228 1600 
Q 959 1441 959 1056 
Q 959 750 1161 570 
Q 1363 391 1709 391 
Q 2188 391 2477 730 
Q 2766 1069 2766 1631 
L 2766 1759 
L 2194 1759 
z
M 3341 1997 
L 3341 0 
L 2766 0 
L 2766 531 
Q 2569 213 2275 61 
Q 1981 -91 1556 -91 
Q 1019 -91 701 211 
Q 384 513 384 1019 
Q 384 1609 779 1909 
Q 1175 2209 1959 2209 
L 2766 2209 
L 2766 2266 
Q 2766 2663 2505 2880 
Q 2244 3097 1772 3097 
Q 1472 3097 1187 3025 
Q 903 2953 641 2809 
L 641 3341 
Q 956 3463 1253 3523 
Q 1550 3584 1831 3584 
Q 2591 3584 2966 3190 
Q 3341 2797 3341 1997 
z
" transform="scale(0.015625)"/>
       <path id="DejaVuSans-63" d="M 3122 3366 
L 3122 2828 
Q 2878 2963 2633 3030 
Q 2388 3097 2138 3097 
Q 1578 3097 1268 2742 
Q 959 2388 959 1747 
Q 959 1106 1268 751 
Q 1578 397 2138 397 
Q 2388 397 2633 464 
Q 2878 531 3122 666 
L 3122 134 
Q 2881 22 2623 -34 
Q 2366 -91 2075 -91 
Q 1284 -91 818 406 
Q 353 903 353 1747 
Q 353 2603 823 3093 
Q 1294 3584 2113 3584 
Q 2378 3584 2631 3529 
Q 2884 3475 3122 3366 
z
" transform="scale(0.015625)"/>
       <path id="DejaVuSans-72" d="M 2631 2963 
Q 2534 3019 2420 3045 
Q 2306 3072 2169 3072 
Q 1681 3072 1420 2755 
Q 1159 2438 1159 1844 
L 1159 0 
L 581 0 
L 581 3500 
L 1159 3500 
L 1159 2956 
Q 1341 3275 1631 3429 
Q 1922 3584 2338 3584 
Q 2397 3584 2469 3576 
Q 2541 3569 2628 3553 
L 2631 2963 
z
" transform="scale(0.015625)"/>
       <path id="DejaVuSans-6f" d="M 1959 3097 
Q 1497 3097 1228 2736 
Q 959 2375 959 1747 
Q 959 1119 1226 758 
Q 1494 397 1959 397 
Q 2419 397 2687 759 
Q 2956 1122 2956 1747 
Q 2956 2369 2687 2733 
Q 2419 3097 1959 3097 
z
M 1959 3584 
Q 2709 3584 3137 3096 
Q 3566 2609 3566 1747 
Q 3566 888 3137 398 
Q 2709 -91 1959 -91 
Q 1206 -91 779 398 
Q 353 888 353 1747 
Q 353 2609 779 3096 
Q 1206 3584 1959 3584 
z
" transform="scale(0.015625)"/>
       <path id="DejaVuSans-66" d="M 2375 4863 
L 2375 4384 
L 1825 4384 
Q 1516 4384 1395 4259 
Q 1275 4134 1275 3809 
L 1275 3500 
L 2222 3500 
L 2222 3053 
L 1275 3053 
L 1275 0 
L 697 0 
L 697 3053 
L 147 3053 
L 147 3500 
L 697 3500 
L 697 3744 
Q 697 4328 969 4595 
Q 1241 4863 1831 4863 
L 2375 4863 
z
" transform="scale(0.015625)"/>
       <path id="DejaVuSans-6c" d="M 603 4863 
L 1178 4863 
L 1178 0 
L 603 0 
L 603 4863 
z
" transform="scale(0.015625)"/>
      </defs>
      <use xlink:href="#DejaVuSans-74"/>
      <use xlink:href="#DejaVuSans-69" x="39.208984"/>
      <use xlink:href="#DejaVuSans-6d" x="66.992188"/>
      <use xlink:href="#DejaVuSans-65" x="164.404297"/>
      <use xlink:href="#DejaVuSans-20" x="225.927734"/>
      <use xlink:href="#DejaVuSans-28" x="257.714844"/>
      <use xlink:href="#DejaVuSans-73" x="296.728516"/>
      <use xlink:href="#DejaVuSans-29" x="348.828125"/>
      <use xlink:href="#DejaVuSans-20" x="387.841797"/>
      <use xlink:href="#DejaVuSans-61" x="419.628906"/>
      <use xlink:href="#DejaVuSans-63" x="480.908203"/>
      <use xlink:href="#DejaVuSans-72" x="535.888672"/>
      <use xlink:href="#DejaVuSans-6f" x="574.751953"/>
      <use xlink:href="#DejaVuSans-73" x="635.933594"/>
      <use xlink:href="#DejaVuSans-73" x="688.033203"/>
      <use xlink:href="#DejaVuSans-20" x="740.132812"/>
      <use xlink:href="#DejaVuSans-66" x="771.919922"/>
      <use xlink:href="#DejaVuSans-69" x="807.125"/>
      <use xlink:href="#DejaVuSans-6c" x="834.908203"/>
      <use xlink:href="#DejaVuSans-6d" x="862.691406"/>
     </g>
    </g>
   </g>
   <g id="matplotlib.axis_2">
    <g id="ytick_1">
     <g id="line2d_7"/>
     <g id="text_8">
      <!-- 0 -->
      <g transform="translate(50.7375 95.942076) scale(0.1 -0.1)">
       <use xlink:href="#DejaVuSans-30"/>
      </g>
     </g>
    </g>
    <g id="ytick_2">
     <g id="line2d_8"/>
     <g id="text_9">
      <!-- 10 -->
      <g transform="translate(44.375 56.753504) scale(0.1 -0.1)">
       <use xlink:href="#DejaVuSans-31"/>
       <use xlink:href="#DejaVuSans-30" x="63.623047"/>
      </g>
     </g>
    </g>
    <g id="text_10">
     <!-- normalized FR -->
     <g transform="translate(21.7865 117.661719) rotate(-90) scale(0.14 -0.14)">
      <defs>
       <path id="DejaVuSans-6e" d="M 3513 2113 
L 3513 0 
L 2938 0 
L 2938 2094 
Q 2938 2591 2744 2837 
Q 2550 3084 2163 3084 
Q 1697 3084 1428 2787 
Q 1159 2491 1159 1978 
L 1159 0 
L 581 0 
L 581 3500 
L 1159 3500 
L 1159 2956 
Q 1366 3272 1645 3428 
Q 1925 3584 2291 3584 
Q 2894 3584 3203 3211 
Q 3513 2838 3513 2113 
z
" transform="scale(0.015625)"/>
       <path id="DejaVuSans-7a" d="M 353 3500 
L 3084 3500 
L 3084 2975 
L 922 459 
L 3084 459 
L 3084 0 
L 275 0 
L 275 525 
L 2438 3041 
L 353 3041 
L 353 3500 
z
" transform="scale(0.015625)"/>
       <path id="DejaVuSans-64" d="M 2906 2969 
L 2906 4863 
L 3481 4863 
L 3481 0 
L 2906 0 
L 2906 525 
Q 2725 213 2448 61 
Q 2172 -91 1784 -91 
Q 1150 -91 751 415 
Q 353 922 353 1747 
Q 353 2572 751 3078 
Q 1150 3584 1784 3584 
Q 2172 3584 2448 3432 
Q 2725 3281 2906 2969 
z
M 947 1747 
Q 947 1113 1208 752 
Q 1469 391 1925 391 
Q 2381 391 2643 752 
Q 2906 1113 2906 1747 
Q 2906 2381 2643 2742 
Q 2381 3103 1925 3103 
Q 1469 3103 1208 2742 
Q 947 2381 947 1747 
z
" transform="scale(0.015625)"/>
       <path id="DejaVuSans-46" d="M 628 4666 
L 3309 4666 
L 3309 4134 
L 1259 4134 
L 1259 2759 
L 3109 2759 
L 3109 2228 
L 1259 2228 
L 1259 0 
L 628 0 
L 628 4666 
z
" transform="scale(0.015625)"/>
       <path id="DejaVuSans-52" d="M 2841 2188 
Q 3044 2119 3236 1894 
Q 3428 1669 3622 1275 
L 4263 0 
L 3584 0 
L 2988 1197 
Q 2756 1666 2539 1819 
Q 2322 1972 1947 1972 
L 1259 1972 
L 1259 0 
L 628 0 
L 628 4666 
L 2053 4666 
Q 2853 4666 3247 4331 
Q 3641 3997 3641 3322 
Q 3641 2881 3436 2590 
Q 3231 2300 2841 2188 
z
M 1259 4147 
L 1259 2491 
L 2053 2491 
Q 2509 2491 2742 2702 
Q 2975 2913 2975 3322 
Q 2975 3731 2742 3939 
Q 2509 4147 2053 4147 
L 1259 4147 
z
" transform="scale(0.015625)"/>
      </defs>
      <use xlink:href="#DejaVuSans-6e"/>
      <use xlink:href="#DejaVuSans-6f" x="63.378906"/>
      <use xlink:href="#DejaVuSans-72" x="124.560547"/>
      <use xlink:href="#DejaVuSans-6d" x="163.923828"/>
      <use xlink:href="#DejaVuSans-61" x="261.335938"/>
      <use xlink:href="#DejaVuSans-6c" x="322.615234"/>
      <use xlink:href="#DejaVuSans-69" x="350.398438"/>
      <use xlink:href="#DejaVuSans-7a" x="378.181641"/>
      <use xlink:href="#DejaVuSans-65" x="430.671875"/>
      <use xlink:href="#DejaVuSans-64" x="492.195312"/>
      <use xlink:href="#DejaVuSans-20" x="555.671875"/>
      <use xlink:href="#DejaVuSans-46" x="587.458984"/>
      <use xlink:href="#DejaVuSans-52" x="644.978516"/>
     </g>
     <!-- (Hz) -->
     <g transform="translate(37.463438 82.050313) rotate(-90) scale(0.14 -0.14)">
      <defs>
       <path id="DejaVuSans-48" d="M 628 4666 
L 1259 4666 
L 1259 2753 
L 3553 2753 
L 3553 4666 
L 4184 4666 
L 4184 0 
L 3553 0 
L 3553 2222 
L 1259 2222 
L 1259 0 
L 628 0 
L 628 4666 
z
" transform="scale(0.015625)"/>
      </defs>
      <use xlink:href="#DejaVuSans-28"/>
      <use xlink:href="#DejaVuSans-48" x="39.013672"/>
      <use xlink:href="#DejaVuSans-7a" x="114.208984"/>
      <use xlink:href="#DejaVuSans-29" x="166.699219"/>
     </g>
    </g>
   </g>
   <g id="line2d_9">
    <path d="M 84.118523 75.977571 
L 85.06902 77.937 
L 86.019517 82.835571 
L 86.970014 82.345714 
L 87.920511 82.345714 
L 88.871008 81.366 
L 89.821505 78.916714 
L 90.772002 77.447143 
L 91.722499 78.916714 
L 92.672995 79.406571 
L 93.623492 81.855857 
L 94.573989 82.345714 
L 95.524486 85.284857 
L 97.42548 87.244286 
L 98.375977 87.734143 
L 99.326474 91.163143 
L 100.276971 89.693571 
L 101.227468 90.183429 
L 102.177965 90.183429 
L 104.078959 89.203714 
L 105.029456 89.693571 
L 105.979953 89.203714 
L 107.880947 89.203714 
L 108.831444 89.693571 
L 109.781941 90.673286 
L 110.732438 91.163143 
L 111.682935 91.163143 
L 113.583929 92.142857 
L 114.534426 92.142857 
L 115.484922 91.653 
L 118.336413 91.653 
L 119.28691 91.163143 
L 120.237407 91.653 
L 121.187904 91.163143 
L 122.138401 88.713857 
L 123.088898 88.713857 
L 124.039395 89.203714 
L 124.989892 89.203714 
L 125.940389 84.305143 
L 126.890886 82.835571 
L 128.79188 77.937 
L 129.742377 77.937 
L 130.692874 79.896429 
L 131.643371 83.815286 
L 132.593868 81.855857 
L 133.544365 78.916714 
L 134.494862 77.937 
L 135.445359 78.426857 
L 136.395856 75.977571 
L 137.346352 78.426857 
L 138.296849 79.896429 
L 139.247346 76.957286 
L 140.197843 77.937 
L 141.14834 74.018143 
L 142.098837 64.710857 
L 143.049334 64.710857 
L 143.999831 57.363 
L 144.950328 56.383286 
L 145.900825 57.363 
L 146.851322 60.792 
L 147.801819 55.403571 
L 148.752316 60.792 
L 149.702813 58.832571 
L 150.65331 59.812286 
L 151.603807 67.160143 
L 152.554304 72.058714 
L 153.504801 74.018143 
L 154.455298 70.099286 
L 155.405795 71.568857 
L 156.356292 68.629714 
L 157.306789 62.261571 
L 158.257286 57.852857 
L 159.207783 60.792 
L 160.158279 51.974571 
L 161.108776 48.545571 
L 162.059273 46.586143 
L 163.00977 52.464429 
L 163.960267 54.423857 
L 164.910764 60.302143 
L 165.861261 50.505 
L 166.811758 57.363 
L 167.762255 54.423857 
L 168.712752 53.444143 
L 169.663249 54.913714 
L 170.613746 62.261571 
L 171.564243 65.200714 
L 172.51474 66.180429 
L 173.465237 58.832571 
L 174.415734 59.322429 
L 175.366231 64.221 
L 176.316728 65.200714 
L 177.267225 67.160143 
L 178.217722 76.957286 
L 179.168219 75.977571 
L 180.118716 72.058714 
L 181.069213 68.629714 
L 182.01971 67.160143 
L 182.970206 63.731143 
L 183.920703 56.873143 
L 184.8712 59.812286 
L 185.821697 62.261571 
L 186.772194 62.261571 
L 187.722691 61.771714 
L 188.673188 71.079 
L 189.623685 75.487714 
L 190.574182 67.65 
L 191.524679 68.139857 
L 192.475176 69.119571 
L 193.425673 65.690571 
L 194.37617 59.812286 
L 195.326667 64.221 
L 196.277164 61.771714 
L 198.178158 66.670286 
L 199.128655 70.099286 
L 200.079152 71.079 
L 201.029649 70.589143 
L 201.980146 73.038429 
L 202.930643 74.018143 
L 203.88114 73.528286 
L 205.782133 78.426857 
L 206.73263 74.997857 
L 207.683127 75.487714 
L 208.633624 78.426857 
L 209.584121 76.467429 
L 210.534618 78.916714 
L 211.485115 82.345714 
L 212.435612 75.487714 
L 213.386109 72.058714 
L 214.336606 75.977571 
L 215.287103 74.997857 
L 216.2376 74.997857 
L 217.188097 77.937 
L 218.138594 77.447143 
L 219.089091 68.629714 
L 220.039588 65.690571 
L 220.990085 57.363 
L 221.940582 58.832571 
L 222.891079 58.342714 
L 223.841576 64.221 
L 224.792073 65.690571 
L 225.74257 66.180429 
L 226.693067 63.731143 
L 227.643564 58.342714 
L 228.59406 56.873143 
L 229.544557 55.893429 
L 230.495054 57.852857 
L 231.445551 58.832571 
L 232.396048 61.281857 
L 233.346545 58.832571 
L 234.297042 53.444143 
L 235.247539 54.913714 
L 236.198036 54.423857 
L 237.148533 55.403571 
L 238.09903 58.342714 
L 239.049527 65.200714 
L 240.000024 61.281857 
L 240.950521 56.873143 
L 241.901018 58.832571 
L 242.851515 60.302143 
L 243.802012 61.281857 
L 245.703006 71.079 
L 246.653503 69.119571 
L 247.604 71.568857 
L 248.554497 73.528286 
L 249.504994 75.977571 
L 250.455491 81.366 
L 251.405987 88.713857 
L 253.306981 87.734143 
L 254.257478 88.713857 
L 255.207975 87.734143 
L 256.158472 87.734143 
L 257.108969 87.244286 
L 258.059466 87.734143 
L 259.009963 86.754429 
L 259.96046 86.754429 
L 260.910957 71.079 
L 261.861454 71.079 
L 262.811951 59.812286 
L 263.762448 52.464429 
L 264.712945 48.545571 
L 265.663442 56.873143 
L 266.613939 55.403571 
L 268.514933 63.731143 
L 269.46543 66.670286 
L 270.415927 67.65 
L 271.366424 67.65 
L 272.316921 68.629714 
L 273.267418 67.65 
L 274.217914 66.180429 
L 275.168411 66.180429 
L 276.118908 61.281857 
L 277.069405 60.302143 
L 278.019902 54.423857 
L 278.970399 47.076 
L 279.920896 50.505 
L 280.871393 45.606429 
L 281.82189 43.157143 
L 282.772387 50.994857 
L 283.722884 56.383286 
L 284.673381 52.954286 
L 285.623878 55.893429 
L 286.574375 60.302143 
L 287.524872 60.302143 
L 289.425866 56.383286 
L 290.376363 61.771714 
L 291.32686 61.281857 
L 292.277357 63.241286 
L 293.227854 71.079 
L 294.178351 73.528286 
L 295.128848 78.426857 
L 296.079344 80.386286 
L 297.980338 79.406571 
L 298.930835 84.795 
L 299.881332 84.305143 
L 300.831829 87.244286 
L 301.782326 89.203714 
L 302.732823 86.264571 
L 303.68332 85.774714 
L 304.633817 85.774714 
L 305.584314 84.305143 
L 306.534811 83.815286 
L 307.485308 84.305143 
L 308.435805 82.835571 
L 309.386302 79.896429 
L 310.336799 75.977571 
L 311.287296 74.508 
L 312.237793 72.058714 
L 313.18829 73.038429 
L 314.138787 69.609429 
L 315.089284 73.038429 
L 316.990278 75.977571 
L 317.940775 75.487714 
L 318.891271 79.406571 
L 320.792265 77.447143 
L 321.742762 74.997857 
L 322.693259 74.997857 
L 323.643756 73.528286 
L 325.54475 62.751429 
L 326.495247 54.423857 
L 327.445744 47.565857 
L 328.396241 39.728143 
L 330.297235 50.015143 
L 331.247732 60.792 
L 332.198229 65.200714 
L 333.148726 72.058714 
L 334.099223 70.589143 
L 335.04972 69.609429 
L 336.000217 68.139857 
L 336.950714 67.160143 
L 337.901211 67.160143 
L 338.851708 66.670286 
L 339.802205 60.302143 
L 340.752702 56.873143 
L 341.703198 50.505 
L 342.653695 46.586143 
L 343.604192 40.707857 
L 345.505186 54.913714 
L 346.455683 57.363 
L 347.40618 62.751429 
L 348.356677 71.568857 
L 349.307174 65.690571 
L 350.257671 62.751429 
L 351.208168 62.261571 
L 352.158665 57.852857 
L 353.109162 58.342714 
L 354.059659 63.241286 
L 355.010156 61.771714 
L 355.960653 62.261571 
L 356.91115 66.670286 
L 357.861647 64.710857 
L 358.812144 59.812286 
L 359.762641 59.322429 
L 360.713138 64.710857 
L 361.663635 57.363 
L 362.614132 53.444143 
L 363.564629 52.954286 
L 364.515125 55.403571 
L 365.465622 49.035429 
L 366.416119 49.525286 
L 367.366616 50.994857 
L 368.317113 56.873143 
L 369.26761 59.812286 
L 371.168604 78.426857 
L 372.119101 84.795 
L 373.069598 86.264571 
L 374.020095 84.795 
L 374.970592 85.284857 
L 375.921089 83.815286 
L 376.871586 82.835571 
L 378.77258 85.774714 
L 379.723077 83.815286 
L 380.673574 84.795 
L 381.624071 81.855857 
L 382.574568 78.426857 
L 383.525065 74.018143 
L 384.475562 68.629714 
L 385.426059 66.670286 
L 386.376556 62.751429 
L 387.327052 65.200714 
L 388.277549 66.670286 
L 389.228046 69.609429 
L 390.178543 68.629714 
L 391.12904 71.079 
L 392.079537 69.119571 
L 393.030034 68.139857 
L 393.980531 67.65 
L 394.931028 66.670286 
L 395.881525 67.160143 
L 396.832022 66.180429 
L 397.782519 59.812286 
L 398.733016 62.261571 
L 399.683513 63.731143 
L 400.63401 61.771714 
L 401.584507 62.261571 
L 402.535004 67.160143 
L 403.485501 60.792 
L 404.435998 61.281857 
L 405.386495 63.731143 
L 406.336992 63.731143 
L 407.287489 62.261571 
L 408.237986 69.609429 
L 409.188483 67.160143 
L 410.138979 67.65 
L 411.089476 65.200714 
L 412.039973 66.670286 
L 412.99047 66.180429 
L 413.940967 67.65 
L 414.891464 70.099286 
L 415.841961 70.099286 
L 416.792458 73.528286 
L 417.742955 70.099286 
L 418.693452 70.099286 
L 419.643949 66.670286 
L 420.594446 69.119571 
L 421.544943 62.261571 
L 422.49544 60.302143 
L 423.445937 59.322429 
L 424.396434 62.261571 
L 425.346931 60.302143 
L 426.297428 67.160143 
L 427.247925 60.792 
L 428.198422 56.873143 
L 429.148919 51.974571 
L 430.099416 55.893429 
L 431.049913 50.505 
L 432.000409 63.241286 
L 432.950906 71.079 
L 433.901403 64.221 
L 434.8519 48.545571 
L 435.802397 52.954286 
L 436.752894 48.055714 
L 437.703391 38.748429 
L 438.653888 49.035429 
L 439.604385 62.261571 
L 440.554882 60.302143 
L 441.505379 63.731143 
L 442.455876 72.548571 
L 443.406373 72.058714 
L 444.35687 70.099286 
L 445.307367 73.038429 
L 446.257864 71.568857 
L 447.208361 64.221 
L 448.158858 64.710857 
L 449.109355 67.65 
L 450.059852 67.65 
L 451.010349 69.119571 
L 451.960846 66.670286 
L 452.911343 69.609429 
L 453.86184 69.119571 
L 454.812336 69.119571 
L 455.762833 67.65 
L 456.71333 65.690571 
L 457.663827 59.812286 
L 458.614324 63.731143 
L 459.564821 62.751429 
L 460.515318 63.731143 
L 461.465815 76.467429 
L 462.416312 80.876143 
L 463.366809 79.896429 
L 465.267803 84.795 
L 467.168797 80.876143 
L 468.119294 79.896429 
L 469.069791 81.366 
L 470.020288 78.426857 
L 470.970785 78.426857 
L 471.921282 78.916714 
L 472.871779 78.916714 
L 473.822276 75.977571 
L 474.772773 77.447143 
L 475.72327 76.467429 
L 476.673767 72.548571 
L 477.624263 68.139857 
L 478.57476 67.65 
L 479.525257 68.139857 
L 480.475754 62.261571 
L 481.426251 64.221 
L 482.376748 68.139857 
L 483.327245 66.670286 
L 484.277742 63.731143 
L 485.228239 68.629714 
L 486.178736 69.609429 
L 487.129233 67.160143 
L 488.07973 67.65 
L 489.980724 66.670286 
L 490.931221 67.160143 
L 491.881718 68.139857 
L 492.832215 67.160143 
L 494.733209 71.079 
L 495.683706 72.058714 
L 496.634203 70.099286 
L 498.535197 70.099286 
L 499.485694 67.160143 
L 500.43619 66.180429 
L 501.386687 67.160143 
L 502.337184 66.180429 
L 503.287681 64.710857 
L 504.238178 68.629714 
L 505.188675 71.568857 
L 506.139172 75.487714 
L 507.089669 77.447143 
L 508.040166 77.937 
L 508.990663 75.977571 
L 509.94116 71.568857 
L 510.891657 69.609429 
L 511.842154 70.099286 
L 512.792651 70.099286 
L 513.743148 69.119571 
L 514.693645 64.710857 
L 515.644142 64.710857 
L 516.594639 67.160143 
L 517.545136 67.65 
L 518.495633 70.099286 
L 519.44613 76.957286 
L 520.396627 77.447143 
L 522.297621 76.467429 
L 523.248117 73.528286 
L 524.198614 72.548571 
L 525.149111 73.038429 
L 526.099608 71.568857 
L 527.050105 72.548571 
L 528.000602 68.139857 
L 528.951099 68.629714 
L 529.901596 64.710857 
L 530.852093 61.771714 
L 531.80259 63.731143 
L 532.753087 70.589143 
L 533.703584 68.629714 
L 534.654081 74.018143 
L 534.654081 74.018143 
" clip-path="url(#pf09d4613e4)" style="fill: none; stroke: #008000; stroke-width: 1.5; stroke-linecap: square"/>
   </g>
   <g id="line2d_10">
    <path d="M 83.174004 94.990415 
L 85.510704 96.290998 
L 87.847405 94.183037 
L 90.184106 93.958505 
L 92.520806 92.708975 
L 94.857507 94.141146 
L 97.194208 95.357719 
L 99.530908 97.024665 
L 101.867609 99.04343 
L 104.204309 98.811614 
L 106.54101 97.276064 
L 108.877711 97.742413 
L 111.214411 98.022249 
L 113.551112 97.938179 
L 115.887813 99.004809 
L 118.224513 99.65661 
L 120.561214 97.625409 
L 122.897914 96.256724 
L 125.234615 95.337537 
L 127.571316 95.092992 
L 129.908016 95.637629 
L 134.581418 97.784173 
L 136.918118 99.203098 
L 139.254819 99.980571 
L 141.591519 98.074407 
L 143.92822 98.038173 
L 150.938322 96.477379 
L 155.611723 96.245819 
L 157.948424 97.202548 
L 160.285125 97.728725 
L 162.621825 96.5658 
L 164.958526 97.071997 
L 167.295226 97.373559 
L 171.968628 91.057156 
L 176.642029 89.90039 
L 183.652131 89.019626 
L 185.988831 89.231671 
L 188.325532 89.235644 
L 190.662233 90.07802 
L 192.998933 90.232669 
L 195.335634 89.777005 
L 200.009035 90.394016 
L 202.345736 90.426275 
L 204.682436 90.135705 
L 207.019137 90.31409 
L 209.355838 90.107934 
L 211.692538 89.445739 
L 214.029239 89.233307 
L 218.70264 89.302472 
L 221.039341 89.508627 
L 223.376041 89.470771 
L 225.712742 90.086742 
L 228.049443 89.246227 
L 230.386143 89.551999 
L 232.722844 89.704605 
L 237.396245 88.555415 
L 242.069646 88.353399 
L 244.406347 87.572089 
L 246.743048 87.139987 
L 249.079748 87.167356 
L 251.416449 86.891799 
L 253.75315 88.279066 
L 256.08985 88.324503 
L 258.426551 90.046962 
L 260.763251 92.778206 
L 263.099952 92.882824 
L 265.436653 90.310587 
L 267.773353 89.637797 
L 270.110054 89.279624 
L 272.446755 89.327382 
L 274.783455 88.232942 
L 277.120156 86.945618 
L 279.456856 87.116701 
L 281.793557 86.816487 
L 284.130258 86.365641 
L 286.466958 86.785531 
L 288.803659 87.072153 
L 291.14036 87.55239 
L 293.47706 87.613053 
L 305.160563 86.855567 
L 307.497264 86.78922 
L 309.833965 87.437245 
L 312.170665 87.697713 
L 316.844066 87.132921 
L 319.180767 87.574898 
L 321.517468 87.712015 
L 323.854168 89.174101 
L 326.190869 91.445621 
L 333.200971 93.316146 
L 335.537671 91.482694 
L 337.874372 89.448703 
L 340.211073 89.672443 
L 342.547773 89.258548 
L 344.884474 89.964101 
L 349.557875 90.302818 
L 351.894576 90.76221 
L 354.231276 91.086159 
L 356.567977 91.024515 
L 358.904678 91.597133 
L 361.241378 91.598497 
L 363.578079 91.972611 
L 368.25148 92.31742 
L 370.588181 91.840219 
L 372.924881 92.038622 
L 375.261582 91.232357 
L 377.598283 89.549273 
L 379.934983 88.800324 
L 382.271684 89.555034 
L 384.608385 89.67452 
L 389.281786 89.102602 
L 391.618486 88.667487 
L 393.955187 88.697419 
L 396.291888 89.118129 
L 398.628588 89.057945 
L 400.965289 89.374251 
L 403.30199 89.436247 
L 407.975391 88.166742 
L 412.648792 87.423132 
L 414.985493 86.667805 
L 421.995595 85.595611 
L 424.332295 85.486717 
L 426.668996 85.174247 
L 431.342397 85.01782 
L 433.679098 85.260173 
L 438.352499 85.091171 
L 440.6892 85.55187 
L 445.362601 87.332915 
L 447.699301 87.967446 
L 452.372703 88.817255 
L 464.056206 89.801512 
L 466.392906 90.781513 
L 468.729607 89.70893 
L 471.066308 87.69719 
L 473.403008 87.623839 
L 475.739709 87.182977 
L 478.07641 87.207567 
L 480.41311 85.934752 
L 482.749811 85.109198 
L 485.086511 84.470564 
L 487.423212 84.609395 
L 489.759913 84.305143 
L 492.096613 85.569126 
L 494.433314 87.492436 
L 496.770015 88.878736 
L 499.106715 88.93947 
L 501.443416 88.253263 
L 503.780116 88.118603 
L 506.116817 87.622738 
L 508.453518 86.758028 
L 510.790218 86.437307 
L 513.126919 85.499152 
L 515.46362 84.841396 
L 517.80032 85.188495 
L 520.137021 85.422701 
L 522.473721 86.101597 
L 524.810422 87.140965 
L 529.483823 90.06243 
L 531.820524 92.466663 
L 531.820524 92.466663 
" clip-path="url(#pf09d4613e4)" style="fill: none; stroke: #000000; stroke-width: 1.5; stroke-linecap: square"/>
   </g>
   <g id="patch_3">
    <path d="M 60.6 101.94 
L 60.6 33.36 
" style="fill: none; stroke: #000000; stroke-width: 1.5; stroke-linejoin: miter; stroke-linecap: square"/>
   </g>
   <g id="patch_4">
    <path d="M 557.228085 101.94 
L 557.228085 33.36 
" style="fill: none; stroke: #000000; stroke-width: 1.5; stroke-linejoin: miter; stroke-linecap: square"/>
   </g>
   <g id="patch_5">
    <path d="M 60.6 101.94 
L 557.228085 101.94 
" style="fill: none; stroke: #000000; stroke-width: 1.5; stroke-linejoin: miter; stroke-linecap: square"/>
   </g>
   <g id="patch_6">
    <path d="M 60.6 33.36 
L 557.228085 33.36 
" style="fill: none; stroke: #000000; stroke-width: 1.5; stroke-linejoin: miter; stroke-linecap: square"/>
   </g>
   <g id="text_11">
    <!-- amygdala (8 neurons) -->
    <g transform="translate(187.451699 27.36) scale(0.22 -0.22)">
     <defs>
      <path id="DejaVuSans-79" d="M 2059 -325 
Q 1816 -950 1584 -1140 
Q 1353 -1331 966 -1331 
L 506 -1331 
L 506 -850 
L 844 -850 
Q 1081 -850 1212 -737 
Q 1344 -625 1503 -206 
L 1606 56 
L 191 3500 
L 800 3500 
L 1894 763 
L 2988 3500 
L 3597 3500 
L 2059 -325 
z
" transform="scale(0.015625)"/>
      <path id="DejaVuSans-67" d="M 2906 1791 
Q 2906 2416 2648 2759 
Q 2391 3103 1925 3103 
Q 1463 3103 1205 2759 
Q 947 2416 947 1791 
Q 947 1169 1205 825 
Q 1463 481 1925 481 
Q 2391 481 2648 825 
Q 2906 1169 2906 1791 
z
M 3481 434 
Q 3481 -459 3084 -895 
Q 2688 -1331 1869 -1331 
Q 1566 -1331 1297 -1286 
Q 1028 -1241 775 -1147 
L 775 -588 
Q 1028 -725 1275 -790 
Q 1522 -856 1778 -856 
Q 2344 -856 2625 -561 
Q 2906 -266 2906 331 
L 2906 616 
Q 2728 306 2450 153 
Q 2172 0 1784 0 
Q 1141 0 747 490 
Q 353 981 353 1791 
Q 353 2603 747 3093 
Q 1141 3584 1784 3584 
Q 2172 3584 2450 3431 
Q 2728 3278 2906 2969 
L 2906 3500 
L 3481 3500 
L 3481 434 
z
" transform="scale(0.015625)"/>
      <path id="DejaVuSans-38" d="M 2034 2216 
Q 1584 2216 1326 1975 
Q 1069 1734 1069 1313 
Q 1069 891 1326 650 
Q 1584 409 2034 409 
Q 2484 409 2743 651 
Q 3003 894 3003 1313 
Q 3003 1734 2745 1975 
Q 2488 2216 2034 2216 
z
M 1403 2484 
Q 997 2584 770 2862 
Q 544 3141 544 3541 
Q 544 4100 942 4425 
Q 1341 4750 2034 4750 
Q 2731 4750 3128 4425 
Q 3525 4100 3525 3541 
Q 3525 3141 3298 2862 
Q 3072 2584 2669 2484 
Q 3125 2378 3379 2068 
Q 3634 1759 3634 1313 
Q 3634 634 3220 271 
Q 2806 -91 2034 -91 
Q 1263 -91 848 271 
Q 434 634 434 1313 
Q 434 1759 690 2068 
Q 947 2378 1403 2484 
z
M 1172 3481 
Q 1172 3119 1398 2916 
Q 1625 2713 2034 2713 
Q 2441 2713 2670 2916 
Q 2900 3119 2900 3481 
Q 2900 3844 2670 4047 
Q 2441 4250 2034 4250 
Q 1625 4250 1398 4047 
Q 1172 3844 1172 3481 
z
" transform="scale(0.015625)"/>
      <path id="DejaVuSans-75" d="M 544 1381 
L 544 3500 
L 1119 3500 
L 1119 1403 
Q 1119 906 1312 657 
Q 1506 409 1894 409 
Q 2359 409 2629 706 
Q 2900 1003 2900 1516 
L 2900 3500 
L 3475 3500 
L 3475 0 
L 2900 0 
L 2900 538 
Q 2691 219 2414 64 
Q 2138 -91 1772 -91 
Q 1169 -91 856 284 
Q 544 659 544 1381 
z
M 1991 3584 
L 1991 3584 
z
" transform="scale(0.015625)"/>
     </defs>
     <use xlink:href="#DejaVuSans-61"/>
     <use xlink:href="#DejaVuSans-6d" x="61.279297"/>
     <use xlink:href="#DejaVuSans-79" x="158.691406"/>
     <use xlink:href="#DejaVuSans-67" x="217.871094"/>
     <use xlink:href="#DejaVuSans-64" x="281.347656"/>
     <use xlink:href="#DejaVuSans-61" x="344.824219"/>
     <use xlink:href="#DejaVuSans-6c" x="406.103516"/>
     <use xlink:href="#DejaVuSans-61" x="433.886719"/>
     <use xlink:href="#DejaVuSans-20" x="495.166016"/>
     <use xlink:href="#DejaVuSans-28" x="526.953125"/>
     <use xlink:href="#DejaVuSans-38" x="565.966797"/>
     <use xlink:href="#DejaVuSans-20" x="629.589844"/>
     <use xlink:href="#DejaVuSans-6e" x="661.376953"/>
     <use xlink:href="#DejaVuSans-65" x="724.755859"/>
     <use xlink:href="#DejaVuSans-75" x="786.279297"/>
     <use xlink:href="#DejaVuSans-72" x="849.658203"/>
     <use xlink:href="#DejaVuSans-6f" x="888.521484"/>
     <use xlink:href="#DejaVuSans-6e" x="949.703125"/>
     <use xlink:href="#DejaVuSans-73" x="1013.082031"/>
     <use xlink:href="#DejaVuSans-29" x="1065.181641"/>
    </g>
   </g>
   <g id="legend_1">
    <g id="patch_7">
     <path d="M 67.6 70.71625 
L 149.11875 70.71625 
Q 151.11875 70.71625 151.11875 68.71625 
L 151.11875 40.36 
Q 151.11875 38.36 149.11875 38.36 
L 67.6 38.36 
Q 65.6 38.36 65.6 40.36 
L 65.6 68.71625 
Q 65.6 70.71625 67.6 70.71625 
z
" style="fill: #ffffff; opacity: 0.8; stroke: #cccccc; stroke-linejoin: miter"/>
    </g>
    <g id="line2d_11">
     <path d="M 69.6 46.458438 
L 79.6 46.458438 
L 89.6 46.458438 
" style="fill: none; stroke: #008000; stroke-width: 1.5; stroke-linecap: square"/>
    </g>
    <g id="text_12">
     <!-- amygdala -->
     <g transform="translate(97.6 49.958438) scale(0.1 -0.1)">
      <use xlink:href="#DejaVuSans-61"/>
      <use xlink:href="#DejaVuSans-6d" x="61.279297"/>
      <use xlink:href="#DejaVuSans-79" x="158.691406"/>
      <use xlink:href="#DejaVuSans-67" x="217.871094"/>
      <use xlink:href="#DejaVuSans-64" x="281.347656"/>
      <use xlink:href="#DejaVuSans-61" x="344.824219"/>
      <use xlink:href="#DejaVuSans-6c" x="406.103516"/>
      <use xlink:href="#DejaVuSans-61" x="433.886719"/>
     </g>
    </g>
    <g id="line2d_12">
     <path d="M 69.6 61.136562 
L 79.6 61.136562 
L 89.6 61.136562 
" style="fill: none; stroke: #000000; stroke-width: 1.5; stroke-linecap: square"/>
    </g>
    <g id="text_13">
     <!-- suspense -->
     <g transform="translate(97.6 64.636562) scale(0.1 -0.1)">
      <defs>
       <path id="DejaVuSans-70" d="M 1159 525 
L 1159 -1331 
L 581 -1331 
L 581 3500 
L 1159 3500 
L 1159 2969 
Q 1341 3281 1617 3432 
Q 1894 3584 2278 3584 
Q 2916 3584 3314 3078 
Q 3713 2572 3713 1747 
Q 3713 922 3314 415 
Q 2916 -91 2278 -91 
Q 1894 -91 1617 61 
Q 1341 213 1159 525 
z
M 3116 1747 
Q 3116 2381 2855 2742 
Q 2594 3103 2138 3103 
Q 1681 3103 1420 2742 
Q 1159 2381 1159 1747 
Q 1159 1113 1420 752 
Q 1681 391 2138 391 
Q 2594 391 2855 752 
Q 3116 1113 3116 1747 
z
" transform="scale(0.015625)"/>
      </defs>
      <use xlink:href="#DejaVuSans-73"/>
      <use xlink:href="#DejaVuSans-75" x="52.099609"/>
      <use xlink:href="#DejaVuSans-73" x="115.478516"/>
      <use xlink:href="#DejaVuSans-70" x="167.578125"/>
      <use xlink:href="#DejaVuSans-65" x="231.054688"/>
      <use xlink:href="#DejaVuSans-6e" x="292.578125"/>
      <use xlink:href="#DejaVuSans-73" x="355.957031"/>
      <use xlink:href="#DejaVuSans-65" x="408.056641"/>
     </g>
    </g>
   </g>
  </g>
 </g>
 <defs>
  <clipPath id="pf09d4613e4">
   <rect x="60.6" y="33.36" width="496.628085" height="68.58"/>
  </clipPath>
 </defs>
</svg>
