<?xml version="1.0" encoding="utf-8" standalone="no"?>
<!DOCTYPE svg PUBLIC "-//W3C//DTD SVG 1.1//EN"
  "http://www.w3.org/Graphics/SVG/1.1/DTD/svg11.dtd">
<svg xmlns:xlink="http://www.w3.org/1999/xlink" width="576pt" height="144pt" viewBox="0 0 576 144" xmlns="http://www.w3.org/2000/svg" version="1.1">
 <metadata>
  <rdf:RDF xmlns:dc="http://purl.org/dc/elements/1.1/" xmlns:cc="http://creativecommons.org/ns#" xmlns:rdf="http://www.w3.org/1999/02/22-rdf-syntax-ns#">
   <cc:Work>
    <dc:type rdf:resource="http://purl.org/dc/dcmitype/StillImage"/>
    <dc:date>2025-04-22T00:36:27.400307</dc:date>
    <dc:format>image/svg+xml</dc:format>
    <dc:creator>
     <cc:Agent>
      <dc:title>Matplotlib v3.8.0, https://matplotlib.org/</dc:title>
     </cc:Agent>
    </dc:creator>
   </cc:Work>
  </rdf:RDF>
 </metadata>
 <defs>
  <style type="text/css">*{stroke-linejoin: round; stroke-linecap: butt}</style>
 </defs>
 <g id="figure_1">
  <g id="patch_1">
   <path d="M 0 144 
L 576 144 
L 576 0 
L 0 0 
z
" style="fill: #ffffff"/>
  </g>
  <g id="axes_1">
   <g id="patch_2">
    <path d="M 62.58 101.94 
L 557.989313 101.94 
L 557.989313 33.36 
L 62.58 33.36 
z
" style="fill: #ffffff"/>
   </g>
   <g id="PolyCollection_1">
    <defs>
     <path id="m4d0e74da9a" d="M 86.039117 -94.771435 
L 86.039117 -58.1029 
L 86.983301 -60.418493 
L 87.927485 -63.13847 
L 88.871669 -63.035941 
L 89.815853 -61.813413 
L 90.760037 -62.903604 
L 91.704221 -62.078184 
L 92.648405 -62.268547 
L 93.592589 -60.504617 
L 94.536773 -57.425391 
L 95.480957 -61.224756 
L 96.425141 -59.746755 
L 97.369325 -60.157354 
L 98.313509 -58.534465 
L 99.257693 -59.310518 
L 100.201877 -60.773729 
L 101.146061 -59.177092 
L 102.090245 -59.192536 
L 103.034429 -61.505957 
L 103.978613 -61.212671 
L 104.922797 -60.100191 
L 105.866981 -62.87933 
L 106.811165 -63.416954 
L 107.755349 -63.866906 
L 108.699533 -60.768595 
L 109.643717 -62.025628 
L 110.587901 -63.178767 
L 111.532085 -64.531836 
L 112.476269 -63.394957 
L 113.420453 -63.961392 
L 114.364637 -62.22173 
L 115.308821 -63.302434 
L 116.253005 -62.644879 
L 117.197189 -63.540346 
L 118.141373 -61.371404 
L 119.085557 -64.312618 
L 120.029741 -63.876976 
L 120.973925 -63.900336 
L 121.918109 -64.348414 
L 122.862293 -63.276373 
L 123.806477 -63.450331 
L 124.750661 -63.662984 
L 125.694845 -67.00922 
L 126.639029 -65.096199 
L 127.583213 -63.467156 
L 128.527397 -62.618533 
L 129.471581 -64.164392 
L 130.415765 -62.245407 
L 131.359949 -63.060108 
L 132.304133 -61.722612 
L 133.248317 -63.185939 
L 134.192501 -61.715411 
L 135.136685 -63.329763 
L 136.080869 -63.632918 
L 137.025053 -65.73011 
L 137.969237 -63.686596 
L 138.913421 -62.537157 
L 139.857605 -63.727198 
L 140.801789 -62.081108 
L 141.745973 -64.079657 
L 142.690157 -65.133775 
L 143.634341 -64.312579 
L 144.578526 -62.467318 
L 145.52271 -61.470641 
L 146.466894 -63.636235 
L 147.411078 -61.773811 
L 148.355262 -64.008382 
L 149.299446 -62.360765 
L 150.24363 -62.700975 
L 151.187814 -61.795787 
L 152.131998 -62.231162 
L 153.076182 -60.490367 
L 154.020366 -62.023405 
L 154.96455 -64.043175 
L 155.908734 -65.164974 
L 156.852918 -62.193826 
L 157.797102 -62.602764 
L 158.741286 -64.353631 
L 159.68547 -64.803055 
L 160.629654 -65.39729 
L 161.573838 -65.7955 
L 162.518022 -63.295541 
L 163.462206 -58.882069 
L 164.40639 -58.592835 
L 165.350574 -59.314103 
L 166.294758 -60.950019 
L 167.238942 -63.487137 
L 168.183126 -65.216671 
L 169.12731 -63.578703 
L 170.071494 -62.413373 
L 171.015678 -61.208113 
L 171.959862 -62.141861 
L 172.904046 -61.021335 
L 173.84823 -59.354659 
L 174.792414 -59.152447 
L 175.736598 -61.874929 
L 176.680782 -64.37424 
L 177.624966 -64.718809 
L 178.56915 -64.543653 
L 179.513334 -63.603937 
L 180.457518 -64.701938 
L 181.401702 -63.930758 
L 182.345886 -63.597873 
L 183.29007 -64.130437 
L 184.234254 -62.008874 
L 185.178438 -64.023746 
L 186.122622 -62.773153 
L 187.066806 -62.77118 
L 188.01099 -61.63139 
L 188.955174 -65.707675 
L 189.899358 -66.615217 
L 190.843542 -64.995798 
L 191.787726 -60.909295 
L 192.73191 -62.315527 
L 193.676094 -62.683742 
L 194.620278 -61.992249 
L 195.564462 -60.645563 
L 196.508646 -62.087771 
L 197.45283 -62.849785 
L 198.397014 -61.588024 
L 199.341198 -61.127846 
L 200.285382 -60.131526 
L 201.229566 -63.766801 
L 202.17375 -67.305874 
L 203.117934 -68.02555 
L 204.062118 -66.458092 
L 205.006302 -64.977125 
L 205.950486 -64.141385 
L 206.89467 -65.788395 
L 207.838855 -67.859294 
L 208.783039 -65.057207 
L 209.727223 -62.667506 
L 210.671407 -61.462005 
L 211.615591 -58.917718 
L 212.559775 -56.062581 
L 213.503959 -59.600957 
L 214.448143 -63.512792 
L 215.392327 -64.779466 
L 216.336511 -64.410368 
L 217.280695 -65.923411 
L 218.224879 -65.403343 
L 219.169063 -66.105291 
L 220.113247 -64.082491 
L 221.057431 -66.657036 
L 222.001615 -64.137543 
L 222.945799 -65.145229 
L 223.889983 -65.617357 
L 224.834167 -66.679504 
L 225.778351 -66.240917 
L 226.722535 -63.611314 
L 227.666719 -62.46278 
L 228.610903 -63.97607 
L 229.555087 -65.883373 
L 230.499271 -64.032763 
L 231.443455 -63.084426 
L 232.387639 -62.584937 
L 233.331823 -64.691924 
L 234.276007 -67.521523 
L 235.220191 -67.823887 
L 236.164375 -68.406382 
L 237.108559 -67.847277 
L 238.052743 -64.845206 
L 238.996927 -64.7136 
L 239.941111 -61.764998 
L 240.885295 -64.833175 
L 241.829479 -65.692967 
L 242.773663 -65.129012 
L 243.717847 -63.619975 
L 244.662031 -66.204738 
L 245.606215 -65.009391 
L 246.550399 -62.32203 
L 247.494583 -59.630448 
L 248.438767 -63.682866 
L 249.382951 -63.836357 
L 250.327135 -63.889584 
L 251.271319 -61.642038 
L 252.215503 -61.214687 
L 253.159687 -61.193505 
L 254.103871 -61.59772 
L 255.048055 -62.412438 
L 255.992239 -60.764154 
L 256.936423 -62.922503 
L 257.880607 -64.2962 
L 258.824791 -63.181157 
L 259.768975 -64.243374 
L 260.713159 -65.226308 
L 261.657343 -68.122624 
L 262.601527 -66.646523 
L 263.545711 -66.194869 
L 264.489895 -64.187834 
L 265.434079 -60.201369 
L 266.378263 -59.19994 
L 267.322447 -62.221902 
L 268.266631 -62.696012 
L 269.210815 -63.691715 
L 270.154999 -61.632024 
L 271.099184 -62.627012 
L 272.043368 -62.885561 
L 272.987552 -61.691581 
L 273.931736 -57.304769 
L 274.87592 -57.694267 
L 275.820104 -59.46797 
L 276.764288 -61.064719 
L 277.708472 -59.931889 
L 278.652656 -56.307417 
L 279.59684 -57.054511 
L 280.541024 -57.032286 
L 281.485208 -57.775146 
L 282.429392 -58.050223 
L 283.373576 -57.188568 
L 284.31776 -55.974213 
L 285.261944 -55.787619 
L 286.206128 -56.832581 
L 287.150312 -57.16724 
L 288.094496 -61.833126 
L 289.03868 -65.760029 
L 289.982864 -67.277968 
L 290.927048 -66.224005 
L 291.871232 -62.13744 
L 292.815416 -63.964255 
L 293.7596 -65.756633 
L 294.703784 -65.425983 
L 295.647968 -64.949706 
L 296.592152 -63.363653 
L 297.536336 -65.827342 
L 298.48052 -66.049123 
L 299.424704 -66.998175 
L 300.368888 -64.064024 
L 301.313072 -62.201283 
L 302.257256 -61.685828 
L 303.20144 -61.232959 
L 304.145624 -62.715772 
L 305.089808 -62.712063 
L 306.033992 -61.812556 
L 306.978176 -62.384423 
L 307.92236 -62.393693 
L 308.866544 -64.136939 
L 309.810728 -65.277924 
L 310.754912 -64.640071 
L 311.699096 -66.019848 
L 312.64328 -66.622528 
L 313.587464 -67.556662 
L 314.531648 -65.518912 
L 315.475832 -64.298694 
L 316.420016 -63.420015 
L 317.3642 -63.480927 
L 318.308384 -63.901194 
L 319.252568 -63.414185 
L 320.196752 -62.820979 
L 321.140936 -63.37372 
L 322.08512 -62.530943 
L 323.029304 -62.799089 
L 323.973488 -64.22681 
L 324.917672 -63.361174 
L 325.861856 -62.622408 
L 326.80604 -61.023695 
L 327.750224 -56.44333 
L 328.694408 -60.111897 
L 329.638592 -57.552838 
L 330.582776 -58.265842 
L 331.52696 -59.39362 
L 332.471144 -61.310531 
L 333.415328 -62.869463 
L 334.359513 -63.64026 
L 335.303697 -66.057768 
L 336.247881 -63.456131 
L 337.192065 -58.802798 
L 338.136249 -57.865855 
L 339.080433 -61.579013 
L 340.024617 -62.973803 
L 340.968801 -62.768946 
L 341.912985 -62.257226 
L 342.857169 -63.470269 
L 343.801353 -63.718078 
L 344.745537 -64.431728 
L 345.689721 -62.808563 
L 346.633905 -62.670058 
L 347.578089 -61.974712 
L 348.522273 -62.72975 
L 349.466457 -65.193605 
L 350.410641 -63.808199 
L 351.354825 -63.42638 
L 352.299009 -63.394082 
L 353.243193 -63.903909 
L 354.187377 -63.900202 
L 355.131561 -61.929728 
L 356.075745 -62.186914 
L 357.019929 -61.243256 
L 357.964113 -61.157552 
L 358.908297 -60.969351 
L 359.852481 -61.507738 
L 360.796665 -61.507492 
L 361.740849 -61.829797 
L 362.685033 -62.553105 
L 363.629217 -63.865977 
L 364.573401 -63.253748 
L 365.517585 -65.277512 
L 366.461769 -67.20022 
L 367.405953 -67.438607 
L 368.350137 -69.00995 
L 369.294321 -64.352925 
L 370.238505 -64.277655 
L 371.182689 -64.890691 
L 372.126873 -65.267694 
L 373.071057 -64.138799 
L 374.015241 -62.857005 
L 374.959425 -64.518605 
L 375.903609 -66.716514 
L 376.847793 -62.632142 
L 377.791977 -62.735089 
L 378.736161 -63.7513 
L 379.680345 -64.780307 
L 380.624529 -65.676702 
L 381.568713 -64.133503 
L 382.512897 -65.312701 
L 383.457081 -63.884018 
L 384.401265 -64.471823 
L 385.345449 -61.62275 
L 386.289633 -63.814309 
L 387.233817 -62.609689 
L 388.178001 -61.763998 
L 389.122185 -60.98297 
L 390.066369 -61.00784 
L 391.010553 -58.660903 
L 391.954737 -62.3387 
L 392.898921 -64.976083 
L 393.843105 -66.511092 
L 394.787289 -66.880296 
L 395.731473 -65.802901 
L 396.675657 -64.196477 
L 397.619842 -62.207474 
L 398.564026 -63.169799 
L 399.50821 -62.380687 
L 400.452394 -59.233327 
L 401.396578 -62.329036 
L 402.340762 -65.64415 
L 403.284946 -66.804215 
L 404.22913 -63.409963 
L 405.173314 -62.038249 
L 406.117498 -65.042455 
L 407.061682 -63.902825 
L 408.005866 -60.348126 
L 408.95005 -57.877858 
L 409.894234 -63.322935 
L 410.838418 -63.487548 
L 411.782602 -62.491365 
L 412.726786 -62.126628 
L 413.67097 -59.928552 
L 414.615154 -61.460311 
L 415.559338 -62.173696 
L 416.503522 -64.315166 
L 417.447706 -62.612326 
L 418.39189 -64.802003 
L 419.336074 -65.05411 
L 420.280258 -64.814597 
L 421.224442 -65.288346 
L 422.168626 -66.935821 
L 423.11281 -67.096005 
L 424.056994 -66.099479 
L 425.001178 -62.434775 
L 425.945362 -60.496949 
L 426.889546 -56.711082 
L 427.83373 -61.058307 
L 428.777914 -63.553537 
L 429.722098 -63.778851 
L 430.666282 -65.374063 
L 431.610466 -66.253238 
L 432.55465 -64.457317 
L 433.498834 -64.080425 
L 434.443018 -61.648686 
L 435.387202 -61.334813 
L 436.331386 -60.137768 
L 437.27557 -61.443379 
L 438.219754 -63.235945 
L 439.163938 -65.49019 
L 440.108122 -64.346973 
L 441.052306 -62.841775 
L 441.99649 -64.455322 
L 442.940674 -62.901628 
L 443.884858 -62.786517 
L 444.829042 -61.438747 
L 445.773226 -62.727122 
L 446.71741 -65.125601 
L 447.661594 -64.982785 
L 448.605778 -64.26413 
L 449.549962 -61.289452 
L 450.494146 -59.760336 
L 451.43833 -62.37937 
L 452.382514 -64.851251 
L 453.326698 -64.74489 
L 454.270882 -64.838975 
L 455.215066 -65.356418 
L 456.15925 -66.304551 
L 457.103434 -65.672722 
L 458.047618 -63.692298 
L 458.991802 -63.177403 
L 459.935987 -62.476077 
L 460.880171 -63.829048 
L 461.824355 -64.553648 
L 462.768539 -65.209605 
L 463.712723 -65.438422 
L 464.656907 -64.162989 
L 465.601091 -62.589404 
L 466.545275 -62.068753 
L 467.489459 -60.678498 
L 468.433643 -58.903327 
L 469.377827 -59.45622 
L 470.322011 -61.557851 
L 471.266195 -62.213858 
L 472.210379 -64.542768 
L 473.154563 -63.305051 
L 474.098747 -61.45415 
L 475.042931 -61.293438 
L 475.987115 -63.041379 
L 476.931299 -62.821156 
L 477.875483 -60.456655 
L 478.819667 -61.975536 
L 479.763851 -62.304893 
L 480.708035 -61.639262 
L 481.652219 -60.09428 
L 482.596403 -61.622677 
L 483.540587 -62.969637 
L 484.484771 -62.548643 
L 485.428955 -64.982635 
L 486.373139 -65.424014 
L 487.317323 -64.081321 
L 488.261507 -61.603234 
L 489.205691 -62.762323 
L 490.149875 -61.345978 
L 491.094059 -60.857287 
L 492.038243 -62.841643 
L 492.982427 -64.837296 
L 493.926611 -63.453402 
L 494.870795 -62.019429 
L 495.814979 -62.589975 
L 496.759163 -60.300266 
L 497.703347 -62.655185 
L 498.647531 -63.982537 
L 499.591715 -63.556271 
L 500.535899 -64.332851 
L 501.480083 -62.390781 
L 502.424267 -62.72601 
L 503.368451 -60.183669 
L 504.312635 -65.384712 
L 505.256819 -64.665256 
L 506.201003 -63.550836 
L 507.145187 -63.198165 
L 508.089371 -62.026827 
L 509.033555 -63.108392 
L 509.977739 -64.75661 
L 510.921923 -64.064986 
L 511.866107 -62.805611 
L 512.810291 -61.86332 
L 513.754475 -63.382499 
L 514.698659 -61.285085 
L 515.642843 -63.604915 
L 516.587027 -62.497902 
L 517.531211 -60.78674 
L 518.475395 -60.045993 
L 519.419579 -59.249896 
L 520.363763 -58.954466 
L 521.307947 -62.45019 
L 522.252131 -63.381196 
L 523.196316 -62.899768 
L 524.1405 -59.293174 
L 525.084684 -60.522853 
L 526.028868 -62.116863 
L 526.973052 -63.208534 
L 527.917236 -62.306244 
L 528.86142 -61.73135 
L 529.805604 -58.534471 
L 530.749788 -60.106495 
L 531.693972 -61.573905 
L 532.638156 -63.900719 
L 533.58234 -60.654512 
L 534.526524 -59.237012 
L 535.470708 -56.084578 
L 535.470708 -85.156871 
L 535.470708 -85.156871 
L 534.526524 -87.013362 
L 533.58234 -84.807148 
L 532.638156 -86.809312 
L 531.693972 -88.220278 
L 530.749788 -92.438474 
L 529.805604 -91.258922 
L 528.86142 -89.034934 
L 527.917236 -88.379957 
L 526.973052 -85.834733 
L 526.028868 -85.573392 
L 525.084684 -87.935684 
L 524.1405 -88.907828 
L 523.196316 -89.366699 
L 522.252131 -88.079734 
L 521.307947 -89.167419 
L 520.363763 -87.899498 
L 519.419579 -87.764088 
L 518.475395 -86.08272 
L 517.531211 -89.49967 
L 516.587027 -90.231905 
L 515.642843 -92.160973 
L 514.698659 -93.147609 
L 513.754475 -89.674281 
L 512.810291 -88.97048 
L 511.866107 -88.019152 
L 510.921923 -87.496406 
L 509.977739 -88.28325 
L 509.033555 -86.892266 
L 508.089371 -88.047384 
L 507.145187 -88.420152 
L 506.201003 -90.910007 
L 505.256819 -89.593934 
L 504.312635 -86.925181 
L 503.368451 -89.55716 
L 502.424267 -89.369385 
L 501.480083 -90.143734 
L 500.535899 -93.043258 
L 499.591715 -91.523806 
L 498.647531 -90.162611 
L 497.703347 -89.826677 
L 496.759163 -89.981646 
L 495.814979 -87.022263 
L 494.870795 -84.972616 
L 493.926611 -87.356543 
L 492.982427 -89.01719 
L 492.038243 -90.403071 
L 491.094059 -90.042301 
L 490.149875 -86.318314 
L 489.205691 -88.902755 
L 488.261507 -90.468153 
L 487.317323 -92.897055 
L 486.373139 -91.273141 
L 485.428955 -92.34525 
L 484.484771 -88.840966 
L 483.540587 -87.990129 
L 482.596403 -85.90282 
L 481.652219 -85.201268 
L 480.708035 -85.15753 
L 479.763851 -89.885837 
L 478.819667 -90.127057 
L 477.875483 -86.942784 
L 476.931299 -85.62142 
L 475.987115 -88.650479 
L 475.042931 -91.714583 
L 474.098747 -93.216265 
L 473.154563 -94.765189 
L 472.210379 -94.965006 
L 471.266195 -92.306258 
L 470.322011 -89.048509 
L 469.377827 -88.852397 
L 468.433643 -88.638763 
L 467.489459 -87.598543 
L 466.545275 -87.039755 
L 465.601091 -91.535357 
L 464.656907 -92.955599 
L 463.712723 -94.200237 
L 462.768539 -94.205541 
L 461.824355 -91.962198 
L 460.880171 -90.167836 
L 459.935987 -87.114807 
L 458.991802 -89.230205 
L 458.047618 -91.860479 
L 457.103434 -94.456828 
L 456.15925 -93.184148 
L 455.215066 -93.190854 
L 454.270882 -89.138373 
L 453.326698 -92.178961 
L 452.382514 -90.336075 
L 451.43833 -90.945687 
L 450.494146 -89.054981 
L 449.549962 -87.094212 
L 448.605778 -89.854734 
L 447.661594 -90.59178 
L 446.71741 -88.992281 
L 445.773226 -88.63475 
L 444.829042 -85.573745 
L 443.884858 -87.153392 
L 442.940674 -85.77785 
L 441.99649 -88.820185 
L 441.052306 -90.349677 
L 440.108122 -90.002018 
L 439.163938 -89.047752 
L 438.219754 -88.988002 
L 437.27557 -87.149755 
L 436.331386 -83.767305 
L 435.387202 -83.249531 
L 434.443018 -87.587358 
L 433.498834 -91.332379 
L 432.55465 -93.423992 
L 431.610466 -92.75136 
L 430.666282 -92.138188 
L 429.722098 -93.301493 
L 428.777914 -88.754475 
L 427.83373 -86.389863 
L 426.889546 -88.26782 
L 425.945362 -89.512943 
L 425.001178 -92.724971 
L 424.056994 -93.372289 
L 423.11281 -93.496498 
L 422.168626 -92.485174 
L 421.224442 -91.38192 
L 420.280258 -88.392153 
L 419.336074 -89.955732 
L 418.39189 -93.737009 
L 417.447706 -94.175594 
L 416.503522 -92.609968 
L 415.559338 -88.238472 
L 414.615154 -89.672489 
L 413.67097 -89.061991 
L 412.726786 -87.382582 
L 411.782602 -89.714017 
L 410.838418 -87.260722 
L 409.894234 -88.799704 
L 408.95005 -91.07739 
L 408.005866 -91.045788 
L 407.061682 -89.963007 
L 406.117498 -88.83836 
L 405.173314 -91.08893 
L 404.22913 -90.445197 
L 403.284946 -90.210004 
L 402.340762 -89.094205 
L 401.396578 -90.643328 
L 400.452394 -94.721246 
L 399.50821 -92.005362 
L 398.564026 -91.316374 
L 397.619842 -89.463685 
L 396.675657 -91.361294 
L 395.731473 -88.86036 
L 394.787289 -88.819244 
L 393.843105 -89.658997 
L 392.898921 -92.118976 
L 391.954737 -93.230263 
L 391.010553 -91.005008 
L 390.066369 -87.647287 
L 389.122185 -88.283186 
L 388.178001 -92.878381 
L 387.233817 -89.663784 
L 386.289633 -88.919652 
L 385.345449 -90.659525 
L 384.401265 -92.161236 
L 383.457081 -91.341976 
L 382.512897 -88.818508 
L 381.568713 -88.772883 
L 380.624529 -88.548432 
L 379.680345 -90.049232 
L 378.736161 -87.562766 
L 377.791977 -89.488017 
L 376.847793 -88.927175 
L 375.903609 -92.909218 
L 374.959425 -94.241881 
L 374.015241 -93.862862 
L 373.071057 -87.174175 
L 372.126873 -91.670197 
L 371.182689 -94.596326 
L 370.238505 -98.251931 
L 369.294321 -92.787087 
L 368.350137 -93.033551 
L 367.405953 -95.014523 
L 366.461769 -93.768547 
L 365.517585 -90.498555 
L 364.573401 -88.794146 
L 363.629217 -89.919083 
L 362.685033 -88.96537 
L 361.740849 -90.140202 
L 360.796665 -90.722349 
L 359.852481 -92.690251 
L 358.908297 -92.599997 
L 357.964113 -90.022978 
L 357.019929 -89.639414 
L 356.075745 -89.162741 
L 355.131561 -89.284577 
L 354.187377 -89.224057 
L 353.243193 -88.83122 
L 352.299009 -88.74381 
L 351.354825 -88.273688 
L 350.410641 -88.044145 
L 349.466457 -87.793423 
L 348.522273 -90.320353 
L 347.578089 -89.69107 
L 346.633905 -91.263459 
L 345.689721 -90.295248 
L 344.745537 -93.373553 
L 343.801353 -92.537777 
L 342.857169 -90.199035 
L 341.912985 -87.475332 
L 340.968801 -87.601751 
L 340.024617 -88.222189 
L 339.080433 -88.576963 
L 338.136249 -86.831184 
L 337.192065 -85.399444 
L 336.247881 -83.866052 
L 335.303697 -88.068013 
L 334.359513 -91.25522 
L 333.415328 -92.127691 
L 332.471144 -89.110333 
L 331.52696 -93.640202 
L 330.582776 -94.004025 
L 329.638592 -95.637882 
L 328.694408 -91.24293 
L 327.750224 -91.674711 
L 326.80604 -89.889726 
L 325.861856 -93.542009 
L 324.917672 -93.52333 
L 323.973488 -90.300375 
L 323.029304 -87.301722 
L 322.08512 -87.138528 
L 321.140936 -86.194341 
L 320.196752 -85.489478 
L 319.252568 -86.150501 
L 318.308384 -90.077611 
L 317.3642 -89.83882 
L 316.420016 -89.622751 
L 315.475832 -88.331762 
L 314.531648 -90.496134 
L 313.587464 -92.564342 
L 312.64328 -90.338575 
L 311.699096 -88.82044 
L 310.754912 -90.189759 
L 309.810728 -88.281633 
L 308.866544 -90.811562 
L 307.92236 -87.572414 
L 306.978176 -86.803341 
L 306.033992 -86.453444 
L 305.089808 -90.372021 
L 304.145624 -93.99748 
L 303.20144 -97.233894 
L 302.257256 -94.589022 
L 301.313072 -93.064123 
L 300.368888 -91.322104 
L 299.424704 -91.557266 
L 298.48052 -92.561814 
L 297.536336 -90.695497 
L 296.592152 -90.994613 
L 295.647968 -92.2233 
L 294.703784 -91.434565 
L 293.7596 -90.384318 
L 292.815416 -86.842035 
L 291.871232 -86.9901 
L 290.927048 -88.069724 
L 289.982864 -90.166437 
L 289.03868 -88.445528 
L 288.094496 -86.089127 
L 287.150312 -84.029968 
L 286.206128 -84.089617 
L 285.261944 -84.565135 
L 284.31776 -88.60049 
L 283.373576 -88.368418 
L 282.429392 -86.773372 
L 281.485208 -84.536505 
L 280.541024 -83.619757 
L 279.59684 -82.84598 
L 278.652656 -83.998582 
L 277.708472 -84.485288 
L 276.764288 -88.553822 
L 275.820104 -91.581962 
L 274.87592 -94.216383 
L 273.931736 -89.382612 
L 272.987552 -88.791246 
L 272.043368 -84.651637 
L 271.099184 -87.205849 
L 270.154999 -88.029877 
L 269.210815 -89.664737 
L 268.266631 -90.969044 
L 267.322447 -87.557689 
L 266.378263 -87.831232 
L 265.434079 -84.203544 
L 264.489895 -85.732834 
L 263.545711 -90.961874 
L 262.601527 -96.449709 
L 261.657343 -94.859376 
L 260.713159 -94.326545 
L 259.768975 -90.544843 
L 258.824791 -87.63846 
L 257.880607 -88.390141 
L 256.936423 -89.3485 
L 255.992239 -90.897588 
L 255.048055 -89.36978 
L 254.103871 -90.427646 
L 253.159687 -91.123051 
L 252.215503 -90.749771 
L 251.271319 -89.346583 
L 250.327135 -92.957962 
L 249.382951 -91.295234 
L 248.438767 -89.861433 
L 247.494583 -88.004408 
L 246.550399 -87.486326 
L 245.606215 -90.484899 
L 244.662031 -89.912536 
L 243.717847 -89.002209 
L 242.773663 -90.368687 
L 241.829479 -89.378599 
L 240.885295 -92.124714 
L 239.941111 -90.359646 
L 238.996927 -92.421902 
L 238.052743 -93.924146 
L 237.108559 -93.168149 
L 236.164375 -92.259108 
L 235.220191 -91.382665 
L 234.276007 -91.928441 
L 233.331823 -90.082592 
L 232.387639 -88.678139 
L 231.443455 -86.885988 
L 230.499271 -89.133606 
L 229.555087 -91.683922 
L 228.610903 -90.005283 
L 227.666719 -90.288335 
L 226.722535 -86.628161 
L 225.778351 -89.932238 
L 224.834167 -89.177249 
L 223.889983 -91.628733 
L 222.945799 -90.054408 
L 222.001615 -90.430836 
L 221.057431 -92.902089 
L 220.113247 -100.724324 
L 219.169063 -101.044464 
L 218.224879 -101.605328 
L 217.280695 -91.603389 
L 216.336511 -91.364301 
L 215.392327 -90.147036 
L 214.448143 -96.405865 
L 213.503959 -94.716333 
L 212.559775 -90.358073 
L 211.615591 -86.712212 
L 210.671407 -88.028202 
L 209.727223 -91.255205 
L 208.783039 -92.954392 
L 207.838855 -94.88913 
L 206.89467 -93.016708 
L 205.950486 -91.554619 
L 205.006302 -91.909091 
L 204.062118 -94.30051 
L 203.117934 -92.122516 
L 202.17375 -88.273547 
L 201.229566 -90.173162 
L 200.285382 -89.531323 
L 199.341198 -91.913476 
L 198.397014 -92.138873 
L 197.45283 -89.824019 
L 196.508646 -85.961741 
L 195.564462 -84.39399 
L 194.620278 -88.572804 
L 193.676094 -86.961443 
L 192.73191 -86.126194 
L 191.787726 -84.436386 
L 190.843542 -84.051773 
L 189.899358 -84.862842 
L 188.955174 -84.526402 
L 188.01099 -86.217906 
L 187.066806 -90.55781 
L 186.122622 -90.2504 
L 185.178438 -90.635568 
L 184.234254 -84.113616 
L 183.29007 -87.07844 
L 182.345886 -85.77874 
L 181.401702 -89.337997 
L 180.457518 -91.107893 
L 179.513334 -97.881297 
L 178.56915 -94.693119 
L 177.624966 -89.750022 
L 176.680782 -85.667738 
L 175.736598 -86.794092 
L 174.792414 -86.068248 
L 173.84823 -84.358055 
L 172.904046 -84.318242 
L 171.959862 -86.46993 
L 171.015678 -84.90329 
L 170.071494 -86.557039 
L 169.12731 -86.588472 
L 168.183126 -86.324647 
L 167.238942 -88.729052 
L 166.294758 -86.314886 
L 165.350574 -88.32841 
L 164.40639 -85.218503 
L 163.462206 -91.260506 
L 162.518022 -91.643068 
L 161.573838 -90.354763 
L 160.629654 -90.560538 
L 159.68547 -89.324691 
L 158.741286 -89.34698 
L 157.797102 -89.990093 
L 156.852918 -89.595969 
L 155.908734 -89.976504 
L 154.96455 -87.831044 
L 154.020366 -88.308442 
L 153.076182 -86.37182 
L 152.131998 -86.378857 
L 151.187814 -94.190784 
L 150.24363 -99.529383 
L 149.299446 -99.990061 
L 148.355262 -91.46367 
L 147.411078 -84.789856 
L 146.466894 -83.677895 
L 145.52271 -84.709698 
L 144.578526 -88.629718 
L 143.634341 -90.700649 
L 142.690157 -93.434071 
L 141.745973 -92.066566 
L 140.801789 -89.036143 
L 139.857605 -85.992151 
L 138.913421 -86.069373 
L 137.969237 -87.377386 
L 137.025053 -90.34951 
L 136.080869 -95.38559 
L 135.136685 -95.172888 
L 134.192501 -91.080137 
L 133.248317 -91.074224 
L 132.304133 -91.526622 
L 131.359949 -92.4174 
L 130.415765 -92.770203 
L 129.471581 -92.470902 
L 128.527397 -88.980479 
L 127.583213 -90.532935 
L 126.639029 -86.976816 
L 125.694845 -90.531937 
L 124.750661 -90.797831 
L 123.806477 -90.903325 
L 122.862293 -88.066802 
L 121.918109 -90.948709 
L 120.973925 -92.791248 
L 120.029741 -93.525512 
L 119.085557 -90.967474 
L 118.141373 -91.789709 
L 117.197189 -92.14974 
L 116.253005 -89.210591 
L 115.308821 -89.348854 
L 114.364637 -90.325235 
L 113.420453 -90.488364 
L 112.476269 -92.356505 
L 111.532085 -88.210907 
L 110.587901 -87.782322 
L 109.643717 -85.700189 
L 108.699533 -84.248636 
L 107.755349 -86.513875 
L 106.811165 -89.13792 
L 105.866981 -92.971963 
L 104.922797 -89.510395 
L 103.978613 -88.585404 
L 103.034429 -88.262486 
L 102.090245 -92.569633 
L 101.146061 -90.906378 
L 100.201877 -89.427158 
L 99.257693 -88.145723 
L 98.313509 -89.635999 
L 97.369325 -92.558292 
L 96.425141 -92.658878 
L 95.480957 -90.865003 
L 94.536773 -86.038595 
L 93.592589 -89.920651 
L 92.648405 -88.172499 
L 91.704221 -90.396772 
L 90.760037 -87.616307 
L 89.815853 -88.910645 
L 88.871669 -90.755141 
L 87.927485 -90.540828 
L 86.983301 -93.330458 
L 86.039117 -94.771435 
z
" style="stroke: #008000; stroke-opacity: 0.1"/>
    </defs>
    <g clip-path="url(#p58e10699f1)">
     <use xlink:href="#m4d0e74da9a" x="0" y="144" style="fill: #008000; fill-opacity: 0.1; stroke: #008000; stroke-opacity: 0.1"/>
    </g>
   </g>
   <g id="matplotlib.axis_1">
    <g id="xtick_1">
     <g id="line2d_1"/>
     <g id="text_1">
      <!-- 0 -->
      <g transform="translate(81.917355 113.038438) scale(0.1 -0.1)">
       <defs>
        <path id="DejaVuSans-30" d="M 2034 4250 
Q 1547 4250 1301 3770 
Q 1056 3291 1056 2328 
Q 1056 1369 1301 889 
Q 1547 409 2034 409 
Q 2525 409 2770 889 
Q 3016 1369 3016 2328 
Q 3016 3291 2770 3770 
Q 2525 4250 2034 4250 
z
M 2034 4750 
Q 2819 4750 3233 4129 
Q 3647 3509 3647 2328 
Q 3647 1150 3233 529 
Q 2819 -91 2034 -91 
Q 1250 -91 836 529 
Q 422 1150 422 2328 
Q 422 3509 836 4129 
Q 1250 4750 2034 4750 
z
" transform="scale(0.015625)"/>
       </defs>
       <use xlink:href="#DejaVuSans-30"/>
      </g>
     </g>
    </g>
    <g id="xtick_2">
     <g id="line2d_2"/>
     <g id="text_2">
      <!-- 100 -->
      <g transform="translate(169.606 113.038438) scale(0.1 -0.1)">
       <defs>
        <path id="DejaVuSans-31" d="M 794 531 
L 1825 531 
L 1825 4091 
L 703 3866 
L 703 4441 
L 1819 4666 
L 2450 4666 
L 2450 531 
L 3481 531 
L 3481 0 
L 794 0 
L 794 531 
z
" transform="scale(0.015625)"/>
       </defs>
       <use xlink:href="#DejaVuSans-31"/>
       <use xlink:href="#DejaVuSans-30" x="63.623047"/>
       <use xlink:href="#DejaVuSans-30" x="127.246094"/>
      </g>
     </g>
    </g>
    <g id="xtick_3">
     <g id="line2d_3"/>
     <g id="text_3">
      <!-- 200 -->
      <g transform="translate(263.657145 113.038438) scale(0.1 -0.1)">
       <defs>
        <path id="DejaVuSans-32" d="M 1228 531 
L 3431 531 
L 3431 0 
L 469 0 
L 469 531 
Q 828 903 1448 1529 
Q 2069 2156 2228 2338 
Q 2531 2678 2651 2914 
Q 2772 3150 2772 3378 
Q 2772 3750 2511 3984 
Q 2250 4219 1831 4219 
Q 1534 4219 1204 4116 
Q 875 4013 500 3803 
L 500 4441 
Q 881 4594 1212 4672 
Q 1544 4750 1819 4750 
Q 2544 4750 2975 4387 
Q 3406 4025 3406 3419 
Q 3406 3131 3298 2873 
Q 3191 2616 2906 2266 
Q 2828 2175 2409 1742 
Q 1991 1309 1228 531 
z
" transform="scale(0.015625)"/>
       </defs>
       <use xlink:href="#DejaVuSans-32"/>
       <use xlink:href="#DejaVuSans-30" x="63.623047"/>
       <use xlink:href="#DejaVuSans-30" x="127.246094"/>
      </g>
     </g>
    </g>
    <g id="xtick_4">
     <g id="line2d_4"/>
     <g id="text_4">
      <!-- 300 -->
      <g transform="translate(357.70829 113.038438) scale(0.1 -0.1)">
       <defs>
        <path id="DejaVuSans-33" d="M 2597 2516 
Q 3050 2419 3304 2112 
Q 3559 1806 3559 1356 
Q 3559 666 3084 287 
Q 2609 -91 1734 -91 
Q 1441 -91 1130 -33 
Q 819 25 488 141 
L 488 750 
Q 750 597 1062 519 
Q 1375 441 1716 441 
Q 2309 441 2620 675 
Q 2931 909 2931 1356 
Q 2931 1769 2642 2001 
Q 2353 2234 1838 2234 
L 1294 2234 
L 1294 2753 
L 1863 2753 
Q 2328 2753 2575 2939 
Q 2822 3125 2822 3475 
Q 2822 3834 2567 4026 
Q 2313 4219 1838 4219 
Q 1578 4219 1281 4162 
Q 984 4106 628 3988 
L 628 4550 
Q 988 4650 1302 4700 
Q 1616 4750 1894 4750 
Q 2613 4750 3031 4423 
Q 3450 4097 3450 3541 
Q 3450 3153 3228 2886 
Q 3006 2619 2597 2516 
z
" transform="scale(0.015625)"/>
       </defs>
       <use xlink:href="#DejaVuSans-33"/>
       <use xlink:href="#DejaVuSans-30" x="63.623047"/>
       <use xlink:href="#DejaVuSans-30" x="127.246094"/>
      </g>
     </g>
    </g>
    <g id="xtick_5">
     <g id="line2d_5"/>
     <g id="text_5">
      <!-- 400 -->
      <g transform="translate(451.759434 113.038438) scale(0.1 -0.1)">
       <defs>
        <path id="DejaVuSans-34" d="M 2419 4116 
L 825 1625 
L 2419 1625 
L 2419 4116 
z
M 2253 4666 
L 3047 4666 
L 3047 1625 
L 3713 1625 
L 3713 1100 
L 3047 1100 
L 3047 0 
L 2419 0 
L 2419 1100 
L 313 1100 
L 313 1709 
L 2253 4666 
z
" transform="scale(0.015625)"/>
       </defs>
       <use xlink:href="#DejaVuSans-34"/>
       <use xlink:href="#DejaVuSans-30" x="63.623047"/>
       <use xlink:href="#DejaVuSans-30" x="127.246094"/>
      </g>
     </g>
    </g>
    <g id="xtick_6">
     <g id="line2d_6"/>
     <g id="text_6">
      <!-- 500 -->
      <g transform="translate(545.810579 113.038438) scale(0.1 -0.1)">
       <defs>
        <path id="DejaVuSans-35" d="M 691 4666 
L 3169 4666 
L 3169 4134 
L 1269 4134 
L 1269 2991 
Q 1406 3038 1543 3061 
Q 1681 3084 1819 3084 
Q 2600 3084 3056 2656 
Q 3513 2228 3513 1497 
Q 3513 744 3044 326 
Q 2575 -91 1722 -91 
Q 1428 -91 1123 -41 
Q 819 9 494 109 
L 494 744 
Q 775 591 1075 516 
Q 1375 441 1709 441 
Q 2250 441 2565 725 
Q 2881 1009 2881 1497 
Q 2881 1984 2565 2268 
Q 2250 2553 1709 2553 
Q 1456 2553 1204 2497 
Q 953 2441 691 2322 
L 691 4666 
z
" transform="scale(0.015625)"/>
       </defs>
       <use xlink:href="#DejaVuSans-35"/>
       <use xlink:href="#DejaVuSans-30" x="63.623047"/>
       <use xlink:href="#DejaVuSans-30" x="127.246094"/>
      </g>
     </g>
    </g>
    <g id="text_7">
     <!-- time (s) across film -->
     <g transform="translate(243.080281 129.755937) scale(0.14 -0.14)">
      <defs>
       <path id="DejaVuSans-74" d="M 1172 4494 
L 1172 3500 
L 2356 3500 
L 2356 3053 
L 1172 3053 
L 1172 1153 
Q 1172 725 1289 603 
Q 1406 481 1766 481 
L 2356 481 
L 2356 0 
L 1766 0 
Q 1100 0 847 248 
Q 594 497 594 1153 
L 594 3053 
L 172 3053 
L 172 3500 
L 594 3500 
L 594 4494 
L 1172 4494 
z
" transform="scale(0.015625)"/>
       <path id="DejaVuSans-69" d="M 603 3500 
L 1178 3500 
L 1178 0 
L 603 0 
L 603 3500 
z
M 603 4863 
L 1178 4863 
L 1178 4134 
L 603 4134 
L 603 4863 
z
" transform="scale(0.015625)"/>
       <path id="DejaVuSans-6d" d="M 3328 2828 
Q 3544 3216 3844 3400 
Q 4144 3584 4550 3584 
Q 5097 3584 5394 3201 
Q 5691 2819 5691 2113 
L 5691 0 
L 5113 0 
L 5113 2094 
Q 5113 2597 4934 2840 
Q 4756 3084 4391 3084 
Q 3944 3084 3684 2787 
Q 3425 2491 3425 1978 
L 3425 0 
L 2847 0 
L 2847 2094 
Q 2847 2600 2669 2842 
Q 2491 3084 2119 3084 
Q 1678 3084 1418 2786 
Q 1159 2488 1159 1978 
L 1159 0 
L 581 0 
L 581 3500 
L 1159 3500 
L 1159 2956 
Q 1356 3278 1631 3431 
Q 1906 3584 2284 3584 
Q 2666 3584 2933 3390 
Q 3200 3197 3328 2828 
z
" transform="scale(0.015625)"/>
       <path id="DejaVuSans-65" d="M 3597 1894 
L 3597 1613 
L 953 1613 
Q 991 1019 1311 708 
Q 1631 397 2203 397 
Q 2534 397 2845 478 
Q 3156 559 3463 722 
L 3463 178 
Q 3153 47 2828 -22 
Q 2503 -91 2169 -91 
Q 1331 -91 842 396 
Q 353 884 353 1716 
Q 353 2575 817 3079 
Q 1281 3584 2069 3584 
Q 2775 3584 3186 3129 
Q 3597 2675 3597 1894 
z
M 3022 2063 
Q 3016 2534 2758 2815 
Q 2500 3097 2075 3097 
Q 1594 3097 1305 2825 
Q 1016 2553 972 2059 
L 3022 2063 
z
" transform="scale(0.015625)"/>
       <path id="DejaVuSans-20" transform="scale(0.015625)"/>
       <path id="DejaVuSans-28" d="M 1984 4856 
Q 1566 4138 1362 3434 
Q 1159 2731 1159 2009 
Q 1159 1288 1364 580 
Q 1569 -128 1984 -844 
L 1484 -844 
Q 1016 -109 783 600 
Q 550 1309 550 2009 
Q 550 2706 781 3412 
Q 1013 4119 1484 4856 
L 1984 4856 
z
" transform="scale(0.015625)"/>
       <path id="DejaVuSans-73" d="M 2834 3397 
L 2834 2853 
Q 2591 2978 2328 3040 
Q 2066 3103 1784 3103 
Q 1356 3103 1142 2972 
Q 928 2841 928 2578 
Q 928 2378 1081 2264 
Q 1234 2150 1697 2047 
L 1894 2003 
Q 2506 1872 2764 1633 
Q 3022 1394 3022 966 
Q 3022 478 2636 193 
Q 2250 -91 1575 -91 
Q 1294 -91 989 -36 
Q 684 19 347 128 
L 347 722 
Q 666 556 975 473 
Q 1284 391 1588 391 
Q 1994 391 2212 530 
Q 2431 669 2431 922 
Q 2431 1156 2273 1281 
Q 2116 1406 1581 1522 
L 1381 1569 
Q 847 1681 609 1914 
Q 372 2147 372 2553 
Q 372 3047 722 3315 
Q 1072 3584 1716 3584 
Q 2034 3584 2315 3537 
Q 2597 3491 2834 3397 
z
" transform="scale(0.015625)"/>
       <path id="DejaVuSans-29" d="M 513 4856 
L 1013 4856 
Q 1481 4119 1714 3412 
Q 1947 2706 1947 2009 
Q 1947 1309 1714 600 
Q 1481 -109 1013 -844 
L 513 -844 
Q 928 -128 1133 580 
Q 1338 1288 1338 2009 
Q 1338 2731 1133 3434 
Q 928 4138 513 4856 
z
" transform="scale(0.015625)"/>
       <path id="DejaVuSans-61" d="M 2194 1759 
Q 1497 1759 1228 1600 
Q 959 1441 959 1056 
Q 959 750 1161 570 
Q 1363 391 1709 391 
Q 2188 391 2477 730 
Q 2766 1069 2766 1631 
L 2766 1759 
L 2194 1759 
z
M 3341 1997 
L 3341 0 
L 2766 0 
L 2766 531 
Q 2569 213 2275 61 
Q 1981 -91 1556 -91 
Q 1019 -91 701 211 
Q 384 513 384 1019 
Q 384 1609 779 1909 
Q 1175 2209 1959 2209 
L 2766 2209 
L 2766 2266 
Q 2766 2663 2505 2880 
Q 2244 3097 1772 3097 
Q 1472 3097 1187 3025 
Q 903 2953 641 2809 
L 641 3341 
Q 956 3463 1253 3523 
Q 1550 3584 1831 3584 
Q 2591 3584 2966 3190 
Q 3341 2797 3341 1997 
z
" transform="scale(0.015625)"/>
       <path id="DejaVuSans-63" d="M 3122 3366 
L 3122 2828 
Q 2878 2963 2633 3030 
Q 2388 3097 2138 3097 
Q 1578 3097 1268 2742 
Q 959 2388 959 1747 
Q 959 1106 1268 751 
Q 1578 397 2138 397 
Q 2388 397 2633 464 
Q 2878 531 3122 666 
L 3122 134 
Q 2881 22 2623 -34 
Q 2366 -91 2075 -91 
Q 1284 -91 818 406 
Q 353 903 353 1747 
Q 353 2603 823 3093 
Q 1294 3584 2113 3584 
Q 2378 3584 2631 3529 
Q 2884 3475 3122 3366 
z
" transform="scale(0.015625)"/>
       <path id="DejaVuSans-72" d="M 2631 2963 
Q 2534 3019 2420 3045 
Q 2306 3072 2169 3072 
Q 1681 3072 1420 2755 
Q 1159 2438 1159 1844 
L 1159 0 
L 581 0 
L 581 3500 
L 1159 3500 
L 1159 2956 
Q 1341 3275 1631 3429 
Q 1922 3584 2338 3584 
Q 2397 3584 2469 3576 
Q 2541 3569 2628 3553 
L 2631 2963 
z
" transform="scale(0.015625)"/>
       <path id="DejaVuSans-6f" d="M 1959 3097 
Q 1497 3097 1228 2736 
Q 959 2375 959 1747 
Q 959 1119 1226 758 
Q 1494 397 1959 397 
Q 2419 397 2687 759 
Q 2956 1122 2956 1747 
Q 2956 2369 2687 2733 
Q 2419 3097 1959 3097 
z
M 1959 3584 
Q 2709 3584 3137 3096 
Q 3566 2609 3566 1747 
Q 3566 888 3137 398 
Q 2709 -91 1959 -91 
Q 1206 -91 779 398 
Q 353 888 353 1747 
Q 353 2609 779 3096 
Q 1206 3584 1959 3584 
z
" transform="scale(0.015625)"/>
       <path id="DejaVuSans-66" d="M 2375 4863 
L 2375 4384 
L 1825 4384 
Q 1516 4384 1395 4259 
Q 1275 4134 1275 3809 
L 1275 3500 
L 2222 3500 
L 2222 3053 
L 1275 3053 
L 1275 0 
L 697 0 
L 697 3053 
L 147 3053 
L 147 3500 
L 697 3500 
L 697 3744 
Q 697 4328 969 4595 
Q 1241 4863 1831 4863 
L 2375 4863 
z
" transform="scale(0.015625)"/>
       <path id="DejaVuSans-6c" d="M 603 4863 
L 1178 4863 
L 1178 0 
L 603 0 
L 603 4863 
z
" transform="scale(0.015625)"/>
      </defs>
      <use xlink:href="#DejaVuSans-74"/>
      <use xlink:href="#DejaVuSans-69" x="39.208984"/>
      <use xlink:href="#DejaVuSans-6d" x="66.992188"/>
      <use xlink:href="#DejaVuSans-65" x="164.404297"/>
      <use xlink:href="#DejaVuSans-20" x="225.927734"/>
      <use xlink:href="#DejaVuSans-28" x="257.714844"/>
      <use xlink:href="#DejaVuSans-73" x="296.728516"/>
      <use xlink:href="#DejaVuSans-29" x="348.828125"/>
      <use xlink:href="#DejaVuSans-20" x="387.841797"/>
      <use xlink:href="#DejaVuSans-61" x="419.628906"/>
      <use xlink:href="#DejaVuSans-63" x="480.908203"/>
      <use xlink:href="#DejaVuSans-72" x="535.888672"/>
      <use xlink:href="#DejaVuSans-6f" x="574.751953"/>
      <use xlink:href="#DejaVuSans-73" x="635.933594"/>
      <use xlink:href="#DejaVuSans-73" x="688.033203"/>
      <use xlink:href="#DejaVuSans-20" x="740.132812"/>
      <use xlink:href="#DejaVuSans-66" x="771.919922"/>
      <use xlink:href="#DejaVuSans-69" x="807.125"/>
      <use xlink:href="#DejaVuSans-6c" x="834.908203"/>
      <use xlink:href="#DejaVuSans-6d" x="862.691406"/>
     </g>
    </g>
   </g>
   <g id="matplotlib.axis_2">
    <g id="ytick_1">
     <g id="line2d_7"/>
     <g id="text_8">
      <!-- −2 -->
      <g transform="translate(44.337813 98.881219) scale(0.1 -0.1)">
       <defs>
        <path id="DejaVuSans-2212" d="M 678 2272 
L 4684 2272 
L 4684 1741 
L 678 1741 
L 678 2272 
z
" transform="scale(0.015625)"/>
       </defs>
       <use xlink:href="#DejaVuSans-2212"/>
       <use xlink:href="#DejaVuSans-32" x="83.789062"/>
      </g>
     </g>
    </g>
    <g id="ytick_2">
     <g id="line2d_8"/>
     <g id="text_9">
      <!-- 0 -->
      <g transform="translate(52.7175 71.449219) scale(0.1 -0.1)">
       <use xlink:href="#DejaVuSans-30"/>
      </g>
     </g>
    </g>
    <g id="ytick_3">
     <g id="line2d_9"/>
     <g id="text_10">
      <!-- 2 -->
      <g transform="translate(52.7175 44.017219) scale(0.1 -0.1)">
       <use xlink:href="#DejaVuSans-32"/>
      </g>
     </g>
    </g>
    <g id="text_11">
     <!-- normalized FR -->
     <g transform="translate(21.749312 117.661719) rotate(-90) scale(0.14 -0.14)">
      <defs>
       <path id="DejaVuSans-6e" d="M 3513 2113 
L 3513 0 
L 2938 0 
L 2938 2094 
Q 2938 2591 2744 2837 
Q 2550 3084 2163 3084 
Q 1697 3084 1428 2787 
Q 1159 2491 1159 1978 
L 1159 0 
L 581 0 
L 581 3500 
L 1159 3500 
L 1159 2956 
Q 1366 3272 1645 3428 
Q 1925 3584 2291 3584 
Q 2894 3584 3203 3211 
Q 3513 2838 3513 2113 
z
" transform="scale(0.015625)"/>
       <path id="DejaVuSans-7a" d="M 353 3500 
L 3084 3500 
L 3084 2975 
L 922 459 
L 3084 459 
L 3084 0 
L 275 0 
L 275 525 
L 2438 3041 
L 353 3041 
L 353 3500 
z
" transform="scale(0.015625)"/>
       <path id="DejaVuSans-64" d="M 2906 2969 
L 2906 4863 
L 3481 4863 
L 3481 0 
L 2906 0 
L 2906 525 
Q 2725 213 2448 61 
Q 2172 -91 1784 -91 
Q 1150 -91 751 415 
Q 353 922 353 1747 
Q 353 2572 751 3078 
Q 1150 3584 1784 3584 
Q 2172 3584 2448 3432 
Q 2725 3281 2906 2969 
z
M 947 1747 
Q 947 1113 1208 752 
Q 1469 391 1925 391 
Q 2381 391 2643 752 
Q 2906 1113 2906 1747 
Q 2906 2381 2643 2742 
Q 2381 3103 1925 3103 
Q 1469 3103 1208 2742 
Q 947 2381 947 1747 
z
" transform="scale(0.015625)"/>
       <path id="DejaVuSans-46" d="M 628 4666 
L 3309 4666 
L 3309 4134 
L 1259 4134 
L 1259 2759 
L 3109 2759 
L 3109 2228 
L 1259 2228 
L 1259 0 
L 628 0 
L 628 4666 
z
" transform="scale(0.015625)"/>
       <path id="DejaVuSans-52" d="M 2841 2188 
Q 3044 2119 3236 1894 
Q 3428 1669 3622 1275 
L 4263 0 
L 3584 0 
L 2988 1197 
Q 2756 1666 2539 1819 
Q 2322 1972 1947 1972 
L 1259 1972 
L 1259 0 
L 628 0 
L 628 4666 
L 2053 4666 
Q 2853 4666 3247 4331 
Q 3641 3997 3641 3322 
Q 3641 2881 3436 2590 
Q 3231 2300 2841 2188 
z
M 1259 4147 
L 1259 2491 
L 2053 2491 
Q 2509 2491 2742 2702 
Q 2975 2913 2975 3322 
Q 2975 3731 2742 3939 
Q 2509 4147 2053 4147 
L 1259 4147 
z
" transform="scale(0.015625)"/>
      </defs>
      <use xlink:href="#DejaVuSans-6e"/>
      <use xlink:href="#DejaVuSans-6f" x="63.378906"/>
      <use xlink:href="#DejaVuSans-72" x="124.560547"/>
      <use xlink:href="#DejaVuSans-6d" x="163.923828"/>
      <use xlink:href="#DejaVuSans-61" x="261.335938"/>
      <use xlink:href="#DejaVuSans-6c" x="322.615234"/>
      <use xlink:href="#DejaVuSans-69" x="350.398438"/>
      <use xlink:href="#DejaVuSans-7a" x="378.181641"/>
      <use xlink:href="#DejaVuSans-65" x="430.671875"/>
      <use xlink:href="#DejaVuSans-64" x="492.195312"/>
      <use xlink:href="#DejaVuSans-20" x="555.671875"/>
      <use xlink:href="#DejaVuSans-46" x="587.458984"/>
      <use xlink:href="#DejaVuSans-52" x="644.978516"/>
     </g>
     <!-- (Hz) -->
     <g transform="translate(37.42625 82.050313) rotate(-90) scale(0.14 -0.14)">
      <defs>
       <path id="DejaVuSans-48" d="M 628 4666 
L 1259 4666 
L 1259 2753 
L 3553 2753 
L 3553 4666 
L 4184 4666 
L 4184 0 
L 3553 0 
L 3553 2222 
L 1259 2222 
L 1259 0 
L 628 0 
L 628 4666 
z
" transform="scale(0.015625)"/>
      </defs>
      <use xlink:href="#DejaVuSans-28"/>
      <use xlink:href="#DejaVuSans-48" x="39.013672"/>
      <use xlink:href="#DejaVuSans-7a" x="114.208984"/>
      <use xlink:href="#DejaVuSans-29" x="166.699219"/>
     </g>
    </g>
   </g>
   <g id="line2d_10">
    <path d="M 86.039117 67.562832 
L 86.983301 67.125525 
L 88.871669 67.104459 
L 89.815853 68.637971 
L 90.760037 68.740044 
L 91.704221 67.762522 
L 92.648405 68.779477 
L 93.592589 68.787366 
L 94.536773 72.268007 
L 95.480957 67.95512 
L 97.369325 67.642177 
L 98.313509 69.914768 
L 99.257693 70.27188 
L 100.201877 68.899556 
L 101.146061 68.958265 
L 102.090245 68.118916 
L 103.034429 69.115778 
L 104.922797 69.194707 
L 105.866981 66.074353 
L 106.811165 67.722563 
L 107.755349 68.809609 
L 108.699533 71.491384 
L 109.643717 70.137092 
L 110.587901 68.519455 
L 111.532085 67.628629 
L 112.476269 66.124269 
L 113.420453 66.775122 
L 114.364637 67.726517 
L 115.308821 67.674356 
L 116.253005 68.072265 
L 117.197189 66.154957 
L 118.141373 67.419444 
L 120.029741 65.298756 
L 120.973925 65.654208 
L 121.918109 66.351439 
L 122.862293 68.328412 
L 123.806477 66.823172 
L 124.750661 66.769592 
L 125.694845 65.229422 
L 126.639029 67.963493 
L 127.583213 66.999954 
L 128.527397 68.200494 
L 129.471581 65.682353 
L 130.415765 66.492195 
L 131.359949 66.261246 
L 132.304133 67.375383 
L 133.248317 66.869918 
L 134.192501 67.602226 
L 135.136685 64.748674 
L 136.080869 64.490746 
L 137.025053 65.96019 
L 137.969237 68.468009 
L 138.913421 69.696735 
L 139.857605 69.140326 
L 140.801789 68.441374 
L 141.745973 65.926888 
L 142.690157 64.716077 
L 144.578526 68.451482 
L 145.52271 70.909831 
L 146.466894 70.342935 
L 147.411078 70.718167 
L 148.355262 66.263974 
L 149.299446 62.824587 
L 150.24363 62.884821 
L 151.187814 66.006714 
L 152.131998 69.694991 
L 153.076182 70.568907 
L 154.020366 68.834077 
L 154.96455 68.062891 
L 155.908734 66.429261 
L 156.852918 68.105103 
L 157.797102 67.703571 
L 158.741286 67.149694 
L 159.68547 66.936127 
L 160.629654 66.021086 
L 161.573838 65.924868 
L 162.518022 66.530695 
L 163.462206 68.928713 
L 164.40639 72.094331 
L 165.350574 70.178744 
L 166.294758 70.367547 
L 167.238942 67.891905 
L 168.183126 68.229341 
L 170.071494 69.514794 
L 171.015678 70.944299 
L 171.959862 69.694105 
L 172.904046 71.330211 
L 173.84823 72.143643 
L 174.792414 71.389652 
L 175.736598 69.66549 
L 176.680782 68.979011 
L 178.56915 64.381614 
L 179.513334 63.257383 
L 180.457518 66.095085 
L 181.401702 67.365623 
L 182.345886 69.311693 
L 183.29007 68.395562 
L 184.234254 70.938755 
L 185.178438 66.670343 
L 186.122622 67.488223 
L 187.066806 67.335505 
L 188.01099 70.075352 
L 188.955174 68.882961 
L 189.899358 68.260971 
L 190.843542 69.476215 
L 191.787726 71.32716 
L 192.73191 69.779139 
L 193.676094 69.177408 
L 194.620278 68.717473 
L 195.564462 71.480224 
L 196.508646 69.975244 
L 197.45283 67.663098 
L 198.397014 67.136552 
L 199.341198 67.479339 
L 200.285382 69.168575 
L 201.229566 67.030019 
L 202.17375 66.210289 
L 203.117934 63.925967 
L 204.062118 63.620699 
L 205.006302 65.556892 
L 205.950486 66.151998 
L 206.89467 64.597449 
L 207.838855 62.625788 
L 208.783039 64.9942 
L 211.615591 71.185035 
L 212.559775 70.789673 
L 213.503959 66.841355 
L 214.448143 64.040671 
L 215.392327 66.536749 
L 216.336511 66.112665 
L 217.280695 65.2366 
L 218.224879 60.495664 
L 219.169063 60.425122 
L 220.113247 61.596593 
L 222.001615 66.71581 
L 222.945799 66.400181 
L 223.889983 65.376955 
L 224.834167 66.071624 
L 225.778351 65.913422 
L 226.722535 68.880263 
L 227.666719 67.624442 
L 228.610903 67.009324 
L 229.555087 65.216352 
L 230.499271 67.416815 
L 231.443455 69.014793 
L 232.387639 68.368462 
L 233.331823 66.612742 
L 234.276007 64.275018 
L 235.220191 64.396724 
L 236.164375 63.667255 
L 237.108559 63.492287 
L 238.052743 64.615324 
L 238.996927 65.432249 
L 239.941111 67.937678 
L 240.885295 65.521055 
L 241.829479 66.464217 
L 242.773663 66.25115 
L 243.717847 67.688908 
L 244.662031 65.941363 
L 245.606215 66.252855 
L 246.550399 69.095822 
L 247.494583 70.182572 
L 248.438767 67.22785 
L 250.327135 65.576227 
L 251.271319 68.505689 
L 252.215503 68.017771 
L 253.159687 67.841722 
L 255.992239 68.169129 
L 257.880607 67.65683 
L 258.824791 68.590191 
L 259.768975 66.605891 
L 260.713159 64.223573 
L 261.657343 62.509 
L 262.601527 62.451884 
L 263.545711 65.421628 
L 264.489895 69.039666 
L 265.434079 71.797544 
L 267.322447 69.110204 
L 268.266631 67.167472 
L 269.210815 67.321774 
L 270.154999 69.16905 
L 271.099184 69.083569 
L 272.043368 70.231401 
L 272.987552 68.758586 
L 273.931736 70.656309 
L 274.87592 68.044675 
L 275.820104 68.475034 
L 276.764288 69.190729 
L 277.708472 71.791411 
L 278.652656 73.847001 
L 279.59684 74.049754 
L 280.541024 73.673979 
L 281.485208 72.844174 
L 282.429392 71.588202 
L 283.373576 71.221507 
L 284.31776 71.712649 
L 285.261944 73.823623 
L 286.206128 73.538901 
L 287.150312 73.401396 
L 289.03868 66.897222 
L 289.982864 65.277797 
L 290.927048 66.853136 
L 291.871232 69.43623 
L 292.815416 68.596855 
L 293.7596 65.929524 
L 294.703784 65.569726 
L 295.647968 65.413497 
L 296.592152 66.820867 
L 298.48052 64.694531 
L 299.424704 64.722279 
L 300.368888 66.306936 
L 301.313072 66.367297 
L 302.257256 65.862575 
L 303.20144 64.766574 
L 304.145624 65.643374 
L 305.089808 67.457958 
L 306.033992 69.867 
L 307.92236 69.016947 
L 308.866544 66.52575 
L 309.810728 67.220222 
L 310.754912 66.585085 
L 311.699096 66.579856 
L 312.64328 65.519448 
L 313.587464 63.939498 
L 314.531648 65.992477 
L 315.475832 67.684772 
L 318.308384 67.010598 
L 319.252568 69.217657 
L 320.196752 69.844771 
L 321.140936 69.215969 
L 322.08512 69.165265 
L 323.029304 68.949594 
L 323.973488 66.736408 
L 324.917672 65.557748 
L 325.861856 65.917791 
L 326.80604 68.54329 
L 327.750224 69.94098 
L 328.694408 68.322587 
L 329.638592 67.40464 
L 330.582776 67.865066 
L 331.52696 67.483089 
L 332.471144 68.789568 
L 333.415328 66.501423 
L 334.359513 66.55226 
L 335.303697 66.937109 
L 336.247881 70.338909 
L 337.192065 71.898879 
L 338.136249 71.651481 
L 339.080433 68.922012 
L 340.024617 68.402004 
L 341.912985 69.133721 
L 342.857169 67.165348 
L 343.801353 65.872073 
L 344.745537 65.09736 
L 345.689721 67.448094 
L 346.633905 67.033241 
L 347.578089 68.167109 
L 348.522273 67.474949 
L 349.466457 67.506486 
L 350.410641 68.073828 
L 351.354825 68.149966 
L 354.187377 67.43787 
L 355.131561 68.392847 
L 356.075745 68.325173 
L 357.019929 68.558665 
L 357.964113 68.409735 
L 358.908297 67.215326 
L 359.852481 66.901005 
L 360.796665 67.885079 
L 362.685033 68.240763 
L 363.629217 67.10747 
L 364.573401 67.976053 
L 365.517585 66.111967 
L 366.461769 63.515616 
L 367.405953 62.773435 
L 368.350137 62.97825 
L 369.294321 65.429994 
L 370.238505 62.735207 
L 371.182689 64.256492 
L 372.126873 65.531055 
L 373.071057 68.343513 
L 374.015241 65.640066 
L 374.959425 64.619757 
L 375.903609 64.187134 
L 376.847793 68.220342 
L 377.791977 67.888447 
L 378.736161 68.342967 
L 379.680345 66.585231 
L 380.624529 66.887433 
L 381.568713 67.546807 
L 384.401265 65.683471 
L 385.345449 67.858862 
L 386.289633 67.63302 
L 387.233817 67.863263 
L 388.178001 66.678811 
L 389.122185 69.366922 
L 390.066369 69.672437 
L 391.010553 69.167045 
L 391.954737 66.215519 
L 392.898921 65.452471 
L 393.843105 65.914956 
L 394.787289 66.15023 
L 395.731473 66.668369 
L 396.675657 66.221114 
L 397.619842 68.164421 
L 398.564026 66.756913 
L 399.50821 66.806975 
L 400.452394 67.022713 
L 401.396578 67.513818 
L 402.340762 66.630822 
L 403.284946 65.492891 
L 404.22913 67.07242 
L 405.173314 67.43641 
L 406.117498 67.059592 
L 407.061682 67.067084 
L 408.95005 69.522376 
L 409.894234 67.938681 
L 410.838418 68.625865 
L 411.782602 67.897309 
L 412.726786 69.245395 
L 413.67097 69.504729 
L 414.615154 68.4336 
L 415.559338 68.793916 
L 416.503522 65.537433 
L 417.447706 65.60604 
L 418.39189 64.730494 
L 419.336074 66.495079 
L 420.280258 67.396625 
L 421.224442 65.664867 
L 422.168626 64.289503 
L 423.11281 63.703748 
L 424.056994 64.264116 
L 425.001178 66.420127 
L 426.889546 71.510549 
L 427.83373 70.275915 
L 429.722098 65.459828 
L 430.666282 65.243874 
L 431.610466 64.497701 
L 432.55465 65.059346 
L 433.498834 66.293598 
L 434.443018 69.381978 
L 435.387202 71.707828 
L 436.331386 72.047464 
L 437.27557 69.703433 
L 438.219754 67.888026 
L 439.163938 66.731029 
L 440.108122 66.825505 
L 441.052306 67.404274 
L 441.99649 67.362247 
L 442.940674 69.660261 
L 443.884858 69.030046 
L 444.829042 70.493754 
L 445.773226 68.319064 
L 446.71741 66.941059 
L 447.661594 66.212717 
L 448.605778 66.940568 
L 449.549962 69.808168 
L 450.494146 69.592341 
L 451.43833 67.337472 
L 453.326698 65.538075 
L 454.270882 67.011326 
L 455.215066 64.726364 
L 456.15925 64.255651 
L 457.103434 63.935225 
L 458.047618 66.223612 
L 459.935987 69.204558 
L 460.880171 67.001558 
L 461.824355 65.742077 
L 462.768539 64.292427 
L 463.712723 64.18067 
L 464.656907 65.440706 
L 465.601091 66.937619 
L 466.545275 69.445746 
L 468.433643 70.228955 
L 469.377827 69.845691 
L 470.322011 68.69682 
L 471.266195 66.739942 
L 472.210379 64.246113 
L 473.154563 64.96488 
L 474.098747 66.664793 
L 475.042931 67.49599 
L 475.987115 68.154071 
L 476.931299 69.778712 
L 477.875483 70.30028 
L 478.819667 67.948704 
L 479.763851 67.904635 
L 480.708035 70.601604 
L 481.652219 71.352226 
L 482.596403 70.237252 
L 483.540587 68.520117 
L 484.484771 68.305196 
L 485.428955 65.336058 
L 486.373139 65.651423 
L 487.317323 65.510812 
L 488.261507 67.964307 
L 489.205691 68.167461 
L 490.149875 70.167854 
L 491.094059 68.550206 
L 492.038243 67.377643 
L 492.982427 67.072757 
L 493.926611 68.595028 
L 494.870795 70.503978 
L 495.814979 69.193881 
L 496.759163 68.859044 
L 497.703347 67.759069 
L 498.647531 66.927426 
L 499.591715 66.459962 
L 500.535899 65.311946 
L 501.480083 67.732742 
L 502.424267 67.952302 
L 503.368451 69.129585 
L 504.312635 67.845053 
L 505.256819 66.870405 
L 506.201003 66.769579 
L 507.145187 68.190841 
L 508.089371 68.962894 
L 509.033555 68.999671 
L 509.977739 67.48007 
L 510.921923 68.219304 
L 511.866107 68.587619 
L 512.810291 68.5831 
L 513.754475 67.47161 
L 515.642843 66.117056 
L 516.587027 67.635097 
L 517.531211 68.856795 
L 518.475395 70.935643 
L 519.419579 70.493008 
L 520.363763 70.573018 
L 521.307947 68.191196 
L 522.252131 68.269535 
L 523.196316 67.866766 
L 524.1405 69.899499 
L 525.084684 69.770731 
L 526.028868 70.154872 
L 526.973052 69.478367 
L 527.917236 68.656899 
L 528.86142 68.616858 
L 529.805604 69.103303 
L 530.749788 67.727515 
L 531.693972 69.102908 
L 532.638156 68.644985 
L 533.58234 71.26917 
L 534.526524 70.874813 
L 535.470708 73.379275 
L 535.470708 73.379275 
" clip-path="url(#p58e10699f1)" style="fill: none; stroke: #008000; stroke-width: 1.5; stroke-linecap: square"/>
   </g>
   <g id="line2d_11">
    <path d="M 85.098605 69.6958 
L 86.039117 66.43872 
L 87.920139 65.718027 
L 88.860651 64.432368 
L 89.801162 62.427023 
L 90.741674 60.780327 
L 92.622697 61.202694 
L 93.563208 64.053947 
L 95.444231 74.689308 
L 97.325254 80.760499 
L 98.265765 85.086061 
L 99.206277 90.331282 
L 100.146788 94.615868 
L 102.027811 89.274868 
L 102.968323 85.374934 
L 103.908834 80.958107 
L 104.849346 77.120266 
L 106.730368 73.266637 
L 109.551903 65.631342 
L 111.432926 66.10557 
L 112.373437 69.204691 
L 113.313949 73.380878 
L 114.25446 76.693553 
L 116.135483 77.288809 
L 117.075994 74.306158 
L 118.016506 70.597219 
L 118.957017 67.388707 
L 120.83804 63.265401 
L 123.659575 54.622612 
L 125.540597 51.745556 
L 126.481109 54.940181 
L 129.302643 67.061429 
L 130.243155 70.934805 
L 133.064689 80.591587 
L 134.945712 85.930927 
L 135.886223 86.45798 
L 136.826735 86.831654 
L 137.767246 84.717401 
L 139.648269 75.307989 
L 141.529292 71.661106 
L 142.469803 69.154768 
L 144.350826 62.834681 
L 146.231849 58.553908 
L 147.172361 58.660423 
L 149.053384 63.298555 
L 150.934407 63.135285 
L 151.874918 63.442838 
L 152.815429 64.093868 
L 153.755941 65.002565 
L 155.636964 69.837259 
L 156.577475 71.71123 
L 157.517987 73.295786 
L 158.458498 74.309533 
L 160.339521 70.856399 
L 161.280032 71.084804 
L 162.220544 72.129029 
L 163.161055 72.840264 
L 165.042078 70.737334 
L 165.98259 65.941675 
L 167.863613 54.545283 
L 169.744635 48.24885 
L 172.56617 43.164609 
L 174.447193 40.218 
L 175.387704 43.381484 
L 179.14975 61.583082 
L 180.090261 62.893569 
L 181.030773 63.356859 
L 181.971284 64.152897 
L 183.852307 66.81218 
L 185.73333 67.881166 
L 186.673842 68.971185 
L 188.554864 72.75234 
L 190.435887 74.11926 
L 191.376399 74.007404 
L 193.257422 71.864215 
L 195.138445 72.744242 
L 196.078956 72.645758 
L 197.959979 70.981862 
L 199.841002 70.543033 
L 200.781513 70.524514 
L 202.662536 71.117144 
L 204.543559 70.769112 
L 205.48407 70.185977 
L 207.365093 68.392853 
L 209.246116 66.163818 
L 210.186628 65.806908 
L 212.067651 66.062553 
L 213.948674 65.618802 
L 214.889185 65.757531 
L 215.829696 66.134976 
L 216.770208 66.663129 
L 218.651231 69.450324 
L 219.591742 70.092201 
L 220.532254 70.372374 
L 221.472765 70.84732 
L 223.353788 72.695617 
L 224.294299 71.830206 
L 225.234811 70.43469 
L 226.175322 69.516519 
L 228.996857 70.081965 
L 229.937368 70.387633 
L 230.87788 70.038726 
L 232.758902 66.197955 
L 233.699414 66.0959 
L 234.639925 66.532339 
L 235.580437 66.703824 
L 237.46146 65.345993 
L 240.282994 64.078118 
L 242.164017 63.43395 
L 244.04504 63.839774 
L 246.866574 64.589375 
L 248.747597 63.992511 
L 249.688109 65.4864 
L 251.569131 72.402149 
L 253.450154 73.969959 
L 254.390666 75.856231 
L 256.271689 81.398252 
L 258.152712 91.039233 
L 259.093223 92.071476 
L 260.033734 90.012978 
L 260.974246 87.551842 
L 263.79578 75.396073 
L 265.676803 67.680345 
L 267.557826 57.76406 
L 268.498338 55.699226 
L 270.37936 55.620517 
L 272.260383 60.363888 
L 273.200895 60.611066 
L 274.141406 59.624813 
L 275.081918 59.101306 
L 276.962941 60.800087 
L 277.903452 60.647884 
L 278.843963 60.089431 
L 279.784475 59.80921 
L 281.665498 61.874993 
L 282.606009 64.23345 
L 283.546521 66.973325 
L 284.487032 69.109981 
L 286.368055 69.480836 
L 287.308566 70.492484 
L 289.189589 72.824532 
L 291.070612 74.466354 
L 292.011124 73.875702 
L 293.892147 72.148408 
L 295.77317 71.011637 
L 297.654192 68.483504 
L 298.594704 67.635159 
L 301.416238 67.308332 
L 305.178284 67.271509 
L 307.059307 70.389991 
L 307.999818 71.422151 
L 309.880841 72.284453 
L 312.702376 71.625786 
L 317.404933 70.129022 
L 318.345444 69.93106 
L 319.285956 70.036581 
L 321.166979 75.70223 
L 323.988513 86.93311 
L 325.869536 87.517194 
L 326.810047 87.996191 
L 327.750559 88.619471 
L 328.69107 89.042352 
L 330.572093 86.663943 
L 331.512605 81.646379 
L 333.393627 68.830636 
L 335.27465 60.299288 
L 336.215162 58.935284 
L 337.155673 58.451023 
L 338.096185 57.602889 
L 339.977208 53.959848 
L 340.917719 56.587441 
L 342.798742 64.544192 
L 344.679765 71.69765 
L 345.620276 72.411965 
L 346.560788 72.284073 
L 347.501299 72.644434 
L 349.382322 75.447476 
L 350.322834 75.194549 
L 352.203856 73.98515 
L 354.084879 73.162453 
L 355.965902 74.462583 
L 356.906414 74.540403 
L 358.787437 73.070246 
L 360.668459 73.196157 
L 361.608971 73.416988 
L 363.489994 74.34188 
L 365.371017 72.943566 
L 367.25204 71.348079 
L 368.192551 70.647806 
L 370.073574 70.096279 
L 371.014085 68.991257 
L 372.895108 65.52973 
L 374.776131 59.751401 
L 375.716643 58.315898 
L 376.657154 57.879774 
L 377.597666 57.727808 
L 379.478688 59.513422 
L 380.4192 60.667138 
L 382.300223 63.665983 
L 384.181246 68.180611 
L 385.121757 69.479556 
L 386.062269 70.207505 
L 387.00278 70.532132 
L 388.883803 66.713078 
L 389.824314 66.042949 
L 390.764826 65.899226 
L 391.705337 66.04453 
L 393.58636 68.282578 
L 394.526872 68.811996 
L 395.467383 69.189434 
L 396.407894 69.807088 
L 398.288917 72.218969 
L 399.229429 72.525037 
L 400.16994 72.576496 
L 401.110452 72.08201 
L 402.991475 68.806815 
L 404.872498 66.703286 
L 406.75352 64.576705 
L 407.694032 63.440602 
L 409.575055 62.038425 
L 410.515566 61.466903 
L 412.396589 60.967299 
L 415.218123 62.222896 
L 418.980169 62.332934 
L 419.920681 62.834145 
L 421.801704 64.895429 
L 423.682726 65.078248 
L 424.623238 65.404222 
L 426.504261 66.442767 
L 428.385284 67.177327 
L 431.206818 68.763374 
L 433.087841 69.410212 
L 434.028352 69.553796 
L 434.968864 69.544934 
L 435.909375 69.681696 
L 437.790398 71.493909 
L 440.611933 74.778885 
L 442.492955 77.914979 
L 444.373978 80.268725 
L 445.31449 81.154286 
L 447.195513 81.014672 
L 448.136024 80.462729 
L 450.017047 78.823862 
L 452.838581 75.780151 
L 454.719604 74.220412 
L 456.600627 73.507852 
L 459.422161 73.248133 
L 461.303184 72.820149 
L 463.184207 75.442016 
L 464.124719 75.42368 
L 466.005742 71.35439 
L 467.886765 63.732428 
L 468.827276 61.478153 
L 470.708299 61.015918 
L 472.589322 56.619596 
L 473.529833 56.085342 
L 475.410856 59.563623 
L 477.291879 61.841196 
L 478.23239 61.99007 
L 480.113413 59.594426 
L 481.994436 58.947338 
L 482.934948 58.984288 
L 484.815971 59.320281 
L 486.696993 62.429134 
L 487.637505 65.167771 
L 489.518528 72.01025 
L 491.399551 80.233474 
L 492.340062 83.042682 
L 493.280574 85.04472 
L 494.221085 86.721948 
L 496.102108 87.893467 
L 497.042619 86.057091 
L 503.6262 64.274656 
L 505.507222 61.304202 
L 506.447734 61.359245 
L 507.388245 61.945806 
L 508.328757 62.019858 
L 510.20978 59.440831 
L 511.150291 58.961091 
L 512.090803 58.701276 
L 513.031314 59.172935 
L 514.912337 63.062552 
L 515.852848 64.157674 
L 516.79336 65.048267 
L 517.733871 66.531013 
L 522.436429 79.649642 
L 525.257963 85.184161 
L 526.198474 87.139443 
L 527.138986 89.544085 
L 529.020009 95.082 
L 530.901032 91.794089 
L 531.841543 89.824422 
L 532.782054 87.466975 
L 532.782054 87.466975 
" clip-path="url(#p58e10699f1)" style="fill: none; stroke: #000000; stroke-width: 1.5; stroke-linecap: square"/>
   </g>
   <g id="patch_3">
    <path d="M 62.58 101.94 
L 62.58 33.36 
" style="fill: none; stroke: #000000; stroke-width: 1.5; stroke-linejoin: miter; stroke-linecap: square"/>
   </g>
   <g id="patch_4">
    <path d="M 557.989313 101.94 
L 557.989313 33.36 
" style="fill: none; stroke: #000000; stroke-width: 1.5; stroke-linejoin: miter; stroke-linecap: square"/>
   </g>
   <g id="patch_5">
    <path d="M 62.58 101.94 
L 557.989313 101.94 
" style="fill: none; stroke: #000000; stroke-width: 1.5; stroke-linejoin: miter; stroke-linecap: square"/>
   </g>
   <g id="patch_6">
    <path d="M 62.58 33.36 
L 557.989313 33.36 
" style="fill: none; stroke: #000000; stroke-width: 1.5; stroke-linejoin: miter; stroke-linecap: square"/>
   </g>
   <g id="text_12">
    <!-- amygdala (92 neurons) -->
    <g transform="translate(181.823563 27.36) scale(0.22 -0.22)">
     <defs>
      <path id="DejaVuSans-79" d="M 2059 -325 
Q 1816 -950 1584 -1140 
Q 1353 -1331 966 -1331 
L 506 -1331 
L 506 -850 
L 844 -850 
Q 1081 -850 1212 -737 
Q 1344 -625 1503 -206 
L 1606 56 
L 191 3500 
L 800 3500 
L 1894 763 
L 2988 3500 
L 3597 3500 
L 2059 -325 
z
" transform="scale(0.015625)"/>
      <path id="DejaVuSans-67" d="M 2906 1791 
Q 2906 2416 2648 2759 
Q 2391 3103 1925 3103 
Q 1463 3103 1205 2759 
Q 947 2416 947 1791 
Q 947 1169 1205 825 
Q 1463 481 1925 481 
Q 2391 481 2648 825 
Q 2906 1169 2906 1791 
z
M 3481 434 
Q 3481 -459 3084 -895 
Q 2688 -1331 1869 -1331 
Q 1566 -1331 1297 -1286 
Q 1028 -1241 775 -1147 
L 775 -588 
Q 1028 -725 1275 -790 
Q 1522 -856 1778 -856 
Q 2344 -856 2625 -561 
Q 2906 -266 2906 331 
L 2906 616 
Q 2728 306 2450 153 
Q 2172 0 1784 0 
Q 1141 0 747 490 
Q 353 981 353 1791 
Q 353 2603 747 3093 
Q 1141 3584 1784 3584 
Q 2172 3584 2450 3431 
Q 2728 3278 2906 2969 
L 2906 3500 
L 3481 3500 
L 3481 434 
z
" transform="scale(0.015625)"/>
      <path id="DejaVuSans-39" d="M 703 97 
L 703 672 
Q 941 559 1184 500 
Q 1428 441 1663 441 
Q 2288 441 2617 861 
Q 2947 1281 2994 2138 
Q 2813 1869 2534 1725 
Q 2256 1581 1919 1581 
Q 1219 1581 811 2004 
Q 403 2428 403 3163 
Q 403 3881 828 4315 
Q 1253 4750 1959 4750 
Q 2769 4750 3195 4129 
Q 3622 3509 3622 2328 
Q 3622 1225 3098 567 
Q 2575 -91 1691 -91 
Q 1453 -91 1209 -44 
Q 966 3 703 97 
z
M 1959 2075 
Q 2384 2075 2632 2365 
Q 2881 2656 2881 3163 
Q 2881 3666 2632 3958 
Q 2384 4250 1959 4250 
Q 1534 4250 1286 3958 
Q 1038 3666 1038 3163 
Q 1038 2656 1286 2365 
Q 1534 2075 1959 2075 
z
" transform="scale(0.015625)"/>
      <path id="DejaVuSans-75" d="M 544 1381 
L 544 3500 
L 1119 3500 
L 1119 1403 
Q 1119 906 1312 657 
Q 1506 409 1894 409 
Q 2359 409 2629 706 
Q 2900 1003 2900 1516 
L 2900 3500 
L 3475 3500 
L 3475 0 
L 2900 0 
L 2900 538 
Q 2691 219 2414 64 
Q 2138 -91 1772 -91 
Q 1169 -91 856 284 
Q 544 659 544 1381 
z
M 1991 3584 
L 1991 3584 
z
" transform="scale(0.015625)"/>
     </defs>
     <use xlink:href="#DejaVuSans-61"/>
     <use xlink:href="#DejaVuSans-6d" x="61.279297"/>
     <use xlink:href="#DejaVuSans-79" x="158.691406"/>
     <use xlink:href="#DejaVuSans-67" x="217.871094"/>
     <use xlink:href="#DejaVuSans-64" x="281.347656"/>
     <use xlink:href="#DejaVuSans-61" x="344.824219"/>
     <use xlink:href="#DejaVuSans-6c" x="406.103516"/>
     <use xlink:href="#DejaVuSans-61" x="433.886719"/>
     <use xlink:href="#DejaVuSans-20" x="495.166016"/>
     <use xlink:href="#DejaVuSans-28" x="526.953125"/>
     <use xlink:href="#DejaVuSans-39" x="565.966797"/>
     <use xlink:href="#DejaVuSans-32" x="629.589844"/>
     <use xlink:href="#DejaVuSans-20" x="693.212891"/>
     <use xlink:href="#DejaVuSans-6e" x="725"/>
     <use xlink:href="#DejaVuSans-65" x="788.378906"/>
     <use xlink:href="#DejaVuSans-75" x="849.902344"/>
     <use xlink:href="#DejaVuSans-72" x="913.28125"/>
     <use xlink:href="#DejaVuSans-6f" x="952.144531"/>
     <use xlink:href="#DejaVuSans-6e" x="1013.326172"/>
     <use xlink:href="#DejaVuSans-73" x="1076.705078"/>
     <use xlink:href="#DejaVuSans-29" x="1128.804688"/>
    </g>
   </g>
  </g>
 </g>
 <defs>
  <clipPath id="p58e10699f1">
   <rect x="62.58" y="33.36" width="495.409313" height="68.58"/>
  </clipPath>
 </defs>
</svg>
