<?xml version="1.0" encoding="utf-8" standalone="no"?>
<!DOCTYPE svg PUBLIC "-//W3C//DTD SVG 1.1//EN"
  "http://www.w3.org/Graphics/SVG/1.1/DTD/svg11.dtd">
<svg xmlns:xlink="http://www.w3.org/1999/xlink" width="576pt" height="144pt" viewBox="0 0 576 144" xmlns="http://www.w3.org/2000/svg" version="1.1">
 <metadata>
  <rdf:RDF xmlns:dc="http://purl.org/dc/elements/1.1/" xmlns:cc="http://creativecommons.org/ns#" xmlns:rdf="http://www.w3.org/1999/02/22-rdf-syntax-ns#">
   <cc:Work>
    <dc:type rdf:resource="http://purl.org/dc/dcmitype/StillImage"/>
    <dc:date>2025-04-21T23:58:37.412484</dc:date>
    <dc:format>image/svg+xml</dc:format>
    <dc:creator>
     <cc:Agent>
      <dc:title>Matplotlib v3.8.0, https://matplotlib.org/</dc:title>
     </cc:Agent>
    </dc:creator>
   </cc:Work>
  </rdf:RDF>
 </metadata>
 <defs>
  <style type="text/css">*{stroke-linejoin: round; stroke-linecap: butt}</style>
 </defs>
 <g id="figure_1">
  <g id="patch_1">
   <path d="M 0 144 
L 576 144 
L 576 0 
L 0 0 
z
" style="fill: #ffffff"/>
  </g>
  <g id="axes_1">
   <g id="patch_2">
    <path d="M 62.58 101.94 
L 557.989313 101.94 
L 557.989313 33.36 
L 62.58 33.36 
z
" style="fill: #ffffff"/>
   </g>
   <g id="PolyCollection_1">
    <defs>
     <path id="me728bff596" d="M 86.039117 -100.255682 
L 86.039117 -78.915884 
L 86.983301 -70.272319 
L 87.927485 -71.667266 
L 88.871669 -79.424302 
L 89.815853 -79.923052 
L 90.760037 -70.750013 
L 91.704221 -59.464851 
L 92.648405 -61.974449 
L 93.592589 -63.586006 
L 94.536773 -64.24196 
L 95.480957 -63.021814 
L 96.425141 -64.077131 
L 97.369325 -58.861174 
L 98.313509 -63.002736 
L 99.257693 -63.194585 
L 100.201877 -67.286534 
L 101.146061 -68.652934 
L 102.090245 -66.005642 
L 103.034429 -60.780404 
L 103.978613 -60.242824 
L 104.922797 -71.068386 
L 105.866981 -64.599104 
L 106.811165 -69.00307 
L 107.755349 -66.731794 
L 108.699533 -66.655019 
L 109.643717 -62.577196 
L 110.587901 -61.087892 
L 111.532085 -61.870057 
L 112.476269 -56.769571 
L 113.420453 -71.087969 
L 114.364637 -77.647249 
L 115.308821 -81.917441 
L 116.253005 -73.424343 
L 117.197189 -74.951789 
L 118.141373 -68.585539 
L 119.085557 -64.486588 
L 120.029741 -61.800022 
L 120.973925 -60.009041 
L 121.918109 -61.634593 
L 122.862293 -67.651253 
L 123.806477 -65.949531 
L 124.750661 -67.663475 
L 125.694845 -65.393662 
L 126.639029 -67.447354 
L 127.583213 -59.606476 
L 128.527397 -65.927847 
L 129.471581 -63.913723 
L 130.415765 -58.266816 
L 131.359949 -55.565713 
L 132.304133 -58.925658 
L 133.248317 -61.777975 
L 134.192501 -60.671799 
L 135.136685 -59.865367 
L 136.080869 -62.341154 
L 137.025053 -60.008832 
L 137.969237 -62.902957 
L 138.913421 -71.833503 
L 139.857605 -67.549767 
L 140.801789 -77.456497 
L 141.745973 -73.680457 
L 142.690157 -77.436055 
L 143.634341 -72.530646 
L 144.578526 -67.467891 
L 145.52271 -61.18605 
L 146.466894 -59.009392 
L 147.411078 -66.426038 
L 148.355262 -63.292346 
L 149.299446 -69.889004 
L 150.24363 -64.270836 
L 151.187814 -63.251283 
L 152.131998 -56.280514 
L 153.076182 -60.169636 
L 154.020366 -67.760995 
L 154.96455 -69.369258 
L 155.908734 -66.651608 
L 156.852918 -60.193418 
L 157.797102 -62.67845 
L 158.741286 -64.210109 
L 159.68547 -74.401539 
L 160.629654 -72.933057 
L 161.573838 -72.720572 
L 162.518022 -61.618712 
L 163.462206 -60.048649 
L 164.40639 -63.990553 
L 165.350574 -65.769515 
L 166.294758 -67.538463 
L 167.238942 -61.761952 
L 168.183126 -64.712067 
L 169.12731 -62.737425 
L 170.071494 -58.953657 
L 171.015678 -64.076245 
L 171.959862 -63.201263 
L 172.904046 -64.131874 
L 173.84823 -63.014502 
L 174.792414 -66.083523 
L 175.736598 -62.56954 
L 176.680782 -59.768936 
L 177.624966 -58.796985 
L 178.56915 -57.469233 
L 179.513334 -63.402147 
L 180.457518 -61.217603 
L 181.401702 -63.105114 
L 182.345886 -60.558395 
L 183.29007 -61.413741 
L 184.234254 -62.735664 
L 185.178438 -61.892493 
L 186.122622 -63.550227 
L 187.066806 -62.918827 
L 188.01099 -64.966657 
L 188.955174 -63.116391 
L 189.899358 -60.478381 
L 190.843542 -58.747494 
L 191.787726 -56.329013 
L 192.73191 -59.219676 
L 193.676094 -61.408444 
L 194.620278 -67.330675 
L 195.564462 -66.512398 
L 196.508646 -62.217678 
L 197.45283 -56.715297 
L 198.397014 -57.299435 
L 199.341198 -54.890172 
L 200.285382 -55.671514 
L 201.229566 -57.958427 
L 202.17375 -64.391809 
L 203.117934 -59.552578 
L 204.062118 -60.484862 
L 205.006302 -63.171343 
L 205.950486 -59.825078 
L 206.89467 -54.395407 
L 207.838855 -58.970496 
L 208.783039 -61.136701 
L 209.727223 -62.796254 
L 210.671407 -57.213518 
L 211.615591 -63.530254 
L 212.559775 -68.728873 
L 213.503959 -67.25028 
L 214.448143 -65.772782 
L 215.392327 -58.045588 
L 216.336511 -64.765013 
L 217.280695 -63.962321 
L 218.224879 -64.654131 
L 219.169063 -67.955166 
L 220.113247 -68.859064 
L 221.057431 -67.837424 
L 222.001615 -65.796859 
L 222.945799 -62.598626 
L 223.889983 -65.948063 
L 224.834167 -61.164443 
L 225.778351 -61.794251 
L 226.722535 -61.452756 
L 227.666719 -62.212623 
L 228.610903 -64.59897 
L 229.555087 -62.144685 
L 230.499271 -71.344355 
L 231.443455 -71.363146 
L 232.387639 -65.55566 
L 233.331823 -62.581295 
L 234.276007 -64.854121 
L 235.220191 -71.6791 
L 236.164375 -72.820369 
L 237.108559 -67.584243 
L 238.052743 -64.477347 
L 238.996927 -66.590391 
L 239.941111 -73.889839 
L 240.885295 -73.704419 
L 241.829479 -68.376295 
L 242.773663 -60.597742 
L 243.717847 -61.637589 
L 244.662031 -55.646513 
L 245.606215 -60.381466 
L 246.550399 -60.276636 
L 247.494583 -60.676096 
L 248.438767 -62.508334 
L 249.382951 -60.783909 
L 250.327135 -67.022225 
L 251.271319 -70.972602 
L 252.215503 -73.25554 
L 253.159687 -69.505489 
L 254.103871 -60.536588 
L 255.048055 -60.19934 
L 255.992239 -61.812266 
L 256.936423 -62.297352 
L 257.880607 -62.185523 
L 258.824791 -63.895843 
L 259.768975 -65.792031 
L 260.713159 -64.827817 
L 261.657343 -64.274238 
L 262.601527 -60.000367 
L 263.545711 -58.160472 
L 264.489895 -60.862453 
L 265.434079 -62.145461 
L 266.378263 -64.723581 
L 267.322447 -61.426075 
L 268.266631 -66.730115 
L 269.210815 -71.182091 
L 270.154999 -73.606098 
L 271.099184 -74.768831 
L 272.043368 -68.411301 
L 272.987552 -63.569866 
L 273.931736 -56.510382 
L 274.87592 -55.491499 
L 275.820104 -58.093354 
L 276.764288 -57.757681 
L 277.708472 -62.716391 
L 278.652656 -68.438927 
L 279.59684 -66.568505 
L 280.541024 -73.843407 
L 281.485208 -73.135954 
L 282.429392 -80.568363 
L 283.373576 -62.80954 
L 284.31776 -68.349893 
L 285.261944 -67.764525 
L 286.206128 -70.991985 
L 287.150312 -68.39444 
L 288.094496 -63.123143 
L 289.03868 -61.311002 
L 289.982864 -67.705362 
L 290.927048 -71.176175 
L 291.871232 -67.845109 
L 292.815416 -61.305099 
L 293.7596 -56.498026 
L 294.703784 -54.941093 
L 295.647968 -60.008788 
L 296.592152 -62.071042 
L 297.536336 -65.919277 
L 298.48052 -66.850497 
L 299.424704 -74.188718 
L 300.368888 -81.159038 
L 301.313072 -68.148253 
L 302.257256 -65.363271 
L 303.20144 -58.666845 
L 304.145624 -57.915352 
L 305.089808 -59.992496 
L 306.033992 -62.984056 
L 306.978176 -58.820309 
L 307.92236 -56.302734 
L 308.866544 -55.646395 
L 309.810728 -62.418869 
L 310.754912 -68.057169 
L 311.699096 -68.756274 
L 312.64328 -68.350853 
L 313.587464 -71.966112 
L 314.531648 -73.913304 
L 315.475832 -73.649446 
L 316.420016 -73.614985 
L 317.3642 -77.53405 
L 318.308384 -70.607659 
L 319.252568 -62.973475 
L 320.196752 -59.718456 
L 321.140936 -65.233339 
L 322.08512 -68.181841 
L 323.029304 -64.378777 
L 323.973488 -61.730634 
L 324.917672 -61.970763 
L 325.861856 -60.483135 
L 326.80604 -58.938883 
L 327.750224 -63.766001 
L 328.694408 -63.125859 
L 329.638592 -63.282066 
L 330.582776 -56.899185 
L 331.52696 -61.112265 
L 332.471144 -58.717051 
L 333.415328 -61.51812 
L 334.359513 -61.722878 
L 335.303697 -60.361955 
L 336.247881 -68.286981 
L 337.192065 -63.721125 
L 338.136249 -66.059029 
L 339.080433 -60.480772 
L 340.024617 -64.730971 
L 340.968801 -59.52584 
L 341.912985 -65.368289 
L 342.857169 -67.607062 
L 343.801353 -64.760291 
L 344.745537 -68.327748 
L 345.689721 -68.13214 
L 346.633905 -71.296654 
L 347.578089 -65.46595 
L 348.522273 -58.780991 
L 349.466457 -60.512794 
L 350.410641 -63.100074 
L 351.354825 -60.588346 
L 352.299009 -58.930196 
L 353.243193 -60.883891 
L 354.187377 -64.378721 
L 355.131561 -61.276989 
L 356.075745 -64.428217 
L 357.019929 -60.332959 
L 357.964113 -63.974629 
L 358.908297 -64.821225 
L 359.852481 -61.987959 
L 360.796665 -60.293513 
L 361.740849 -57.983639 
L 362.685033 -61.869555 
L 363.629217 -60.570958 
L 364.573401 -64.075469 
L 365.517585 -60.963938 
L 366.461769 -62.545479 
L 367.405953 -62.961329 
L 368.350137 -60.300061 
L 369.294321 -55.904039 
L 370.238505 -59.767758 
L 371.182689 -58.279563 
L 372.126873 -62.717959 
L 373.071057 -64.23831 
L 374.015241 -69.130344 
L 374.959425 -64.660846 
L 375.903609 -70.052509 
L 376.847793 -67.177563 
L 377.791977 -64.064904 
L 378.736161 -65.09408 
L 379.680345 -61.883659 
L 380.624529 -63.975521 
L 381.568713 -59.207755 
L 382.512897 -67.985463 
L 383.457081 -66.996785 
L 384.401265 -66.954124 
L 385.345449 -58.112054 
L 386.289633 -62.342758 
L 387.233817 -60.287298 
L 388.178001 -61.086663 
L 389.122185 -62.556581 
L 390.066369 -56.510624 
L 391.010553 -59.047031 
L 391.954737 -64.825503 
L 392.898921 -66.501647 
L 393.843105 -68.890289 
L 394.787289 -67.080145 
L 395.731473 -64.79839 
L 396.675657 -67.245629 
L 397.619842 -70.048105 
L 398.564026 -69.470078 
L 399.50821 -73.423361 
L 400.452394 -72.331681 
L 401.396578 -71.751355 
L 402.340762 -55.840999 
L 403.284946 -61.486465 
L 404.22913 -73.100751 
L 405.173314 -74.826616 
L 406.117498 -70.624687 
L 407.061682 -59.433689 
L 408.005866 -58.63915 
L 408.95005 -60.013477 
L 409.894234 -61.285798 
L 410.838418 -62.837673 
L 411.782602 -60.041608 
L 412.726786 -71.012705 
L 413.67097 -83.920579 
L 414.615154 -80.127024 
L 415.559338 -67.115855 
L 416.503522 -59.77678 
L 417.447706 -57.80596 
L 418.39189 -61.638494 
L 419.336074 -61.55911 
L 420.280258 -64.362355 
L 421.224442 -62.381675 
L 422.168626 -67.030828 
L 423.11281 -70.870376 
L 424.056994 -71.546402 
L 425.001178 -73.364895 
L 425.945362 -64.981751 
L 426.889546 -64.405352 
L 427.83373 -63.484452 
L 428.777914 -65.514352 
L 429.722098 -71.46104 
L 430.666282 -65.18395 
L 431.610466 -65.787043 
L 432.55465 -65.506903 
L 433.498834 -64.272534 
L 434.443018 -60.803153 
L 435.387202 -62.311457 
L 436.331386 -68.850763 
L 437.27557 -71.688122 
L 438.219754 -68.212284 
L 439.163938 -68.964321 
L 440.108122 -66.687435 
L 441.052306 -70.743731 
L 441.99649 -74.072751 
L 442.940674 -69.039704 
L 443.884858 -63.719565 
L 444.829042 -63.14445 
L 445.773226 -63.906156 
L 446.71741 -62.394778 
L 447.661594 -59.77859 
L 448.605778 -69.056061 
L 449.549962 -74.350865 
L 450.494146 -69.290703 
L 451.43833 -62.366116 
L 452.382514 -60.852081 
L 453.326698 -69.96548 
L 454.270882 -73.298933 
L 455.215066 -69.906526 
L 456.15925 -64.018786 
L 457.103434 -60.29213 
L 458.047618 -68.072558 
L 458.991802 -63.40891 
L 459.935987 -68.902409 
L 460.880171 -60.018521 
L 461.824355 -70.630831 
L 462.768539 -66.461171 
L 463.712723 -67.687517 
L 464.656907 -67.889135 
L 465.601091 -67.607486 
L 466.545275 -73.136374 
L 467.489459 -64.297277 
L 468.433643 -62.680721 
L 469.377827 -56.150012 
L 470.322011 -63.703743 
L 471.266195 -67.694156 
L 472.210379 -67.389425 
L 473.154563 -61.949016 
L 474.098747 -60.125531 
L 475.042931 -64.984092 
L 475.987115 -71.752644 
L 476.931299 -71.160435 
L 477.875483 -74.010251 
L 478.819667 -67.893457 
L 479.763851 -67.095572 
L 480.708035 -60.226713 
L 481.652219 -65.172782 
L 482.596403 -65.687383 
L 483.540587 -64.88646 
L 484.484771 -59.309028 
L 485.428955 -62.728372 
L 486.373139 -68.506695 
L 487.317323 -62.416823 
L 488.261507 -63.982875 
L 489.205691 -55.696064 
L 490.149875 -57.817632 
L 491.094059 -58.995316 
L 492.038243 -60.800147 
L 492.982427 -61.24923 
L 493.926611 -61.609962 
L 494.870795 -62.814475 
L 495.814979 -61.362964 
L 496.759163 -56.441127 
L 497.703347 -58.373196 
L 498.647531 -62.912368 
L 499.591715 -62.205965 
L 500.535899 -62.805673 
L 501.480083 -62.375873 
L 502.424267 -63.39681 
L 503.368451 -63.281152 
L 504.312635 -60.592261 
L 505.256819 -71.46133 
L 506.201003 -70.401309 
L 507.145187 -65.619068 
L 508.089371 -58.45267 
L 509.033555 -58.932622 
L 509.977739 -57.343223 
L 510.921923 -63.25822 
L 511.866107 -67.440777 
L 512.810291 -68.071457 
L 513.754475 -63.707615 
L 514.698659 -65.505254 
L 515.642843 -72.710647 
L 516.587027 -71.785691 
L 517.531211 -61.240493 
L 518.475395 -66.345092 
L 519.419579 -62.996367 
L 520.363763 -65.292624 
L 521.307947 -59.557927 
L 522.252131 -62.975789 
L 523.196316 -64.523627 
L 524.1405 -64.731544 
L 525.084684 -67.188802 
L 526.028868 -65.915139 
L 526.973052 -62.803613 
L 527.917236 -60.67606 
L 528.86142 -66.159046 
L 529.805604 -69.575053 
L 530.749788 -70.329241 
L 531.693972 -73.801099 
L 532.638156 -62.512571 
L 533.58234 -56.793239 
L 534.526524 -56.769675 
L 535.470708 -59.79527 
L 535.470708 -84.813252 
L 535.470708 -84.813252 
L 534.526524 -68.965872 
L 533.58234 -73.493723 
L 532.638156 -83.896151 
L 531.693972 -97.072946 
L 530.749788 -104.717646 
L 529.805604 -107.415174 
L 528.86142 -90.048672 
L 527.917236 -90.814714 
L 526.973052 -95.903225 
L 526.028868 -94.24862 
L 525.084684 -93.93517 
L 524.1405 -84.061481 
L 523.196316 -86.372753 
L 522.252131 -85.631216 
L 521.307947 -83.901746 
L 520.363763 -95.662671 
L 519.419579 -97.9516 
L 518.475395 -104.281764 
L 517.531211 -107.809746 
L 516.587027 -115.272762 
L 515.642843 -106.383072 
L 514.698659 -99.765044 
L 513.754475 -84.952894 
L 512.810291 -91.724938 
L 511.866107 -88.655114 
L 510.921923 -82.119924 
L 509.977739 -78.734557 
L 509.033555 -80.301808 
L 508.089371 -86.03228 
L 507.145187 -94.753014 
L 506.201003 -106.394837 
L 505.256819 -102.29338 
L 504.312635 -95.318994 
L 503.368451 -83.780452 
L 502.424267 -87.526357 
L 501.480083 -98.005217 
L 500.535899 -93.977698 
L 499.591715 -90.654378 
L 498.647531 -85.207892 
L 497.703347 -80.820064 
L 496.759163 -86.234114 
L 495.814979 -77.590733 
L 494.870795 -83.248948 
L 493.926611 -92.020805 
L 492.982427 -96.755617 
L 492.038243 -88.293293 
L 491.094059 -82.766145 
L 490.149875 -75.562223 
L 489.205691 -77.525838 
L 488.261507 -83.222575 
L 487.317323 -90.953658 
L 486.373139 -90.447281 
L 485.428955 -85.165635 
L 484.484771 -86.961339 
L 483.540587 -87.542953 
L 482.596403 -78.163782 
L 481.652219 -87.710286 
L 480.708035 -84.327433 
L 479.763851 -105.985453 
L 478.819667 -97.683161 
L 477.875483 -103.473713 
L 476.931299 -109.177948 
L 475.987115 -105.180542 
L 475.042931 -99.332832 
L 474.098747 -76.4155 
L 473.154563 -80.757351 
L 472.210379 -87.800842 
L 471.266195 -88.398066 
L 470.322011 -85.202626 
L 469.377827 -83.38958 
L 468.433643 -90.681802 
L 467.489459 -90.643447 
L 466.545275 -93.078944 
L 465.601091 -86.168179 
L 464.656907 -91.837304 
L 463.712723 -90.692136 
L 462.768539 -88.155794 
L 461.824355 -87.12909 
L 460.880171 -81.890049 
L 459.935987 -93.737265 
L 458.991802 -84.512729 
L 458.047618 -88.515421 
L 457.103434 -79.045792 
L 456.15925 -82.341583 
L 455.215066 -89.03052 
L 454.270882 -99.605816 
L 453.326698 -96.567288 
L 452.382514 -89.156845 
L 451.43833 -90.922538 
L 450.494146 -104.003563 
L 449.549962 -98.397822 
L 448.605778 -89.577912 
L 447.661594 -87.372793 
L 446.71741 -81.355338 
L 445.773226 -81.882628 
L 444.829042 -79.368243 
L 443.884858 -89.523933 
L 442.940674 -92.222195 
L 441.99649 -90.060163 
L 441.052306 -91.811014 
L 440.108122 -93.388262 
L 439.163938 -96.30583 
L 438.219754 -98.134739 
L 437.27557 -99.115894 
L 436.331386 -95.544183 
L 435.387202 -95.709599 
L 434.443018 -81.852137 
L 433.498834 -81.694998 
L 432.55465 -84.062972 
L 431.610466 -98.826169 
L 430.666282 -94.992071 
L 429.722098 -95.155848 
L 428.777914 -86.712149 
L 427.83373 -82.353546 
L 426.889546 -90.817705 
L 425.945362 -97.003933 
L 425.001178 -104.323582 
L 424.056994 -99.58098 
L 423.11281 -98.426354 
L 422.168626 -94.076499 
L 421.224442 -88.455939 
L 420.280258 -80.120547 
L 419.336074 -82.321012 
L 418.39189 -79.46181 
L 417.447706 -81.729113 
L 416.503522 -90.703635 
L 415.559338 -105.85239 
L 414.615154 -120.338483 
L 413.67097 -106.582589 
L 412.726786 -95.64488 
L 411.782602 -79.090391 
L 410.838418 -77.716734 
L 409.894234 -74.266083 
L 408.95005 -74.028482 
L 408.005866 -73.122599 
L 407.061682 -74.623006 
L 406.117498 -99.628222 
L 405.173314 -100.899283 
L 404.22913 -102.935519 
L 403.284946 -84.719618 
L 402.340762 -85.853684 
L 401.396578 -102.798394 
L 400.452394 -118.126325 
L 399.50821 -115.134064 
L 398.564026 -113.208945 
L 397.619842 -97.629012 
L 396.675657 -97.587384 
L 395.731473 -82.577659 
L 394.787289 -82.996198 
L 393.843105 -87.222185 
L 392.898921 -87.972908 
L 391.954737 -85.347843 
L 391.010553 -84.678033 
L 390.066369 -85.56427 
L 389.122185 -84.419842 
L 388.178001 -96.191514 
L 387.233817 -91.924309 
L 386.289633 -83.747353 
L 385.345449 -83.165147 
L 384.401265 -87.610373 
L 383.457081 -88.458327 
L 382.512897 -94.245119 
L 381.568713 -89.803255 
L 380.624529 -92.890677 
L 379.680345 -81.363081 
L 378.736161 -86.171274 
L 377.791977 -83.015891 
L 376.847793 -85.23065 
L 375.903609 -84.738323 
L 374.959425 -87.080849 
L 374.015241 -87.913672 
L 373.071057 -84.642858 
L 372.126873 -82.013986 
L 371.182689 -78.319843 
L 370.238505 -82.93556 
L 369.294321 -88.569551 
L 368.350137 -90.40411 
L 367.405953 -86.08947 
L 366.461769 -84.141425 
L 365.517585 -90.151305 
L 364.573401 -86.746159 
L 363.629217 -95.42147 
L 362.685033 -86.770339 
L 361.740849 -83.117599 
L 360.796665 -82.292758 
L 359.852481 -79.520959 
L 358.908297 -80.379309 
L 357.964113 -83.841979 
L 357.019929 -88.53859 
L 356.075745 -88.612962 
L 355.131561 -81.634248 
L 354.187377 -82.063035 
L 353.243193 -75.274859 
L 352.299009 -76.781277 
L 351.354825 -75.949655 
L 350.410641 -89.192207 
L 349.466457 -91.241411 
L 348.522273 -91.007702 
L 347.578089 -83.726779 
L 346.633905 -86.734825 
L 345.689721 -85.247079 
L 344.745537 -88.907131 
L 343.801353 -98.751903 
L 342.857169 -98.782392 
L 341.912985 -95.501632 
L 340.968801 -92.534551 
L 340.024617 -91.459741 
L 339.080433 -83.269139 
L 338.136249 -92.94328 
L 337.192065 -88.373671 
L 336.247881 -89.555136 
L 335.303697 -84.726738 
L 334.359513 -80.011323 
L 333.415328 -82.928031 
L 332.471144 -76.312869 
L 331.52696 -74.578836 
L 330.582776 -76.146403 
L 329.638592 -77.606691 
L 328.694408 -85.233766 
L 327.750224 -86.050504 
L 326.80604 -103.374166 
L 325.861856 -102.735334 
L 324.917672 -92.783163 
L 323.973488 -81.635657 
L 323.029304 -86.487858 
L 322.08512 -85.977648 
L 321.140936 -88.308866 
L 320.196752 -81.509413 
L 319.252568 -90.536199 
L 318.308384 -92.943276 
L 317.3642 -93.826159 
L 316.420016 -91.257085 
L 315.475832 -103.28089 
L 314.531648 -101.692798 
L 313.587464 -100.496131 
L 312.64328 -85.985612 
L 311.699096 -86.735362 
L 310.754912 -82.384813 
L 309.810728 -89.336119 
L 308.866544 -89.925362 
L 307.92236 -93.336758 
L 306.978176 -89.510531 
L 306.033992 -80.719081 
L 305.089808 -79.581325 
L 304.145624 -76.358402 
L 303.20144 -81.702092 
L 302.257256 -88.595953 
L 301.313072 -93.337326 
L 300.368888 -98.114541 
L 299.424704 -96.787649 
L 298.48052 -101.250992 
L 297.536336 -88.433153 
L 296.592152 -82.891872 
L 295.647968 -73.643916 
L 294.703784 -70.862071 
L 293.7596 -81.169043 
L 292.815416 -83.016908 
L 291.871232 -86.07854 
L 290.927048 -87.470579 
L 289.982864 -84.523086 
L 289.03868 -87.684102 
L 288.094496 -87.758218 
L 287.150312 -90.759003 
L 286.206128 -95.385451 
L 285.261944 -88.813932 
L 284.31776 -88.88306 
L 283.373576 -90.828909 
L 282.429392 -103.964581 
L 281.485208 -106.530909 
L 280.541024 -104.272864 
L 279.59684 -91.978651 
L 278.652656 -90.321998 
L 277.708472 -84.23863 
L 276.764288 -76.534417 
L 275.820104 -75.304902 
L 274.87592 -74.214674 
L 273.931736 -73.284864 
L 272.987552 -89.117609 
L 272.043368 -93.972627 
L 271.099184 -97.365887 
L 270.154999 -90.356866 
L 269.210815 -87.247432 
L 268.266631 -86.521977 
L 267.322447 -78.957083 
L 266.378263 -84.570461 
L 265.434079 -79.489199 
L 264.489895 -75.97161 
L 263.545711 -70.136599 
L 262.601527 -71.097908 
L 261.657343 -74.741855 
L 260.713159 -75.990234 
L 259.768975 -85.974915 
L 258.824791 -87.121433 
L 257.880607 -86.150084 
L 256.936423 -76.486203 
L 255.992239 -71.708225 
L 255.048055 -77.591187 
L 254.103871 -82.014083 
L 253.159687 -90.623227 
L 252.215503 -93.90911 
L 251.271319 -91.958961 
L 250.327135 -82.016505 
L 249.382951 -78.357002 
L 248.438767 -81.28285 
L 247.494583 -78.096901 
L 246.550399 -80.895352 
L 245.606215 -73.261583 
L 244.662031 -74.241741 
L 243.717847 -77.766266 
L 242.773663 -81.974636 
L 241.829479 -93.861634 
L 240.885295 -89.701612 
L 239.941111 -103.076307 
L 238.996927 -101.846277 
L 238.052743 -99.616629 
L 237.108559 -101.033243 
L 236.164375 -97.696548 
L 235.220191 -94.960317 
L 234.276007 -89.377467 
L 233.331823 -95.920806 
L 232.387639 -108.883395 
L 231.443455 -99.556209 
L 230.499271 -91.593592 
L 229.555087 -86.838989 
L 228.610903 -82.441564 
L 227.666719 -82.497682 
L 226.722535 -79.247248 
L 225.778351 -85.740297 
L 224.834167 -84.36762 
L 223.889983 -90.037446 
L 222.945799 -91.477535 
L 222.001615 -93.667114 
L 221.057431 -92.777441 
L 220.113247 -90.905688 
L 219.169063 -87.97995 
L 218.224879 -89.198219 
L 217.280695 -84.577789 
L 216.336511 -83.550264 
L 215.392327 -76.297561 
L 214.448143 -80.17565 
L 213.503959 -92.349141 
L 212.559775 -89.56808 
L 211.615591 -81.293633 
L 210.671407 -80.005545 
L 209.727223 -78.795696 
L 208.783039 -94.328878 
L 207.838855 -91.108652 
L 206.89467 -99.179293 
L 205.950486 -89.793674 
L 205.006302 -83.533963 
L 204.062118 -92.970952 
L 203.117934 -85.911012 
L 202.17375 -82.686859 
L 201.229566 -73.880953 
L 200.285382 -77.045017 
L 199.341198 -77.710166 
L 198.397014 -83.104954 
L 197.45283 -79.785693 
L 196.508646 -89.958599 
L 195.564462 -86.100521 
L 194.620278 -90.418431 
L 193.676094 -81.469853 
L 192.73191 -78.058066 
L 191.787726 -77.630934 
L 190.843542 -75.969067 
L 189.899358 -80.054347 
L 188.955174 -78.851411 
L 188.01099 -83.055361 
L 187.066806 -89.717144 
L 186.122622 -93.372624 
L 185.178438 -92.621389 
L 184.234254 -87.85038 
L 183.29007 -87.222471 
L 182.345886 -84.178383 
L 181.401702 -89.792325 
L 180.457518 -86.563031 
L 179.513334 -82.673734 
L 178.56915 -72.099342 
L 177.624966 -72.066143 
L 176.680782 -76.348226 
L 175.736598 -81.934516 
L 174.792414 -81.668844 
L 173.84823 -75.682407 
L 172.904046 -78.425478 
L 171.959862 -74.524525 
L 171.015678 -79.37916 
L 170.071494 -78.782096 
L 169.12731 -84.623814 
L 168.183126 -87.731926 
L 167.238942 -85.81649 
L 166.294758 -86.230735 
L 165.350574 -82.362347 
L 164.40639 -85.853931 
L 163.462206 -76.867028 
L 162.518022 -87.679352 
L 161.573838 -100.869168 
L 160.629654 -101.79881 
L 159.68547 -97.765923 
L 158.741286 -82.989737 
L 157.797102 -86.410314 
L 156.852918 -82.374218 
L 155.908734 -93.994789 
L 154.96455 -90.387312 
L 154.020366 -89.483102 
L 153.076182 -75.04741 
L 152.131998 -78.3613 
L 151.187814 -78.169309 
L 150.24363 -79.502183 
L 149.299446 -82.863209 
L 148.355262 -84.587946 
L 147.411078 -91.703573 
L 146.466894 -88.815392 
L 145.52271 -94.526094 
L 144.578526 -88.05087 
L 143.634341 -92.507872 
L 142.690157 -91.148647 
L 141.745973 -89.977025 
L 140.801789 -97.849909 
L 139.857605 -94.833301 
L 138.913421 -91.870833 
L 137.969237 -86.562822 
L 137.025053 -86.726062 
L 136.080869 -84.631086 
L 135.136685 -81.414632 
L 134.192501 -82.518363 
L 133.248317 -86.567168 
L 132.304133 -84.743777 
L 131.359949 -84.817282 
L 130.415765 -81.875538 
L 129.471581 -80.710714 
L 128.527397 -88.756315 
L 127.583213 -90.032923 
L 126.639029 -92.340992 
L 125.694845 -87.321349 
L 124.750661 -86.671443 
L 123.806477 -85.647587 
L 122.862293 -86.730557 
L 121.918109 -92.332392 
L 120.973925 -85.705802 
L 120.029741 -78.178058 
L 119.085557 -99.866922 
L 118.141373 -98.87034 
L 117.197189 -103.492305 
L 116.253005 -92.57506 
L 115.308821 -111.645915 
L 114.364637 -106.658797 
L 113.420453 -93.707879 
L 112.476269 -72.38221 
L 111.532085 -73.981598 
L 110.587901 -73.587511 
L 109.643717 -87.142332 
L 108.699533 -92.248331 
L 107.755349 -94.630419 
L 106.811165 -98.115797 
L 105.866981 -86.447719 
L 104.922797 -101.425862 
L 103.978613 -91.438302 
L 103.034429 -84.737267 
L 102.090245 -78.405966 
L 101.146061 -84.821511 
L 100.201877 -101.1692 
L 99.257693 -89.014542 
L 98.313509 -85.992631 
L 97.369325 -82.851776 
L 96.425141 -80.029253 
L 95.480957 -80.139076 
L 94.536773 -76.139864 
L 93.592589 -74.283022 
L 92.648405 -75.033152 
L 91.704221 -77.083107 
L 90.760037 -89.75216 
L 89.815853 -100.249335 
L 88.871669 -104.001642 
L 87.927485 -94.58076 
L 86.983301 -90.541653 
L 86.039117 -100.255682 
z
" style="stroke: #008000; stroke-opacity: 0.1"/>
    </defs>
    <g clip-path="url(#p4114a19265)">
     <use xlink:href="#me728bff596" x="0" y="144" style="fill: #008000; fill-opacity: 0.1; stroke: #008000; stroke-opacity: 0.1"/>
    </g>
   </g>
   <g id="matplotlib.axis_1">
    <g id="xtick_1">
     <g id="line2d_1"/>
     <g id="text_1">
      <!-- 0 -->
      <g transform="translate(81.917355 113.038438) scale(0.1 -0.1)">
       <defs>
        <path id="DejaVuSans-30" d="M 2034 4250 
Q 1547 4250 1301 3770 
Q 1056 3291 1056 2328 
Q 1056 1369 1301 889 
Q 1547 409 2034 409 
Q 2525 409 2770 889 
Q 3016 1369 3016 2328 
Q 3016 3291 2770 3770 
Q 2525 4250 2034 4250 
z
M 2034 4750 
Q 2819 4750 3233 4129 
Q 3647 3509 3647 2328 
Q 3647 1150 3233 529 
Q 2819 -91 2034 -91 
Q 1250 -91 836 529 
Q 422 1150 422 2328 
Q 422 3509 836 4129 
Q 1250 4750 2034 4750 
z
" transform="scale(0.015625)"/>
       </defs>
       <use xlink:href="#DejaVuSans-30"/>
      </g>
     </g>
    </g>
    <g id="xtick_2">
     <g id="line2d_2"/>
     <g id="text_2">
      <!-- 100 -->
      <g transform="translate(169.606 113.038438) scale(0.1 -0.1)">
       <defs>
        <path id="DejaVuSans-31" d="M 794 531 
L 1825 531 
L 1825 4091 
L 703 3866 
L 703 4441 
L 1819 4666 
L 2450 4666 
L 2450 531 
L 3481 531 
L 3481 0 
L 794 0 
L 794 531 
z
" transform="scale(0.015625)"/>
       </defs>
       <use xlink:href="#DejaVuSans-31"/>
       <use xlink:href="#DejaVuSans-30" x="63.623047"/>
       <use xlink:href="#DejaVuSans-30" x="127.246094"/>
      </g>
     </g>
    </g>
    <g id="xtick_3">
     <g id="line2d_3"/>
     <g id="text_3">
      <!-- 200 -->
      <g transform="translate(263.657145 113.038438) scale(0.1 -0.1)">
       <defs>
        <path id="DejaVuSans-32" d="M 1228 531 
L 3431 531 
L 3431 0 
L 469 0 
L 469 531 
Q 828 903 1448 1529 
Q 2069 2156 2228 2338 
Q 2531 2678 2651 2914 
Q 2772 3150 2772 3378 
Q 2772 3750 2511 3984 
Q 2250 4219 1831 4219 
Q 1534 4219 1204 4116 
Q 875 4013 500 3803 
L 500 4441 
Q 881 4594 1212 4672 
Q 1544 4750 1819 4750 
Q 2544 4750 2975 4387 
Q 3406 4025 3406 3419 
Q 3406 3131 3298 2873 
Q 3191 2616 2906 2266 
Q 2828 2175 2409 1742 
Q 1991 1309 1228 531 
z
" transform="scale(0.015625)"/>
       </defs>
       <use xlink:href="#DejaVuSans-32"/>
       <use xlink:href="#DejaVuSans-30" x="63.623047"/>
       <use xlink:href="#DejaVuSans-30" x="127.246094"/>
      </g>
     </g>
    </g>
    <g id="xtick_4">
     <g id="line2d_4"/>
     <g id="text_4">
      <!-- 300 -->
      <g transform="translate(357.70829 113.038438) scale(0.1 -0.1)">
       <defs>
        <path id="DejaVuSans-33" d="M 2597 2516 
Q 3050 2419 3304 2112 
Q 3559 1806 3559 1356 
Q 3559 666 3084 287 
Q 2609 -91 1734 -91 
Q 1441 -91 1130 -33 
Q 819 25 488 141 
L 488 750 
Q 750 597 1062 519 
Q 1375 441 1716 441 
Q 2309 441 2620 675 
Q 2931 909 2931 1356 
Q 2931 1769 2642 2001 
Q 2353 2234 1838 2234 
L 1294 2234 
L 1294 2753 
L 1863 2753 
Q 2328 2753 2575 2939 
Q 2822 3125 2822 3475 
Q 2822 3834 2567 4026 
Q 2313 4219 1838 4219 
Q 1578 4219 1281 4162 
Q 984 4106 628 3988 
L 628 4550 
Q 988 4650 1302 4700 
Q 1616 4750 1894 4750 
Q 2613 4750 3031 4423 
Q 3450 4097 3450 3541 
Q 3450 3153 3228 2886 
Q 3006 2619 2597 2516 
z
" transform="scale(0.015625)"/>
       </defs>
       <use xlink:href="#DejaVuSans-33"/>
       <use xlink:href="#DejaVuSans-30" x="63.623047"/>
       <use xlink:href="#DejaVuSans-30" x="127.246094"/>
      </g>
     </g>
    </g>
    <g id="xtick_5">
     <g id="line2d_5"/>
     <g id="text_5">
      <!-- 400 -->
      <g transform="translate(451.759434 113.038438) scale(0.1 -0.1)">
       <defs>
        <path id="DejaVuSans-34" d="M 2419 4116 
L 825 1625 
L 2419 1625 
L 2419 4116 
z
M 2253 4666 
L 3047 4666 
L 3047 1625 
L 3713 1625 
L 3713 1100 
L 3047 1100 
L 3047 0 
L 2419 0 
L 2419 1100 
L 313 1100 
L 313 1709 
L 2253 4666 
z
" transform="scale(0.015625)"/>
       </defs>
       <use xlink:href="#DejaVuSans-34"/>
       <use xlink:href="#DejaVuSans-30" x="63.623047"/>
       <use xlink:href="#DejaVuSans-30" x="127.246094"/>
      </g>
     </g>
    </g>
    <g id="xtick_6">
     <g id="line2d_6"/>
     <g id="text_6">
      <!-- 500 -->
      <g transform="translate(545.810579 113.038438) scale(0.1 -0.1)">
       <defs>
        <path id="DejaVuSans-35" d="M 691 4666 
L 3169 4666 
L 3169 4134 
L 1269 4134 
L 1269 2991 
Q 1406 3038 1543 3061 
Q 1681 3084 1819 3084 
Q 2600 3084 3056 2656 
Q 3513 2228 3513 1497 
Q 3513 744 3044 326 
Q 2575 -91 1722 -91 
Q 1428 -91 1123 -41 
Q 819 9 494 109 
L 494 744 
Q 775 591 1075 516 
Q 1375 441 1709 441 
Q 2250 441 2565 725 
Q 2881 1009 2881 1497 
Q 2881 1984 2565 2268 
Q 2250 2553 1709 2553 
Q 1456 2553 1204 2497 
Q 953 2441 691 2322 
L 691 4666 
z
" transform="scale(0.015625)"/>
       </defs>
       <use xlink:href="#DejaVuSans-35"/>
       <use xlink:href="#DejaVuSans-30" x="63.623047"/>
       <use xlink:href="#DejaVuSans-30" x="127.246094"/>
      </g>
     </g>
    </g>
    <g id="text_7">
     <!-- time (s) across film -->
     <g transform="translate(243.080281 129.755937) scale(0.14 -0.14)">
      <defs>
       <path id="DejaVuSans-74" d="M 1172 4494 
L 1172 3500 
L 2356 3500 
L 2356 3053 
L 1172 3053 
L 1172 1153 
Q 1172 725 1289 603 
Q 1406 481 1766 481 
L 2356 481 
L 2356 0 
L 1766 0 
Q 1100 0 847 248 
Q 594 497 594 1153 
L 594 3053 
L 172 3053 
L 172 3500 
L 594 3500 
L 594 4494 
L 1172 4494 
z
" transform="scale(0.015625)"/>
       <path id="DejaVuSans-69" d="M 603 3500 
L 1178 3500 
L 1178 0 
L 603 0 
L 603 3500 
z
M 603 4863 
L 1178 4863 
L 1178 4134 
L 603 4134 
L 603 4863 
z
" transform="scale(0.015625)"/>
       <path id="DejaVuSans-6d" d="M 3328 2828 
Q 3544 3216 3844 3400 
Q 4144 3584 4550 3584 
Q 5097 3584 5394 3201 
Q 5691 2819 5691 2113 
L 5691 0 
L 5113 0 
L 5113 2094 
Q 5113 2597 4934 2840 
Q 4756 3084 4391 3084 
Q 3944 3084 3684 2787 
Q 3425 2491 3425 1978 
L 3425 0 
L 2847 0 
L 2847 2094 
Q 2847 2600 2669 2842 
Q 2491 3084 2119 3084 
Q 1678 3084 1418 2786 
Q 1159 2488 1159 1978 
L 1159 0 
L 581 0 
L 581 3500 
L 1159 3500 
L 1159 2956 
Q 1356 3278 1631 3431 
Q 1906 3584 2284 3584 
Q 2666 3584 2933 3390 
Q 3200 3197 3328 2828 
z
" transform="scale(0.015625)"/>
       <path id="DejaVuSans-65" d="M 3597 1894 
L 3597 1613 
L 953 1613 
Q 991 1019 1311 708 
Q 1631 397 2203 397 
Q 2534 397 2845 478 
Q 3156 559 3463 722 
L 3463 178 
Q 3153 47 2828 -22 
Q 2503 -91 2169 -91 
Q 1331 -91 842 396 
Q 353 884 353 1716 
Q 353 2575 817 3079 
Q 1281 3584 2069 3584 
Q 2775 3584 3186 3129 
Q 3597 2675 3597 1894 
z
M 3022 2063 
Q 3016 2534 2758 2815 
Q 2500 3097 2075 3097 
Q 1594 3097 1305 2825 
Q 1016 2553 972 2059 
L 3022 2063 
z
" transform="scale(0.015625)"/>
       <path id="DejaVuSans-20" transform="scale(0.015625)"/>
       <path id="DejaVuSans-28" d="M 1984 4856 
Q 1566 4138 1362 3434 
Q 1159 2731 1159 2009 
Q 1159 1288 1364 580 
Q 1569 -128 1984 -844 
L 1484 -844 
Q 1016 -109 783 600 
Q 550 1309 550 2009 
Q 550 2706 781 3412 
Q 1013 4119 1484 4856 
L 1984 4856 
z
" transform="scale(0.015625)"/>
       <path id="DejaVuSans-73" d="M 2834 3397 
L 2834 2853 
Q 2591 2978 2328 3040 
Q 2066 3103 1784 3103 
Q 1356 3103 1142 2972 
Q 928 2841 928 2578 
Q 928 2378 1081 2264 
Q 1234 2150 1697 2047 
L 1894 2003 
Q 2506 1872 2764 1633 
Q 3022 1394 3022 966 
Q 3022 478 2636 193 
Q 2250 -91 1575 -91 
Q 1294 -91 989 -36 
Q 684 19 347 128 
L 347 722 
Q 666 556 975 473 
Q 1284 391 1588 391 
Q 1994 391 2212 530 
Q 2431 669 2431 922 
Q 2431 1156 2273 1281 
Q 2116 1406 1581 1522 
L 1381 1569 
Q 847 1681 609 1914 
Q 372 2147 372 2553 
Q 372 3047 722 3315 
Q 1072 3584 1716 3584 
Q 2034 3584 2315 3537 
Q 2597 3491 2834 3397 
z
" transform="scale(0.015625)"/>
       <path id="DejaVuSans-29" d="M 513 4856 
L 1013 4856 
Q 1481 4119 1714 3412 
Q 1947 2706 1947 2009 
Q 1947 1309 1714 600 
Q 1481 -109 1013 -844 
L 513 -844 
Q 928 -128 1133 580 
Q 1338 1288 1338 2009 
Q 1338 2731 1133 3434 
Q 928 4138 513 4856 
z
" transform="scale(0.015625)"/>
       <path id="DejaVuSans-61" d="M 2194 1759 
Q 1497 1759 1228 1600 
Q 959 1441 959 1056 
Q 959 750 1161 570 
Q 1363 391 1709 391 
Q 2188 391 2477 730 
Q 2766 1069 2766 1631 
L 2766 1759 
L 2194 1759 
z
M 3341 1997 
L 3341 0 
L 2766 0 
L 2766 531 
Q 2569 213 2275 61 
Q 1981 -91 1556 -91 
Q 1019 -91 701 211 
Q 384 513 384 1019 
Q 384 1609 779 1909 
Q 1175 2209 1959 2209 
L 2766 2209 
L 2766 2266 
Q 2766 2663 2505 2880 
Q 2244 3097 1772 3097 
Q 1472 3097 1187 3025 
Q 903 2953 641 2809 
L 641 3341 
Q 956 3463 1253 3523 
Q 1550 3584 1831 3584 
Q 2591 3584 2966 3190 
Q 3341 2797 3341 1997 
z
" transform="scale(0.015625)"/>
       <path id="DejaVuSans-63" d="M 3122 3366 
L 3122 2828 
Q 2878 2963 2633 3030 
Q 2388 3097 2138 3097 
Q 1578 3097 1268 2742 
Q 959 2388 959 1747 
Q 959 1106 1268 751 
Q 1578 397 2138 397 
Q 2388 397 2633 464 
Q 2878 531 3122 666 
L 3122 134 
Q 2881 22 2623 -34 
Q 2366 -91 2075 -91 
Q 1284 -91 818 406 
Q 353 903 353 1747 
Q 353 2603 823 3093 
Q 1294 3584 2113 3584 
Q 2378 3584 2631 3529 
Q 2884 3475 3122 3366 
z
" transform="scale(0.015625)"/>
       <path id="DejaVuSans-72" d="M 2631 2963 
Q 2534 3019 2420 3045 
Q 2306 3072 2169 3072 
Q 1681 3072 1420 2755 
Q 1159 2438 1159 1844 
L 1159 0 
L 581 0 
L 581 3500 
L 1159 3500 
L 1159 2956 
Q 1341 3275 1631 3429 
Q 1922 3584 2338 3584 
Q 2397 3584 2469 3576 
Q 2541 3569 2628 3553 
L 2631 2963 
z
" transform="scale(0.015625)"/>
       <path id="DejaVuSans-6f" d="M 1959 3097 
Q 1497 3097 1228 2736 
Q 959 2375 959 1747 
Q 959 1119 1226 758 
Q 1494 397 1959 397 
Q 2419 397 2687 759 
Q 2956 1122 2956 1747 
Q 2956 2369 2687 2733 
Q 2419 3097 1959 3097 
z
M 1959 3584 
Q 2709 3584 3137 3096 
Q 3566 2609 3566 1747 
Q 3566 888 3137 398 
Q 2709 -91 1959 -91 
Q 1206 -91 779 398 
Q 353 888 353 1747 
Q 353 2609 779 3096 
Q 1206 3584 1959 3584 
z
" transform="scale(0.015625)"/>
       <path id="DejaVuSans-66" d="M 2375 4863 
L 2375 4384 
L 1825 4384 
Q 1516 4384 1395 4259 
Q 1275 4134 1275 3809 
L 1275 3500 
L 2222 3500 
L 2222 3053 
L 1275 3053 
L 1275 0 
L 697 0 
L 697 3053 
L 147 3053 
L 147 3500 
L 697 3500 
L 697 3744 
Q 697 4328 969 4595 
Q 1241 4863 1831 4863 
L 2375 4863 
z
" transform="scale(0.015625)"/>
       <path id="DejaVuSans-6c" d="M 603 4863 
L 1178 4863 
L 1178 0 
L 603 0 
L 603 4863 
z
" transform="scale(0.015625)"/>
      </defs>
      <use xlink:href="#DejaVuSans-74"/>
      <use xlink:href="#DejaVuSans-69" x="39.208984"/>
      <use xlink:href="#DejaVuSans-6d" x="66.992188"/>
      <use xlink:href="#DejaVuSans-65" x="164.404297"/>
      <use xlink:href="#DejaVuSans-20" x="225.927734"/>
      <use xlink:href="#DejaVuSans-28" x="257.714844"/>
      <use xlink:href="#DejaVuSans-73" x="296.728516"/>
      <use xlink:href="#DejaVuSans-29" x="348.828125"/>
      <use xlink:href="#DejaVuSans-20" x="387.841797"/>
      <use xlink:href="#DejaVuSans-61" x="419.628906"/>
      <use xlink:href="#DejaVuSans-63" x="480.908203"/>
      <use xlink:href="#DejaVuSans-72" x="535.888672"/>
      <use xlink:href="#DejaVuSans-6f" x="574.751953"/>
      <use xlink:href="#DejaVuSans-73" x="635.933594"/>
      <use xlink:href="#DejaVuSans-73" x="688.033203"/>
      <use xlink:href="#DejaVuSans-20" x="740.132812"/>
      <use xlink:href="#DejaVuSans-66" x="771.919922"/>
      <use xlink:href="#DejaVuSans-69" x="807.125"/>
      <use xlink:href="#DejaVuSans-6c" x="834.908203"/>
      <use xlink:href="#DejaVuSans-6d" x="862.691406"/>
     </g>
    </g>
   </g>
   <g id="matplotlib.axis_2">
    <g id="ytick_1">
     <g id="line2d_7"/>
     <g id="text_8">
      <!-- −2 -->
      <g transform="translate(44.337813 98.881219) scale(0.1 -0.1)">
       <defs>
        <path id="DejaVuSans-2212" d="M 678 2272 
L 4684 2272 
L 4684 1741 
L 678 1741 
L 678 2272 
z
" transform="scale(0.015625)"/>
       </defs>
       <use xlink:href="#DejaVuSans-2212"/>
       <use xlink:href="#DejaVuSans-32" x="83.789062"/>
      </g>
     </g>
    </g>
    <g id="ytick_2">
     <g id="line2d_8"/>
     <g id="text_9">
      <!-- 0 -->
      <g transform="translate(52.7175 71.449219) scale(0.1 -0.1)">
       <use xlink:href="#DejaVuSans-30"/>
      </g>
     </g>
    </g>
    <g id="ytick_3">
     <g id="line2d_9"/>
     <g id="text_10">
      <!-- 2 -->
      <g transform="translate(52.7175 44.017219) scale(0.1 -0.1)">
       <use xlink:href="#DejaVuSans-32"/>
      </g>
     </g>
    </g>
    <g id="text_11">
     <!-- normalized FR -->
     <g transform="translate(21.749312 117.661719) rotate(-90) scale(0.14 -0.14)">
      <defs>
       <path id="DejaVuSans-6e" d="M 3513 2113 
L 3513 0 
L 2938 0 
L 2938 2094 
Q 2938 2591 2744 2837 
Q 2550 3084 2163 3084 
Q 1697 3084 1428 2787 
Q 1159 2491 1159 1978 
L 1159 0 
L 581 0 
L 581 3500 
L 1159 3500 
L 1159 2956 
Q 1366 3272 1645 3428 
Q 1925 3584 2291 3584 
Q 2894 3584 3203 3211 
Q 3513 2838 3513 2113 
z
" transform="scale(0.015625)"/>
       <path id="DejaVuSans-7a" d="M 353 3500 
L 3084 3500 
L 3084 2975 
L 922 459 
L 3084 459 
L 3084 0 
L 275 0 
L 275 525 
L 2438 3041 
L 353 3041 
L 353 3500 
z
" transform="scale(0.015625)"/>
       <path id="DejaVuSans-64" d="M 2906 2969 
L 2906 4863 
L 3481 4863 
L 3481 0 
L 2906 0 
L 2906 525 
Q 2725 213 2448 61 
Q 2172 -91 1784 -91 
Q 1150 -91 751 415 
Q 353 922 353 1747 
Q 353 2572 751 3078 
Q 1150 3584 1784 3584 
Q 2172 3584 2448 3432 
Q 2725 3281 2906 2969 
z
M 947 1747 
Q 947 1113 1208 752 
Q 1469 391 1925 391 
Q 2381 391 2643 752 
Q 2906 1113 2906 1747 
Q 2906 2381 2643 2742 
Q 2381 3103 1925 3103 
Q 1469 3103 1208 2742 
Q 947 2381 947 1747 
z
" transform="scale(0.015625)"/>
       <path id="DejaVuSans-46" d="M 628 4666 
L 3309 4666 
L 3309 4134 
L 1259 4134 
L 1259 2759 
L 3109 2759 
L 3109 2228 
L 1259 2228 
L 1259 0 
L 628 0 
L 628 4666 
z
" transform="scale(0.015625)"/>
       <path id="DejaVuSans-52" d="M 2841 2188 
Q 3044 2119 3236 1894 
Q 3428 1669 3622 1275 
L 4263 0 
L 3584 0 
L 2988 1197 
Q 2756 1666 2539 1819 
Q 2322 1972 1947 1972 
L 1259 1972 
L 1259 0 
L 628 0 
L 628 4666 
L 2053 4666 
Q 2853 4666 3247 4331 
Q 3641 3997 3641 3322 
Q 3641 2881 3436 2590 
Q 3231 2300 2841 2188 
z
M 1259 4147 
L 1259 2491 
L 2053 2491 
Q 2509 2491 2742 2702 
Q 2975 2913 2975 3322 
Q 2975 3731 2742 3939 
Q 2509 4147 2053 4147 
L 1259 4147 
z
" transform="scale(0.015625)"/>
      </defs>
      <use xlink:href="#DejaVuSans-6e"/>
      <use xlink:href="#DejaVuSans-6f" x="63.378906"/>
      <use xlink:href="#DejaVuSans-72" x="124.560547"/>
      <use xlink:href="#DejaVuSans-6d" x="163.923828"/>
      <use xlink:href="#DejaVuSans-61" x="261.335938"/>
      <use xlink:href="#DejaVuSans-6c" x="322.615234"/>
      <use xlink:href="#DejaVuSans-69" x="350.398438"/>
      <use xlink:href="#DejaVuSans-7a" x="378.181641"/>
      <use xlink:href="#DejaVuSans-65" x="430.671875"/>
      <use xlink:href="#DejaVuSans-64" x="492.195312"/>
      <use xlink:href="#DejaVuSans-20" x="555.671875"/>
      <use xlink:href="#DejaVuSans-46" x="587.458984"/>
      <use xlink:href="#DejaVuSans-52" x="644.978516"/>
     </g>
     <!-- (Hz) -->
     <g transform="translate(37.42625 82.050313) rotate(-90) scale(0.14 -0.14)">
      <defs>
       <path id="DejaVuSans-48" d="M 628 4666 
L 1259 4666 
L 1259 2753 
L 3553 2753 
L 3553 4666 
L 4184 4666 
L 4184 0 
L 3553 0 
L 3553 2222 
L 1259 2222 
L 1259 0 
L 628 0 
L 628 4666 
z
" transform="scale(0.015625)"/>
      </defs>
      <use xlink:href="#DejaVuSans-28"/>
      <use xlink:href="#DejaVuSans-48" x="39.013672"/>
      <use xlink:href="#DejaVuSans-7a" x="114.208984"/>
      <use xlink:href="#DejaVuSans-29" x="166.699219"/>
     </g>
    </g>
   </g>
   <g id="line2d_10">
    <path d="M 86.039117 54.414217 
L 86.983301 63.593014 
L 87.927485 60.875987 
L 88.871669 52.287028 
L 89.815853 53.913807 
L 90.760037 63.748913 
L 91.704221 75.726021 
L 92.648405 75.496199 
L 93.592589 75.065486 
L 95.480957 72.419555 
L 96.425141 71.946808 
L 97.369325 73.143525 
L 98.313509 69.502316 
L 99.257693 67.895436 
L 100.201877 59.772133 
L 101.146061 67.262777 
L 102.090245 71.794196 
L 103.034429 71.241164 
L 103.978613 68.159437 
L 104.922797 57.752876 
L 105.866981 68.476588 
L 106.811165 60.440566 
L 107.755349 63.318894 
L 108.699533 64.548325 
L 109.643717 69.140236 
L 110.587901 76.662298 
L 111.532085 76.074173 
L 112.476269 79.424109 
L 113.420453 61.602076 
L 114.364637 51.846977 
L 115.308821 47.218322 
L 116.253005 61.000299 
L 117.197189 54.777953 
L 118.141373 60.27206 
L 119.085557 61.823245 
L 120.029741 74.01096 
L 120.973925 71.142579 
L 121.918109 67.016508 
L 122.862293 66.809095 
L 123.806477 68.201441 
L 124.750661 66.832541 
L 125.694845 67.642494 
L 126.639029 64.105827 
L 127.583213 69.1803 
L 128.527397 66.657919 
L 129.471581 71.687781 
L 130.415765 73.928823 
L 131.359949 73.808502 
L 132.304133 72.165283 
L 133.248317 69.827428 
L 134.192501 72.404919 
L 135.136685 73.36 
L 136.080869 70.51388 
L 137.025053 70.632553 
L 137.969237 69.26711 
L 138.913421 62.147832 
L 139.857605 62.808466 
L 140.801789 56.346797 
L 141.745973 62.171259 
L 142.690157 59.707649 
L 143.634341 61.480741 
L 144.578526 66.240619 
L 145.52271 66.143928 
L 146.466894 70.087608 
L 147.411078 64.935194 
L 148.355262 70.059854 
L 149.299446 67.623894 
L 150.24363 72.11349 
L 151.187814 73.289704 
L 152.131998 76.679093 
L 153.076182 76.391477 
L 154.020366 65.377951 
L 154.96455 64.121715 
L 155.908734 63.676801 
L 156.852918 72.716182 
L 157.797102 69.455618 
L 158.741286 70.400077 
L 159.68547 57.916269 
L 160.629654 56.634067 
L 161.573838 57.20513 
L 162.518022 69.350968 
L 163.462206 75.542161 
L 164.40639 69.077758 
L 165.350574 69.934069 
L 166.294758 67.115401 
L 167.238942 70.210779 
L 168.183126 67.778004 
L 169.12731 70.319381 
L 170.071494 75.132124 
L 171.015678 72.272298 
L 171.959862 75.137106 
L 172.904046 72.721324 
L 173.84823 74.651545 
L 174.792414 70.123817 
L 175.736598 71.747972 
L 176.680782 75.941419 
L 177.624966 78.568436 
L 178.56915 79.215712 
L 179.513334 70.962059 
L 180.457518 70.109683 
L 181.401702 67.55128 
L 182.345886 71.631611 
L 183.29007 69.681894 
L 184.234254 68.706978 
L 185.178438 66.743059 
L 186.122622 65.538575 
L 188.01099 69.988991 
L 188.955174 73.016099 
L 189.899358 73.733636 
L 190.843542 76.64172 
L 191.787726 77.020027 
L 192.73191 75.361129 
L 193.676094 72.560851 
L 194.620278 65.125447 
L 195.564462 67.69354 
L 196.508646 67.911861 
L 197.45283 75.749505 
L 198.397014 73.797806 
L 199.341198 77.699831 
L 200.285382 77.641734 
L 201.229566 78.08031 
L 202.17375 70.460666 
L 203.117934 71.268205 
L 204.062118 67.272093 
L 205.006302 70.647347 
L 205.950486 69.190624 
L 206.89467 67.21265 
L 207.838855 68.960426 
L 208.783039 66.26721 
L 209.727223 73.204025 
L 210.671407 75.390469 
L 211.615591 71.588057 
L 212.559775 64.851523 
L 213.503959 64.200289 
L 214.448143 71.025784 
L 215.392327 76.828425 
L 216.336511 69.842361 
L 217.280695 69.729945 
L 218.224879 67.073825 
L 219.169063 66.032442 
L 220.113247 64.117624 
L 221.057431 63.692568 
L 222.001615 64.268014 
L 222.945799 66.961919 
L 223.889983 66.007245 
L 224.834167 71.233969 
L 225.778351 70.232726 
L 226.722535 73.649998 
L 227.666719 71.644847 
L 228.610903 70.479733 
L 229.555087 69.508163 
L 230.499271 62.531026 
L 231.443455 58.540323 
L 232.387639 56.780472 
L 233.331823 64.74895 
L 234.276007 66.884206 
L 235.220191 60.680291 
L 236.164375 58.741541 
L 237.108559 59.691257 
L 238.052743 61.953012 
L 238.996927 59.781666 
L 239.941111 55.516927 
L 240.885295 62.296984 
L 241.829479 62.881036 
L 242.773663 72.713811 
L 243.717847 74.298073 
L 244.662031 79.055873 
L 245.606215 77.178476 
L 246.550399 73.414006 
L 247.494583 74.613501 
L 248.438767 72.104408 
L 249.382951 74.429544 
L 250.327135 69.480635 
L 251.271319 62.534219 
L 252.215503 60.417675 
L 253.159687 63.935642 
L 254.103871 72.724665 
L 255.992239 77.239754 
L 256.936423 74.608223 
L 257.880607 69.832196 
L 258.824791 68.491362 
L 259.768975 68.116527 
L 260.713159 73.590974 
L 261.657343 74.491953 
L 262.601527 78.450863 
L 263.545711 79.851465 
L 264.489895 75.582969 
L 265.434079 73.18267 
L 266.378263 69.352979 
L 267.322447 73.808421 
L 268.266631 67.373954 
L 270.154999 62.018518 
L 271.099184 57.932641 
L 272.987552 67.656263 
L 273.931736 79.102377 
L 274.87592 79.146913 
L 275.820104 77.300872 
L 276.764288 76.853951 
L 278.652656 64.619538 
L 279.59684 64.726422 
L 280.541024 54.941864 
L 281.485208 54.166568 
L 282.429392 51.733528 
L 283.373576 67.180775 
L 284.31776 65.383524 
L 285.261944 65.710772 
L 286.206128 60.811282 
L 287.150312 64.423279 
L 288.094496 68.55932 
L 289.03868 69.502448 
L 289.982864 67.885776 
L 290.927048 64.676623 
L 291.871232 67.038176 
L 292.815416 71.838997 
L 293.7596 75.166465 
L 294.703784 81.098418 
L 295.647968 77.173648 
L 296.592152 71.518543 
L 297.536336 66.823785 
L 298.48052 59.949255 
L 299.424704 58.511817 
L 300.368888 54.363211 
L 301.313072 63.25721 
L 302.257256 67.020388 
L 303.20144 73.815532 
L 304.145624 76.863123 
L 305.089808 74.21309 
L 306.978176 69.83458 
L 307.92236 69.180254 
L 308.866544 71.214122 
L 309.810728 68.122506 
L 310.754912 68.779009 
L 311.699096 66.254182 
L 312.64328 66.831767 
L 313.587464 57.768878 
L 314.531648 56.196949 
L 315.475832 55.534832 
L 316.420016 61.563965 
L 317.3642 58.319896 
L 318.308384 62.224532 
L 319.252568 67.245163 
L 320.196752 73.386065 
L 321.140936 67.228898 
L 322.08512 66.920256 
L 323.029304 68.566683 
L 323.973488 72.316854 
L 324.917672 66.623037 
L 325.861856 62.390765 
L 326.80604 62.843476 
L 327.750224 69.091748 
L 328.694408 69.820188 
L 330.582776 77.477206 
L 331.52696 76.15445 
L 332.471144 76.48504 
L 333.415328 71.776925 
L 334.359513 73.132899 
L 335.303697 71.455653 
L 336.247881 65.078941 
L 337.192065 67.952602 
L 338.136249 64.498845 
L 339.080433 72.125044 
L 340.024617 65.904644 
L 340.968801 67.969804 
L 341.912985 63.565039 
L 342.857169 60.805273 
L 343.801353 62.243903 
L 344.745537 65.38256 
L 345.689721 67.31039 
L 346.633905 64.98426 
L 347.578089 69.403636 
L 348.522273 69.105653 
L 349.466457 68.122897 
L 350.410641 67.85386 
L 351.354825 75.730999 
L 352.299009 76.144264 
L 353.243193 75.920625 
L 354.187377 70.779122 
L 355.131561 72.544381 
L 356.075745 67.47941 
L 357.019929 69.564225 
L 357.964113 70.091696 
L 358.908297 71.399733 
L 359.852481 73.245541 
L 360.796665 72.706864 
L 361.740849 73.449381 
L 363.629217 66.003786 
L 364.573401 68.589186 
L 365.517585 68.442379 
L 366.461769 70.656548 
L 367.405953 69.4746 
L 368.350137 68.647914 
L 369.294321 71.763205 
L 370.238505 72.648341 
L 371.182689 75.700297 
L 372.126873 71.634027 
L 373.071057 69.559416 
L 374.015241 65.477992 
L 374.959425 68.129153 
L 375.903609 66.604584 
L 376.847793 67.795894 
L 377.791977 70.459602 
L 378.736161 68.367323 
L 379.680345 72.37663 
L 380.624529 65.566901 
L 381.568713 69.494495 
L 382.512897 62.884709 
L 383.457081 66.272444 
L 384.401265 66.717751 
L 385.345449 73.3614 
L 386.289633 70.954944 
L 387.233817 67.894197 
L 388.178001 65.360912 
L 389.122185 70.511789 
L 390.066369 72.962553 
L 391.010553 72.137468 
L 391.954737 68.913327 
L 392.898921 66.762722 
L 393.843105 65.943763 
L 394.787289 68.961829 
L 395.731473 70.311976 
L 396.675657 61.583493 
L 397.619842 60.161441 
L 398.564026 52.660488 
L 399.50821 49.721288 
L 400.452394 48.770997 
L 401.396578 56.725125 
L 402.340762 73.152658 
L 403.284946 70.896959 
L 404.22913 55.981865 
L 405.173314 56.13705 
L 406.117498 58.873545 
L 407.061682 76.971653 
L 408.005866 78.119126 
L 408.95005 76.97902 
L 409.894234 76.224059 
L 410.838418 73.722796 
L 411.782602 74.434 
L 412.726786 60.671208 
L 413.67097 48.748416 
L 414.615154 43.767246 
L 415.559338 57.515878 
L 416.503522 68.759793 
L 417.447706 74.232464 
L 418.39189 73.449848 
L 419.336074 72.059939 
L 420.280258 71.758549 
L 421.224442 68.581193 
L 422.168626 63.446336 
L 423.11281 59.351635 
L 424.056994 58.436309 
L 425.001178 55.155762 
L 425.945362 63.007158 
L 426.889546 66.388472 
L 427.83373 71.081001 
L 428.777914 67.886749 
L 429.722098 60.691556 
L 430.666282 63.911989 
L 431.610466 61.693394 
L 432.55465 69.215062 
L 434.443018 72.672355 
L 435.387202 64.989472 
L 437.27557 58.597992 
L 438.219754 60.826489 
L 439.163938 61.364924 
L 440.108122 63.962152 
L 441.052306 62.722628 
L 441.99649 61.933543 
L 442.940674 63.369051 
L 443.884858 67.378251 
L 444.829042 72.743653 
L 445.773226 71.105608 
L 446.71741 72.124942 
L 447.661594 70.424308 
L 448.605778 64.683014 
L 449.549962 57.625657 
L 450.494146 57.352867 
L 451.43833 67.355673 
L 452.382514 68.995537 
L 453.326698 60.733616 
L 454.270882 57.547625 
L 456.15925 70.819816 
L 457.103434 74.331039 
L 458.047618 65.706011 
L 458.991802 70.039181 
L 459.935987 62.680163 
L 460.880171 73.045715 
L 461.824355 65.12004 
L 462.768539 66.691518 
L 463.712723 64.810173 
L 464.656907 64.13678 
L 465.601091 67.112167 
L 466.545275 60.892341 
L 467.489459 66.529638 
L 468.433643 67.318739 
L 469.377827 74.230204 
L 470.322011 69.546816 
L 471.266195 65.953889 
L 472.210379 66.404866 
L 473.154563 72.646817 
L 474.098747 75.729485 
L 475.042931 61.841538 
L 475.987115 55.533407 
L 476.931299 53.830808 
L 477.875483 55.258018 
L 478.819667 61.211691 
L 479.763851 57.459488 
L 480.708035 71.722927 
L 481.652219 67.558466 
L 482.596403 72.074417 
L 483.540587 67.785294 
L 484.484771 70.864816 
L 485.428955 70.052997 
L 486.373139 64.523012 
L 488.261507 70.397275 
L 489.205691 77.389049 
L 490.149875 77.310073 
L 491.094059 73.119269 
L 492.038243 69.45328 
L 492.982427 64.997577 
L 493.926611 67.184616 
L 495.814979 74.523152 
L 496.759163 72.662379 
L 497.703347 74.40337 
L 498.647531 69.93987 
L 499.591715 67.569828 
L 501.480083 63.809455 
L 502.424267 68.538416 
L 503.368451 70.469198 
L 504.312635 66.044372 
L 505.256819 57.122645 
L 506.201003 55.601927 
L 508.089371 71.757525 
L 509.033555 74.382785 
L 509.977739 75.96111 
L 510.921923 71.310928 
L 511.866107 65.952054 
L 512.810291 64.101802 
L 513.754475 69.669745 
L 514.698659 61.364851 
L 515.642843 54.45314 
L 516.587027 50.470774 
L 517.531211 59.47488 
L 518.475395 58.686572 
L 519.419579 63.526017 
L 520.363763 63.522352 
L 521.307947 72.270163 
L 522.252131 69.696497 
L 523.196316 68.55181 
L 524.1405 69.603488 
L 525.084684 63.438014 
L 526.028868 63.91812 
L 526.973052 64.646581 
L 527.917236 68.254613 
L 528.86142 65.896141 
L 529.805604 55.504887 
L 530.749788 56.476556 
L 531.693972 58.562977 
L 532.638156 70.795639 
L 533.58234 78.856519 
L 534.526524 81.132227 
L 535.470708 71.695739 
L 535.470708 71.695739 
" clip-path="url(#p4114a19265)" style="fill: none; stroke: #008000; stroke-width: 1.5; stroke-linecap: square"/>
   </g>
   <g id="line2d_11">
    <path d="M 85.098605 69.6958 
L 86.039117 66.43872 
L 87.920139 65.718027 
L 88.860651 64.432368 
L 89.801162 62.427023 
L 90.741674 60.780327 
L 92.622697 61.202694 
L 93.563208 64.053947 
L 95.444231 74.689308 
L 97.325254 80.760499 
L 98.265765 85.086061 
L 99.206277 90.331282 
L 100.146788 94.615868 
L 102.027811 89.274868 
L 102.968323 85.374934 
L 103.908834 80.958107 
L 104.849346 77.120266 
L 106.730368 73.266637 
L 109.551903 65.631342 
L 111.432926 66.10557 
L 112.373437 69.204691 
L 113.313949 73.380878 
L 114.25446 76.693553 
L 116.135483 77.288809 
L 117.075994 74.306158 
L 118.016506 70.597219 
L 118.957017 67.388707 
L 120.83804 63.265401 
L 123.659575 54.622612 
L 125.540597 51.745556 
L 126.481109 54.940181 
L 129.302643 67.061429 
L 130.243155 70.934805 
L 133.064689 80.591587 
L 134.945712 85.930927 
L 135.886223 86.45798 
L 136.826735 86.831654 
L 137.767246 84.717401 
L 139.648269 75.307989 
L 141.529292 71.661106 
L 142.469803 69.154768 
L 144.350826 62.834681 
L 146.231849 58.553908 
L 147.172361 58.660423 
L 149.053384 63.298555 
L 150.934407 63.135285 
L 151.874918 63.442838 
L 152.815429 64.093868 
L 153.755941 65.002565 
L 155.636964 69.837259 
L 156.577475 71.71123 
L 157.517987 73.295786 
L 158.458498 74.309533 
L 160.339521 70.856399 
L 161.280032 71.084804 
L 162.220544 72.129029 
L 163.161055 72.840264 
L 165.042078 70.737334 
L 165.98259 65.941675 
L 167.863613 54.545283 
L 169.744635 48.24885 
L 172.56617 43.164609 
L 174.447193 40.218 
L 175.387704 43.381484 
L 179.14975 61.583082 
L 180.090261 62.893569 
L 181.030773 63.356859 
L 181.971284 64.152897 
L 183.852307 66.81218 
L 185.73333 67.881166 
L 186.673842 68.971185 
L 188.554864 72.75234 
L 190.435887 74.11926 
L 191.376399 74.007404 
L 193.257422 71.864215 
L 195.138445 72.744242 
L 196.078956 72.645758 
L 197.959979 70.981862 
L 199.841002 70.543033 
L 200.781513 70.524514 
L 202.662536 71.117144 
L 204.543559 70.769112 
L 205.48407 70.185977 
L 207.365093 68.392853 
L 209.246116 66.163818 
L 210.186628 65.806908 
L 212.067651 66.062553 
L 213.948674 65.618802 
L 214.889185 65.757531 
L 215.829696 66.134976 
L 216.770208 66.663129 
L 218.651231 69.450324 
L 219.591742 70.092201 
L 220.532254 70.372374 
L 221.472765 70.84732 
L 223.353788 72.695617 
L 224.294299 71.830206 
L 225.234811 70.43469 
L 226.175322 69.516519 
L 228.996857 70.081965 
L 229.937368 70.387633 
L 230.87788 70.038726 
L 232.758902 66.197955 
L 233.699414 66.0959 
L 234.639925 66.532339 
L 235.580437 66.703824 
L 237.46146 65.345993 
L 240.282994 64.078118 
L 242.164017 63.43395 
L 244.04504 63.839774 
L 246.866574 64.589375 
L 248.747597 63.992511 
L 249.688109 65.4864 
L 251.569131 72.402149 
L 253.450154 73.969959 
L 254.390666 75.856231 
L 256.271689 81.398252 
L 258.152712 91.039233 
L 259.093223 92.071476 
L 260.033734 90.012978 
L 260.974246 87.551842 
L 263.79578 75.396073 
L 265.676803 67.680345 
L 267.557826 57.76406 
L 268.498338 55.699226 
L 270.37936 55.620517 
L 272.260383 60.363888 
L 273.200895 60.611066 
L 274.141406 59.624813 
L 275.081918 59.101306 
L 276.962941 60.800087 
L 277.903452 60.647884 
L 278.843963 60.089431 
L 279.784475 59.80921 
L 281.665498 61.874993 
L 282.606009 64.23345 
L 283.546521 66.973325 
L 284.487032 69.109981 
L 286.368055 69.480836 
L 287.308566 70.492484 
L 289.189589 72.824532 
L 291.070612 74.466354 
L 292.011124 73.875702 
L 293.892147 72.148408 
L 295.77317 71.011637 
L 297.654192 68.483504 
L 298.594704 67.635159 
L 301.416238 67.308332 
L 305.178284 67.271509 
L 307.059307 70.389991 
L 307.999818 71.422151 
L 309.880841 72.284453 
L 312.702376 71.625786 
L 317.404933 70.129022 
L 318.345444 69.93106 
L 319.285956 70.036581 
L 321.166979 75.70223 
L 323.988513 86.93311 
L 325.869536 87.517194 
L 326.810047 87.996191 
L 327.750559 88.619471 
L 328.69107 89.042352 
L 330.572093 86.663943 
L 331.512605 81.646379 
L 333.393627 68.830636 
L 335.27465 60.299288 
L 336.215162 58.935284 
L 337.155673 58.451023 
L 338.096185 57.602889 
L 339.977208 53.959848 
L 340.917719 56.587441 
L 342.798742 64.544192 
L 344.679765 71.69765 
L 345.620276 72.411965 
L 346.560788 72.284073 
L 347.501299 72.644434 
L 349.382322 75.447476 
L 350.322834 75.194549 
L 352.203856 73.98515 
L 354.084879 73.162453 
L 355.965902 74.462583 
L 356.906414 74.540403 
L 358.787437 73.070246 
L 360.668459 73.196157 
L 361.608971 73.416988 
L 363.489994 74.34188 
L 365.371017 72.943566 
L 367.25204 71.348079 
L 368.192551 70.647806 
L 370.073574 70.096279 
L 371.014085 68.991257 
L 372.895108 65.52973 
L 374.776131 59.751401 
L 375.716643 58.315898 
L 376.657154 57.879774 
L 377.597666 57.727808 
L 379.478688 59.513422 
L 380.4192 60.667138 
L 382.300223 63.665983 
L 384.181246 68.180611 
L 385.121757 69.479556 
L 386.062269 70.207505 
L 387.00278 70.532132 
L 388.883803 66.713078 
L 389.824314 66.042949 
L 390.764826 65.899226 
L 391.705337 66.04453 
L 393.58636 68.282578 
L 394.526872 68.811996 
L 395.467383 69.189434 
L 396.407894 69.807088 
L 398.288917 72.218969 
L 399.229429 72.525037 
L 400.16994 72.576496 
L 401.110452 72.08201 
L 402.991475 68.806815 
L 404.872498 66.703286 
L 406.75352 64.576705 
L 407.694032 63.440602 
L 409.575055 62.038425 
L 410.515566 61.466903 
L 412.396589 60.967299 
L 415.218123 62.222896 
L 418.980169 62.332934 
L 419.920681 62.834145 
L 421.801704 64.895429 
L 423.682726 65.078248 
L 424.623238 65.404222 
L 426.504261 66.442767 
L 428.385284 67.177327 
L 431.206818 68.763374 
L 433.087841 69.410212 
L 434.028352 69.553796 
L 434.968864 69.544934 
L 435.909375 69.681696 
L 437.790398 71.493909 
L 440.611933 74.778885 
L 442.492955 77.914979 
L 444.373978 80.268725 
L 445.31449 81.154286 
L 447.195513 81.014672 
L 448.136024 80.462729 
L 450.017047 78.823862 
L 452.838581 75.780151 
L 454.719604 74.220412 
L 456.600627 73.507852 
L 459.422161 73.248133 
L 461.303184 72.820149 
L 463.184207 75.442016 
L 464.124719 75.42368 
L 466.005742 71.35439 
L 467.886765 63.732428 
L 468.827276 61.478153 
L 470.708299 61.015918 
L 472.589322 56.619596 
L 473.529833 56.085342 
L 475.410856 59.563623 
L 477.291879 61.841196 
L 478.23239 61.99007 
L 480.113413 59.594426 
L 481.994436 58.947338 
L 482.934948 58.984288 
L 484.815971 59.320281 
L 486.696993 62.429134 
L 487.637505 65.167771 
L 489.518528 72.01025 
L 491.399551 80.233474 
L 492.340062 83.042682 
L 493.280574 85.04472 
L 494.221085 86.721948 
L 496.102108 87.893467 
L 497.042619 86.057091 
L 503.6262 64.274656 
L 505.507222 61.304202 
L 506.447734 61.359245 
L 507.388245 61.945806 
L 508.328757 62.019858 
L 510.20978 59.440831 
L 511.150291 58.961091 
L 512.090803 58.701276 
L 513.031314 59.172935 
L 514.912337 63.062552 
L 515.852848 64.157674 
L 516.79336 65.048267 
L 517.733871 66.531013 
L 522.436429 79.649642 
L 525.257963 85.184161 
L 526.198474 87.139443 
L 527.138986 89.544085 
L 529.020009 95.082 
L 530.901032 91.794089 
L 531.841543 89.824422 
L 532.782054 87.466975 
L 532.782054 87.466975 
" clip-path="url(#p4114a19265)" style="fill: none; stroke: #000000; stroke-width: 1.5; stroke-linecap: square"/>
   </g>
   <g id="patch_3">
    <path d="M 62.58 101.94 
L 62.58 33.36 
" style="fill: none; stroke: #000000; stroke-width: 1.5; stroke-linejoin: miter; stroke-linecap: square"/>
   </g>
   <g id="patch_4">
    <path d="M 557.989313 101.94 
L 557.989313 33.36 
" style="fill: none; stroke: #000000; stroke-width: 1.5; stroke-linejoin: miter; stroke-linecap: square"/>
   </g>
   <g id="patch_5">
    <path d="M 62.58 101.94 
L 557.989313 101.94 
" style="fill: none; stroke: #000000; stroke-width: 1.5; stroke-linejoin: miter; stroke-linecap: square"/>
   </g>
   <g id="patch_6">
    <path d="M 62.58 33.36 
L 557.989313 33.36 
" style="fill: none; stroke: #000000; stroke-width: 1.5; stroke-linejoin: miter; stroke-linecap: square"/>
   </g>
   <g id="text_12">
    <!-- amygdala (13 neurons) -->
    <g transform="translate(181.823563 27.36) scale(0.22 -0.22)">
     <defs>
      <path id="DejaVuSans-79" d="M 2059 -325 
Q 1816 -950 1584 -1140 
Q 1353 -1331 966 -1331 
L 506 -1331 
L 506 -850 
L 844 -850 
Q 1081 -850 1212 -737 
Q 1344 -625 1503 -206 
L 1606 56 
L 191 3500 
L 800 3500 
L 1894 763 
L 2988 3500 
L 3597 3500 
L 2059 -325 
z
" transform="scale(0.015625)"/>
      <path id="DejaVuSans-67" d="M 2906 1791 
Q 2906 2416 2648 2759 
Q 2391 3103 1925 3103 
Q 1463 3103 1205 2759 
Q 947 2416 947 1791 
Q 947 1169 1205 825 
Q 1463 481 1925 481 
Q 2391 481 2648 825 
Q 2906 1169 2906 1791 
z
M 3481 434 
Q 3481 -459 3084 -895 
Q 2688 -1331 1869 -1331 
Q 1566 -1331 1297 -1286 
Q 1028 -1241 775 -1147 
L 775 -588 
Q 1028 -725 1275 -790 
Q 1522 -856 1778 -856 
Q 2344 -856 2625 -561 
Q 2906 -266 2906 331 
L 2906 616 
Q 2728 306 2450 153 
Q 2172 0 1784 0 
Q 1141 0 747 490 
Q 353 981 353 1791 
Q 353 2603 747 3093 
Q 1141 3584 1784 3584 
Q 2172 3584 2450 3431 
Q 2728 3278 2906 2969 
L 2906 3500 
L 3481 3500 
L 3481 434 
z
" transform="scale(0.015625)"/>
      <path id="DejaVuSans-75" d="M 544 1381 
L 544 3500 
L 1119 3500 
L 1119 1403 
Q 1119 906 1312 657 
Q 1506 409 1894 409 
Q 2359 409 2629 706 
Q 2900 1003 2900 1516 
L 2900 3500 
L 3475 3500 
L 3475 0 
L 2900 0 
L 2900 538 
Q 2691 219 2414 64 
Q 2138 -91 1772 -91 
Q 1169 -91 856 284 
Q 544 659 544 1381 
z
M 1991 3584 
L 1991 3584 
z
" transform="scale(0.015625)"/>
     </defs>
     <use xlink:href="#DejaVuSans-61"/>
     <use xlink:href="#DejaVuSans-6d" x="61.279297"/>
     <use xlink:href="#DejaVuSans-79" x="158.691406"/>
     <use xlink:href="#DejaVuSans-67" x="217.871094"/>
     <use xlink:href="#DejaVuSans-64" x="281.347656"/>
     <use xlink:href="#DejaVuSans-61" x="344.824219"/>
     <use xlink:href="#DejaVuSans-6c" x="406.103516"/>
     <use xlink:href="#DejaVuSans-61" x="433.886719"/>
     <use xlink:href="#DejaVuSans-20" x="495.166016"/>
     <use xlink:href="#DejaVuSans-28" x="526.953125"/>
     <use xlink:href="#DejaVuSans-31" x="565.966797"/>
     <use xlink:href="#DejaVuSans-33" x="629.589844"/>
     <use xlink:href="#DejaVuSans-20" x="693.212891"/>
     <use xlink:href="#DejaVuSans-6e" x="725"/>
     <use xlink:href="#DejaVuSans-65" x="788.378906"/>
     <use xlink:href="#DejaVuSans-75" x="849.902344"/>
     <use xlink:href="#DejaVuSans-72" x="913.28125"/>
     <use xlink:href="#DejaVuSans-6f" x="952.144531"/>
     <use xlink:href="#DejaVuSans-6e" x="1013.326172"/>
     <use xlink:href="#DejaVuSans-73" x="1076.705078"/>
     <use xlink:href="#DejaVuSans-29" x="1128.804688"/>
    </g>
   </g>
  </g>
 </g>
 <defs>
  <clipPath id="p4114a19265">
   <rect x="62.58" y="33.36" width="495.409313" height="68.58"/>
  </clipPath>
 </defs>
</svg>
